<?xml version="1.0" standalone="no"?>
<!DOCTYPE svg PUBLIC "-//W3C//DTD SVG 1.1//EN" "http://www.w3.org/Graphics/SVG/1.1/DTD/svg11.dtd" >
<svg>
<metadata>
Created by FontForge 20120731 at Mon Aug 29 20:30:11 2016
 By ,,,
Copyright (c) 2007 by Process Type Foundry. All rights reserved.
</metadata>
<defs>
<font id="Seravek-Medium" horiz-adv-x="552" >
  <font-face 
    font-family="Seravek Light"
    font-weight="600"
    font-stretch="normal"
    units-per-em="1000"
    panose-1="2 11 7 3 5 0 0 2 0 4"
    ascent="750"
    descent="-250"
    x-height="487"
    cap-height="666"
    bbox="-95 -300 1361 953"
    underline-thickness="91"
    underline-position="-114"
    unicode-range="U+0020-FB04"
  />
<missing-glyph horiz-adv-x="656" 
d="M95 0v666h466v-666h-466zM512 616h-340l340 -527v527zM144 576v-527h339z" />
    <glyph glyph-name="f_f" unicode="ff" horiz-adv-x="681" 
d="M553 0h-136v380h-182v-380h-136v380h-79v107h79v17q0 106 52.5 159t146.5 53q53 0 82 -10l-9 -105q-19 6 -47 6q-89 0 -89 -97v-23h182v17q0 106 53 159t147 53q53 0 89 -13l-8 -103q-22 7 -55 7q-46 0 -68 -23t-22 -74v-23h119v-107h-119v-380z" />
    <glyph glyph-name="fi" unicode="fi" horiz-adv-x="603" 
d="M538 0h-137v380h-166v-380h-136v380h-79v107h79v14q0 215 218 215q84 0 137 -25l-15 -98q-54 18 -106 18q-51 0 -74.5 -24.5t-23.5 -75.5v-24h303v-487z" />
    <glyph glyph-name="fl" unicode="fl" horiz-adv-x="652" 
d="M549 706v-565q0 -46 42 -46q22 0 38 4l5 -96q-38 -12 -91 -12q-69 0 -100 39t-31 98v476q-37 8 -76 8q-53 0 -77 -26t-24 -81v-18h111v-107h-111v-380h-136v380h-79v107h79v16q0 102 53 157.5t158 55.5q47 0 102 -10h137z" />
    <glyph glyph-name="f_f_i" unicode="ffi" horiz-adv-x="921" 
d="M417 487v14q0 215 218 215q84 0 137 -25l-15 -98q-54 18 -106 18q-51 0 -74.5 -24.5t-23.5 -75.5v-24h303v-487h-137v380h-166v-380h-136v380h-182v-380h-136v380h-79v107h79v17q0 106 52.5 159t146.5 53q53 0 82 -10l-9 -105q-19 6 -47 6q-89 0 -89 -97v-23h182z" />
    <glyph glyph-name="f_f_l" unicode="ffl" horiz-adv-x="970" 
d="M867 706v-565q0 -46 42 -46q22 0 38 4l5 -96q-38 -12 -91 -12q-69 0 -100 39t-31 98v476q-37 8 -76 8q-53 0 -77 -26t-24 -81v-18h111v-107h-111v-380h-136v380h-182v-380h-136v380h-79v107h79v17q0 106 52.5 159t146.5 53q53 0 82 -10l-9 -105q-19 6 -47 6
q-89 0 -89 -97v-23h182v16q0 102 53 157.5t158 55.5q47 0 102 -10h137z" />
    <glyph glyph-name="f_b" unicode="fb" horiz-adv-x="919" 
d="M613 -10q-108 0 -201 44v570q-37 8 -76 8q-53 0 -77 -26t-24 -81v-18h111v-107h-111v-380h-136v380h-79v107h79v16q0 102 53 157.5t158 55.5q47 0 102 -10h137v-259q50 50 129 50q94 0 151 -69.5t57 -179.5q0 -117 -70.5 -187.5t-202.5 -70.5zM640 391q-52 0 -91 -33
v-253q24 -12 66 -12q69 0 101.5 41.5t32.5 111.5q0 66 -27.5 105.5t-81.5 39.5z" />
    <glyph glyph-name="f_f_b" unicode="ffb" horiz-adv-x="1237" 
d="M867 706v-259q50 50 129 50q94 0 151 -69.5t57 -179.5q0 -117 -70.5 -187.5t-202.5 -70.5q-108 0 -201 44v570q-37 8 -76 8q-53 0 -77 -26t-24 -81v-18h111v-107h-111v-380h-136v380h-182v-380h-136v380h-79v107h79v17q0 106 52.5 159t146.5 53q53 0 82 -10l-9 -105
q-19 6 -47 6q-89 0 -89 -97v-23h182v16q0 102 53 157.5t158 55.5q47 0 102 -10h137zM958 391q-52 0 -91 -33v-253q24 -12 66 -12q69 0 101.5 41.5t32.5 111.5q0 66 -27.5 105.5t-81.5 39.5z" />
    <glyph glyph-name="f_h" unicode="fh" horiz-adv-x="922" 
d="M549 0h-137v604q-37 8 -76 8q-53 0 -77 -26t-24 -81v-18h111v-107h-111v-380h-136v380h-79v107h79v16q0 102 53 157.5t158 55.5q47 0 102 -10h137v-278q48 69 137 69t132.5 -69t43.5 -175v-253h-137v254q0 134 -88 134q-54 0 -88 -47v-341z" />
    <glyph glyph-name="f_f_h" unicode="ffh" horiz-adv-x="1240" 
d="M867 0h-137v604q-37 8 -76 8q-53 0 -77 -26t-24 -81v-18h111v-107h-111v-380h-136v380h-182v-380h-136v380h-79v107h79v17q0 106 52.5 159t146.5 53q53 0 82 -10l-9 -105q-19 6 -47 6q-89 0 -89 -97v-23h182v16q0 102 53 157.5t158 55.5q47 0 102 -10h137v-278
q48 69 137 69t132.5 -69t43.5 -175v-253h-137v254q0 134 -88 134q-54 0 -88 -47v-341z" />
    <glyph glyph-name="f_j" unicode="fj" horiz-adv-x="603" 
d="M401 380h-166v-380h-136v380h-79v107h79v14q0 215 218 215q84 0 137 -25l-15 -98q-54 18 -106 18q-51 0 -74.5 -24.5t-23.5 -75.5v-24h303v-371q0 -107 -32.5 -182t-114.5 -150l-89 78q52 56 75.5 110t23.5 129v279z" />
    <glyph glyph-name="f_f_j" unicode="ffj" horiz-adv-x="921" 
d="M417 487v14q0 215 218 215q84 0 137 -25l-15 -98q-54 18 -106 18q-51 0 -74.5 -24.5t-23.5 -75.5v-24h303v-371q0 -107 -32.5 -182t-114.5 -150l-89 78q52 56 75.5 110t23.5 129v279h-166v-380h-136v380h-182v-380h-136v380h-79v107h79v17q0 106 52.5 159t146.5 53
q53 0 82 -10l-9 -105q-19 6 -47 6q-89 0 -89 -97v-23h182z" />
    <glyph glyph-name="f_k" unicode="fk" horiz-adv-x="885" 
d="M549 0h-137v604q-37 8 -76 8q-53 0 -77 -26t-24 -81v-18h111v-107h-111v-380h-136v380h-79v107h79v16q0 102 53 157.5t158 55.5q47 0 102 -10h137v-448l162 229h152l-173 -240l197 -247h-163l-175 237v-237z" />
    <glyph glyph-name="f_f_k" unicode="ffk" horiz-adv-x="1203" 
d="M867 0h-137v604q-37 8 -76 8q-53 0 -77 -26t-24 -81v-18h111v-107h-111v-380h-136v380h-182v-380h-136v380h-79v107h79v17q0 106 52.5 159t146.5 53q53 0 82 -10l-9 -105q-19 6 -47 6q-89 0 -89 -97v-23h182v16q0 102 53 157.5t158 55.5q47 0 102 -10h137v-448l162 229
h152l-173 -240l197 -247h-163l-175 237v-237z" />
    <glyph glyph-name=".notdef" horiz-adv-x="656" 
d="M95 0v666h466v-666h-466zM512 616h-340l340 -527v527zM144 576v-527h339z" />
    <glyph glyph-name=".null" horiz-adv-x="0" 
 />
    <glyph glyph-name="nonmarkingreturn" horiz-adv-x="333" 
 />
    <glyph glyph-name="space" unicode=" " horiz-adv-x="215" 
 />
    <glyph glyph-name="exclam" unicode="!" horiz-adv-x="328" 
d="M236 459l-32 -249h-80l-32 249v207h144v-207zM85 72q0 33 21.5 56t57.5 23t57.5 -23t21.5 -56q0 -34 -21.5 -57t-57.5 -23t-57.5 23t-21.5 57z" />
    <glyph glyph-name="quotedbl" unicode="&#x22;" horiz-adv-x="485" 
d="M193 417h-108l-15 249h138zM400 417h-108l-15 249h138z" />
    <glyph glyph-name="numbersign" unicode="#" horiz-adv-x="696" 
d="M400 0l17 161h-167l-17 -161h-107l17 161h-98v90h107l18 172h-105v90h115l17 153h107l-17 -153h167l17 153h107l-17 -153h95v-90h-104l-18 -172h97v-90h-107l-17 -161h-107zM277 423l-18 -172h168l18 172h-168z" />
    <glyph glyph-name="dollar" unicode="$" horiz-adv-x="506" 
d="M307 -120h-122v122q-74 9 -135 37l24 103q71 -34 155 -34q44 0 71 19.5t27 56.5q0 34 -24 56t-80 49q-87 42 -126 85t-39 114q0 69 37 112t100 56v130h122v-123q64 -5 123 -35l-23 -104q-74 34 -140 34q-85 0 -85 -65q0 -29 20.5 -47t76.5 -47q31 -16 44 -23.5t43 -28.5
t44.5 -39t27.5 -47t13 -62q0 -71 -41.5 -121t-112.5 -69v-129z" />
    <glyph glyph-name="percent" unicode="%" horiz-adv-x="982" 
d="M418 480q0 -80 -48 -138.5t-136 -58.5t-136 58.5t-48 138.5t48 139t136 59t136 -59t48 -139zM308 480q0 49 -18.5 79t-55.5 30t-55.5 -30t-18.5 -79t18.5 -78.5t55.5 -29.5t55.5 29.5t18.5 78.5zM293 37l305 641l98 -47l-306 -643zM937 185q0 -80 -48 -138.5t-136 -58.5
t-136 58.5t-48 138.5t48 139t136 59t136 -59t48 -139zM827 185q0 49 -18.5 79t-55.5 30t-55.5 -30t-18.5 -79t18.5 -78.5t55.5 -29.5t55.5 29.5t18.5 78.5z" />
    <glyph glyph-name="ampersand" unicode="&#x26;" horiz-adv-x="743" 
d="M725 84l-59 -96q-65 38 -161 101q-107 -101 -246 -101q-96 0 -155 44t-59 121q0 56 35 98.5t96 82.5q-98 86 -98 172q0 77 54.5 124.5t148.5 47.5q82 0 135.5 -39.5t53.5 -109.5q0 -32 -10.5 -60t-32.5 -53t-37.5 -39t-45.5 -37q79 -62 144 -104q38 53 88 157l100 -49
q-48 -106 -97 -169q28 -18 83 -52t63 -39zM272 89q78 0 144 61q-84 56 -160 118q-37 -29 -55.5 -52t-18.5 -53q0 -35 22.5 -54.5t67.5 -19.5zM202 507q0 -53 61 -106q31 24 45.5 36.5t28.5 35.5t14 48q0 28 -20.5 44.5t-51.5 16.5q-37 0 -57 -19.5t-20 -55.5z" />
    <glyph glyph-name="quotesingle" unicode="'" horiz-adv-x="278" 
d="M193 417h-108l-15 249h138z" />
    <glyph glyph-name="parenleft" unicode="(" horiz-adv-x="363" 
d="M213 280q0 -203 110 -413l-95 -53q-153 219 -153 466t153 466l95 -53q-110 -210 -110 -413z" />
    <glyph glyph-name="parenright" unicode=")" horiz-adv-x="363" 
d="M150 280q0 203 -110 413l95 53q153 -219 153 -466t-153 -466l-95 53q110 210 110 413z" />
    <glyph glyph-name="asterisk" unicode="*" horiz-adv-x="411" 
d="M76 649l99 -58v115h61v-115l99 58l31 -53l-99 -57l99 -57l-30 -54l-100 58v-114h-61v114l-101 -58l-29 54l98 57l-98 57z" />
    <glyph glyph-name="plus" unicode="+" horiz-adv-x="594" 
d="M532 272h-176v-194h-118v194h-176v102h176v194h118v-194h176v-102z" />
    <glyph glyph-name="comma" unicode="," horiz-adv-x="288" 
d="M121 -159l-89 47q53 121 57 244l134 -11q-9 -161 -102 -280z" />
    <glyph glyph-name="hyphen" unicode="-" horiz-adv-x="384" 
d="M324 207h-264v111h264v-111z" />
    <glyph glyph-name="period" unicode="." horiz-adv-x="278" 
d="M60 72q0 33 21.5 56t57.5 23t57.5 -23t21.5 -56q0 -34 -21.5 -57t-57.5 -23t-57.5 23t-21.5 57z" />
    <glyph glyph-name="slash" unicode="/" horiz-adv-x="446" 
d="M40 -57l252 764l119 -41l-252 -766z" />
    <glyph glyph-name="zero" unicode="0" horiz-adv-x="614" 
d="M569 333q0 -158 -67 -251.5t-195 -93.5t-195 93.5t-67 251.5t67 251.5t195 93.5t195 -93.5t67 -251.5zM431 333q0 235 -124 235t-124 -235t124 -235t124 235z" />
    <glyph glyph-name="one" unicode="1" horiz-adv-x="380" 
d="M305 0h-138v518l-124 -45l-33 108l213 85h82v-666z" />
    <glyph glyph-name="two" unicode="2" horiz-adv-x="500" 
d="M88 532l-32 96q77 50 177 50q99 0 156.5 -53.5t57.5 -147.5q0 -74 -34.5 -135t-99.5 -125q-54 -52 -114 -106h254v-111h-414l-19 80q113 115 169 177q39 43 60 69t40.5 65.5t19.5 74.5q0 46 -27.5 73t-74.5 27q-65 0 -119 -34z" />
    <glyph glyph-name="three" unicode="3" horiz-adv-x="490" 
d="M445 181q0 -87 -67 -140t-168 -53q-94 0 -175 36l23 104q71 -31 136 -31q55 0 84 24t29 64q0 96 -150 96h-56v111h37q73 0 114 27t41 74q0 36 -25 55.5t-69 19.5q-64 0 -120 -28l-24 99q70 39 172 39q89 0 146.5 -44t57.5 -118q0 -117 -125 -170q61 -18 100 -60.5
t39 -104.5z" />
    <glyph glyph-name="four" unicode="4" horiz-adv-x="570" 
d="M543 170h-90v-170h-135v170h-269l-20 101l257 395h167v-390h90v-106zM318 276v265l-161 -265h161z" />
    <glyph glyph-name="five" unicode="5" horiz-adv-x="514" 
d="M474 201q0 -97 -73.5 -155t-183.5 -58q-96 0 -167 30l19 107q71 -27 140 -27q59 0 93 24.5t34 70.5q0 98 -151 98h-108v375h360v-112h-223v-154h21q106 -1 172.5 -52.5t66.5 -146.5z" />
    <glyph glyph-name="six" unicode="6" horiz-adv-x="550" 
d="M389 678l44 -102q-38 -20 -50.5 -26t-44 -24t-43.5 -28t-35 -29.5t-33.5 -36.5t-22.5 -40.5t-19 -50.5q50 55 135 55q87 0 141 -53t54 -142q0 -91 -65.5 -152t-159.5 -61q-117 0 -181 79.5t-64 185.5q0 154 89.5 260.5t254.5 164.5zM385 197q0 44 -25 69t-70 25
q-62 0 -107 -47q-1 -64 24.5 -107.5t79.5 -43.5q44 0 71 29.5t27 74.5z" />
    <glyph glyph-name="seven" unicode="7" horiz-adv-x="465" 
d="M426 666l19 -109l-255 -557h-137l260 556h-278v110h391z" />
    <glyph glyph-name="eight" unicode="8" horiz-adv-x="557" 
d="M279 678q93 0 150 -43t57 -118q0 -83 -117 -164q64 -40 99.5 -83t35.5 -103q0 -76 -65.5 -127.5t-159.5 -51.5q-103 0 -164.5 47.5t-61.5 128.5q0 56 36 97.5t99 83.5q-57 39 -87 77t-30 88q0 76 56.5 122t151.5 46zM374 167q0 35 -23 61.5t-72 57.5q-62 -46 -76 -64
q-20 -26 -20 -56q0 -37 25.5 -58t70.5 -21q42 0 68.5 22.5t26.5 57.5zM199 513q0 -29 17 -50t63 -52q39 27 59 50.5t20 51.5q0 31 -21.5 49t-57.5 18t-58 -19t-22 -48z" />
    <glyph glyph-name="nine" unicode="9" horiz-adv-x="555" 
d="M166 -12l-44 102q52 24 85.5 42.5t69.5 46.5t58.5 64t34.5 82q-50 -55 -135 -55q-87 0 -141 53t-54 142q0 96 63 154.5t162 58.5q81 0 138.5 -40.5t82 -98.5t24.5 -126q0 -304 -344 -425zM170 470q0 -45 26 -70t69 -25q62 0 107 47q1 64 -24.5 107.5t-79.5 43.5
q-44 0 -71 -28t-27 -75z" />
    <glyph glyph-name="colon" unicode=":" horiz-adv-x="278" 
d="M60 72q0 33 21.5 56t57.5 23t57.5 -23t21.5 -56q0 -34 -21.5 -57t-57.5 -23t-57.5 23t-21.5 57zM60 363q0 33 21.5 56t57.5 23t57.5 -23t21.5 -56q0 -34 -21.5 -57t-57.5 -23t-57.5 23t-21.5 57z" />
    <glyph glyph-name="semicolon" unicode=";" horiz-adv-x="282" 
d="M114 -159l-89 47q53 121 57 244l134 -11q-9 -161 -102 -280zM68 363q0 33 21.5 56t57.5 23t57.5 -23t21.5 -56q0 -34 -21.5 -57t-57.5 -23t-57.5 23t-21.5 57z" />
    <glyph glyph-name="less" unicode="&#x3c;" horiz-adv-x="591" 
d="M65 377l429 201l42 -95l-352 -160l352 -160l-42 -95l-429 201v108z" />
    <glyph glyph-name="equal" unicode="=" horiz-adv-x="610" 
d="M535 385h-460v101h460v-101zM535 160h-460v101h460v-101z" />
    <glyph glyph-name="greater" unicode="&#x3e;" horiz-adv-x="591" 
d="M97 578l429 -201v-108l-429 -201l-42 95l352 160l-352 160z" />
    <glyph glyph-name="question" unicode="?" horiz-adv-x="474" 
d="M434 500q0 -37 -14.5 -71t-34.5 -60t-57 -56t-66 -49.5t-77 -49.5l-64 92q12 9 38.5 28t37.5 27.5t31 24.5t29 26.5t20 25t15 28t4 27.5q0 35 -22.5 54t-61.5 19q-64 0 -131 -37l-36 100q79 49 186 49q88 0 145.5 -46.5t57.5 -131.5zM121 72q0 33 21.5 56t57.5 23
t57.5 -23t21.5 -56q0 -34 -21.5 -57t-57.5 -23t-57.5 23t-21.5 57z" />
    <glyph glyph-name="at" unicode="@" horiz-adv-x="847" 
d="M456 401q69 0 132 -38l-26 -147q-2 -14 -2 -21q0 -52 47 -52q43 0 70.5 44.5t27.5 116.5q0 99 -69.5 155t-181.5 56q-139 0 -221.5 -84t-82.5 -221q0 -123 71 -193t205 -70q127 0 250 55l22 -68q-123 -60 -277 -60q-168 0 -264.5 95.5t-96.5 235.5q0 170 109 277.5
t291 107.5q147 0 239.5 -80.5t92.5 -201.5q0 -104 -54 -169t-146 -65q-51 0 -82 25t-36 63q-47 -76 -112 -76q-46 0 -70.5 32t-24.5 80q0 88 49.5 145.5t139.5 57.5zM452 326q-43 0 -65.5 -34.5t-22.5 -82.5q0 -46 30 -46q34 0 71 64l17 94q-13 5 -30 5z" />
    <glyph glyph-name="A" unicode="A" horiz-adv-x="696" 
d="M424 666l253 -666h-145l-47 140h-274l-47 -140h-145l253 666h152zM448 251l-100 303l-100 -303h200z" />
    <glyph glyph-name="B" unicode="B" horiz-adv-x="582" 
d="M547 187q0 -86 -75.5 -136.5t-200.5 -50.5h-201v666h228q102 0 163 -43t61 -114q0 -119 -136 -161q74 -12 117.5 -53t43.5 -108zM409 197q0 44 -37 67.5t-99 23.5h-67v-182h74q63 0 96 24.5t33 66.5zM206 394h60q53 0 85.5 23.5t32.5 64.5q0 39 -27.5 58.5t-76.5 19.5
h-74v-166z" />
    <glyph glyph-name="C" unicode="C" horiz-adv-x="621" 
d="M392 678q115 0 189 -36l-20 -103q-71 27 -148 27q-114 0 -174.5 -59.5t-60.5 -173.5t60.5 -173.5t174.5 -59.5q77 0 148 27l20 -103q-74 -36 -189 -36q-168 0 -261 95.5t-93 249.5t93 249.5t261 95.5z" />
    <glyph glyph-name="D" unicode="D" horiz-adv-x="690" 
d="M70 0v666h201q174 0 280.5 -93.5t106.5 -239.5t-106.5 -239.5t-280.5 -93.5h-201zM274 112q109 0 176.5 59.5t67.5 161.5t-67.5 161.5t-176.5 59.5h-64v-442h64z" />
    <glyph glyph-name="E" unicode="E" horiz-adv-x="525" 
d="M70 0v666h400v-111h-260v-161h248v-111h-248v-172h263v-111h-403z" />
    <glyph glyph-name="F" unicode="F" horiz-adv-x="508" 
d="M210 0h-140v666h402v-112h-262v-176h250v-112h-250v-266z" />
    <glyph glyph-name="G" unicode="G" horiz-adv-x="688" 
d="M400 678q124 0 213 -41l-20 -109q-92 38 -182 38q-110 0 -172 -61.5t-62 -181.5q0 -229 232 -229q51 0 93 13v197h126v-272q-105 -44 -237 -44q-164 0 -259 92.5t-95 243.5q0 160 97 257t266 97z" />
    <glyph glyph-name="H" unicode="H" horiz-adv-x="696" 
d="M626 0h-140v280h-276v-280h-140v666h140v-270h276v270h140v-666z" />
    <glyph glyph-name="I" unicode="I" horiz-adv-x="290" 
d="M215 666v-666h-140v666h140z" />
    <glyph glyph-name="J" unicode="J" horiz-adv-x="288" 
d="M218 157q-1 -100 -28.5 -173.5t-105.5 -153.5l-97 76q48 55 69.5 106.5t21.5 121.5v532h140v-509z" />
    <glyph glyph-name="K" unicode="K" horiz-adv-x="625" 
d="M210 0h-140v666h140v-320l231 320h162l-245 -329l262 -337h-173l-237 327v-327z" />
    <glyph glyph-name="L" unicode="L" horiz-adv-x="481" 
d="M70 666h140v-554h248v-112h-388v666z" />
    <glyph glyph-name="M" unicode="M" horiz-adv-x="854" 
d="M427 236l204 430h126l49 -666h-137l-23 414l-147 -302h-144l-147 302l-23 -414h-137l49 666h126z" />
    <glyph glyph-name="N" unicode="N" horiz-adv-x="719" 
d="M649 0h-134l-311 436v-436h-134v666h134l311 -436v436h134v-666z" />
    <glyph glyph-name="O" unicode="O" horiz-adv-x="746" 
d="M708 333q0 -147 -90 -246t-245 -99t-245 99t-90 246t90 246t245 99t245 -99t90 -246zM373 98q94 0 144.5 65t50.5 170t-50.5 170t-144.5 65t-144.5 -65t-50.5 -170t50.5 -170t144.5 -65z" />
    <glyph glyph-name="P" unicode="P" horiz-adv-x="550" 
d="M534 456q0 -105 -83 -162t-214 -57h-27v-237h-140v666h182q126 0 204 -53.5t78 -156.5zM394 456q0 101 -143 101h-41v-211h34q71 0 110.5 28t39.5 82z" />
    <glyph glyph-name="Q" unicode="Q" horiz-adv-x="746" 
d="M708 333q0 -96 -40 -174.5t-114 -122.5l166 -107l-68 -100l-242 161q-22 -2 -37 -2q-155 0 -245 99t-90 246t90 246t245 99t245 -99t90 -246zM373 98q94 0 144.5 65t50.5 170t-50.5 170t-144.5 65t-144.5 -65t-50.5 -170t50.5 -170t144.5 -65z" />
    <glyph glyph-name="R" unicode="R" horiz-adv-x="622" 
d="M552 463q0 -140 -155 -194l225 -269h-174l-193 243h-45v-243h-140v666h199q128 0 205.5 -52t77.5 -151zM412 460q0 49 -38.5 73t-105.5 24h-58v-208h42q73 0 116.5 29t43.5 82z" />
    <glyph glyph-name="S" unicode="S" horiz-adv-x="527" 
d="M494 190q0 -88 -69 -145t-180 -57q-112 0 -205 45l29 107q86 -41 172 -41q51 0 82 21t31 59q0 34 -28 57.5t-94 49.5q-92 37 -137.5 84t-45.5 117q0 91 62 141t168 50q105 0 186 -42l-26 -107q-76 38 -152 38q-98 0 -98 -68q0 -32 20.5 -50.5t81.5 -44.5q46 -20 77.5 -37
t63 -42.5t47 -59t15.5 -75.5z" />
    <glyph glyph-name="T" unicode="T" horiz-adv-x="546" 
d="M19 666h508v-112h-184v-554h-140v554h-184v112z" />
    <glyph glyph-name="U" unicode="U" horiz-adv-x="686" 
d="M478 234v432h140v-426q0 -114 -73.5 -183t-201.5 -69t-201.5 69t-73.5 183v426h140v-432q0 -63 34.5 -98.5t100.5 -35.5t100.5 35.5t34.5 98.5z" />
    <glyph glyph-name="V" unicode="V" horiz-adv-x="616" 
d="M308 142l159 524h146l-224 -666h-162l-224 666h146z" />
    <glyph glyph-name="W" unicode="W" horiz-adv-x="978" 
d="M568 666l134 -489l118 489h142l-186 -666h-142l-145 522l-145 -522h-142l-186 666h142l118 -489l134 489h158z" />
    <glyph glyph-name="X" unicode="X" horiz-adv-x="636" 
d="M318 441l141 225h152l-219 -331l223 -335h-153l-144 227l-144 -227h-153l223 335l-219 331h152z" />
    <glyph glyph-name="Y" unicode="Y" horiz-adv-x="580" 
d="M290 373l137 293h153l-220 -417v-249h-140v249l-220 417h153z" />
    <glyph glyph-name="Z" unicode="Z" horiz-adv-x="567" 
d="M65 554v112h454v-112l-311 -442h317v-112h-472v112l311 442h-299z" />
    <glyph glyph-name="bracketleft" unicode="[" horiz-adv-x="383" 
d="M333 -176h-243v912h243v-104h-106v-704h106v-104z" />
    <glyph glyph-name="backslash" unicode="\" horiz-adv-x="446" 
d="M154 707l252 -764l-119 -43l-252 766z" />
    <glyph glyph-name="bracketright" unicode="]" horiz-adv-x="383" 
d="M293 -176h-243v104h106v704h-106v104h243v-912z" />
    <glyph glyph-name="asciicircum" unicode="^" horiz-adv-x="526" 
d="M329 666l147 -311l-105 -43l-108 244l-108 -244l-105 43l147 311h132z" />
    <glyph glyph-name="underscore" unicode="_" horiz-adv-x="442" 
d="M444 -250h-446v91h446v-91z" />
    <glyph glyph-name="grave" unicode="`" horiz-adv-x="434" 
d="M329 558h-113l-111 166h151z" />
    <glyph glyph-name="a" unicode="a" horiz-adv-x="525" 
d="M333 0v52q-64 -62 -153 -62q-63 0 -101.5 39t-38.5 99q0 65 44 101t124 41q34 3 120 5v17q0 96 -95 96q-70 0 -132 -32l-27 96q78 45 183 45q98 0 153 -54t55 -156v-287h-132zM230 83q54 0 98 35v77q-55 -4 -89 -9q-33 -5 -49.5 -17.5t-16.5 -37.5q0 -48 57 -48z" />
    <glyph glyph-name="b" unicode="b" horiz-adv-x="571" 
d="M64 34v672h137v-259q50 50 129 50q94 0 151 -69.5t57 -179.5q0 -117 -70.5 -187.5t-202.5 -70.5q-108 0 -201 44zM292 391q-52 0 -91 -33v-253q24 -12 66 -12q69 0 101.5 41.5t32.5 111.5q0 66 -27.5 105.5t-81.5 39.5z" />
    <glyph glyph-name="c" unicode="c" horiz-adv-x="456" 
d="M288 497q84 0 139 -29l-15 -98q-46 21 -104 21q-70 0 -105 -38.5t-35 -108.5t35 -109t105 -39q58 0 104 21l15 -98q-55 -29 -139 -29q-122 0 -189.5 71t-67.5 183t67.5 182.5t189.5 70.5z" />
    <glyph glyph-name="d" unicode="d" horiz-adv-x="572" 
d="M507 706v-706h-131v63q-54 -73 -150 -73q-84 0 -138.5 70t-54.5 178q0 122 71.5 190.5t179.5 68.5q49 0 86 -13v222h137zM273 96q55 0 97 45v242q-28 10 -66 10q-65 0 -99.5 -40t-34.5 -113q0 -66 25.5 -105t77.5 -39z" />
    <glyph glyph-name="e" unicode="e" horiz-adv-x="507" 
d="M273 497q95 0 147 -56.5t52 -153.5q0 -40 -10 -78h-289q5 -118 132 -118q79 0 142 29l17 -93q-74 -37 -177 -37q-120 0 -187 68.5t-67 182.5q0 116 64.5 186t175.5 70zM265 405q-41 0 -64 -28.5t-27 -75.5h167q5 48 -14.5 76t-61.5 28z" />
    <glyph glyph-name="f" unicode="f" horiz-adv-x="363" 
d="M235 0h-136v380h-79v107h79v17q0 106 53 159t147 53q53 0 89 -13l-8 -103q-22 7 -55 7q-46 0 -68 -23t-22 -74v-23h119v-107h-119v-380z" />
    <glyph glyph-name="g" unicode="g" horiz-adv-x="520" 
d="M313 487h190v-91h-77q17 -29 17 -67q0 -72 -55 -118.5t-149 -46.5q-9 0 -17 1q-11 -18 -11 -31q0 -30 54 -33l80 -5q160 -10 160 -128q0 -84 -83 -134t-197 -50q-93 0 -155 30.5t-62 93.5q0 82 126 112q-45 22 -45 68q0 57 68 88q-58 17 -90 57.5t-32 95.5q0 74 54.5 121
t149.5 47q37 0 74 -10zM307 -5l-111 9q-59 -32 -59 -70q0 -60 99 -60q57 0 99.5 20.5t42.5 55.5q0 40 -71 45zM239 251q38 0 61 21.5t23 57.5q0 37 -22.5 58.5t-61.5 21.5t-61.5 -21.5t-22.5 -58.5t23 -58t61 -21z" />
    <glyph glyph-name="h" unicode="h" horiz-adv-x="575" 
d="M202 0h-137v706h137v-278q48 69 137 69t132.5 -69t43.5 -175v-253h-137v254q0 134 -88 134q-54 0 -88 -47v-341z" />
    <glyph glyph-name="i" unicode="i" horiz-adv-x="267" 
d="M202 0h-137v487h137v-487zM54 629q0 33 22.5 56t56.5 23q35 0 57.5 -23t22.5 -56t-22.5 -56t-57.5 -23q-34 0 -56.5 23t-22.5 56z" />
    <glyph glyph-name="j" unicode="j" horiz-adv-x="274" 
d="M209 116q0 -107 -32.5 -182t-114.5 -150l-89 78q52 56 75.5 110t23.5 129v386h137v-371zM61 629q0 33 22.5 56t56.5 23q35 0 57.5 -23t22.5 -56t-22.5 -56t-57.5 -23q-34 0 -56.5 23t-22.5 56z" />
    <glyph glyph-name="k" unicode="k" horiz-adv-x="538" 
d="M202 0h-137v706h137v-448l162 229h152l-173 -240l197 -247h-163l-175 237v-237z" />
    <glyph glyph-name="l" unicode="l" horiz-adv-x="297" 
d="M195 706v-565q0 -46 42 -46q22 0 38 4l5 -96q-38 -12 -91 -12q-69 0 -100 39t-31 98v578h137z" />
    <glyph glyph-name="m" unicode="m" horiz-adv-x="874" 
d="M594 388q-54 0 -93 -56q7 -42 7 -79v-253h-137v254q0 69 -19.5 101.5t-63.5 32.5q-52 0 -86 -47v-341h-137v487h132v-66q47 76 142 76q93 0 137 -84q61 84 166 84q89 0 130.5 -66.5t41.5 -177.5v-253h-137v254q0 69 -19.5 101.5t-63.5 32.5z" />
    <glyph glyph-name="n" unicode="n" horiz-adv-x="575" 
d="M202 0h-137v487h132v-66q47 76 142 76q89 0 132.5 -69t43.5 -175v-253h-137v254q0 134 -88 134q-54 0 -88 -47v-341z" />
    <glyph glyph-name="o" unicode="o" horiz-adv-x="568" 
d="M535 243q0 -110 -66.5 -181.5t-184.5 -71.5t-184.5 71.5t-66.5 181.5t66.5 182t184.5 72t184.5 -72t66.5 -182zM398 243q0 66 -27.5 109t-86.5 43t-86.5 -43t-27.5 -109t27.5 -108.5t86.5 -42.5t86.5 42.5t27.5 108.5z" />
    <glyph glyph-name="p" unicode="p" horiz-adv-x="571" 
d="M65 -206v693h131v-62q52 72 148 72q88 0 141.5 -68t53.5 -180q0 -122 -71.5 -190.5t-179.5 -68.5q-47 0 -86 12v-208h-137zM298 390q-57 0 -96 -45v-241q24 -10 66 -10q68 0 101 41t33 113q0 64 -26.5 103t-77.5 39z" />
    <glyph glyph-name="q" unicode="q" horiz-adv-x="572" 
d="M507 452v-658h-137v245q-49 -49 -129 -49q-96 0 -152 68.5t-56 178.5q0 122 72.5 191t200.5 69q114 0 201 -45zM279 95q56 0 91 33v254q-28 11 -65 11q-65 0 -100 -40.5t-35 -114.5q0 -67 27 -105t82 -38z" />
    <glyph glyph-name="r" unicode="r" horiz-adv-x="379" 
d="M364 487v-117h-23q-97 0 -139 -62v-308h-137v487h132v-86q30 91 126 91q23 0 41 -5z" />
    <glyph glyph-name="s" unicode="s" horiz-adv-x="433" 
d="M405 152q0 -77 -58.5 -119.5t-150.5 -42.5q-88 0 -160 31l20 97q69 -28 135 -28q79 0 79 46q0 7 -1.5 12t-6 10t-8.5 8t-13 7.5t-14 6.5t-18 7t-19 8q-38 16 -57 25.5t-44.5 28t-36.5 43t-11 57.5q0 73 52.5 110.5t136.5 37.5q90 0 155 -34l-21 -97q-67 30 -124 30
q-64 0 -64 -34q0 -7 3 -12.5t6.5 -9.5t12 -8.5t14 -7t17.5 -7.5t18 -8q4 -2 26 -11t30.5 -13.5t28.5 -15.5t29.5 -21t21.5 -24.5t17 -32.5t5 -39z" />
    <glyph glyph-name="t" unicode="t" horiz-adv-x="401" 
d="M15 380v107h79v126h137v-126h146v-107h-146v-209q0 -37 13.5 -55.5t48.5 -18.5q39 0 74 11l10 -97q-51 -21 -121 -21q-83 0 -122.5 48.5t-39.5 128.5v213h-79z" />
    <glyph glyph-name="u" unicode="u" horiz-adv-x="567" 
d="M365 487h137v-487h-132v66q-50 -76 -142 -76q-60 0 -100 35t-56 88t-16 121v253h137v-254q0 -68 19.5 -101t64.5 -33q54 0 88 47v341z" />
    <glyph glyph-name="v" unicode="v" horiz-adv-x="499" 
d="M322 0h-145l-171 487h138l106 -359l105 359h138z" />
    <glyph glyph-name="w" unicode="w" horiz-adv-x="782" 
d="M458 487l107 -321l79 321h131l-140 -487h-128l-116 343l-116 -343h-128l-140 487h131l79 -321l107 321h134z" />
    <glyph glyph-name="x" unicode="x" horiz-adv-x="512" 
d="M504 0h-143l-105 154l-105 -154h-143l176 246l-171 241h142l101 -148l101 148h142l-171 -241z" />
    <glyph glyph-name="y" unicode="y" horiz-adv-x="493" 
d="M255 -206h-137l66 191l-179 502h142l103 -362l99 362h139z" />
    <glyph glyph-name="z" unicode="z" horiz-adv-x="471" 
d="M434 0h-385v99l225 288h-214v100h366v-100l-225 -287h233v-100z" />
    <glyph glyph-name="braceleft" unicode="{" horiz-adv-x="438" 
d="M279 105v-80q0 -51 19.5 -74t61.5 -23h33v-104h-40q-114 0 -162.5 52.5t-48.5 160.5v98q0 54 -21.5 76t-80.5 22v94q59 0 80.5 22t21.5 76v98q0 108 48.5 160.5t162.5 52.5h40v-104h-33q-42 0 -61.5 -23t-19.5 -74v-80q0 -71 -25 -112.5t-85 -62.5q60 -21 85 -62.5
t25 -112.5z" />
    <glyph glyph-name="bar" unicode="|" horiz-adv-x="313" 
d="M213 -250h-113v1000h113v-1000z" />
    <glyph glyph-name="braceright" unicode="}" horiz-adv-x="438" 
d="M159 25v80q0 71 25 112.5t85 62.5q-60 21 -85 62.5t-25 112.5v80q0 51 -19.5 74t-61.5 23h-33v104h40q114 0 162.5 -52.5t48.5 -160.5v-98q0 -54 21.5 -76t80.5 -22v-94q-59 0 -80.5 -22t-21.5 -76v-98q0 -108 -48.5 -160.5t-162.5 -52.5h-40v104h33q42 0 61.5 23
t19.5 74z" />
    <glyph glyph-name="asciitilde" unicode="~" horiz-adv-x="598" 
d="M457 434l96 -42q-28 -79 -58.5 -116t-84.5 -37q-39 0 -115 38q-64 32 -81 32q-24 0 -37 -16.5t-28 -54.5l-99 39q25 87 59 121.5t96 34.5q37 0 107 -36q6 -3 21.5 -11.5t22.5 -12t18.5 -7t20.5 -3.5q24 0 36 17t26 54z" />
    <glyph glyph-name="uni00A0" unicode="&#xa0;" horiz-adv-x="200" 
 />
    <glyph glyph-name="exclamdown" unicode="&#xa1;" horiz-adv-x="328" 
d="M204 279l32 -249v-207h-144v207l32 249h80zM85 417q0 34 21.5 57t57.5 23t57.5 -23t21.5 -57q0 -33 -21.5 -56t-57.5 -23t-57.5 23t-21.5 56z" />
    <glyph glyph-name="cent" unicode="&#xa2;" horiz-adv-x="508" 
d="M233 692h120v-119q63 -7 100 -27l-19 -98q-52 20 -111 20q-62 0 -96.5 -35t-34.5 -100t34.5 -100t96.5 -35q59 0 111 20l19 -98q-37 -20 -100 -27v-119h-120v125q-84 20 -131 81.5t-47 152.5t47 152.5t131 81.5v125z" />
    <glyph glyph-name="sterling" unicode="&#xa3;" horiz-adv-x="551" 
d="M446 361v-108h-167q-17 -89 -86 -144h289v-109h-406l-26 95q75 78 93 158h-92v108h103v83q0 114 55 174t159 60q87 0 143 -28l-18 -101q-49 20 -102 20t-76.5 -30.5t-23.5 -96.5v-81h155z" />
    <glyph glyph-name="currency" unicode="&#xa4;" horiz-adv-x="645" 
d="M585 534l-81 -82q39 -51 39 -119q0 -67 -39 -120l81 -81l-82 -78l-90 88q-37 -17 -90 -17q-52 0 -92 17l-88 -88l-83 78l81 81q-39 53 -39 120q0 68 39 119l-81 82l83 78l88 -89q42 18 92 18q51 0 90 -18l90 89zM429 333q0 51 -29.5 84t-76.5 33q-48 0 -77 -33t-29 -84
t29 -84t77 -33q47 0 76.5 33t29.5 84z" />
    <glyph glyph-name="yen" unicode="&#xa5;" horiz-adv-x="574" 
d="M504 132h-148v-132h-137v132h-149v95h149v22l-27 60h-122v96h82l-112 261h143l104 -292l104 292h143l-111 -261h81v-96h-122l-26 -60v-22h148v-95z" />
    <glyph glyph-name="brokenbar" unicode="&#xa6;" horiz-adv-x="313" 
d="M213 750v-393h-113v393h113zM213 -250h-113v393h113v-393z" />
    <glyph glyph-name="section" unicode="&#xa7;" horiz-adv-x="621" 
d="M364 716q85 0 135 -20l-12 -77q-45 16 -102 16q-43 0 -68.5 -21t-25.5 -62q0 -36 22.5 -64t84.5 -81q41 -35 65 -58.5t54 -60.5t44.5 -77t14.5 -85q0 -121 -96.5 -196.5t-226.5 -75.5q-77 0 -137 23l14 77q55 -19 119 -19q47 0 73 22t26 61q0 24 -15 48.5t-32 41.5
t-54 49q-106 93 -149 156t-43 146q0 118 88 187.5t221 69.5zM222 603q-66 -45 -66 -134q0 -54 30 -100t89 -100q4 -4 34 -30.5t39 -35.5t32 -34t31.5 -42t17 -41.5t8.5 -49.5q0 -35 -14 -63q58 56 58 131q0 42 -21.5 83.5t-46 67t-67.5 63.5q-82 71 -114 115t-32 104
q0 42 22 66z" />
    <glyph glyph-name="dieresis" unicode="&#xa8;" horiz-adv-x="540" 
d="M105 632q0 28 19 48t49 20t49 -20t19 -48q0 -29 -19 -48.5t-49 -19.5t-49 19.5t-19 48.5zM299 632q0 28 19 48t49 20t49 -20t19 -48q0 -29 -19 -48.5t-49 -19.5t-49 19.5t-19 48.5z" />
    <glyph glyph-name="copyright" unicode="&#xa9;" horiz-adv-x="818" 
d="M60 333q0 145 98 245t251 100q152 0 250.5 -100t98.5 -245t-98.5 -245t-250.5 -100q-153 0 -251 100t-98 245zM711 333q0 125 -83 213.5t-219 88.5t-219 -88.5t-83 -213.5t83 -213.5t219 -88.5t219 88.5t83 213.5zM431 529q65 0 105 -20l-11 -70q-37 13 -81 13
q-58 0 -88.5 -30.5t-30.5 -88.5t30.5 -88.5t88.5 -30.5q44 0 81 13l11 -70q-40 -20 -105 -20q-93 0 -146.5 55t-53.5 141t53.5 141t146.5 55z" />
    <glyph glyph-name="ordfeminine" unicode="&#xaa;" horiz-adv-x="489" 
d="M70 163v94h349v-94h-349zM288 321v36q-44 -44 -108 -44q-46 0 -73.5 26.5t-27.5 73.5q0 89 112 99q33 3 94 5v10q0 60 -64 60q-51 0 -94 -23l-20 81q50 31 136 31q77 0 117 -41t40 -115v-199h-112zM285 406v51q-26 -2 -55 -6q-40 -6 -40 -34q0 -31 36 -31q31 0 59 20z
" />
    <glyph glyph-name="guillemotleft" unicode="&#xab;" horiz-adv-x="624" 
d="M303 385l-121 -144l121 -144l-87 -69l-176 213l176 213zM561 385l-121 -144l121 -144l-87 -69l-176 213l176 213z" />
    <glyph glyph-name="logicalnot" unicode="&#xac;" horiz-adv-x="605" 
d="M535 374v-296h-118v194h-352v102h470z" />
    <glyph glyph-name="registered" unicode="&#xae;" horiz-adv-x="556" 
d="M50 457q0 92 63.5 156.5t164.5 64.5t164.5 -64.5t63.5 -156.5t-63.5 -157t-164.5 -65t-164.5 65t-63.5 157zM90 457q0 -80 52 -134t136 -54t136 54t52 134t-52 133.5t-136 53.5t-136 -53.5t-52 -133.5zM369 507q0 -46 -46 -63l69 -87h-67l-59 78h-9v-78h-55v213h87
q36 0 58 -17t22 -46zM314 502q0 25 -33 25h-24v-54h14q43 0 43 29z" />
    <glyph glyph-name="macron" unicode="&#xaf;" horiz-adv-x="511" 
d="M105 577v104h301v-104h-301z" />
    <glyph glyph-name="degree" unicode="&#xb0;" horiz-adv-x="399" 
d="M60 547q0 56 39 93.5t100 37.5q62 0 101 -37.5t39 -93.5t-39.5 -93.5t-100.5 -37.5t-100 37.5t-39 93.5zM140 547q0 -29 16 -46.5t43 -17.5q28 0 44 17.5t16 46.5q0 30 -16 47.5t-44 17.5q-27 0 -43 -17.5t-16 -47.5z" />
    <glyph glyph-name="plusminus" unicode="&#xb1;" horiz-adv-x="605" 
d="M538 320h-177v-157h-117v157h-177v101h177v161h117v-161h177v-101zM538 0h-471v100h471v-100z" />
    <glyph glyph-name="twosuperior" unicode="&#xb2;" horiz-adv-x="374" 
d="M70 714l-23 83q58 34 136 34q67 0 110 -36t43 -96q0 -49 -27 -85.5t-79 -74.5q-37 -26 -40 -28h149v-91h-294l-20 70q77 62 113 93q3 2 14.5 12.5t16 14.5t14.5 13.5t14.5 16t10.5 15.5t8.5 17.5t2.5 17.5q0 49 -59 49q-44 0 -90 -25z" />
    <glyph glyph-name="threesuperior" unicode="&#xb3;" horiz-adv-x="363" 
d="M328 531q0 -56 -47.5 -88.5t-124.5 -32.5q-71 0 -123 25l18 80q44 -19 93 -19q68 0 68 41q0 43 -69 43h-66v85h55q70 0 70 44q0 36 -53 36q-44 0 -87 -19l-18 79q56 26 129 26q64 0 104 -27.5t40 -76.5q0 -72 -76 -98q87 -25 87 -98z" />
    <glyph glyph-name="acute" unicode="&#xb4;" horiz-adv-x="434" 
d="M218 558h-113l73 166h151z" />
    <glyph glyph-name="mu" unicode="&#xb5;" horiz-adv-x="609" 
d="M65 -206v693h137v-254q0 -134 83 -134q51 0 89 47v341h137v-348q0 -28 10 -40.5t37 -12.5h16v-80q-36 -13 -76 -13q-93 0 -116 81q-51 -84 -143 -84q-56 0 -91 37q54 -64 54 -154v-79h-137z" />
    <glyph glyph-name="paragraph" unicode="&#xb6;" horiz-adv-x="598" 
d="M528 -140h-104v718h-104v-426q-117 0 -193.5 69t-76.5 187q0 115 77 186.5t192 71.5h209v-806z" />
    <glyph glyph-name="periodcentered" unicode="&#xb7;" horiz-adv-x="278" 
d="M60 248q0 33 21.5 56t57.5 23t57.5 -23t21.5 -56q0 -34 -21.5 -57t-57.5 -23t-57.5 23t-21.5 57z" />
    <glyph glyph-name="cedilla" unicode="&#xb8;" horiz-adv-x="391" 
d="M286 -117q0 -45 -48 -70t-124 -29l-9 67q71 8 71 34q0 12 -12 19.5t-24 9.5t-33 5l31 81h71l-14 -41q41 -4 66 -23t25 -53z" />
    <glyph glyph-name="onesuperior" unicode="&#xb9;" horiz-adv-x="309" 
d="M249 420h-117v281l-90 -28l-24 92l151 56h80v-401z" />
    <glyph glyph-name="ordmasculine" unicode="&#xba;" horiz-adv-x="508" 
d="M77 163v94h355v-94h-355zM448 494q0 -77 -52 -129t-142 -52t-142 51.5t-52 129.5t51.5 130t142.5 52q90 0 142 -52t52 -130zM334 494q0 44 -21 70.5t-59 26.5t-59 -26.5t-21 -70.5t21 -70t59 -26t59 26t21 70z" />
    <glyph glyph-name="guillemotright" unicode="&#xbb;" horiz-adv-x="624" 
d="M442 241l-121 144l87 69l176 -213l-176 -213l-87 69zM184 241l-121 144l87 69l176 -213l-176 -213l-87 69z" />
    <glyph glyph-name="onequarter" unicode="&#xbc;" horiz-adv-x="906" 
d="M276 265h-117v281l-90 -28l-24 92l151 56h80v-401zM222 36l344 642l88 -48l-344 -642zM866 93h-61v-93h-108v93h-179l-21 75l188 233h120v-226h61v-82zM697 175v127l-100 -127h100z" />
    <glyph glyph-name="onehalf" unicode="&#xbd;" horiz-adv-x="946" 
d="M276 265h-117v281l-90 -28l-24 92l151 56h80v-401zM222 36l344 642l88 -48l-344 -642zM617 294l-23 83q58 34 136 34q67 0 110 -36t43 -96q0 -49 -27 -85.5t-79 -74.5q-37 -26 -40 -28h149v-91h-294l-20 70q77 62 113 93q3 2 14.5 12.5t16 14.5t14.5 13.5t14.5 16
t10.5 15.5t8.5 17.5t2.5 17.5q0 49 -59 49q-44 0 -90 -25z" />
    <glyph glyph-name="threequarters" unicode="&#xbe;" horiz-adv-x="936" 
d="M355 376q0 -56 -47.5 -88.5t-124.5 -32.5q-71 0 -123 25l18 80q44 -19 93 -19q68 0 68 41q0 43 -69 43h-66v85h55q70 0 70 44q0 36 -53 36q-44 0 -87 -19l-18 79q56 26 129 26q64 0 104 -27.5t40 -76.5q0 -72 -76 -98q87 -25 87 -98zM252 36l344 642l88 -48l-344 -642z
M896 93h-61v-93h-108v93h-179l-21 75l188 233h120v-226h61v-82zM727 175v127l-100 -127h100z" />
    <glyph glyph-name="questiondown" unicode="&#xbf;" horiz-adv-x="474" 
d="M45 -11q0 37 14.5 71t34.5 60t57 56t66 49.5t77 49.5l64 -92q-12 -9 -38.5 -28t-37.5 -27.5t-31 -24.5t-29 -26.5t-20 -25t-15 -28t-4 -27.5q0 -35 22.5 -54t61.5 -19q64 0 131 37l36 -100q-79 -49 -186 -49q-88 0 -145.5 46.5t-57.5 131.5zM358 417q0 -33 -21.5 -56
t-57.5 -23t-57.5 23t-21.5 56q0 34 21.5 57t57.5 23t57.5 -23t21.5 -57z" />
    <glyph glyph-name="Agrave" unicode="&#xc0;" horiz-adv-x="696" 
d="M424 666l253 -666h-145l-47 140h-274l-47 -140h-145l253 666h152zM448 251l-100 303l-100 -303h200zM399 726h-113l-123 120h161z" />
    <glyph glyph-name="Aacute" unicode="&#xc1;" horiz-adv-x="696" 
d="M424 666l253 -666h-145l-47 140h-274l-47 -140h-145l253 666h152zM448 251l-100 303l-100 -303h200zM405 726h-113l75 120h161z" />
    <glyph glyph-name="Acircumflex" unicode="&#xc2;" horiz-adv-x="696" 
d="M424 666l253 -666h-145l-47 140h-274l-47 -140h-145l253 666h152zM448 251l-100 303l-100 -303h200zM416 846l93 -120h-117l-44 58l-44 -58h-117l93 120h136z" />
    <glyph glyph-name="Atilde" unicode="&#xc3;" horiz-adv-x="696" 
d="M424 666l253 -666h-145l-47 140h-274l-47 -140h-145l253 666h152zM448 251l-100 303l-100 -303h200zM436 726q-37 0 -90 20q-51 19 -67 19q-27 0 -40 -41l-84 30q15 57 40 82.5t75 25.5q38 0 89 -20q52 -20 64 -20q15 0 23.5 9.5t19.5 31.5l78 -37q-20 -52 -43 -76
t-65 -24z" />
    <glyph glyph-name="Adieresis" unicode="&#xc4;" horiz-adv-x="696" 
d="M424 666l253 -666h-145l-47 140h-274l-47 -140h-145l253 666h152zM448 251l-100 303l-100 -303h200zM175 790q0 27 19 45.5t49 18.5t48.5 -18.5t18.5 -45.5q0 -29 -18.5 -47t-48.5 -18q-31 0 -49.5 18t-18.5 47zM385 790q0 27 19 45.5t49 18.5t48.5 -18.5t18.5 -45.5
q0 -29 -18.5 -47t-48.5 -18q-31 0 -49.5 18t-18.5 47z" />
    <glyph glyph-name="Aring" unicode="&#xc5;" horiz-adv-x="696" 
d="M448 723q0 -33 -23 -59l252 -664h-145l-47 140h-274l-47 -140h-145l252 664q-22 27 -22 59q0 36 26.5 63.5t72.5 27.5t73 -27.5t27 -63.5zM448 251l-100 303l-100 -303h200zM309 723q0 -18 10 -30t29 -12t29.5 12.5t10.5 29.5t-10.5 29t-29.5 12t-29 -12t-10 -29z" />
    <glyph glyph-name="AE" unicode="&#xc6;" horiz-adv-x="897" 
d="M842 666v-111h-298l20 -161h262v-111h-248l23 -172h244v-111h-358l-18 140h-252l-77 -140h-145l386 666h461zM424 532l-143 -281h174z" />
    <glyph glyph-name="Ccedilla" unicode="&#xc7;" horiz-adv-x="621" 
d="M483 -117q0 -45 -48 -70t-124 -29l-9 67q71 8 71 34q0 12 -12 19.5t-24 9.5t-33 5l28 73q-141 17 -217.5 109.5t-76.5 231.5q0 154 93 249.5t261 95.5q115 0 189 -36l-20 -103q-71 27 -148 27q-114 0 -174.5 -59.5t-60.5 -173.5t60.5 -173.5t174.5 -59.5q77 0 148 27
l20 -103q-70 -34 -179 -36l-10 -29q41 -4 66 -23t25 -53z" />
    <glyph glyph-name="Egrave" unicode="&#xc8;" horiz-adv-x="525" 
d="M70 0v666h400v-111h-260v-161h248v-111h-248v-172h263v-111h-403zM351 726h-113l-123 120h161z" />
    <glyph glyph-name="Eacute" unicode="&#xc9;" horiz-adv-x="525" 
d="M70 0v666h400v-111h-260v-161h248v-111h-248v-172h263v-111h-403zM301 726h-113l75 120h161z" />
    <glyph glyph-name="Ecircumflex" unicode="&#xca;" horiz-adv-x="525" 
d="M70 0v666h400v-111h-260v-161h248v-111h-248v-172h263v-111h-403zM339 846l93 -120h-117l-44 58l-44 -58h-117l93 120h136z" />
    <glyph glyph-name="Edieresis" unicode="&#xcb;" horiz-adv-x="525" 
d="M70 0v666h400v-111h-260v-161h248v-111h-248v-172h263v-111h-403zM98 790q0 27 19 45.5t49 18.5t48.5 -18.5t18.5 -45.5q0 -29 -18.5 -47t-48.5 -18q-31 0 -49.5 18t-18.5 47zM308 790q0 27 19 45.5t49 18.5t48.5 -18.5t18.5 -45.5q0 -29 -18.5 -47t-48.5 -18
q-31 0 -49.5 18t-18.5 47z" />
    <glyph glyph-name="Igrave" unicode="&#xcc;" horiz-adv-x="290" 
d="M215 666v-666h-140v666h140zM204 726h-113l-123 120h161z" />
    <glyph glyph-name="Iacute" unicode="&#xcd;" horiz-adv-x="290" 
d="M215 666v-666h-140v666h140zM200 726h-113l75 120h161z" />
    <glyph glyph-name="Icircumflex" unicode="&#xce;" horiz-adv-x="290" 
d="M215 666v-666h-140v666h140zM213 846l93 -120h-117l-44 58l-44 -58h-117l93 120h136z" />
    <glyph glyph-name="Idieresis" unicode="&#xcf;" horiz-adv-x="290" 
d="M215 666v-666h-140v666h140zM-27 790q0 27 19 45.5t49 18.5t48.5 -18.5t18.5 -45.5q0 -29 -18.5 -47t-48.5 -18q-31 0 -49.5 18t-18.5 47zM183 790q0 27 19 45.5t49 18.5t48.5 -18.5t18.5 -45.5q0 -29 -18.5 -47t-48.5 -18q-31 0 -49.5 18t-18.5 47z" />
    <glyph glyph-name="Eth" unicode="&#xd0;" horiz-adv-x="731" 
d="M35 278v110h76v278h201q174 0 280.5 -93.5t106.5 -239.5t-106.5 -239.5t-280.5 -93.5h-201v278h-76zM315 112q109 0 176.5 59.5t67.5 161.5t-67.5 161.5t-176.5 59.5h-64v-166h165v-110h-165v-166h64z" />
    <glyph glyph-name="Ntilde" unicode="&#xd1;" horiz-adv-x="719" 
d="M649 0h-134l-311 436v-436h-134v666h134l311 -436v436h134v-666zM447 726q-37 0 -90 20q-51 19 -67 19q-27 0 -40 -41l-84 30q15 57 40 82.5t75 25.5q38 0 89 -20q52 -20 64 -20q15 0 23.5 9.5t19.5 31.5l78 -37q-20 -52 -43 -76t-65 -24z" />
    <glyph glyph-name="Ograve" unicode="&#xd2;" horiz-adv-x="746" 
d="M708 333q0 -147 -90 -246t-245 -99t-245 99t-90 246t90 246t245 99t245 -99t90 -246zM373 98q94 0 144.5 65t50.5 170t-50.5 170t-144.5 65t-144.5 -65t-50.5 -170t50.5 -170t144.5 -65zM435 726h-113l-123 120h161z" />
    <glyph glyph-name="Oacute" unicode="&#xd3;" horiz-adv-x="746" 
d="M708 333q0 -147 -90 -246t-245 -99t-245 99t-90 246t90 246t245 99t245 -99t90 -246zM373 98q94 0 144.5 65t50.5 170t-50.5 170t-144.5 65t-144.5 -65t-50.5 -170t50.5 -170t144.5 -65zM423 726h-113l75 120h161z" />
    <glyph glyph-name="Ocircumflex" unicode="&#xd4;" horiz-adv-x="746" 
d="M708 333q0 -147 -90 -246t-245 -99t-245 99t-90 246t90 246t245 99t245 -99t90 -246zM373 98q94 0 144.5 65t50.5 170t-50.5 170t-144.5 65t-144.5 -65t-50.5 -170t50.5 -170t144.5 -65zM441 846l93 -120h-117l-44 58l-44 -58h-117l93 120h136z" />
    <glyph glyph-name="Otilde" unicode="&#xd5;" horiz-adv-x="746" 
d="M708 333q0 -147 -90 -246t-245 -99t-245 99t-90 246t90 246t245 99t245 -99t90 -246zM373 98q94 0 144.5 65t50.5 170t-50.5 170t-144.5 65t-144.5 -65t-50.5 -170t50.5 -170t144.5 -65zM465 726q-37 0 -90 20q-51 19 -67 19q-27 0 -40 -41l-84 30q15 57 40 82.5t75 25.5
q38 0 89 -20q52 -20 64 -20q15 0 23.5 9.5t19.5 31.5l78 -37q-20 -52 -43 -76t-65 -24z" />
    <glyph glyph-name="Odieresis" unicode="&#xd6;" horiz-adv-x="746" 
d="M708 333q0 -147 -90 -246t-245 -99t-245 99t-90 246t90 246t245 99t245 -99t90 -246zM373 98q94 0 144.5 65t50.5 170t-50.5 170t-144.5 65t-144.5 -65t-50.5 -170t50.5 -170t144.5 -65zM200 790q0 27 19 45.5t49 18.5t48.5 -18.5t18.5 -45.5q0 -29 -18.5 -47t-48.5 -18
q-31 0 -49.5 18t-18.5 47zM410 790q0 27 19 45.5t49 18.5t48.5 -18.5t18.5 -45.5q0 -29 -18.5 -47t-48.5 -18q-31 0 -49.5 18t-18.5 47z" />
    <glyph glyph-name="multiply" unicode="&#xd7;" horiz-adv-x="603" 
d="M146 555l156 -156l155 156l76 -77l-155 -155l155 -155l-76 -77l-155 156l-156 -156l-76 77l155 155l-155 155z" />
    <glyph glyph-name="Oslash" unicode="&#xd8;" horiz-adv-x="752" 
d="M41 -12l85 104q-85 97 -85 241q0 147 90 246t245 99q105 0 188 -52l85 104l62 -52l-86 -105q86 -95 86 -240q0 -147 -90 -246t-245 -99q-107 0 -188 51l-84 -103zM376 97q94 0 144.5 65.5t50.5 170.5q0 80 -30 138l-278 -340q46 -34 113 -34zM181 333q0 -83 29 -138
l278 339q-46 35 -112 35q-94 0 -144.5 -65.5t-50.5 -170.5z" />
    <glyph glyph-name="Ugrave" unicode="&#xd9;" horiz-adv-x="686" 
d="M478 234v432h140v-426q0 -114 -73.5 -183t-201.5 -69t-201.5 69t-73.5 183v426h140v-432q0 -63 34.5 -98.5t100.5 -35.5t100.5 35.5t34.5 98.5zM425 726h-113l-123 120h161z" />
    <glyph glyph-name="Uacute" unicode="&#xda;" horiz-adv-x="686" 
d="M478 234v432h140v-426q0 -114 -73.5 -183t-201.5 -69t-201.5 69t-73.5 183v426h140v-432q0 -63 34.5 -98.5t100.5 -35.5t100.5 35.5t34.5 98.5zM380 726h-113l75 120h161z" />
    <glyph glyph-name="Ucircumflex" unicode="&#xdb;" horiz-adv-x="686" 
d="M478 234v432h140v-426q0 -114 -73.5 -183t-201.5 -69t-201.5 69t-73.5 183v426h140v-432q0 -63 34.5 -98.5t100.5 -35.5t100.5 35.5t34.5 98.5zM411 846l93 -120h-117l-44 58l-44 -58h-117l93 120h136z" />
    <glyph glyph-name="Udieresis" unicode="&#xdc;" horiz-adv-x="686" 
d="M478 234v432h140v-426q0 -114 -73.5 -183t-201.5 -69t-201.5 69t-73.5 183v426h140v-432q0 -63 34.5 -98.5t100.5 -35.5t100.5 35.5t34.5 98.5zM170 790q0 27 19 45.5t49 18.5t48.5 -18.5t18.5 -45.5q0 -29 -18.5 -47t-48.5 -18q-31 0 -49.5 18t-18.5 47zM380 790
q0 27 19 45.5t49 18.5t48.5 -18.5t18.5 -45.5q0 -29 -18.5 -47t-48.5 -18q-31 0 -49.5 18t-18.5 47z" />
    <glyph glyph-name="Yacute" unicode="&#xdd;" horiz-adv-x="580" 
d="M290 373l137 293h153l-220 -417v-249h-140v249l-220 417h153zM339 726h-113l75 120h161z" />
    <glyph glyph-name="Thorn" unicode="&#xde;" horiz-adv-x="556" 
d="M534 339q0 -105 -83 -162t-214 -57h-27v-120h-140v666h140v-117h42q126 0 204 -53.5t78 -156.5zM394 339q0 101 -143 101h-41v-211h34q71 0 110.5 28t39.5 82z" />
    <glyph glyph-name="germandbls" unicode="&#xdf;" horiz-adv-x="622" 
d="M202 0h-137v475q0 118 68 179.5t180 61.5q90 0 147 -44.5t57 -115.5q0 -25 -9.5 -50t-18 -37t-25.5 -33q-6 -8 -17.5 -21t-16.5 -20t-10 -17t-5 -20q0 -5 1.5 -10t5 -9.5t6.5 -8t10.5 -8.5t11.5 -7t14.5 -8t14.5 -9q29 -17 42.5 -26.5t35 -29t31 -43.5t9.5 -54
q0 -69 -51.5 -112t-135.5 -43q-77 0 -130 21l18 96q46 -17 97 -17q31 0 49.5 13t18.5 35q0 6 -1 10.5t-3.5 9.5t-5 8.5t-8 7.5t-9 6.5t-11 7t-12 7t-14 7.5t-14.5 8q-57 31 -82 63t-25 78q0 50 55 114q2 2 9.5 11l10 12t8.5 11t8.5 12.5t6 11t4.5 13t1 12.5q0 28 -21 44.5
t-55 16.5q-103 0 -103 -135v-474z" />
    <glyph glyph-name="agrave" unicode="&#xe0;" horiz-adv-x="525" 
d="M333 0v52q-64 -62 -153 -62q-63 0 -101.5 39t-38.5 99q0 65 44 101t124 41q34 3 120 5v17q0 96 -95 96q-70 0 -132 -32l-27 96q78 45 183 45q98 0 153 -54t55 -156v-287h-132zM230 83q54 0 98 35v77q-55 -4 -89 -9q-33 -5 -49.5 -17.5t-16.5 -37.5q0 -48 57 -48zM326 558
h-113l-111 166h151z" />
    <glyph glyph-name="aacute" unicode="&#xe1;" horiz-adv-x="525" 
d="M333 0v52q-64 -62 -153 -62q-63 0 -101.5 39t-38.5 99q0 65 44 101t124 41q34 3 120 5v17q0 96 -95 96q-70 0 -132 -32l-27 96q78 45 183 45q98 0 153 -54t55 -156v-287h-132zM230 83q54 0 98 35v77q-55 -4 -89 -9q-33 -5 -49.5 -17.5t-16.5 -37.5q0 -48 57 -48zM303 558
h-113l73 166h151z" />
    <glyph glyph-name="acircumflex" unicode="&#xe2;" horiz-adv-x="525" 
d="M333 0v52q-64 -62 -153 -62q-63 0 -101.5 39t-38.5 99q0 65 44 101t124 41q34 3 120 5v17q0 96 -95 96q-70 0 -132 -32l-27 96q78 45 183 45q98 0 153 -54t55 -156v-287h-132zM230 83q54 0 98 35v77q-55 -4 -89 -9q-33 -5 -49.5 -17.5t-16.5 -37.5q0 -48 57 -48zM329 724
l108 -166h-115l-55 93l-55 -93h-115l108 166h124z" />
    <glyph glyph-name="atilde" unicode="&#xe3;" horiz-adv-x="525" 
d="M333 0v52q-64 -62 -153 -62q-63 0 -101.5 39t-38.5 99q0 65 44 101t124 41q34 3 120 5v17q0 96 -95 96q-70 0 -132 -32l-27 96q78 45 183 45q98 0 153 -54t55 -156v-287h-132zM230 83q54 0 98 35v77q-55 -4 -89 -9q-33 -5 -49.5 -17.5t-16.5 -37.5q0 -48 57 -48zM344 565
q-24 0 -83 25q-46 20 -57 20q-9 0 -15 -2.5t-12 -10.5t-9 -13.5t-10 -20.5l-77 36q19 60 45.5 85.5t74.5 25.5q26 0 78 -24q46 -21 57 -21q16 0 25.5 10t21.5 35l76 -38q-29 -62 -52 -84.5t-63 -22.5z" />
    <glyph glyph-name="adieresis" unicode="&#xe4;" horiz-adv-x="525" 
d="M333 0v52q-64 -62 -153 -62q-63 0 -101.5 39t-38.5 99q0 65 44 101t124 41q34 3 120 5v17q0 96 -95 96q-70 0 -132 -32l-27 96q78 45 183 45q98 0 153 -54t55 -156v-287h-132zM230 83q54 0 98 35v77q-55 -4 -89 -9q-33 -5 -49.5 -17.5t-16.5 -37.5q0 -48 57 -48zM105 632
q0 28 19 48t49 20t49 -20t19 -48q0 -29 -19 -48.5t-49 -19.5t-49 19.5t-19 48.5zM299 632q0 28 19 48t49 20t49 -20t19 -48q0 -29 -19 -48.5t-49 -19.5t-49 19.5t-19 48.5z" />
    <glyph glyph-name="aring" unicode="&#xe5;" horiz-adv-x="525" 
d="M333 0v52q-64 -62 -153 -62q-63 0 -101.5 39t-38.5 99q0 65 44 101t124 41q34 3 120 5v17q0 96 -95 96q-70 0 -132 -32l-27 96q78 45 183 45q98 0 153 -54t55 -156v-287h-132zM230 83q54 0 98 35v77q-55 -4 -89 -9q-33 -5 -49.5 -17.5t-16.5 -37.5q0 -48 57 -48zM361 645
q0 -36 -27 -63t-73 -27t-72.5 27t-26.5 63t26.5 63.5t72.5 27.5t73 -27.5t27 -63.5zM222 645q0 -17 10.5 -28.5t28.5 -11.5t29 11.5t11 28.5t-11 29t-29 12t-28.5 -12t-10.5 -29z" />
    <glyph glyph-name="ae" unicode="&#xe6;" horiz-adv-x="806" 
d="M572 497q96 0 147.5 -57.5t51.5 -152.5q0 -36 -10 -78h-289q1 -55 34.5 -86.5t97.5 -31.5q77 0 142 29l17 -93q-73 -37 -176 -37q-125 0 -192 73q-91 -73 -200 -73q-73 0 -114 38.5t-41 99.5q0 130 164 144q60 6 127 9v13q0 97 -97 97q-71 0 -140 -33l-26 96
q72 43 178 43t161 -70q58 70 165 70zM564 405q-39 0 -64.5 -29t-26.5 -75h167q7 46 -13 75t-63 29zM353 124q-15 35 -19 72q-59 -6 -100 -11q-31 -5 -47 -17t-16 -36q0 -49 59 -49q66 0 123 41z" />
    <glyph glyph-name="ccedilla" unicode="&#xe7;" horiz-adv-x="456" 
d="M386 -117q0 -45 -48 -70t-124 -29l-9 67q71 8 71 34q0 12 -12 19.5t-24 9.5t-33 5l28 75q-97 15 -150.5 83t-53.5 167q0 112 67.5 182.5t189.5 70.5q84 0 139 -29l-15 -98q-46 21 -104 21q-70 0 -105 -38.5t-35 -108.5t35 -109t105 -39q58 0 104 21l15 -98
q-46 -25 -122 -28l-10 -32q41 -4 66 -23t25 -53z" />
    <glyph glyph-name="egrave" unicode="&#xe8;" horiz-adv-x="507" 
d="M273 497q95 0 147 -56.5t52 -153.5q0 -40 -10 -78h-289q5 -118 132 -118q79 0 142 29l17 -93q-74 -37 -177 -37q-120 0 -187 68.5t-67 182.5q0 116 64.5 186t175.5 70zM265 405q-41 0 -64 -28.5t-27 -75.5h167q5 48 -14.5 76t-61.5 28zM322 558h-113l-111 166h151z" />
    <glyph glyph-name="eacute" unicode="&#xe9;" horiz-adv-x="507" 
d="M273 497q95 0 147 -56.5t52 -153.5q0 -40 -10 -78h-289q5 -118 132 -118q79 0 142 29l17 -93q-74 -37 -177 -37q-120 0 -187 68.5t-67 182.5q0 116 64.5 186t175.5 70zM265 405q-41 0 -64 -28.5t-27 -75.5h167q5 48 -14.5 76t-61.5 28zM311 558h-113l73 166h151z" />
    <glyph glyph-name="ecircumflex" unicode="&#xea;" horiz-adv-x="507" 
d="M273 497q95 0 147 -56.5t52 -153.5q0 -40 -10 -78h-289q5 -118 132 -118q79 0 142 29l17 -93q-74 -37 -177 -37q-120 0 -187 68.5t-67 182.5q0 116 64.5 186t175.5 70zM265 405q-41 0 -64 -28.5t-27 -75.5h167q5 48 -14.5 76t-61.5 28zM325 724l108 -166h-115l-55 93
l-55 -93h-115l108 166h124z" />
    <glyph glyph-name="edieresis" unicode="&#xeb;" horiz-adv-x="507" 
d="M273 497q95 0 147 -56.5t52 -153.5q0 -40 -10 -78h-289q5 -118 132 -118q79 0 142 29l17 -93q-74 -37 -177 -37q-120 0 -187 68.5t-67 182.5q0 116 64.5 186t175.5 70zM265 405q-41 0 -64 -28.5t-27 -75.5h167q5 48 -14.5 76t-61.5 28zM100 632q0 28 19 48t49 20t49 -20
t19 -48q0 -29 -19 -48.5t-49 -19.5t-49 19.5t-19 48.5zM294 632q0 28 19 48t49 20t49 -20t19 -48q0 -29 -19 -48.5t-49 -19.5t-49 19.5t-19 48.5z" />
    <glyph glyph-name="igrave" unicode="&#xec;" horiz-adv-x="267" 
d="M202 0h-137v487h137v-487zM190 558h-113l-111 166h151z" />
    <glyph glyph-name="iacute" unicode="&#xed;" horiz-adv-x="267" 
d="M202 0h-137v487h137v-487zM196 558h-113l73 166h151z" />
    <glyph glyph-name="icircumflex" unicode="&#xee;" horiz-adv-x="267" 
d="M202 0h-137v487h137v-487zM196 724l108 -166h-115l-55 93l-55 -93h-115l108 166h124z" />
    <glyph glyph-name="idieresis" unicode="&#xef;" horiz-adv-x="267" 
d="M202 0h-137v487h137v-487zM-31 632q0 28 19 48t49 20t49 -20t19 -48q0 -29 -19 -48.5t-49 -19.5t-49 19.5t-19 48.5zM163 632q0 28 19 48t49 20t49 -20t19 -48q0 -29 -19 -48.5t-49 -19.5t-49 19.5t-19 48.5z" />
    <glyph glyph-name="eth" unicode="&#xf0;" horiz-adv-x="561" 
d="M203 490l-41 46l56 46q-55 20 -123 29l25 105q112 -13 196 -53l75 62l39 -47l-58 -48q75 -51 117 -133.5t42 -190.5q0 -137 -67 -226.5t-190 -89.5q-112 0 -176.5 68.5t-64.5 170.5q0 110 62.5 170.5t156.5 60.5q86 0 137 -34q-27 76 -110 126zM168 226q0 -132 108 -132
q44 0 72 28t37 64t9 80v63q-50 30 -102 30q-124 0 -124 -133z" />
    <glyph glyph-name="ntilde" unicode="&#xf1;" horiz-adv-x="575" 
d="M202 0h-137v487h132v-66q47 76 142 76q89 0 132.5 -69t43.5 -175v-253h-137v254q0 134 -88 134q-54 0 -88 -47v-341zM368 565q-24 0 -83 25q-46 20 -57 20q-9 0 -15 -2.5t-12 -10.5t-9 -13.5t-10 -20.5l-77 36q19 60 45.5 85.5t74.5 25.5q26 0 78 -24q46 -21 57 -21
q16 0 25.5 10t21.5 35l76 -38q-29 -62 -52 -84.5t-63 -22.5z" />
    <glyph glyph-name="ograve" unicode="&#xf2;" horiz-adv-x="568" 
d="M535 243q0 -110 -66.5 -181.5t-184.5 -71.5t-184.5 71.5t-66.5 181.5t66.5 182t184.5 72t184.5 -72t66.5 -182zM398 243q0 66 -27.5 109t-86.5 43t-86.5 -43t-27.5 -109t27.5 -108.5t86.5 -42.5t86.5 42.5t27.5 108.5zM340 558h-113l-111 166h151z" />
    <glyph glyph-name="oacute" unicode="&#xf3;" horiz-adv-x="568" 
d="M535 243q0 -110 -66.5 -181.5t-184.5 -71.5t-184.5 71.5t-66.5 181.5t66.5 182t184.5 72t184.5 -72t66.5 -182zM398 243q0 66 -27.5 109t-86.5 43t-86.5 -43t-27.5 -109t27.5 -108.5t86.5 -42.5t86.5 42.5t27.5 108.5zM334 558h-113l73 166h151z" />
    <glyph glyph-name="ocircumflex" unicode="&#xf4;" horiz-adv-x="568" 
d="M535 243q0 -110 -66.5 -181.5t-184.5 -71.5t-184.5 71.5t-66.5 181.5t66.5 182t184.5 72t184.5 -72t66.5 -182zM398 243q0 66 -27.5 109t-86.5 43t-86.5 -43t-27.5 -109t27.5 -108.5t86.5 -42.5t86.5 42.5t27.5 108.5zM346 724l108 -166h-115l-55 93l-55 -93h-115
l108 166h124z" />
    <glyph glyph-name="otilde" unicode="&#xf5;" horiz-adv-x="568" 
d="M535 243q0 -110 -66.5 -181.5t-184.5 -71.5t-184.5 71.5t-66.5 181.5t66.5 182t184.5 72t184.5 -72t66.5 -182zM398 243q0 66 -27.5 109t-86.5 43t-86.5 -43t-27.5 -109t27.5 -108.5t86.5 -42.5t86.5 42.5t27.5 108.5zM363 565q-24 0 -83 25q-46 20 -57 20q-9 0 -15 -2.5
t-12 -10.5t-9 -13.5t-10 -20.5l-77 36q19 60 45.5 85.5t74.5 25.5q26 0 78 -24q46 -21 57 -21q16 0 25.5 10t21.5 35l76 -38q-29 -62 -52 -84.5t-63 -22.5z" />
    <glyph glyph-name="odieresis" unicode="&#xf6;" horiz-adv-x="568" 
d="M535 243q0 -110 -66.5 -181.5t-184.5 -71.5t-184.5 71.5t-66.5 181.5t66.5 182t184.5 72t184.5 -72t66.5 -182zM398 243q0 66 -27.5 109t-86.5 43t-86.5 -43t-27.5 -109t27.5 -108.5t86.5 -42.5t86.5 42.5t27.5 108.5zM119 632q0 28 19 48t49 20t49 -20t19 -48
q0 -29 -19 -48.5t-49 -19.5t-49 19.5t-19 48.5zM313 632q0 28 19 48t49 20t49 -20t19 -48q0 -29 -19 -48.5t-49 -19.5t-49 19.5t-19 48.5z" />
    <glyph glyph-name="divide" unicode="&#xf7;" horiz-adv-x="600" 
d="M535 272h-470v102h470v-102zM374 516q0 -31 -21 -52t-53 -21t-53.5 21t-21.5 52t21.5 52.5t53.5 21.5t53 -21t21 -53zM374 129q0 -31 -21 -52t-53 -21t-53.5 21t-21.5 52t21.5 52.5t53.5 21.5t53 -21.5t21 -52.5z" />
    <glyph glyph-name="oslash" unicode="&#xf8;" horiz-adv-x="572" 
d="M35 -25l68 85q-68 70 -68 183q0 110 66.5 182t184.5 72q76 0 136 -34l68 86l47 -38l-68 -85q68 -70 68 -183q0 -110 -66.5 -181.5t-184.5 -71.5q-78 0 -136 33l-68 -85zM172 243q0 -48 12 -80l167 211q-26 21 -65 21q-59 0 -86.5 -43t-27.5 -109zM400 243q0 45 -13 80
l-167 -211q26 -20 66 -20q59 0 86.5 42.5t27.5 108.5z" />
    <glyph glyph-name="ugrave" unicode="&#xf9;" horiz-adv-x="567" 
d="M365 487h137v-487h-132v66q-50 -76 -142 -76q-60 0 -100 35t-56 88t-16 121v253h137v-254q0 -68 19.5 -101t64.5 -33q54 0 88 47v341zM364 558h-113l-111 166h151z" />
    <glyph glyph-name="uacute" unicode="&#xfa;" horiz-adv-x="567" 
d="M365 487h137v-487h-132v66q-50 -76 -142 -76q-60 0 -100 35t-56 88t-16 121v253h137v-254q0 -68 19.5 -101t64.5 -33q54 0 88 47v341zM322 558h-113l73 166h151z" />
    <glyph glyph-name="ucircumflex" unicode="&#xfb;" horiz-adv-x="567" 
d="M365 487h137v-487h-132v66q-50 -76 -142 -76q-60 0 -100 35t-56 88t-16 121v253h137v-254q0 -68 19.5 -101t64.5 -33q54 0 88 47v341zM347 724l108 -166h-115l-55 93l-55 -93h-115l108 166h124z" />
    <glyph glyph-name="udieresis" unicode="&#xfc;" horiz-adv-x="567" 
d="M365 487h137v-487h-132v66q-50 -76 -142 -76q-60 0 -100 35t-56 88t-16 121v253h137v-254q0 -68 19.5 -101t64.5 -33q54 0 88 47v341zM120 632q0 28 19 48t49 20t49 -20t19 -48q0 -29 -19 -48.5t-49 -19.5t-49 19.5t-19 48.5zM314 632q0 28 19 48t49 20t49 -20t19 -48
q0 -29 -19 -48.5t-49 -19.5t-49 19.5t-19 48.5z" />
    <glyph glyph-name="yacute" unicode="&#xfd;" horiz-adv-x="493" 
d="M255 -206h-137l66 191l-179 502h142l103 -362l99 362h139zM293 558h-113l73 166h151z" />
    <glyph glyph-name="thorn" unicode="&#xfe;" horiz-adv-x="571" 
d="M65 -206v912h137v-274q52 65 142 65q88 0 141.5 -68t53.5 -180q0 -122 -71.5 -190.5t-179.5 -68.5q-47 0 -86 12v-208h-137zM298 390q-57 0 -96 -45v-241q24 -10 66 -10q68 0 101 41t33 113q0 64 -26.5 103t-77.5 39z" />
    <glyph glyph-name="ydieresis" unicode="&#xff;" horiz-adv-x="493" 
d="M255 -206h-137l66 191l-179 502h142l103 -362l99 362h139zM86 632q0 28 19 48t49 20t49 -20t19 -48q0 -29 -19 -48.5t-49 -19.5t-49 19.5t-19 48.5zM280 632q0 28 19 48t49 20t49 -20t19 -48q0 -29 -19 -48.5t-49 -19.5t-49 19.5t-19 48.5z" />
    <glyph glyph-name="Amacron" unicode="&#x100;" horiz-adv-x="696" 
d="M424 666l253 -666h-145l-47 140h-274l-47 -140h-145l253 666h152zM448 251l-100 303l-100 -303h200zM178 737v104h340v-104h-340z" />
    <glyph glyph-name="amacron" unicode="&#x101;" horiz-adv-x="525" 
d="M333 0v52q-64 -62 -153 -62q-63 0 -101.5 39t-38.5 99q0 65 44 101t124 41q34 3 120 5v17q0 96 -95 96q-70 0 -132 -32l-27 96q78 45 183 45q98 0 153 -54t55 -156v-287h-132zM230 83q54 0 98 35v77q-55 -4 -89 -9q-33 -5 -49.5 -17.5t-16.5 -37.5q0 -48 57 -48zM120 577
v104h301v-104h-301z" />
    <glyph glyph-name="Abreve" unicode="&#x102;" horiz-adv-x="696" 
d="M424 666l253 -666h-145l-47 140h-274l-47 -140h-145l253 666h152zM448 251l-100 303l-100 -303h200zM419 870l91 -26q-15 -58 -58 -89.5t-104 -31.5t-104 31.5t-58 89.5l91 26q19 -62 71 -62t71 62z" />
    <glyph glyph-name="abreve" unicode="&#x103;" horiz-adv-x="525" 
d="M333 0v52q-64 -62 -153 -62q-63 0 -101.5 39t-38.5 99q0 65 44 101t124 41q34 3 120 5v17q0 96 -95 96q-70 0 -132 -32l-27 96q78 45 183 45q98 0 153 -54t55 -156v-287h-132zM230 83q54 0 98 35v77q-55 -4 -89 -9q-33 -5 -49.5 -17.5t-16.5 -37.5q0 -48 57 -48zM342 721
l91 -19q-11 -69 -55 -106.5t-110 -37.5t-110 37.5t-55 106.5l91 19q13 -77 74 -77t74 77z" />
    <glyph glyph-name="Aogonek" unicode="&#x104;" horiz-adv-x="696" 
d="M654 -131l8 -67q-37 -18 -89 -18q-53 0 -82 28t-29 73q0 65 70 115l-47 140h-274l-47 -140h-145l253 666h152l253 -666q-98 -48 -98 -102q0 -35 35 -35q24 0 40 6zM448 251l-100 303l-100 -303h200z" />
    <glyph glyph-name="aogonek" unicode="&#x105;" horiz-adv-x="525" 
d="M455 -131l8 -67q-37 -18 -89 -18q-49 0 -77.5 27.5t-28.5 72.5q0 61 65 116v52q-64 -62 -153 -62q-63 0 -101.5 39t-38.5 99q0 65 44 101t124 41q34 3 120 5v17q0 96 -95 96q-70 0 -132 -32l-27 96q78 45 183 45q98 0 153 -54t55 -156v-287q-85 -51 -85 -102
q0 -35 35 -35q23 0 40 6zM230 83q54 0 98 35v77q-55 -4 -89 -9q-33 -5 -49.5 -17.5t-16.5 -37.5q0 -48 57 -48z" />
    <glyph glyph-name="Cacute" unicode="&#x106;" horiz-adv-x="621" 
d="M392 678q115 0 189 -36l-20 -103q-71 27 -148 27q-114 0 -174.5 -59.5t-60.5 -173.5t60.5 -173.5t174.5 -59.5q77 0 148 27l20 -103q-74 -36 -189 -36q-168 0 -261 95.5t-93 249.5t93 249.5t261 95.5zM407 726h-113l75 120h161z" />
    <glyph glyph-name="cacute" unicode="&#x107;" horiz-adv-x="456" 
d="M288 497q84 0 139 -29l-15 -98q-46 21 -104 21q-70 0 -105 -38.5t-35 -108.5t35 -109t105 -39q58 0 104 21l15 -98q-55 -29 -139 -29q-122 0 -189.5 71t-67.5 183t67.5 182.5t189.5 70.5zM298 558h-113l73 166h151z" />
    <glyph glyph-name="Ccircumflex" unicode="&#x108;" horiz-adv-x="621" 
d="M392 678q115 0 189 -36l-20 -103q-71 27 -148 27q-114 0 -174.5 -59.5t-60.5 -173.5t60.5 -173.5t174.5 -59.5q77 0 148 27l20 -103q-74 -36 -189 -36q-168 0 -261 95.5t-93 249.5t93 249.5t261 95.5zM437 846l93 -120h-117l-44 58l-44 -58h-117l93 120h136z" />
    <glyph glyph-name="ccircumflex" unicode="&#x109;" horiz-adv-x="456" 
d="M288 497q84 0 139 -29l-15 -98q-46 21 -104 21q-70 0 -105 -38.5t-35 -108.5t35 -109t105 -39q58 0 104 21l15 -98q-55 -29 -139 -29q-122 0 -189.5 71t-67.5 183t67.5 182.5t189.5 70.5zM317 724l108 -166h-115l-55 93l-55 -93h-115l108 166h124z" />
    <glyph glyph-name="Cdotaccent" unicode="&#x10a;" horiz-adv-x="621" 
d="M392 678q115 0 189 -36l-20 -103q-71 27 -148 27q-114 0 -174.5 -59.5t-60.5 -173.5t60.5 -173.5t174.5 -59.5q77 0 148 27l20 -103q-74 -36 -189 -36q-168 0 -261 95.5t-93 249.5t93 249.5t261 95.5zM285 801q0 33 22.5 56t56.5 23q35 0 57.5 -23t22.5 -56t-22.5 -56
t-57.5 -23q-34 0 -56.5 23t-22.5 56z" />
    <glyph glyph-name="cdotaccent" unicode="&#x10b;" horiz-adv-x="456" 
d="M288 497q84 0 139 -29l-15 -98q-46 21 -104 21q-70 0 -105 -38.5t-35 -108.5t35 -109t105 -39q58 0 104 21l15 -98q-55 -29 -139 -29q-122 0 -189.5 71t-67.5 183t67.5 182.5t189.5 70.5zM179 629q0 33 22.5 56t56.5 23q35 0 57.5 -23t22.5 -56t-22.5 -56t-57.5 -23
q-34 0 -56.5 23t-22.5 56z" />
    <glyph glyph-name="Ccaron" unicode="&#x10c;" horiz-adv-x="621" 
d="M392 678q115 0 189 -36l-20 -103q-71 27 -148 27q-114 0 -174.5 -59.5t-60.5 -173.5t60.5 -173.5t174.5 -59.5q77 0 148 27l20 -103q-74 -36 -189 -36q-168 0 -261 95.5t-93 249.5t93 249.5t261 95.5zM523 846l-93 -120h-136l-93 120h117l44 -58l44 58h117z" />
    <glyph glyph-name="ccaron" unicode="&#x10d;" horiz-adv-x="456" 
d="M288 497q84 0 139 -29l-15 -98q-46 21 -104 21q-70 0 -105 -38.5t-35 -108.5t35 -109t105 -39q58 0 104 21l15 -98q-55 -29 -139 -29q-122 0 -189.5 71t-67.5 183t67.5 182.5t189.5 70.5zM431 724l-108 -166h-124l-108 166h115l55 -93l55 93h115z" />
    <glyph glyph-name="Dcaron" unicode="&#x10e;" horiz-adv-x="690" 
d="M70 0v666h201q174 0 280.5 -93.5t106.5 -239.5t-106.5 -239.5t-280.5 -93.5h-201zM274 112q109 0 176.5 59.5t67.5 161.5t-67.5 161.5t-176.5 59.5h-64v-442h64zM456 846l-93 -120h-136l-93 120h117l44 -58l44 58h117z" />
    <glyph glyph-name="dcaron" unicode="&#x10f;" horiz-adv-x="711" 
d="M507 706v-706h-131v63q-54 -73 -150 -73q-84 0 -138.5 70t-54.5 178q0 122 71.5 190.5t179.5 68.5q49 0 86 -13v222h137zM273 96q55 0 97 45v242q-28 10 -66 10q-65 0 -99.5 -40t-34.5 -113q0 -66 25.5 -105t77.5 -39zM645 453l-86 42q48 94 54 211l121 -11
q-3 -130 -89 -242z" />
    <glyph glyph-name="Dcroat" unicode="&#x110;" horiz-adv-x="731" 
d="M35 278v110h76v278h201q174 0 280.5 -93.5t106.5 -239.5t-106.5 -239.5t-280.5 -93.5h-201v278h-76zM315 112q109 0 176.5 59.5t67.5 161.5t-67.5 161.5t-176.5 59.5h-64v-166h165v-110h-165v-166h64z" />
    <glyph glyph-name="dcroat" unicode="&#x111;" horiz-adv-x="572" 
d="M237 543v93h133v70h137v-70h70v-93h-70v-543h-131v63q-54 -73 -150 -73q-84 0 -138.5 70t-54.5 178q0 122 71.5 190.5t179.5 68.5q49 0 86 -13v59h-133zM273 96q55 0 97 45v242q-28 10 -66 10q-65 0 -99.5 -40t-34.5 -113q0 -66 25.5 -105t77.5 -39z" />
    <glyph glyph-name="Emacron" unicode="&#x112;" horiz-adv-x="525" 
d="M70 0v666h400v-111h-260v-161h248v-111h-248v-172h263v-111h-403zM99 737v104h340v-104h-340z" />
    <glyph glyph-name="emacron" unicode="&#x113;" horiz-adv-x="507" 
d="M273 497q95 0 147 -56.5t52 -153.5q0 -40 -10 -78h-289q5 -118 132 -118q79 0 142 29l17 -93q-74 -37 -177 -37q-120 0 -187 68.5t-67 182.5q0 116 64.5 186t175.5 70zM265 405q-41 0 -64 -28.5t-27 -75.5h167q5 48 -14.5 76t-61.5 28zM119 577v104h301v-104h-301z" />
    <glyph glyph-name="Ebreve" unicode="&#x114;" horiz-adv-x="525" 
d="M70 0v666h400v-111h-260v-161h248v-111h-248v-172h263v-111h-403zM354 870l91 -26q-15 -58 -58 -89.5t-104 -31.5t-104 31.5t-58 89.5l91 26q19 -62 71 -62t71 62z" />
    <glyph glyph-name="ebreve" unicode="&#x115;" horiz-adv-x="507" 
d="M273 497q95 0 147 -56.5t52 -153.5q0 -40 -10 -78h-289q5 -118 132 -118q79 0 142 29l17 -93q-74 -37 -177 -37q-120 0 -187 68.5t-67 182.5q0 116 64.5 186t175.5 70zM265 405q-41 0 -64 -28.5t-27 -75.5h167q5 48 -14.5 76t-61.5 28zM343 721l91 -19
q-11 -69 -55 -106.5t-110 -37.5t-110 37.5t-55 106.5l91 19q13 -77 74 -77t74 77z" />
    <glyph glyph-name="Edotaccent" unicode="&#x116;" horiz-adv-x="525" 
d="M70 0v666h400v-111h-260v-161h248v-111h-248v-172h263v-111h-403zM196 801q0 33 22.5 56t56.5 23q35 0 57.5 -23t22.5 -56t-22.5 -56t-57.5 -23q-34 0 -56.5 23t-22.5 56z" />
    <glyph glyph-name="edotaccent" unicode="&#x117;" horiz-adv-x="507" 
d="M273 497q95 0 147 -56.5t52 -153.5q0 -40 -10 -78h-289q5 -118 132 -118q79 0 142 29l17 -93q-74 -37 -177 -37q-120 0 -187 68.5t-67 182.5q0 116 64.5 186t175.5 70zM265 405q-41 0 -64 -28.5t-27 -75.5h167q5 48 -14.5 76t-61.5 28zM183 629q0 33 22.5 56t56.5 23
q35 0 57.5 -23t22.5 -56t-22.5 -56t-57.5 -23q-34 0 -56.5 23t-22.5 56z" />
    <glyph glyph-name="Eogonek" unicode="&#x118;" horiz-adv-x="525" 
d="M70 0v666h400v-111h-260v-161h248v-111h-248v-172h263v-111q-30 -18 -47 -30t-34 -32t-17 -40q0 -35 35 -35q24 0 40 6l8 -67q-39 -18 -89 -18q-52 0 -81.5 23.5t-29.5 68.5q0 71 90 124h-278z" />
    <glyph glyph-name="eogonek" unicode="&#x119;" horiz-adv-x="507" 
d="M440 -131l8 -67q-43 -18 -89 -18q-53 0 -80.5 24.5t-27.5 68.5q0 67 72 114q-12 -1 -36 -1q-120 0 -187 68.5t-67 182.5q0 116 64.5 186t175.5 70q95 0 147 -56.5t52 -153.5q0 -40 -10 -78h-289q5 -118 132 -118q79 0 142 29l17 -93q-46 -29 -72.5 -64t-26.5 -66
q0 -34 37 -34q22 0 38 6zM265 405q-41 0 -64 -28.5t-27 -75.5h167q5 48 -14.5 76t-61.5 28z" />
    <glyph glyph-name="Ecaron" unicode="&#x11a;" horiz-adv-x="525" 
d="M70 0v666h400v-111h-260v-161h248v-111h-248v-172h263v-111h-403zM437 846l-93 -120h-136l-93 120h117l44 -58l44 58h117z" />
    <glyph glyph-name="ecaron" unicode="&#x11b;" horiz-adv-x="507" 
d="M273 497q95 0 147 -56.5t52 -153.5q0 -40 -10 -78h-289q5 -118 132 -118q79 0 142 29l17 -93q-74 -37 -177 -37q-120 0 -187 68.5t-67 182.5q0 116 64.5 186t175.5 70zM265 405q-41 0 -64 -28.5t-27 -75.5h167q5 48 -14.5 76t-61.5 28zM432 724l-108 -166h-124l-108 166
h115l55 -93l55 93h115z" />
    <glyph glyph-name="Gcircumflex" unicode="&#x11c;" horiz-adv-x="688" 
d="M400 678q124 0 213 -41l-20 -109q-92 38 -182 38q-110 0 -172 -61.5t-62 -181.5q0 -229 232 -229q51 0 93 13v197h126v-272q-105 -44 -237 -44q-164 0 -259 92.5t-95 243.5q0 160 97 257t266 97zM441 846l93 -120h-117l-44 58l-44 -58h-117l93 120h136z" />
    <glyph glyph-name="gcircumflex" unicode="&#x11d;" horiz-adv-x="520" 
d="M313 487h190v-91h-77q17 -29 17 -67q0 -72 -55 -118.5t-149 -46.5q-9 0 -17 1q-11 -18 -11 -31q0 -30 54 -33l80 -5q160 -10 160 -128q0 -84 -83 -134t-197 -50q-93 0 -155 30.5t-62 93.5q0 82 126 112q-45 22 -45 68q0 57 68 88q-58 17 -90 57.5t-32 95.5q0 74 54.5 121
t149.5 47q37 0 74 -10zM307 -5l-111 9q-59 -32 -59 -70q0 -60 99 -60q57 0 99.5 20.5t42.5 55.5q0 40 -71 45zM239 251q38 0 61 21.5t23 57.5q0 37 -22.5 58.5t-61.5 21.5t-61.5 -21.5t-22.5 -58.5t23 -58t61 -21zM300 724l108 -166h-115l-55 93l-55 -93h-115l108 166h124z
" />
    <glyph glyph-name="Gbreve" unicode="&#x11e;" horiz-adv-x="688" 
d="M400 678q124 0 213 -41l-20 -109q-92 38 -182 38q-110 0 -172 -61.5t-62 -181.5q0 -229 232 -229q51 0 93 13v197h126v-272q-105 -44 -237 -44q-164 0 -259 92.5t-95 243.5q0 160 97 257t266 97zM439 870l91 -26q-15 -58 -58 -89.5t-104 -31.5t-104 31.5t-58 89.5l91 26
q19 -62 71 -62t71 62z" />
    <glyph glyph-name="gbreve" unicode="&#x11f;" horiz-adv-x="520" 
d="M313 487h190v-91h-77q17 -29 17 -67q0 -72 -55 -118.5t-149 -46.5q-9 0 -17 1q-11 -18 -11 -31q0 -30 54 -33l80 -5q160 -10 160 -128q0 -84 -83 -134t-197 -50q-93 0 -155 30.5t-62 93.5q0 82 126 112q-45 22 -45 68q0 57 68 88q-58 17 -90 57.5t-32 95.5q0 74 54.5 121
t149.5 47q37 0 74 -10zM307 -5l-111 9q-59 -32 -59 -70q0 -60 99 -60q57 0 99.5 20.5t42.5 55.5q0 40 -71 45zM239 251q38 0 61 21.5t23 57.5q0 37 -22.5 58.5t-61.5 21.5t-61.5 -21.5t-22.5 -58.5t23 -58t61 -21zM313 721l91 -19q-11 -69 -55 -106.5t-110 -37.5t-110 37.5
t-55 106.5l91 19q13 -77 74 -77t74 77z" />
    <glyph glyph-name="Gdotaccent" unicode="&#x120;" horiz-adv-x="688" 
d="M400 678q124 0 213 -41l-20 -109q-92 38 -182 38q-110 0 -172 -61.5t-62 -181.5q0 -229 232 -229q51 0 93 13v197h126v-272q-105 -44 -237 -44q-164 0 -259 92.5t-95 243.5q0 160 97 257t266 97zM293 801q0 33 22.5 56t56.5 23q35 0 57.5 -23t22.5 -56t-22.5 -56
t-57.5 -23q-34 0 -56.5 23t-22.5 56z" />
    <glyph glyph-name="gdotaccent" unicode="&#x121;" horiz-adv-x="520" 
d="M313 487h190v-91h-77q17 -29 17 -67q0 -72 -55 -118.5t-149 -46.5q-9 0 -17 1q-11 -18 -11 -31q0 -30 54 -33l80 -5q160 -10 160 -128q0 -84 -83 -134t-197 -50q-93 0 -155 30.5t-62 93.5q0 82 126 112q-45 22 -45 68q0 57 68 88q-58 17 -90 57.5t-32 95.5q0 74 54.5 121
t149.5 47q37 0 74 -10zM307 -5l-111 9q-59 -32 -59 -70q0 -60 99 -60q57 0 99.5 20.5t42.5 55.5q0 40 -71 45zM239 251q38 0 61 21.5t23 57.5q0 37 -22.5 58.5t-61.5 21.5t-61.5 -21.5t-22.5 -58.5t23 -58t61 -21zM155 629q0 33 22.5 56t56.5 23q35 0 57.5 -23t22.5 -56
t-22.5 -56t-57.5 -23q-34 0 -56.5 23t-22.5 56z" />
    <glyph glyph-name="Gcommaaccent" unicode="&#x122;" horiz-adv-x="688" 
d="M400 678q124 0 213 -41l-20 -109q-92 38 -182 38q-110 0 -172 -61.5t-62 -181.5q0 -229 232 -229q51 0 93 13v197h126v-272q-105 -44 -237 -44q-164 0 -259 92.5t-95 243.5q0 160 97 257t266 97zM393 -250l-94 42q31 71 31 146h128q0 -109 -65 -188z" />
    <glyph glyph-name="gcommaaccent" unicode="&#x123;" horiz-adv-x="520" 
d="M313 487h190v-91h-77q17 -29 17 -67q0 -72 -55 -118.5t-149 -46.5q-9 0 -17 1q-11 -18 -11 -31q0 -30 54 -33l80 -5q160 -10 160 -128q0 -84 -83 -134t-197 -50q-93 0 -155 30.5t-62 93.5q0 82 126 112q-45 22 -45 68q0 57 68 88q-58 17 -90 57.5t-32 95.5q0 74 54.5 121
t149.5 47q37 0 74 -10zM307 -5l-111 9q-59 -32 -59 -70q0 -60 99 -60q57 0 99.5 20.5t42.5 55.5q0 40 -71 45zM239 251q38 0 61 21.5t23 57.5q0 37 -22.5 58.5t-61.5 21.5t-61.5 -21.5t-22.5 -58.5t23 -58t61 -21zM247 744l90 -42q-32 -47 -39 -144l-125 7q1 104 74 179z
" />
    <glyph glyph-name="Hcircumflex" unicode="&#x124;" horiz-adv-x="696" 
d="M626 0h-140v280h-276v-280h-140v666h140v-270h276v270h140v-666zM416 846l93 -120h-117l-44 58l-44 -58h-117l93 120h136z" />
    <glyph glyph-name="hcircumflex" unicode="&#x125;" horiz-adv-x="575" 
d="M202 0h-137v706h137v-278q48 69 137 69t132.5 -69t43.5 -175v-253h-137v254q0 134 -88 134q-54 0 -88 -47v-341zM204 866l93 -120h-117l-44 58l-44 -58h-117l93 120h136z" />
    <glyph glyph-name="Hbar" unicode="&#x126;" horiz-adv-x="736" 
d="M646 0h-140v280h-276v-280h-140v480h-80v95h80v91h140v-91h276v91h140v-91h80v-95h-80v-480zM230 396h276v84h-276v-84z" />
    <glyph glyph-name="hbar" unicode="&#x127;" horiz-adv-x="575" 
d="M-5 543v93h70v70h137v-70h125v-93h-125v-115q48 69 137 69t132.5 -69t43.5 -175v-253h-137v254q0 134 -88 134q-54 0 -88 -47v-341h-137v543h-70z" />
    <glyph glyph-name="Itilde" unicode="&#x128;" horiz-adv-x="290" 
d="M215 666v-666h-140v666h140zM230 726q-37 0 -90 20q-51 19 -67 19q-27 0 -40 -41l-84 30q15 57 40 82.5t75 25.5q38 0 89 -20q52 -20 64 -20q15 0 23.5 9.5t19.5 31.5l78 -37q-20 -52 -43 -76t-65 -24z" />
    <glyph glyph-name="itilde" unicode="&#x129;" horiz-adv-x="267" 
d="M202 0h-137v487h137v-487zM210 565q-24 0 -83 25q-46 20 -57 20q-9 0 -15 -2.5t-12 -10.5t-9 -13.5t-10 -20.5l-77 36q19 60 45.5 85.5t74.5 25.5q26 0 78 -24q46 -21 57 -21q16 0 25.5 10t21.5 35l76 -38q-29 -62 -52 -84.5t-63 -22.5z" />
    <glyph glyph-name="uni012A" unicode="&#x12a;" horiz-adv-x="290" 
d="M215 666v-666h-140v666h140zM-25 737v104h340v-104h-340z" />
    <glyph glyph-name="imacron" unicode="&#x12b;" horiz-adv-x="267" 
d="M202 0h-137v487h137v-487zM-17 577v104h301v-104h-301z" />
    <glyph glyph-name="Ibreve" unicode="&#x12c;" horiz-adv-x="290" 
d="M215 666v-666h-140v666h140zM216 870l91 -26q-15 -58 -58 -89.5t-104 -31.5t-104 31.5t-58 89.5l91 26q19 -62 71 -62t71 62z" />
    <glyph glyph-name="uni012D" unicode="&#x12d;" horiz-adv-x="267" 
d="M202 0h-137v487h137v-487zM208 721l91 -19q-11 -69 -55 -106.5t-110 -37.5t-110 37.5t-55 106.5l91 19q13 -77 74 -77t74 77z" />
    <glyph glyph-name="Iogonek" unicode="&#x12e;" horiz-adv-x="290" 
d="M205 -131l8 -67q-38 -18 -84 -18q-53 0 -80.5 28.5t-27.5 74.5q0 59 54 113v666h140v-666q-82 -58 -82 -102q0 -35 35 -35q20 0 37 6z" />
    <glyph glyph-name="iogonek" unicode="&#x12f;" horiz-adv-x="267" 
d="M192 -131l8 -67q-38 -18 -84 -18q-53 0 -80.5 28.5t-27.5 74.5q0 56 57 113v487h137v-487q-82 -58 -82 -102q0 -35 35 -35q21 0 37 6zM54 629q0 33 22.5 56t56.5 23q35 0 57.5 -23t22.5 -56t-22.5 -56t-57.5 -23q-34 0 -56.5 23t-22.5 56z" />
    <glyph glyph-name="Idotaccent" unicode="&#x130;" horiz-adv-x="290" 
d="M215 666v-666h-140v666h140zM66 801q0 33 22.5 56t56.5 23q35 0 57.5 -23t22.5 -56t-22.5 -56t-57.5 -23q-34 0 -56.5 23t-22.5 56z" />
    <glyph glyph-name="dotlessi" unicode="&#x131;" horiz-adv-x="267" 
d="M202 0h-137v487h137v-487z" />
    <glyph glyph-name="IJ" unicode="&#x132;" horiz-adv-x="578" 
d="M215 666v-666h-140v666h140zM508 157q-1 -100 -28.5 -173.5t-105.5 -153.5l-97 76q48 55 69.5 106.5t21.5 121.5v532h140v-509z" />
    <glyph glyph-name="ij" unicode="&#x133;" horiz-adv-x="541" 
d="M202 0h-137v487h137v-487zM54 629q0 33 22.5 56t56.5 23q35 0 57.5 -23t22.5 -56t-22.5 -56t-57.5 -23q-34 0 -56.5 23t-22.5 56zM476 116q0 -107 -32.5 -182t-114.5 -150l-89 78q52 56 75.5 110t23.5 129v386h137v-371zM328 629q0 33 22.5 56t56.5 23q35 0 57.5 -23
t22.5 -56t-22.5 -56t-57.5 -23q-34 0 -56.5 23t-22.5 56z" />
    <glyph glyph-name="Jcircumflex" unicode="&#x134;" horiz-adv-x="288" 
d="M218 157q-1 -100 -28.5 -173.5t-105.5 -153.5l-97 76q48 55 69.5 106.5t21.5 121.5v532h140v-509zM216 846l93 -120h-117l-44 58l-44 -58h-117l93 120h136z" />
    <glyph glyph-name="jcircumflex" unicode="&#x135;" horiz-adv-x="274" 
d="M209 116q0 -107 -32.5 -182t-114.5 -150l-89 78q52 56 75.5 110t23.5 129v386h137v-371zM204 724l108 -166h-115l-55 93l-55 -93h-115l108 166h124z" />
    <glyph glyph-name="Kcommaaccent" unicode="&#x136;" horiz-adv-x="625" 
d="M210 0h-140v666h140v-320l231 320h162l-245 -329l262 -337h-173l-237 327v-327zM322 -250l-94 42q31 71 31 146h128q0 -109 -65 -188z" />
    <glyph glyph-name="kcommaaccent" unicode="&#x137;" horiz-adv-x="538" 
d="M202 0h-137v706h137v-448l162 229h152l-173 -240l197 -247h-163l-175 237v-237zM285 -250l-94 42q31 71 31 146h128q0 -109 -65 -188z" />
    <glyph glyph-name="kgreenlandic" unicode="&#x138;" horiz-adv-x="538" 
d="M202 0h-137v487h137v-229l162 229h152l-173 -240l197 -247h-163l-175 237v-237z" />
    <glyph glyph-name="Lacute" unicode="&#x139;" horiz-adv-x="481" 
d="M70 666h140v-554h248v-112h-388v666zM194 726h-113l75 120h161z" />
    <glyph glyph-name="lacute" unicode="&#x13a;" horiz-adv-x="297" 
d="M195 706v-565q0 -46 42 -46q22 0 38 4l5 -96q-38 -12 -91 -12q-69 0 -100 39t-31 98v578h137zM183 746h-113l75 120h161z" />
    <glyph glyph-name="Lcommaaccent" unicode="&#x13b;" horiz-adv-x="481" 
d="M70 666h140v-554h248v-112h-388v666zM255 -250l-94 42q31 71 31 146h128q0 -109 -65 -188z" />
    <glyph glyph-name="lcommaaccent" unicode="&#x13c;" horiz-adv-x="298" 
d="M195 706v-565q0 -46 42 -46q22 0 38 4l5 -96q-38 -12 -91 -12q-69 0 -100 39t-31 98v578h137zM173 -250l-94 42q31 71 31 146h128q0 -109 -65 -188z" />
    <glyph glyph-name="Lcaron" unicode="&#x13d;" horiz-adv-x="481" 
d="M70 666h140v-554h248v-112h-388v666zM366 413l-86 42q48 94 54 211l121 -11q-3 -130 -89 -242z" />
    <glyph glyph-name="lcaron" unicode="&#x13e;" horiz-adv-x="397" 
d="M195 706v-565q0 -46 42 -46q22 0 38 4l5 -96q-38 -12 -91 -12q-69 0 -100 39t-31 98v578h137zM336 453l-86 42q48 94 54 211l121 -11q-3 -130 -89 -242z" />
    <glyph glyph-name="Ldot" unicode="&#x13f;" horiz-adv-x="481" 
d="M70 666h140v-554h248v-112h-388v666zM272 323q0 33 21.5 56t57.5 23t57.5 -23t21.5 -56q0 -34 -21.5 -57t-57.5 -23t-57.5 23t-21.5 57z" />
    <glyph glyph-name="ldot" unicode="&#x140;" horiz-adv-x="417" 
d="M195 706v-565q0 -46 42 -46q22 0 38 4l5 -96q-38 -12 -91 -12q-69 0 -100 39t-31 98v578h137zM251 294q0 33 21.5 56t57.5 23t57.5 -23t21.5 -56q0 -34 -21.5 -57t-57.5 -23t-57.5 23t-21.5 57z" />
    <glyph glyph-name="Lslash" unicode="&#x141;" horiz-adv-x="481" 
d="M410 400l-200 -99v-189h248v-112h-388v231l-41 -20l-43 98l84 42v315h140v-246l154 77z" />
    <glyph glyph-name="lslash" unicode="&#x142;" horiz-adv-x="298" 
d="M311 390l-116 -57v-192q0 -46 42 -46q22 0 38 4l5 -96q-38 -12 -91 -12q-69 0 -100 39t-31 98v137l-36 -17l-45 97l81 40v321h137v-254l70 35z" />
    <glyph glyph-name="Nacute" unicode="&#x143;" horiz-adv-x="719" 
d="M649 0h-134l-311 436v-436h-134v666h134l311 -436v436h134v-666zM398 726h-113l75 120h161z" />
    <glyph glyph-name="nacute" unicode="&#x144;" horiz-adv-x="575" 
d="M202 0h-137v487h132v-66q47 76 142 76q89 0 132.5 -69t43.5 -175v-253h-137v254q0 134 -88 134q-54 0 -88 -47v-341zM322 558h-113l73 166h151z" />
    <glyph glyph-name="Ncommaaccent" unicode="&#x145;" horiz-adv-x="719" 
d="M649 0h-134l-311 436v-436h-134v666h134l311 -436v436h134v-666zM364 -250l-94 42q31 71 31 146h128q0 -109 -65 -188z" />
    <glyph glyph-name="ncommaaccent" unicode="&#x146;" horiz-adv-x="575" 
d="M202 0h-137v487h132v-66q47 76 142 76q89 0 132.5 -69t43.5 -175v-253h-137v254q0 134 -88 134q-54 0 -88 -47v-341zM288 -250l-94 42q31 71 31 146h128q0 -109 -65 -188z" />
    <glyph glyph-name="Ncaron" unicode="&#x147;" horiz-adv-x="719" 
d="M649 0h-134l-311 436v-436h-134v666h134l311 -436v436h134v-666zM524 846l-93 -120h-136l-93 120h117l44 -58l44 58h117z" />
    <glyph glyph-name="ncaron" unicode="&#x148;" horiz-adv-x="575" 
d="M202 0h-137v487h132v-66q47 76 142 76q89 0 132.5 -69t43.5 -175v-253h-137v254q0 134 -88 134q-54 0 -88 -47v-341zM456 724l-108 -166h-124l-108 166h115l55 -93l55 93h115z" />
    <glyph glyph-name="napostrophe" unicode="&#x149;" horiz-adv-x="716" 
d="M343 0h-137v487h132v-66q47 76 142 76q89 0 132.5 -69t43.5 -175v-253h-137v254q0 134 -88 134q-54 0 -88 -47v-341zM92 453l-86 42q48 94 54 211l121 -11q-3 -130 -89 -242z" />
    <glyph glyph-name="Eng" unicode="&#x14a;" horiz-adv-x="719" 
d="M649 666v-584q0 -114 -50.5 -184.5t-171.5 -113.5l-45 104q96 34 129 113l-307 435v-436h-134v666h134l311 -436v436h134z" />
    <glyph glyph-name="eng" unicode="&#x14b;" horiz-adv-x="575" 
d="M515 82q0 -115 -45 -183.5t-164 -114.5l-48 104q63 28 91.5 69t28.5 111v186q0 134 -88 134q-54 0 -88 -47v-341h-137v487h132v-66q47 76 142 76q89 0 132.5 -69t43.5 -175v-171z" />
    <glyph glyph-name="Omacron" unicode="&#x14c;" horiz-adv-x="746" 
d="M708 333q0 -147 -90 -246t-245 -99t-245 99t-90 246t90 246t245 99t245 -99t90 -246zM373 98q94 0 144.5 65t50.5 170t-50.5 170t-144.5 65t-144.5 -65t-50.5 -170t50.5 -170t144.5 -65zM203 737v104h340v-104h-340z" />
    <glyph glyph-name="omacron" unicode="&#x14d;" horiz-adv-x="568" 
d="M535 243q0 -110 -66.5 -181.5t-184.5 -71.5t-184.5 71.5t-66.5 181.5t66.5 182t184.5 72t184.5 -72t66.5 -182zM398 243q0 66 -27.5 109t-86.5 43t-86.5 -43t-27.5 -109t27.5 -108.5t86.5 -42.5t86.5 42.5t27.5 108.5zM133 577v104h301v-104h-301z" />
    <glyph glyph-name="Obreve" unicode="&#x14e;" horiz-adv-x="746" 
d="M708 333q0 -147 -90 -246t-245 -99t-245 99t-90 246t90 246t245 99t245 -99t90 -246zM373 98q94 0 144.5 65t50.5 170t-50.5 170t-144.5 65t-144.5 -65t-50.5 -170t50.5 -170t144.5 -65zM444 870l91 -26q-15 -58 -58 -89.5t-104 -31.5t-104 31.5t-58 89.5l91 26
q19 -62 71 -62t71 62z" />
    <glyph glyph-name="obreve" unicode="&#x14f;" horiz-adv-x="568" 
d="M535 243q0 -110 -66.5 -181.5t-184.5 -71.5t-184.5 71.5t-66.5 181.5t66.5 182t184.5 72t184.5 -72t66.5 -182zM398 243q0 66 -27.5 109t-86.5 43t-86.5 -43t-27.5 -109t27.5 -108.5t86.5 -42.5t86.5 42.5t27.5 108.5zM358 721l91 -19q-11 -69 -55 -106.5t-110 -37.5
t-110 37.5t-55 106.5l91 19q13 -77 74 -77t74 77z" />
    <glyph glyph-name="Ohungarumlaut" unicode="&#x150;" horiz-adv-x="746" 
d="M708 333q0 -147 -90 -246t-245 -99t-245 99t-90 246t90 246t245 99t245 -99t90 -246zM373 98q94 0 144.5 65t50.5 170t-50.5 170t-144.5 65t-144.5 -65t-50.5 -170t50.5 -170t144.5 -65zM330 726h-108l44 120h136zM533 726h-108l44 120h136z" />
    <glyph glyph-name="ohungarumlaut" unicode="&#x151;" horiz-adv-x="568" 
d="M535 243q0 -110 -66.5 -181.5t-184.5 -71.5t-184.5 71.5t-66.5 181.5t66.5 182t184.5 72t184.5 -72t66.5 -182zM398 243q0 66 -27.5 109t-86.5 43t-86.5 -43t-27.5 -109t27.5 -108.5t86.5 -42.5t86.5 42.5t27.5 108.5zM245 558h-101l53 166h131zM439 558h-101l53 166h131
z" />
    <glyph glyph-name="OE" unicode="&#x152;" horiz-adv-x="974" 
d="M519 666h400v-111h-260v-161h248v-111h-248v-172h263v-111h-403q-74 -12 -128 -12q-166 0 -260.5 98t-94.5 247t94.5 247t260.5 98q54 0 128 -12zM403 100q61 0 116 12v442q-55 12 -116 12q-110 0 -168.5 -61.5t-58.5 -171.5t58.5 -171.5t168.5 -61.5z" />
    <glyph glyph-name="oe" unicode="&#x153;" horiz-adv-x="872" 
d="M634 497q95 0 149 -58t54 -152q0 -37 -10 -78h-291q3 -118 134 -118q75 0 142 29l18 -93q-64 -37 -182 -37q-60 0 -110 22t-76 58q-30 -36 -77 -58t-101 -22q-119 0 -185 71.5t-66 181.5t67.5 182t184.5 72q109 0 178 -79q60 79 171 79zM400 243q0 68 -30 110t-85 42
t-85 -40.5t-30 -111.5t30 -111t85 -40t85 41.5t30 109.5zM629 406q-37 0 -62.5 -29t-27.5 -76h167q5 42 -13.5 73.5t-63.5 31.5z" />
    <glyph glyph-name="Racute" unicode="&#x154;" horiz-adv-x="622" 
d="M552 463q0 -140 -155 -194l225 -269h-174l-193 243h-45v-243h-140v666h199q128 0 205.5 -52t77.5 -151zM412 460q0 49 -38.5 73t-105.5 24h-58v-208h42q73 0 116.5 29t43.5 82zM308 726h-113l75 120h161z" />
    <glyph glyph-name="racute" unicode="&#x155;" horiz-adv-x="379" 
d="M364 487v-117h-23q-97 0 -139 -62v-308h-137v487h132v-86q30 91 126 91q23 0 41 -5zM250 558h-113l73 166h151z" />
    <glyph glyph-name="Rcommaaccent" unicode="&#x156;" horiz-adv-x="622" 
d="M552 463q0 -140 -155 -194l225 -269h-174l-193 243h-45v-243h-140v666h199q128 0 205.5 -52t77.5 -151zM412 460q0 49 -38.5 73t-105.5 24h-58v-208h42q73 0 116.5 29t43.5 82zM315 -250l-94 42q31 71 31 146h128q0 -109 -65 -188z" />
    <glyph glyph-name="rcommaaccent" unicode="&#x157;" horiz-adv-x="379" 
d="M364 487v-117h-23q-97 0 -139 -62v-308h-137v487h132v-86q30 91 126 91q23 0 41 -5zM130 -250l-94 42q31 71 31 146h128q0 -109 -65 -188z" />
    <glyph glyph-name="Rcaron" unicode="&#x158;" horiz-adv-x="622" 
d="M552 463q0 -140 -155 -194l225 -269h-174l-193 243h-45v-243h-140v666h199q128 0 205.5 -52t77.5 -151zM412 460q0 49 -38.5 73t-105.5 24h-58v-208h42q73 0 116.5 29t43.5 82zM442 846l-93 -120h-136l-93 120h117l44 -58l44 58h117z" />
    <glyph glyph-name="rcaron" unicode="&#x159;" horiz-adv-x="379" 
d="M364 487v-117h-23q-97 0 -139 -62v-308h-137v487h132v-86q30 91 126 91q23 0 41 -5zM387 724l-108 -166h-124l-108 166h115l55 -93l55 93h115z" />
    <glyph glyph-name="Sacute" unicode="&#x15a;" horiz-adv-x="527" 
d="M494 190q0 -88 -69 -145t-180 -57q-112 0 -205 45l29 107q86 -41 172 -41q51 0 82 21t31 59q0 34 -28 57.5t-94 49.5q-92 37 -137.5 84t-45.5 117q0 91 62 141t168 50q105 0 186 -42l-26 -107q-76 38 -152 38q-98 0 -98 -68q0 -32 20.5 -50.5t81.5 -44.5q46 -20 77.5 -37
t63 -42.5t47 -59t15.5 -75.5zM296 726h-113l75 120h161z" />
    <glyph glyph-name="sacute" unicode="&#x15b;" horiz-adv-x="433" 
d="M405 152q0 -77 -58.5 -119.5t-150.5 -42.5q-88 0 -160 31l20 97q69 -28 135 -28q79 0 79 46q0 7 -1.5 12t-6 10t-8.5 8t-13 7.5t-14 6.5t-18 7t-19 8q-38 16 -57 25.5t-44.5 28t-36.5 43t-11 57.5q0 73 52.5 110.5t136.5 37.5q90 0 155 -34l-21 -97q-67 30 -124 30
q-64 0 -64 -34q0 -7 3 -12.5t6.5 -9.5t12 -8.5t14 -7t17.5 -7.5t18 -8q4 -2 26 -11t30.5 -13.5t28.5 -15.5t29.5 -21t21.5 -24.5t17 -32.5t5 -39zM258 558h-113l73 166h151z" />
    <glyph glyph-name="Scircumflex" unicode="&#x15c;" horiz-adv-x="527" 
d="M494 190q0 -88 -69 -145t-180 -57q-112 0 -205 45l29 107q86 -41 172 -41q51 0 82 21t31 59q0 34 -28 57.5t-94 49.5q-92 37 -137.5 84t-45.5 117q0 91 62 141t168 50q105 0 186 -42l-26 -107q-76 38 -152 38q-98 0 -98 -68q0 -32 20.5 -50.5t81.5 -44.5q46 -20 77.5 -37
t63 -42.5t47 -59t15.5 -75.5zM332 846l93 -120h-117l-44 58l-44 -58h-117l93 120h136z" />
    <glyph glyph-name="scircumflex" unicode="&#x15d;" horiz-adv-x="433" 
d="M405 152q0 -77 -58.5 -119.5t-150.5 -42.5q-88 0 -160 31l20 97q69 -28 135 -28q79 0 79 46q0 7 -1.5 12t-6 10t-8.5 8t-13 7.5t-14 6.5t-18 7t-19 8q-38 16 -57 25.5t-44.5 28t-36.5 43t-11 57.5q0 73 52.5 110.5t136.5 37.5q90 0 155 -34l-21 -97q-67 30 -124 30
q-64 0 -64 -34q0 -7 3 -12.5t6.5 -9.5t12 -8.5t14 -7t17.5 -7.5t18 -8q4 -2 26 -11t30.5 -13.5t28.5 -15.5t29.5 -21t21.5 -24.5t17 -32.5t5 -39zM278 724l108 -166h-115l-55 93l-55 -93h-115l108 166h124z" />
    <glyph glyph-name="Scedilla" unicode="&#x15e;" horiz-adv-x="527" 
d="M360 -117q0 -45 -48 -70t-124 -29l-9 67q71 8 71 34q0 12 -12 19.5t-24 9.5t-33 5l27 71q-93 6 -168 43l29 107q86 -41 172 -41q51 0 82 21t31 59q0 34 -28 57.5t-94 49.5q-92 37 -137.5 84t-45.5 117q0 91 62 141t168 50q105 0 186 -42l-26 -107q-76 38 -152 38
q-98 0 -98 -68q0 -32 20.5 -50.5t81.5 -44.5q46 -20 77.5 -37t63 -42.5t47 -59t15.5 -75.5q0 -81 -59 -136.5t-156 -63.5l-10 -31q41 -4 66 -23t25 -53z" />
    <glyph glyph-name="Scedilla" unicode="&#xf6c1;" horiz-adv-x="527" 
d="M360 -117q0 -45 -48 -70t-124 -29l-9 67q71 8 71 34q0 12 -12 19.5t-24 9.5t-33 5l27 71q-93 6 -168 43l29 107q86 -41 172 -41q51 0 82 21t31 59q0 34 -28 57.5t-94 49.5q-92 37 -137.5 84t-45.5 117q0 91 62 141t168 50q105 0 186 -42l-26 -107q-76 38 -152 38
q-98 0 -98 -68q0 -32 20.5 -50.5t81.5 -44.5q46 -20 77.5 -37t63 -42.5t47 -59t15.5 -75.5q0 -81 -59 -136.5t-156 -63.5l-10 -31q41 -4 66 -23t25 -53z" />
    <glyph glyph-name="scedilla" unicode="&#x15f;" horiz-adv-x="433" 
d="M314 -117q0 -45 -48 -70t-124 -29l-9 67q71 8 71 34q0 12 -12 19.5t-24 9.5t-33 5l27 73q-74 7 -126 29l20 97q69 -28 135 -28q79 0 79 46q0 7 -1.5 12t-6 10t-8.5 8t-13 7.5t-14 6.5t-18 7t-19 8q-38 16 -57 25.5t-44.5 28t-36.5 43t-11 57.5q0 73 52.5 110.5
t136.5 37.5q90 0 155 -34l-21 -97q-67 30 -124 30q-64 0 -64 -34q0 -7 3 -12.5t6.5 -9.5t12 -8.5t14 -7t17.5 -7.5t18 -8q4 -2 26 -11t30.5 -13.5t28.5 -15.5t29.5 -21t21.5 -24.5t17 -32.5t5 -39q0 -68 -47 -109.5t-124 -50.5l-11 -33q41 -4 66 -23t25 -53z" />
    <glyph glyph-name="scedilla" unicode="&#xf6c2;" horiz-adv-x="433" 
d="M314 -117q0 -45 -48 -70t-124 -29l-9 67q71 8 71 34q0 12 -12 19.5t-24 9.5t-33 5l27 73q-74 7 -126 29l20 97q69 -28 135 -28q79 0 79 46q0 7 -1.5 12t-6 10t-8.5 8t-13 7.5t-14 6.5t-18 7t-19 8q-38 16 -57 25.5t-44.5 28t-36.5 43t-11 57.5q0 73 52.5 110.5
t136.5 37.5q90 0 155 -34l-21 -97q-67 30 -124 30q-64 0 -64 -34q0 -7 3 -12.5t6.5 -9.5t12 -8.5t14 -7t17.5 -7.5t18 -8q4 -2 26 -11t30.5 -13.5t28.5 -15.5t29.5 -21t21.5 -24.5t17 -32.5t5 -39q0 -68 -47 -109.5t-124 -50.5l-11 -33q41 -4 66 -23t25 -53z" />
    <glyph glyph-name="Scaron" unicode="&#x160;" horiz-adv-x="527" 
d="M494 190q0 -88 -69 -145t-180 -57q-112 0 -205 45l29 107q86 -41 172 -41q51 0 82 21t31 59q0 34 -28 57.5t-94 49.5q-92 37 -137.5 84t-45.5 117q0 91 62 141t168 50q105 0 186 -42l-26 -107q-76 38 -152 38q-98 0 -98 -68q0 -32 20.5 -50.5t81.5 -44.5q46 -20 77.5 -37
t63 -42.5t47 -59t15.5 -75.5zM416 846l-93 -120h-136l-93 120h117l44 -58l44 58h117z" />
    <glyph glyph-name="scaron" unicode="&#x161;" horiz-adv-x="433" 
d="M405 152q0 -77 -58.5 -119.5t-150.5 -42.5q-88 0 -160 31l20 97q69 -28 135 -28q79 0 79 46q0 7 -1.5 12t-6 10t-8.5 8t-13 7.5t-14 6.5t-18 7t-19 8q-38 16 -57 25.5t-44.5 28t-36.5 43t-11 57.5q0 73 52.5 110.5t136.5 37.5q90 0 155 -34l-21 -97q-67 30 -124 30
q-64 0 -64 -34q0 -7 3 -12.5t6.5 -9.5t12 -8.5t14 -7t17.5 -7.5t18 -8q4 -2 26 -11t30.5 -13.5t28.5 -15.5t29.5 -21t21.5 -24.5t17 -32.5t5 -39zM383 724l-108 -166h-124l-108 166h115l55 -93l55 93h115z" />
    <glyph glyph-name="Tcommaaccent" unicode="&#x162;" horiz-adv-x="546" 
d="M19 666h508v-112h-184v-554h-140v554h-184v112zM269 -250l-94 42q31 71 31 146h128q0 -109 -65 -188z" />
    <glyph glyph-name="Tcommaaccent" unicode="&#x21a;" horiz-adv-x="546" 
d="M19 666h508v-112h-184v-554h-140v554h-184v112zM269 -250l-94 42q31 71 31 146h128q0 -109 -65 -188z" />
    <glyph glyph-name="tcommaaccent" unicode="&#x163;" horiz-adv-x="401" 
d="M15 380v107h79v126h137v-126h146v-107h-146v-209q0 -37 13.5 -55.5t48.5 -18.5q39 0 74 11l10 -97q-51 -21 -121 -21q-83 0 -122.5 48.5t-39.5 128.5v213h-79zM247 -250l-94 42q31 71 31 146h128q0 -109 -65 -188z" />
    <glyph glyph-name="tcommaaccent" unicode="&#x21b;" horiz-adv-x="401" 
d="M15 380v107h79v126h137v-126h146v-107h-146v-209q0 -37 13.5 -55.5t48.5 -18.5q39 0 74 11l10 -97q-51 -21 -121 -21q-83 0 -122.5 48.5t-39.5 128.5v213h-79zM247 -250l-94 42q31 71 31 146h128q0 -109 -65 -188z" />
    <glyph glyph-name="Tcaron" unicode="&#x164;" horiz-adv-x="546" 
d="M19 666h508v-112h-184v-554h-140v554h-184v112zM434 846l-93 -120h-136l-93 120h117l44 -58l44 58h117z" />
    <glyph glyph-name="tcaron" unicode="&#x165;" horiz-adv-x="401" 
d="M15 380v107h78v126h138v-126h146v-107h-146v-209q0 -37 13.5 -55.5t48.5 -18.5q39 0 74 11l10 -97q-51 -21 -121 -21q-83 0 -122.5 48.5t-39.5 128.5v213h-79zM366 562l-90 42q33 70 36 146l121 -11q-10 -97 -67 -177z" />
    <glyph glyph-name="Tbar" unicode="&#x166;" horiz-adv-x="546" 
d="M459 257h-116v-257h-140v257h-116v105h116v192h-184v112h508v-112h-184v-192h116v-105z" />
    <glyph glyph-name="tbar" unicode="&#x167;" horiz-adv-x="401" 
d="M15 206v98h79v76h-79v107h78v126h138v-126h146v-107h-146v-76h121v-98h-121v-35q0 -37 13.5 -55.5t48.5 -18.5q39 0 74 11l10 -97q-51 -21 -121 -21q-83 0 -122.5 48.5t-39.5 128.5v39h-79z" />
    <glyph glyph-name="Utilde" unicode="&#x168;" horiz-adv-x="686" 
d="M478 234v432h140v-426q0 -114 -73.5 -183t-201.5 -69t-201.5 69t-73.5 183v426h140v-432q0 -63 34.5 -98.5t100.5 -35.5t100.5 35.5t34.5 98.5zM432 726q-37 0 -90 20q-51 19 -67 19q-27 0 -40 -41l-84 30q15 57 40 82.5t75 25.5q38 0 89 -20q52 -20 64 -20
q15 0 23.5 9.5t19.5 31.5l78 -37q-20 -52 -43 -76t-65 -24z" />
    <glyph glyph-name="utilde" unicode="&#x169;" horiz-adv-x="567" 
d="M365 487h137v-487h-132v66q-50 -76 -142 -76q-60 0 -100 35t-56 88t-16 121v253h137v-254q0 -68 19.5 -101t64.5 -33q54 0 88 47v341zM372 565q-24 0 -83 25q-46 20 -57 20q-9 0 -15 -2.5t-12 -10.5t-9 -13.5t-10 -20.5l-77 36q19 60 45.5 85.5t74.5 25.5q26 0 78 -24
q46 -21 57 -21q16 0 25.5 10t21.5 35l76 -38q-29 -62 -52 -84.5t-63 -22.5z" />
    <glyph glyph-name="Umacron" unicode="&#x16a;" horiz-adv-x="686" 
d="M478 234v432h140v-426q0 -114 -73.5 -183t-201.5 -69t-201.5 69t-73.5 183v426h140v-432q0 -63 34.5 -98.5t100.5 -35.5t100.5 35.5t34.5 98.5zM173 737v104h340v-104h-340z" />
    <glyph glyph-name="umacron" unicode="&#x16b;" horiz-adv-x="567" 
d="M365 487h137v-487h-132v66q-50 -76 -142 -76q-60 0 -100 35t-56 88t-16 121v253h137v-254q0 -68 19.5 -101t64.5 -33q54 0 88 47v341zM138 577v104h301v-104h-301z" />
    <glyph glyph-name="Ubreve" unicode="&#x16c;" horiz-adv-x="686" 
d="M478 234v432h140v-426q0 -114 -73.5 -183t-201.5 -69t-201.5 69t-73.5 183v426h140v-432q0 -63 34.5 -98.5t100.5 -35.5t100.5 35.5t34.5 98.5zM414 870l91 -26q-15 -58 -58 -89.5t-104 -31.5t-104 31.5t-58 89.5l91 26q19 -62 71 -62t71 62z" />
    <glyph glyph-name="ubreve" unicode="&#x16d;" horiz-adv-x="567" 
d="M365 487h137v-487h-132v66q-50 -76 -142 -76q-60 0 -100 35t-56 88t-16 121v253h137v-254q0 -68 19.5 -101t64.5 -33q54 0 88 47v341zM362 721l91 -19q-11 -69 -55 -106.5t-110 -37.5t-110 37.5t-55 106.5l91 19q13 -77 74 -77t74 77z" />
    <glyph glyph-name="Uring" unicode="&#x16e;" horiz-adv-x="686" 
d="M478 234v432h140v-426q0 -114 -73.5 -183t-201.5 -69t-201.5 69t-73.5 183v426h140v-432q0 -63 34.5 -98.5t100.5 -35.5t100.5 35.5t34.5 98.5zM442 816q0 -36 -27 -63t-73 -27t-72.5 27t-26.5 63t26.5 63.5t72.5 27.5t73 -27.5t27 -63.5zM303 816q0 -17 10.5 -28.5
t28.5 -11.5t29 11.5t11 28.5t-11 29t-29 12t-28.5 -12t-10.5 -29z" />
    <glyph glyph-name="uring" unicode="&#x16f;" horiz-adv-x="567" 
d="M365 487h137v-487h-132v66q-50 -76 -142 -76q-60 0 -100 35t-56 88t-16 121v253h137v-254q0 -68 19.5 -101t64.5 -33q54 0 88 47v341zM383 645q0 -36 -27 -63t-73 -27t-72.5 27t-26.5 63t26.5 63.5t72.5 27.5t73 -27.5t27 -63.5zM244 645q0 -17 10.5 -28.5t28.5 -11.5
t29 11.5t11 28.5t-11 29t-29 12t-28.5 -12t-10.5 -29z" />
    <glyph glyph-name="Uhungarumlaut" unicode="&#x170;" horiz-adv-x="686" 
d="M478 234v432h140v-426q0 -114 -73.5 -183t-201.5 -69t-201.5 69t-73.5 183v426h140v-432q0 -63 34.5 -98.5t100.5 -35.5t100.5 35.5t34.5 98.5zM289 726h-108l44 120h136zM492 726h-108l44 120h136z" />
    <glyph glyph-name="uhungarumlaut" unicode="&#x171;" horiz-adv-x="567" 
d="M365 487h137v-487h-132v66q-50 -76 -142 -76q-60 0 -100 35t-56 88t-16 121v253h137v-254q0 -68 19.5 -101t64.5 -33q54 0 88 47v341zM239 558h-101l53 166h131zM433 558h-101l53 166h131z" />
    <glyph glyph-name="Uogonek" unicode="&#x172;" horiz-adv-x="686" 
d="M465 -131l8 -67q-38 -18 -89 -18q-50 0 -78 25t-28 69q0 61 69 110h-4q-128 0 -201.5 69t-73.5 183v426h140v-432q0 -63 34.5 -98.5t100.5 -35.5t100.5 35.5t34.5 98.5v432h140v-426q0 -122 -101 -205q-8 -6 -35.5 -28t-37 -30.5t-26 -25t-22.5 -29.5t-6 -26
q0 -33 35 -33q23 0 40 6z" />
    <glyph glyph-name="uogonek" unicode="&#x173;" horiz-adv-x="567" 
d="M492 -131l8 -67q-38 -18 -89 -18q-49 0 -77.5 27.5t-28.5 72.5q0 61 65 116v66q-50 -76 -142 -76q-60 0 -100 35t-56 88t-16 121v253h137v-254q0 -68 19.5 -101t64.5 -33q54 0 88 47v341h137v-487q-85 -51 -85 -102q0 -35 35 -35q24 0 40 6z" />
    <glyph glyph-name="Wcircumflex" unicode="&#x174;" horiz-adv-x="978" 
d="M568 666l134 -489l118 489h142l-186 -666h-142l-145 522l-145 -522h-142l-186 666h142l118 -489l134 489h158zM557 846l93 -120h-117l-44 58l-44 -58h-117l93 120h136z" />
    <glyph glyph-name="wcircumflex" unicode="&#x175;" horiz-adv-x="782" 
d="M458 487l107 -321l79 321h131l-140 -487h-128l-116 343l-116 -343h-128l-140 487h131l79 -321l107 321h134zM453 724l108 -166h-115l-55 93l-55 -93h-115l108 166h124z" />
    <glyph glyph-name="Ycircumflex" unicode="&#x176;" horiz-adv-x="580" 
d="M290 373l137 293h153l-220 -417v-249h-140v249l-220 417h153zM358 846l93 -120h-117l-44 58l-44 -58h-117l93 120h136z" />
    <glyph glyph-name="ycircumflex" unicode="&#x177;" horiz-adv-x="493" 
d="M255 -206h-137l66 191l-179 502h142l103 -362l99 362h139zM317 724l108 -166h-115l-55 93l-55 -93h-115l108 166h124z" />
    <glyph glyph-name="Ydieresis" unicode="&#x178;" horiz-adv-x="580" 
d="M290 373l137 293h153l-220 -417v-249h-140v249l-220 417h153zM117 790q0 27 19 45.5t49 18.5t48.5 -18.5t18.5 -45.5q0 -29 -18.5 -47t-48.5 -18q-31 0 -49.5 18t-18.5 47zM327 790q0 27 19 45.5t49 18.5t48.5 -18.5t18.5 -45.5q0 -29 -18.5 -47t-48.5 -18
q-31 0 -49.5 18t-18.5 47z" />
    <glyph glyph-name="Zacute" unicode="&#x179;" horiz-adv-x="567" 
d="M65 554v112h454v-112l-311 -442h317v-112h-472v112l311 442h-299zM332 726h-113l75 120h161z" />
    <glyph glyph-name="zacute" unicode="&#x17a;" horiz-adv-x="471" 
d="M434 0h-385v99l225 288h-214v100h366v-100l-225 -287h233v-100zM286 558h-113l73 166h151z" />
    <glyph glyph-name="Zdotaccent" unicode="&#x17b;" horiz-adv-x="567" 
d="M65 554v112h454v-112l-311 -442h317v-112h-472v112l311 442h-299zM214 801q0 33 22.5 56t56.5 23q35 0 57.5 -23t22.5 -56t-22.5 -56t-57.5 -23q-34 0 -56.5 23t-22.5 56z" />
    <glyph glyph-name="zdotaccent" unicode="&#x17c;" horiz-adv-x="471" 
d="M434 0h-385v99l225 288h-214v100h366v-100l-225 -287h233v-100zM168 629q0 33 22.5 56t56.5 23q35 0 57.5 -23t22.5 -56t-22.5 -56t-57.5 -23q-34 0 -56.5 23t-22.5 56z" />
    <glyph glyph-name="Zcaron" unicode="&#x17d;" horiz-adv-x="567" 
d="M65 554v112h454v-112l-311 -442h317v-112h-472v112l311 442h-299zM458 846l-93 -120h-136l-93 120h117l44 -58l44 58h117z" />
    <glyph glyph-name="zcaron" unicode="&#x17e;" horiz-adv-x="471" 
d="M434 0h-385v99l225 288h-214v100h366v-100l-225 -287h233v-100zM423 724l-108 -166h-124l-108 166h115l55 -93l55 93h115z" />
    <glyph glyph-name="florin" unicode="&#x192;" horiz-adv-x="539" 
d="M194 320h-89v106h99l1 20q12 230 206 230q55 0 93 -14l-12 -101q-28 8 -59 8q-48 0 -68 -28t-24 -96l-1 -19h111v-106h-121l-10 -138q-4 -52 -10.5 -91t-22 -83t-39.5 -72t-64 -46.5t-93 -18.5q-49 0 -91 15l14 100q30 -8 59 -8q33 0 54 13t32.5 43.5t16 61t8.5 86.5z
" />
    <glyph glyph-name="Aringacute" unicode="&#x1fa;" horiz-adv-x="696" 
d="M408 846h-116l62 107h150zM448 723q0 -33 -23 -59l252 -664h-145l-47 140h-274l-47 -140h-145l252 664q-22 27 -22 59q0 36 26.5 63.5t72.5 27.5t73 -27.5t27 -63.5zM448 251l-100 303l-100 -303h200zM309 723q0 -18 10 -30t29 -12t29.5 12.5t10.5 29.5t-10.5 29
t-29.5 12t-29 -12t-10 -29z" />
    <glyph glyph-name="aringacute" unicode="&#x1fb;" horiz-adv-x="525" 
d="M333 0v52q-64 -62 -153 -62q-63 0 -101.5 39t-38.5 99q0 65 44 101t124 41q34 3 120 5v17q0 96 -95 96q-70 0 -132 -32l-27 96q78 45 183 45q98 0 153 -54t55 -156v-287h-132zM230 83q54 0 98 35v77q-55 -4 -89 -9q-33 -5 -49.5 -17.5t-16.5 -37.5q0 -48 57 -48zM361 638
q0 -36 -27 -63t-73 -27t-72.5 27t-26.5 63t26.5 63.5t72.5 27.5t73 -27.5t27 -63.5zM222 638q0 -17 10.5 -28.5t28.5 -11.5t29 11.5t11 28.5t-11 29t-29 12t-28.5 -12t-10.5 -29zM324 774h-116l62 107h150z" />
    <glyph glyph-name="AEacute" unicode="&#x1fc;" horiz-adv-x="897" 
d="M842 666v-111h-298l20 -161h262v-111h-248l23 -172h244v-111h-358l-18 140h-252l-77 -140h-145l386 666h461zM424 532l-143 -281h174zM538 726h-113l75 120h161z" />
    <glyph glyph-name="aeacute" unicode="&#x1fd;" horiz-adv-x="806" 
d="M572 497q96 0 147.5 -57.5t51.5 -152.5q0 -36 -10 -78h-289q1 -55 34.5 -86.5t97.5 -31.5q77 0 142 29l17 -93q-73 -37 -176 -37q-125 0 -192 73q-91 -73 -200 -73q-73 0 -114 38.5t-41 99.5q0 130 164 144q60 6 127 9v13q0 97 -97 97q-71 0 -140 -33l-26 96
q72 43 178 43t161 -70q58 70 165 70zM564 405q-39 0 -64.5 -29t-26.5 -75h167q7 46 -13 75t-63 29zM353 124q-15 35 -19 72q-59 -6 -100 -11q-31 -5 -47 -17t-16 -36q0 -49 59 -49q66 0 123 41zM472 558h-113l73 166h151z" />
    <glyph glyph-name="Oslashacute" unicode="&#x1fe;" horiz-adv-x="752" 
d="M41 -12l85 104q-85 97 -85 241q0 147 90 246t245 99q105 0 188 -52l85 104l62 -52l-86 -105q86 -95 86 -240q0 -147 -90 -246t-245 -99q-107 0 -188 51l-84 -103zM376 97q94 0 144.5 65.5t50.5 170.5q0 80 -30 138l-278 -340q46 -34 113 -34zM181 333q0 -83 29 -138
l278 339q-46 35 -112 35q-94 0 -144.5 -65.5t-50.5 -170.5zM420 726h-113l75 120h161z" />
    <glyph glyph-name="oslashacute" unicode="&#x1ff;" horiz-adv-x="572" 
d="M35 -25l68 85q-68 70 -68 183q0 110 66.5 182t184.5 72q76 0 136 -34l68 86l47 -38l-68 -85q68 -70 68 -183q0 -110 -66.5 -181.5t-184.5 -71.5q-78 0 -136 33l-68 -85zM172 243q0 -48 12 -80l167 211q-26 21 -65 21q-59 0 -86.5 -43t-27.5 -109zM400 243q0 45 -13 80
l-167 -211q26 -20 66 -20q59 0 86.5 42.5t27.5 108.5zM333 558h-113l73 166h151z" />
    <glyph glyph-name="Scommaaccent" unicode="&#x218;" horiz-adv-x="527" 
d="M494 190q0 -88 -69 -145t-180 -57q-112 0 -205 45l29 107q86 -41 172 -41q51 0 82 21t31 59q0 34 -28 57.5t-94 49.5q-92 37 -137.5 84t-45.5 117q0 91 62 141t168 50q105 0 186 -42l-26 -107q-76 38 -152 38q-98 0 -98 -68q0 -32 20.5 -50.5t81.5 -44.5q46 -20 77.5 -37
t63 -42.5t47 -59t15.5 -75.5zM266 -250l-94 42q31 71 31 146h128q0 -109 -65 -188z" />
    <glyph glyph-name="scommaaccent" unicode="&#x219;" horiz-adv-x="433" 
d="M405 152q0 -77 -58.5 -119.5t-150.5 -42.5q-88 0 -160 31l20 97q69 -28 135 -28q79 0 79 46q0 7 -1.5 12t-6 10t-8.5 8t-13 7.5t-14 6.5t-18 7t-19 8q-38 16 -57 25.5t-44.5 28t-36.5 43t-11 57.5q0 73 52.5 110.5t136.5 37.5q90 0 155 -34l-21 -97q-67 30 -124 30
q-64 0 -64 -34q0 -7 3 -12.5t6.5 -9.5t12 -8.5t14 -7t17.5 -7.5t18 -8q4 -2 26 -11t30.5 -13.5t28.5 -15.5t29.5 -21t21.5 -24.5t17 -32.5t5 -39zM210 -250l-94 42q31 71 31 146h128q0 -109 -65 -188z" />
    <glyph glyph-name="circumflex" unicode="&#x2c6;" horiz-adv-x="550" 
d="M337 724l108 -166h-115l-55 93l-55 -93h-115l108 166h124z" />
    <glyph glyph-name="caron" unicode="&#x2c7;" horiz-adv-x="550" 
d="M445 724l-108 -166h-124l-108 166h115l55 -93l55 93h115z" />
    <glyph glyph-name="breve" unicode="&#x2d8;" horiz-adv-x="540" 
d="M344 721l91 -19q-11 -69 -55 -106.5t-110 -37.5t-110 37.5t-55 106.5l91 19q13 -77 74 -77t74 77z" />
    <glyph glyph-name="dotaccent" unicode="&#x2d9;" horiz-adv-x="369" 
d="M105 629q0 33 22.5 56t56.5 23q35 0 57.5 -23t22.5 -56t-22.5 -56t-57.5 -23q-34 0 -56.5 23t-22.5 56z" />
    <glyph glyph-name="ring" unicode="&#x2da;" horiz-adv-x="409" 
d="M304 645q0 -36 -27 -63t-73 -27t-72.5 27t-26.5 63t26.5 63.5t72.5 27.5t73 -27.5t27 -63.5zM165 645q0 -17 10.5 -28.5t28.5 -11.5t29 11.5t11 28.5t-11 29t-29 12t-28.5 -12t-10.5 -29z" />
    <glyph glyph-name="ogonek" unicode="&#x2db;" horiz-adv-x="407" 
d="M292 -131l8 -67q-38 -18 -89 -18q-49 0 -77.5 27.5t-28.5 72.5q0 61 65 116h132q-85 -51 -85 -102q0 -35 35 -35q24 0 40 6z" />
    <glyph glyph-name="tilde" unicode="&#x2dc;" horiz-adv-x="548" 
d="M348 565q-24 0 -83 25q-46 20 -57 20q-9 0 -15 -2.5t-12 -10.5t-9 -13.5t-10 -20.5l-77 36q19 60 45.5 85.5t74.5 25.5q26 0 78 -24q46 -21 57 -21q16 0 25.5 10t21.5 35l76 -38q-29 -62 -52 -84.5t-63 -22.5z" />
    <glyph glyph-name="hungarumlaut" unicode="&#x2dd;" horiz-adv-x="588" 
d="M206 558h-101l53 166h131zM400 558h-101l53 166h131z" />
    <glyph glyph-name="uni0312" unicode="&#x312;" horiz-adv-x="374" 
d="M179 744l90 -42q-32 -47 -39 -144l-125 7q1 104 74 179z" />
    <glyph glyph-name="uni0315" unicode="&#x315;" horiz-adv-x="385" 
d="M191 453l-86 42q48 94 54 211l121 -11q-3 -130 -89 -242z" />
    <glyph glyph-name="uni0326" unicode="&#x326;" horiz-adv-x="369" 
d="M199 -250l-94 42q31 71 31 146h128q0 -109 -65 -188z" />
    <glyph glyph-name="Omega" unicode="&#x3a9;" horiz-adv-x="784" 
d="M729 374q0 -155 -134 -265h114v-109h-256v109q140 113 140 255q0 93 -53 149t-148 56t-148 -56t-53 -149q0 -142 140 -255v-109h-256v109h114q-134 110 -134 265q0 140 93.5 222t243.5 82t243.5 -82t93.5 -222z" />
    <glyph glyph-name="pi" unicode="&#x3c0;" horiz-adv-x="732" 
d="M690 379h-114q-38 -88 -38 -170q0 -112 88 -112q20 0 41 6l13 -96q-39 -17 -93 -17q-88 0 -136 57t-48 149q0 84 39 183h-147v-33q0 -167 -68 -346h-139q72 201 72 347v32h-110v108h640v-108z" />
    <glyph glyph-name="Wgrave" unicode="&#x1e80;" horiz-adv-x="978" 
d="M568 666l134 -489l118 489h142l-186 -666h-142l-145 522l-145 -522h-142l-186 666h142l118 -489l134 489h158zM545 726h-113l-123 120h161z" />
    <glyph glyph-name="wgrave" unicode="&#x1e81;" horiz-adv-x="782" 
d="M458 487l107 -321l79 321h131l-140 -487h-128l-116 343l-116 -343h-128l-140 487h131l79 -321l107 321h134zM447 558h-113l-111 166h151z" />
    <glyph glyph-name="Wacute" unicode="&#x1e82;" horiz-adv-x="978" 
d="M568 666l134 -489l118 489h142l-186 -666h-142l-145 522l-145 -522h-142l-186 666h142l118 -489l134 489h158zM544 726h-113l75 120h161z" />
    <glyph glyph-name="wacute" unicode="&#x1e83;" horiz-adv-x="782" 
d="M458 487l107 -321l79 321h131l-140 -487h-128l-116 343l-116 -343h-128l-140 487h131l79 -321l107 321h134zM451 558h-113l73 166h151z" />
    <glyph glyph-name="Wdieresis" unicode="&#x1e84;" horiz-adv-x="978" 
d="M568 666l134 -489l118 489h142l-186 -666h-142l-145 522l-145 -522h-142l-186 666h142l118 -489l134 489h158zM316 790q0 27 19 45.5t49 18.5t48.5 -18.5t18.5 -45.5q0 -29 -18.5 -47t-48.5 -18q-31 0 -49.5 18t-18.5 47zM526 790q0 27 19 45.5t49 18.5t48.5 -18.5
t18.5 -45.5q0 -29 -18.5 -47t-48.5 -18q-31 0 -49.5 18t-18.5 47z" />
    <glyph glyph-name="wdieresis" unicode="&#x1e85;" horiz-adv-x="782" 
d="M458 487l107 -321l79 321h131l-140 -487h-128l-116 343l-116 -343h-128l-140 487h131l79 -321l107 321h134zM226 632q0 28 19 48t49 20t49 -20t19 -48q0 -29 -19 -48.5t-49 -19.5t-49 19.5t-19 48.5zM420 632q0 28 19 48t49 20t49 -20t19 -48q0 -29 -19 -48.5t-49 -19.5
t-49 19.5t-19 48.5z" />
    <glyph glyph-name="Ygrave" unicode="&#x1ef2;" horiz-adv-x="580" 
d="M290 373l137 293h153l-220 -417v-249h-140v249l-220 417h153zM357 726h-113l-123 120h161z" />
    <glyph glyph-name="ygrave" unicode="&#x1ef3;" horiz-adv-x="493" 
d="M255 -206h-137l66 191l-179 502h142l103 -362l99 362h139zM322 558h-113l-111 166h151z" />
    <glyph glyph-name="endash" unicode="&#x2013;" horiz-adv-x="543" 
d="M478 265h-413v107h413v-107z" />
    <glyph glyph-name="emdash" unicode="&#x2014;" horiz-adv-x="809" 
d="M749 207h-689v111h689v-111z" />
    <glyph glyph-name="quoteleft" unicode="&#x2018;" horiz-adv-x="282" 
d="M152 706l90 -48q-54 -107 -62 -241l-130 13q3 150 102 276z" />
    <glyph glyph-name="quoteright" unicode="&#x2019;" horiz-adv-x="282" 
d="M140 417l-90 48q54 107 62 241l130 -13q-3 -150 -102 -276z" />
    <glyph glyph-name="quotesinglbase" unicode="&#x201a;" horiz-adv-x="289" 
d="M122 -157l-90 48q54 107 62 241l130 -13q-3 -150 -102 -276z" />
    <glyph glyph-name="quotedblleft" unicode="&#x201c;" horiz-adv-x="497" 
d="M367 706l90 -48q-54 -107 -62 -241l-130 13q3 150 102 276zM152 706l90 -48q-54 -107 -62 -241l-130 13q3 150 102 276z" />
    <glyph glyph-name="quotedblright" unicode="&#x201d;" horiz-adv-x="497" 
d="M140 417l-90 48q54 107 62 241l130 -13q-3 -150 -102 -276zM355 417l-90 48q54 107 62 241l130 -13q-3 -150 -102 -276z" />
    <glyph glyph-name="quotedblbase" unicode="&#x201e;" horiz-adv-x="504" 
d="M122 -157l-90 48q54 107 62 241l130 -13q-3 -150 -102 -276zM337 -157l-90 48q54 107 62 241l130 -13q-3 -150 -102 -276z" />
    <glyph glyph-name="dagger" unicode="&#x2020;" horiz-adv-x="463" 
d="M273 92h-82l-28 298l26 96l-75 -23h-59v113h59l75 -24l-26 97v57h137v-57l-26 -97l75 24h59v-113h-59l-75 23l26 -96z" />
    <glyph glyph-name="daggerdbl" unicode="&#x2021;" horiz-adv-x="473" 
d="M168 390l26 96l-75 -23h-59v113h59l75 -24l-26 97v57h137v-57l-26 -97l75 24h59v-113h-59l-75 23l26 -96v-74l-26 -96l75 23h59v-113h-59l-75 24l26 -97v-57h-137v57l26 97l-75 -24h-59v113h59l75 -23l-26 96v74z" />
    <glyph glyph-name="bullet" unicode="&#x2022;" horiz-adv-x="428" 
d="M70 283q0 61 40.5 103t102.5 42t103.5 -42t41.5 -103q0 -59 -41.5 -101t-103.5 -42q-61 0 -102 42t-41 101z" />
    <glyph glyph-name="ellipsis" unicode="&#x2026;" horiz-adv-x="834" 
d="M60 72q0 33 21.5 56t57.5 23t57.5 -23t21.5 -56q0 -34 -21.5 -57t-57.5 -23t-57.5 23t-21.5 57zM338 72q0 33 21.5 56t57.5 23t57.5 -23t21.5 -56q0 -34 -21.5 -57t-57.5 -23t-57.5 23t-21.5 57zM616 72q0 33 21.5 56t57.5 23t57.5 -23t21.5 -56q0 -34 -21.5 -57
t-57.5 -23t-57.5 23t-21.5 57z" />
    <glyph glyph-name="perthousand" unicode="&#x2030;" horiz-adv-x="1406" 
d="M418 480q0 -80 -48 -138.5t-136 -58.5t-136 58.5t-48 138.5t48 139t136 59t136 -59t48 -139zM308 480q0 49 -18.5 79t-55.5 30t-55.5 -30t-18.5 -79t18.5 -78.5t55.5 -29.5t55.5 29.5t18.5 78.5zM293 37l305 641l98 -47l-306 -643zM937 185q0 -80 -48 -138.5t-136 -58.5
t-136 58.5t-48 138.5t48 139t136 59t136 -59t48 -139zM827 185q0 49 -18.5 79t-55.5 30t-55.5 -30t-18.5 -79t18.5 -78.5t55.5 -29.5t55.5 29.5t18.5 78.5zM1361 185q0 -80 -48 -138.5t-136 -58.5t-136 58.5t-48 138.5t48 139t136 59t136 -59t48 -139zM1251 185
q0 49 -18.5 79t-55.5 30t-55.5 -30t-18.5 -79t18.5 -78.5t55.5 -29.5t55.5 29.5t18.5 78.5z" />
    <glyph glyph-name="guilsinglleft" unicode="&#x2039;" horiz-adv-x="366" 
d="M303 385l-121 -144l121 -144l-87 -69l-176 213l176 213z" />
    <glyph glyph-name="guilsinglright" unicode="&#x203a;" horiz-adv-x="366" 
d="M184 241l-121 144l87 69l176 -213l-176 -213l-87 69z" />
    <glyph glyph-name="fraction" unicode="&#x2044;" horiz-adv-x="242" 
d="M-95 36l344 642l88 -48l-344 -642z" />
    <glyph glyph-name="uni2070" unicode="&#x2070;" horiz-adv-x="422" 
d="M395 620q0 -93 -48.5 -151.5t-135.5 -58.5t-135.5 58.5t-48.5 151.5q0 94 48.5 152.5t135.5 58.5t135.5 -58.5t48.5 -152.5zM278 620q0 123 -67 123t-67 -123q0 -122 67 -122t67 122z" />
    <glyph glyph-name="uni2074" unicode="&#x2074;" horiz-adv-x="409" 
d="M386 513h-61v-93h-108v93h-179l-21 75l188 233h120v-226h61v-82zM217 595v127l-100 -127h100z" />
    <glyph glyph-name="uni2075" unicode="&#x2075;" horiz-adv-x="367" 
d="M337 547q0 -65 -48.5 -101t-128.5 -36q-71 0 -128 20l15 83q46 -17 101 -17q74 0 74 44q0 45 -73 45h-94v236h255v-88h-144v-64h9q69 0 115.5 -30t46.5 -92z" />
    <glyph glyph-name="uni2076" unicode="&#x2076;" horiz-adv-x="391" 
d="M294 831l24 -87q-71 -15 -112 -39t-62 -67q37 34 90 34q57 0 95.5 -33t38.5 -90q0 -60 -45 -99.5t-117 -39.5q-80 0 -127 48t-47 120q0 102 69.5 166.5t192.5 86.5zM266 542q0 24 -15.5 38.5t-40.5 14.5q-41 0 -68 -27q0 -36 17.5 -58t47.5 -22q27 0 43 15t16 39z" />
    <glyph glyph-name="uni2077" unicode="&#x2077;" horiz-adv-x="347" 
d="M320 821l14 -77l-180 -324h-119l179 310h-184v91h290z" />
    <glyph glyph-name="uni2078" unicode="&#x2078;" horiz-adv-x="397" 
d="M33 526q0 60 86 103q-71 39 -71 97q0 48 41.5 76.5t108.5 28.5t109 -27.5t42 -74.5q0 -57 -75 -95q44 -22 67 -46t23 -62q0 -51 -48.5 -83.5t-117.5 -32.5q-77 0 -121 31.5t-44 84.5zM257 529q0 31 -60 61q-29 -16 -43 -29.5t-14 -32.5q0 -20 15.5 -31.5t42.5 -11.5
q25 0 42 12.5t17 31.5zM150 723q0 -28 48 -53q49 25 49 53q0 15 -12.5 25.5t-36.5 10.5q-22 0 -35 -10t-13 -26z" />
    <glyph glyph-name="uni2079" unicode="&#x2079;" horiz-adv-x="394" 
d="M103 410l-24 86q136 28 173 107q-37 -35 -91 -35q-60 0 -96.5 33.5t-36.5 90.5q0 63 44.5 101t118.5 38q82 0 127.5 -48t45.5 -121q0 -103 -69 -166.5t-192 -85.5zM130 698q0 -25 15 -39t41 -14q42 0 68 28q1 36 -16.5 57.5t-48.5 21.5q-26 0 -42.5 -14t-16.5 -40z" />
    <glyph glyph-name="uni207A" unicode="&#x207a;" horiz-adv-x="451" 
d="M401 573h-119v-122h-113v122h-119v97h119v122h113v-122h119v-97z" />
    <glyph glyph-name="uni207B" unicode="&#x207b;" horiz-adv-x="420" 
d="M370 573h-320v97h320v-97z" />
    <glyph glyph-name="uni207C" unicode="&#x207c;" horiz-adv-x="450" 
d="M392 657h-334v92h334v-92zM392 494h-334v92h334v-92z" />
    <glyph glyph-name="uni207D" unicode="&#x207d;" horiz-adv-x="275" 
d="M172 620q0 -59 20 -108t63 -109l-78 -56q-63 64 -92.5 129t-29.5 144q0 80 29.5 145t92.5 129l78 -56q-42 -59 -62.5 -109t-20.5 -109z" />
    <glyph glyph-name="uni207E" unicode="&#x207e;" horiz-adv-x="275" 
d="M103 620q0 59 -20.5 109t-62.5 109l78 56q63 -64 92.5 -129t29.5 -145q0 -79 -29.5 -144t-92.5 -129l-78 56q43 60 63 109t20 108z" />
    <glyph glyph-name="uni207F" unicode="&#x207f;" horiz-adv-x="443" 
d="M165 420h-115v347h110v-53q40 61 110 61q61 0 94.5 -47.5t33.5 -122.5v-185h-115v178q0 86 -60 86q-35 0 -58 -27v-237z" />
    <glyph glyph-name="uni2080" unicode="&#x2080;" horiz-adv-x="422" 
d="M395 37q0 -93 -48.5 -151.5t-135.5 -58.5t-135.5 58.5t-48.5 151.5q0 94 48.5 152.5t135.5 58.5t135.5 -58.5t48.5 -152.5zM278 37q0 123 -67 123t-67 -123q0 -122 67 -122t67 122z" />
    <glyph glyph-name="uni2081" unicode="&#x2081;" horiz-adv-x="309" 
d="M249 -163h-117v281l-90 -28l-24 92l151 56h80v-401z" />
    <glyph glyph-name="uni2082" unicode="&#x2082;" horiz-adv-x="374" 
d="M70 131l-23 83q58 34 136 34q67 0 110 -36t43 -96q0 -49 -27 -85.5t-79 -74.5q-37 -26 -40 -28h149v-91h-294l-20 70q77 62 113 93q3 2 14.5 12.5t16 14.5t14.5 13.5t14.5 16t10.5 15.5t8.5 17.5t2.5 17.5q0 49 -59 49q-44 0 -90 -25z" />
    <glyph glyph-name="uni2083" unicode="&#x2083;" horiz-adv-x="363" 
d="M328 -52q0 -56 -47.5 -88.5t-124.5 -32.5q-71 0 -123 25l18 80q44 -19 93 -19q68 0 68 41q0 43 -69 43h-66v85h55q70 0 70 44q0 36 -53 36q-44 0 -87 -19l-18 79q56 26 129 26q64 0 104 -27.5t40 -76.5q0 -72 -76 -98q87 -25 87 -98z" />
    <glyph glyph-name="uni2084" unicode="&#x2084;" horiz-adv-x="409" 
d="M386 -70h-61v-93h-108v93h-179l-21 75l188 233h120v-226h61v-82zM217 12v127l-100 -127h100z" />
    <glyph glyph-name="uni2085" unicode="&#x2085;" horiz-adv-x="367" 
d="M337 -36q0 -65 -48.5 -101t-128.5 -36q-71 0 -128 20l15 83q46 -17 101 -17q74 0 74 44q0 45 -73 45h-94v236h255v-88h-144v-64h9q69 0 115.5 -30t46.5 -92z" />
    <glyph glyph-name="uni2086" unicode="&#x2086;" horiz-adv-x="391" 
d="M294 248l24 -87q-71 -15 -112 -39t-62 -67q37 34 90 34q57 0 95.5 -33t38.5 -90q0 -60 -45 -99.5t-117 -39.5q-80 0 -127 48t-47 120q0 102 69.5 166.5t192.5 86.5zM266 -41q0 24 -15.5 38.5t-40.5 14.5q-41 0 -68 -27q0 -36 17.5 -58t47.5 -22q27 0 43 15t16 39z" />
    <glyph glyph-name="uni2087" unicode="&#x2087;" horiz-adv-x="347" 
d="M320 238l14 -77l-180 -324h-119l179 310h-184v91h290z" />
    <glyph glyph-name="uni2088" unicode="&#x2088;" horiz-adv-x="397" 
d="M33 -57q0 60 86 103q-71 39 -71 97q0 48 41.5 76.5t108.5 28.5t109 -27.5t42 -74.5q0 -58 -75 -95q44 -22 67 -46t23 -62q0 -51 -48.5 -83.5t-117.5 -32.5q-77 0 -121 31.5t-44 84.5zM257 -54q0 31 -60 61q-29 -16 -43 -29.5t-14 -32.5q0 -20 15.5 -31.5t42.5 -11.5
q25 0 42 12.5t17 31.5zM150 140q0 -28 48 -53q49 25 49 53q0 15 -12.5 25.5t-36.5 10.5q-22 0 -35 -10t-13 -26z" />
    <glyph glyph-name="uni2089" unicode="&#x2089;" horiz-adv-x="394" 
d="M103 -173l-24 86q136 28 173 107q-37 -35 -91 -35q-60 0 -96.5 33.5t-36.5 90.5q0 63 44.5 101t118.5 38q82 0 127.5 -48t45.5 -121q0 -103 -69 -166.5t-192 -85.5zM130 115q0 -25 15 -39t41 -14q42 0 68 28q1 36 -16.5 57.5t-48.5 21.5q-26 0 -42.5 -14t-16.5 -40z" />
    <glyph glyph-name="uni208A" unicode="&#x208a;" horiz-adv-x="451" 
d="M401 -10h-119v-122h-113v122h-119v97h119v122h113v-122h119v-97z" />
    <glyph glyph-name="uni208B" unicode="&#x208b;" horiz-adv-x="420" 
d="M370 -10h-320v97h320v-97z" />
    <glyph glyph-name="uni208C" unicode="&#x208c;" horiz-adv-x="450" 
d="M392 74h-334v92h334v-92zM392 -89h-334v92h334v-92z" />
    <glyph glyph-name="uni208D" unicode="&#x208d;" horiz-adv-x="275" 
d="M172 37q0 -59 20 -108t63 -109l-78 -56q-63 64 -92.5 129t-29.5 144q0 80 29.5 145t92.5 129l78 -56q-42 -59 -62.5 -109t-20.5 -109z" />
    <glyph glyph-name="uni208E" unicode="&#x208e;" horiz-adv-x="275" 
d="M103 37q0 59 -20.5 109t-62.5 109l78 56q63 -64 92.5 -129t29.5 -145q0 -79 -29.5 -144t-92.5 -129l-78 56q43 60 63 109t20 108z" />
    <glyph glyph-name="Euro" unicode="&#x20ac;" horiz-adv-x="576" 
d="M396 678q81 0 135 -24l-13 -98q-40 15 -98 15q-124 0 -155 -112h215v-84h-228q-1 -14 -1 -42q0 -29 1 -42h228v-84h-215q31 -112 155 -112q56 0 98 14l13 -97q-54 -24 -135 -24q-105 0 -174 56.5t-94 162.5h-93v84h81q-2 26 -2 42q0 14 2 42h-81v84h93q25 106 94 162.5
t174 56.5z" />
    <glyph glyph-name="uni2113" unicode="&#x2113;" horiz-adv-x="528" 
d="M5 266q86 39 113 54v164q0 115 51 173.5t147 58.5q78 0 124 -45t46 -118q0 -89 -59 -153.5t-172 -124.5v-91q0 -43 14.5 -64t53.5 -21q52 0 123 41l31 -93q-81 -57 -179 -57q-87 0 -133.5 51.5t-46.5 137.5v28q-46 -22 -73 -34zM255 507v-118q108 66 108 153q0 30 -13 48
t-37 18q-31 0 -44.5 -24t-13.5 -77z" />
    <glyph glyph-name="uni2116" unicode="&#x2116;" horiz-adv-x="1105" 
d="M575 0h-128l-249 417v-417h-128v666h128l249 -418v418h128v-666zM689 163v94h355v-94h-355zM1060 494q0 -77 -52 -129t-142 -52t-142 51.5t-52 129.5t51.5 130t142.5 52q90 0 142 -52t52 -130zM946 494q0 44 -21 70.5t-59 26.5t-59 -26.5t-21 -70.5t21 -70t59 -26t59 26
t21 70z" />
    <glyph glyph-name="published" unicode="&#x2117;" horiz-adv-x="818" 
d="M578 402q0 -63 -46.5 -97t-125.5 -34h-10v-126h-94v376h116q70 0 115 -31t45 -88zM486 398q0 52 -78 52h-12v-109h8q37 0 59.5 14.5t22.5 42.5zM60 333q0 145 98 245t251 100q152 0 250.5 -100t98.5 -245t-98.5 -245t-250.5 -100q-153 0 -251 100t-98 245zM711 333
q0 125 -83 213.5t-219 88.5t-219 -88.5t-83 -213.5t83 -213.5t219 -88.5t219 88.5t83 213.5z" />
    <glyph glyph-name="trademark" unicode="&#x2122;" horiz-adv-x="717" 
d="M30 666h245v-57h-88v-260h-69v260h-88v57zM459 404l-63 141l-14 -196h-67l24 317h67l90 -196l90 196h67l24 -317h-67l-14 196l-63 -141h-74z" />
    <glyph glyph-name="estimated" unicode="&#x212e;" horiz-adv-x="824" 
d="M769 321h-572v-221q88 -77 216 -77q85 0 154 29.5t136 93.5l24 -25q-142 -131 -315 -131q-153 0 -255 101t-102 252q0 141 105 237t252 96q145 0 251 -97t106 -235v-23zM412 643q-125 0 -215 -79v-211h430v211q-100 79 -215 79z" />
    <glyph glyph-name="onethird" unicode="&#x2153;" horiz-adv-x="909" 
d="M276 265h-117v281l-90 -28l-24 92l151 56h80v-401zM222 36l344 642l88 -48l-344 -642zM864 111q0 -56 -47.5 -88.5t-124.5 -32.5q-71 0 -123 25l18 80q44 -19 93 -19q68 0 68 41q0 43 -69 43h-66v85h55q70 0 70 44q0 36 -53 36q-44 0 -87 -19l-18 79q56 26 129 26
q64 0 104 -27.5t40 -76.5q0 -72 -76 -98q87 -25 87 -98z" />
    <glyph glyph-name="twothirds" unicode="&#x2154;" horiz-adv-x="975" 
d="M288 36l344 642l88 -48l-344 -642zM930 111q0 -56 -47.5 -88.5t-124.5 -32.5q-71 0 -123 25l18 80q44 -19 93 -19q68 0 68 41q0 43 -69 43h-66v85h55q70 0 70 44q0 36 -53 36q-44 0 -87 -19l-18 79q56 26 129 26q64 0 104 -27.5t40 -76.5q0 -72 -76 -98q87 -25 87 -98z
M87 559l-23 83q58 34 136 34q67 0 110 -36t43 -96q0 -49 -27 -85.5t-79 -74.5q-37 -26 -40 -28h149v-91h-294l-20 70q77 62 113 93q3 2 14.5 12.5t16 14.5t14.5 13.5t14.5 16t10.5 15.5t8.5 17.5t2.5 17.5q0 49 -59 49q-44 0 -90 -25z" />
    <glyph glyph-name="oneeighth" unicode="&#x215b;" horiz-adv-x="924" 
d="M276 265h-117v281l-90 -28l-24 92l151 56h80v-401zM222 36l344 642l88 -48l-344 -642zM548 106q0 60 86 103q-71 39 -71 97q0 48 41.5 76.5t108.5 28.5t109 -27.5t42 -74.5q0 -57 -75 -95q44 -22 67 -46t23 -62q0 -51 -48.5 -83.5t-117.5 -32.5q-77 0 -121 31.5t-44 84.5
zM772 109q0 31 -60 61q-29 -16 -43 -29.5t-14 -32.5q0 -20 15.5 -31.5t42.5 -11.5q25 0 42 12.5t17 31.5zM665 303q0 -28 48 -53q49 25 49 53q0 15 -12.5 25.5t-36.5 10.5q-22 0 -35 -10t-13 -26z" />
    <glyph glyph-name="threeeighths" unicode="&#x215c;" horiz-adv-x="954" 
d="M355 376q0 -56 -47.5 -88.5t-124.5 -32.5q-71 0 -123 25l18 80q44 -19 93 -19q68 0 68 41q0 43 -69 43h-66v85h55q70 0 70 44q0 36 -53 36q-44 0 -87 -19l-18 79q56 26 129 26q64 0 104 -27.5t40 -76.5q0 -72 -76 -98q87 -25 87 -98zM252 36l344 642l88 -48l-344 -642z
M578 106q0 60 86 103q-71 39 -71 97q0 48 41.5 76.5t108.5 28.5t109 -27.5t42 -74.5q0 -57 -75 -95q44 -22 67 -46t23 -62q0 -51 -48.5 -83.5t-117.5 -32.5q-77 0 -121 31.5t-44 84.5zM802 109q0 31 -60 61q-29 -16 -43 -29.5t-14 -32.5q0 -20 15.5 -31.5t42.5 -11.5
q25 0 42 12.5t17 31.5zM695 303q0 -28 48 -53q49 25 49 53q0 15 -12.5 25.5t-36.5 10.5q-22 0 -35 -10t-13 -26z" />
    <glyph glyph-name="fiveeighths" unicode="&#x215d;" horiz-adv-x="963" 
d="M261 36l344 642l88 -48l-344 -642zM587 106q0 60 86 103q-71 39 -71 97q0 48 41.5 76.5t108.5 28.5t109 -27.5t42 -74.5q0 -57 -75 -95q44 -22 67 -46t23 -62q0 -51 -48.5 -83.5t-117.5 -32.5q-77 0 -121 31.5t-44 84.5zM811 109q0 31 -60 61q-29 -16 -43 -29.5
t-14 -32.5q0 -20 15.5 -31.5t42.5 -11.5q25 0 42 12.5t17 31.5zM704 303q0 -28 48 -53q49 25 49 53q0 15 -12.5 25.5t-36.5 10.5q-22 0 -35 -10t-13 -26zM365 392q0 -65 -48.5 -101t-128.5 -36q-71 0 -128 20l15 83q46 -17 101 -17q74 0 74 44q0 45 -73 45h-94v236h255v-88
h-144v-64h9q69 0 115.5 -30t46.5 -92z" />
    <glyph glyph-name="seveneighths" unicode="&#x215e;" horiz-adv-x="914" 
d="M212 36l344 642l88 -48l-344 -642zM538 106q0 60 86 103q-71 39 -71 97q0 48 41.5 76.5t108.5 28.5t109 -27.5t42 -74.5q0 -57 -75 -95q44 -22 67 -46t23 -62q0 -51 -48.5 -83.5t-117.5 -32.5q-77 0 -121 31.5t-44 84.5zM762 109q0 31 -60 61q-29 -16 -43 -29.5
t-14 -32.5q0 -20 15.5 -31.5t42.5 -11.5q25 0 42 12.5t17 31.5zM655 303q0 -28 48 -53q49 25 49 53q0 15 -12.5 25.5t-36.5 10.5q-22 0 -35 -10t-13 -26zM360 666l14 -77l-180 -324h-119l179 310h-184v91h290z" />
    <glyph glyph-name="arrowleft" unicode="&#x2190;" horiz-adv-x="976" 
d="M476 69l-78 -79l-343 343l343 343l78 -79l-210 -210h625v-108h-625z" />
    <glyph glyph-name="arrowup" unicode="&#x2191;" horiz-adv-x="738" 
d="M139 288l-79 79l309 309l309 -309l-78 -79l-174 174v-462h-114v462z" />
    <glyph glyph-name="arrowright" unicode="&#x2192;" horiz-adv-x="976" 
d="M85 279v108h625l-210 210l78 79l343 -343l-343 -343l-78 79l210 210h-625z" />
    <glyph glyph-name="arrowdown" unicode="&#x2193;" horiz-adv-x="738" 
d="M60 299l79 79l173 -174v462h114v-462l174 174l78 -79l-309 -309z" />
    <glyph glyph-name="partialdiff" unicode="&#x2202;" horiz-adv-x="584" 
d="M263 438q85 0 148 -57q-10 225 -158 225q-59 0 -126 -43l-40 94q76 59 186 59q87 0 149.5 -49t92 -128t29.5 -179q0 -68 -18.5 -133.5t-52.5 -119t-90 -86.5t-124 -33q-97 0 -155.5 63t-58.5 159q0 106 59.5 167t158.5 61zM179 208q0 -50 23 -83t68 -33q58 0 91 54
t43 128q-52 56 -117 56q-52 0 -80 -30.5t-28 -91.5z" />
    <glyph glyph-name="Delta" unicode="&#x2206;" horiz-adv-x="724" 
d="M423 666l271 -666h-664l271 666h122zM517 108l-155 416l-155 -416h310z" />
    <glyph glyph-name="product" unicode="&#x220f;" horiz-adv-x="846" 
d="M303 557v-763h-136v763h-122v109h756v-109h-122v-763h-136v763h-240z" />
    <glyph glyph-name="summation" unicode="&#x2211;" horiz-adv-x="572" 
d="M428 230l-229 -327h328v-109h-482v109l231 327l-231 327v109h482v-109h-328z" />
    <glyph glyph-name="minus" unicode="&#x2212;" horiz-adv-x="590" 
d="M525 272h-460v102h460v-102z" />
    <glyph glyph-name="radical" unicode="&#x221a;" horiz-adv-x="758" 
d="M75 250l-35 93l208 79l168 -405l192 765h115l-232 -882h-136l-171 393z" />
    <glyph glyph-name="infinity" unicode="&#x221e;" horiz-adv-x="919" 
d="M459 395q97 106 220 106q83 0 136.5 -49.5t53.5 -128.5t-53.5 -128.5t-136.5 -49.5q-123 0 -220 106q-95 -106 -219 -106q-83 0 -136.5 49.5t-53.5 128.5t53.5 128.5t136.5 49.5q124 0 219 -106zM514 323q66 -87 150 -87q44 0 70 23.5t26 63.5t-26 63.5t-70 23.5
q-84 0 -150 -87zM405 323q-66 87 -150 87q-44 0 -70 -23.5t-26 -63.5t26 -63.5t70 -23.5q84 0 150 87z" />
    <glyph glyph-name="integral" unicode="&#x222b;" horiz-adv-x="430" 
d="M131 422q0 156 47 225t154 69q57 0 93 -16l-12 -101q-22 8 -53 8q-58 0 -75 -42.5t-17 -144.5v-330q0 -67 -9 -118.5t-30.5 -95.5t-62.5 -68t-100 -24q-46 0 -81 11l9 103q22 -5 42 -5q32 0 51.5 13t28.5 42t12 60t3 83v331z" />
    <glyph glyph-name="approxequal" unicode="&#x2248;" horiz-adv-x="636" 
d="M430 341q-47 0 -115 34q-60 29 -89 29q-20 0 -38.5 -7.5t-30.5 -16t-32 -25.5l-55 74q38 41 75.5 62t88.5 21q53 0 113 -35q50 -29 87 -29t90 39l52 -76q-68 -70 -146 -70zM430 134q-47 0 -115 34q-60 29 -89 29q-20 0 -38.5 -7.5t-30.5 -16t-32 -25.5l-55 74
q38 41 75.5 62t88.5 21q53 0 113 -35q50 -29 87 -29t90 39l52 -76q-68 -70 -146 -70z" />
    <glyph glyph-name="notequal" unicode="&#x2260;" horiz-adv-x="620" 
d="M487 577l-45 -91h98v-101h-146l-62 -124h208v-101h-256l-66 -134l-86 42l45 92h-97v101h146l62 124h-208v101h257l65 134z" />
    <glyph glyph-name="lessequal" unicode="&#x2264;" horiz-adv-x="586" 
d="M526 0h-471v100h471v-100zM58 422l433 156l32 -98l-328 -111l328 -110l-32 -99l-433 156v106z" />
    <glyph glyph-name="greaterequal" unicode="&#x2265;" horiz-adv-x="586" 
d="M531 0h-471v100h471v-100zM95 578l433 -156v-106l-433 -156l-32 99l328 110l-328 111z" />
    <glyph glyph-name="lozenge" unicode="&#x25ca;" horiz-adv-x="620" 
d="M376 666l209 -333l-209 -333h-132l-209 333l209 333h132zM175 333l135 -225l135 225l-135 226z" />
    <glyph glyph-name="apple" unicode="&#xf8ff;" horiz-adv-x="816" 
d="M756 333h-333v-333h-333v666h666v-333z" />
    <glyph glyph-name="acute.case" horiz-adv-x="446" 
d="M218 726h-113l75 120h161z" />
    <glyph glyph-name="breve.case" horiz-adv-x="534" 
d="M338 870l91 -26q-15 -58 -58 -89.5t-104 -31.5t-104 31.5t-58 89.5l91 26q19 -62 71 -62t71 62z" />
    <glyph glyph-name="caron.case" horiz-adv-x="532" 
d="M427 846l-93 -120h-136l-93 120h117l44 -58l44 58h117z" />
    <glyph glyph-name="circumflex.case" horiz-adv-x="532" 
d="M334 846l93 -120h-117l-44 58l-44 -58h-117l93 120h136z" />
    <glyph glyph-name="dieresis.case" horiz-adv-x="555" 
d="M105 790q0 27 19 45.5t49 18.5t48.5 -18.5t18.5 -45.5q0 -29 -18.5 -47t-48.5 -18q-31 0 -49.5 18t-18.5 47zM315 790q0 27 19 45.5t49 18.5t48.5 -18.5t18.5 -45.5q0 -29 -18.5 -47t-48.5 -18q-31 0 -49.5 18t-18.5 47z" />
    <glyph glyph-name="dotaccent.case" horiz-adv-x="369" 
d="M105 801q0 33 22.5 56t56.5 23q35 0 57.5 -23t22.5 -56t-22.5 -56t-57.5 -23q-34 0 -56.5 23t-22.5 56z" />
    <glyph glyph-name="grave.case" horiz-adv-x="446" 
d="M341 726h-113l-123 120h161z" />
    <glyph glyph-name="hungarumlaut.case" horiz-adv-x="593" 
d="M213 726h-108l44 120h136zM416 726h-108l44 120h136z" />
    <glyph glyph-name="macron.case" horiz-adv-x="550" 
d="M105 737v104h340v-104h-340z" />
    <glyph glyph-name="ring.case" horiz-adv-x="409" 
d="M304 816q0 -36 -27 -63t-73 -27t-72.5 27t-26.5 63t26.5 63.5t72.5 27.5t73 -27.5t27 -63.5zM165 816q0 -17 10.5 -28.5t28.5 -11.5t29 11.5t11 28.5t-11 29t-29 12t-28.5 -12t-10.5 -29z" />
    <glyph glyph-name="tilde.case" horiz-adv-x="599" 
d="M386 726q-37 0 -90 20q-51 19 -67 19q-27 0 -40 -41l-84 30q15 57 40 82.5t75 25.5q38 0 89 -20q52 -20 64 -20q15 0 23.5 9.5t19.5 31.5l78 -37q-20 -52 -43 -76t-65 -24z" />
    <glyph glyph-name="ampersand.salt" horiz-adv-x="684" 
d="M60 173q0 130 139 173q-115 43 -115 155q0 83 64.5 130t175.5 47q116 0 202 -38l-20 -103q-82 32 -166 32q-59 0 -89 -18.5t-30 -63.5q0 -96 152 -96h286v-105h-98v-249q-101 -49 -249 -49q-119 0 -185.5 49.5t-66.5 135.5zM323 87q68 0 114 16v183h-92q-69 0 -108.5 -26
t-39.5 -80q0 -45 32.5 -69t93.5 -24z" />
    <glyph glyph-name="g.salt" horiz-adv-x="575" 
d="M373 62q-51 -49 -129 -49q-98 0 -154.5 63t-56.5 171q0 119 73 184.5t201 65.5q113 0 203 -44v-412q0 -127 -68.5 -192t-196.5 -65q-91 0 -170 28l15 102q70 -27 147 -27q70 0 103 33t33 100v42zM282 116q51 0 91 31v238q-26 10 -65 10q-138 0 -138 -146
q0 -62 28.5 -97.5t83.5 -35.5z" />
    <glyph glyph-name="gcircumflex.salt" horiz-adv-x="575" 
d="M373 62q-51 -49 -129 -49q-98 0 -154.5 63t-56.5 171q0 119 73 184.5t201 65.5q113 0 203 -44v-412q0 -127 -68.5 -192t-196.5 -65q-91 0 -170 28l15 102q70 -27 147 -27q70 0 103 33t33 100v42zM282 116q51 0 91 31v238q-26 10 -65 10q-138 0 -138 -146
q0 -62 28.5 -97.5t83.5 -35.5zM354 724l108 -166h-115l-55 93l-55 -93h-115l108 166h124z" />
    <glyph glyph-name="gbreve.salt" horiz-adv-x="575" 
d="M373 62q-51 -49 -129 -49q-98 0 -154.5 63t-56.5 171q0 119 73 184.5t201 65.5q113 0 203 -44v-412q0 -127 -68.5 -192t-196.5 -65q-91 0 -170 28l15 102q70 -27 147 -27q70 0 103 33t33 100v42zM282 116q51 0 91 31v238q-26 10 -65 10q-138 0 -138 -146
q0 -62 28.5 -97.5t83.5 -35.5zM360 721l91 -19q-11 -69 -55 -106.5t-110 -37.5t-110 37.5t-55 106.5l91 19q13 -77 74 -77t74 77z" />
    <glyph glyph-name="gdotaccent.salt" horiz-adv-x="575" 
d="M373 62q-51 -49 -129 -49q-98 0 -154.5 63t-56.5 171q0 119 73 184.5t201 65.5q113 0 203 -44v-412q0 -127 -68.5 -192t-196.5 -65q-91 0 -170 28l15 102q70 -27 147 -27q70 0 103 33t33 100v42zM282 116q51 0 91 31v238q-26 10 -65 10q-138 0 -138 -146
q0 -62 28.5 -97.5t83.5 -35.5zM210 629q0 33 22.5 56t56.5 23q35 0 57.5 -23t22.5 -56t-22.5 -56t-57.5 -23q-34 0 -56.5 23t-22.5 56z" />
    <glyph glyph-name="gcommaaccent.salt" horiz-adv-x="575" 
d="M373 62q-51 -49 -129 -49q-98 0 -154.5 63t-56.5 171q0 119 73 184.5t201 65.5q113 0 203 -44v-412q0 -127 -68.5 -192t-196.5 -65q-91 0 -170 28l15 102q70 -27 147 -27q70 0 103 33t33 100v42zM282 116q51 0 91 31v238q-26 10 -65 10q-138 0 -138 -146
q0 -62 28.5 -97.5t83.5 -35.5zM294 744l90 -42q-32 -47 -39 -144l-125 7q1 104 74 179z" />
    <glyph glyph-name="parenleft.case" horiz-adv-x="368" 
d="M213 323q0 -203 110 -413l-95 -53q-153 219 -153 466t153 466l95 -53q-110 -210 -110 -413z" />
    <glyph glyph-name="parenright.case" horiz-adv-x="368" 
d="M155 323q0 203 -110 413l95 53q153 -219 153 -466t-153 -466l-95 53q110 210 110 413z" />
    <glyph glyph-name="bracketleft.case" horiz-adv-x="388" 
d="M333 -134h-243v912h243v-104h-106v-704h106v-104z" />
    <glyph glyph-name="bracketright.case" horiz-adv-x="388" 
d="M298 -134h-243v104h106v704h-106v104h243v-912z" />
    <glyph glyph-name="braceleft.case" horiz-adv-x="433" 
d="M279 147v-80q0 -51 19.5 -74t61.5 -23h33v-104h-40q-114 0 -162.5 52.5t-48.5 160.5v98q0 54 -21.5 76t-80.5 22v94q59 0 80.5 22t21.5 76v98q0 108 48.5 160.5t162.5 52.5h40v-104h-33q-42 0 -61.5 -23t-19.5 -74v-80q0 -71 -25 -112.5t-85 -62.5q60 -21 85 -62.5
t25 -112.5z" />
    <glyph glyph-name="braceright.case" horiz-adv-x="443" 
d="M164 67v80q0 71 25 112.5t85 62.5q-60 21 -85 62.5t-25 112.5v80q0 51 -19.5 74t-61.5 23h-33v104h40q114 0 162.5 -52.5t48.5 -160.5v-98q0 -54 21.5 -76t80.5 -22v-94q-59 0 -80.5 -22t-21.5 -76v-98q0 -108 -48.5 -160.5t-162.5 -52.5h-40v104h33q42 0 61.5 23
t19.5 74z" />
    <glyph glyph-name="at.case" horiz-adv-x="847" 
d="M456 501q69 0 132 -38l-26 -147q-2 -14 -2 -21q0 -52 47 -52q43 0 70.5 44.5t27.5 116.5q0 99 -69.5 155t-181.5 56q-139 0 -221.5 -84t-82.5 -221q0 -123 71 -193t205 -70q127 0 250 55l22 -68q-123 -60 -277 -60q-168 0 -264.5 95.5t-96.5 235.5q0 170 109 277.5
t291 107.5q147 0 239.5 -80.5t92.5 -201.5q0 -104 -54 -169t-146 -65q-51 0 -82 25t-36 63q-47 -76 -112 -76q-46 0 -70.5 32t-24.5 80q0 88 49.5 145.5t139.5 57.5zM452 426q-43 0 -65.5 -34.5t-22.5 -82.5q0 -46 30 -46q34 0 71 64l17 94q-13 5 -30 5z" />
    <glyph glyph-name="asterisk.case" horiz-adv-x="411" 
d="M76 609l99 -58v115h61v-115l99 58l31 -53l-99 -57l99 -57l-30 -54l-100 58v-114h-61v114l-101 -58l-29 54l98 57l-98 57z" />
    <glyph glyph-name="hyphen.case" horiz-adv-x="394" 
d="M329 261h-264v111h264v-111z" />
    <glyph glyph-name="emdash.case" horiz-adv-x="809" 
d="M749 261h-689v111h689v-111z" />
    <glyph glyph-name="slash.case" horiz-adv-x="451" 
d="M40 -29l252 764l119 -41l-252 -766z" />
    <glyph glyph-name="backslash.case" horiz-adv-x="451" 
d="M159 735l252 -764l-119 -43l-252 766z" />
    <glyph glyph-name="bullet.case" horiz-adv-x="428" 
d="M70 333q0 61 40.5 103t102.5 42t103.5 -42t41.5 -103q0 -59 -41.5 -101t-103.5 -42q-61 0 -102 42t-41 101z" />
    <glyph glyph-name="questiondown.case" horiz-adv-x="474" 
d="M45 166q0 37 14.5 71t34.5 60t57 56t66 49.5t77 49.5l64 -92q-12 -9 -38.5 -28t-37.5 -27.5t-31 -24.5t-29 -26.5t-20 -25t-15 -28t-4 -27.5q0 -35 22.5 -54t61.5 -19q64 0 131 37l36 -100q-79 -49 -186 -49q-88 0 -145.5 46.5t-57.5 131.5zM358 598q0 -33 -21.5 -56
t-57.5 -23t-57.5 23t-21.5 56q0 34 21.5 57t57.5 23t57.5 -23t21.5 -57z" />
    <glyph glyph-name="exclamdown.case" horiz-adv-x="328" 
d="M204 456l32 -249v-207h-144v207l32 249h80zM85 598q0 34 21.5 57t57.5 23t57.5 -23t21.5 -57q0 -33 -21.5 -56t-57.5 -23t-57.5 23t-21.5 56z" />
    <glyph glyph-name="guillemotleft.case" horiz-adv-x="624" 
d="M303 467l-121 -144l121 -144l-87 -69l-176 213l176 213zM561 467l-121 -144l121 -144l-87 -69l-176 213l176 213z" />
    <glyph glyph-name="guillemotright.case" horiz-adv-x="624" 
d="M442 323l-121 144l87 69l176 -213l-176 -213l-87 69zM184 323l-121 144l87 69l176 -213l-176 -213l-87 69z" />
    <glyph glyph-name="guilsinglleft.case" horiz-adv-x="366" 
d="M303 467l-121 -144l121 -144l-87 -69l-176 213l176 213z" />
    <glyph glyph-name="guilsinglright.case" horiz-adv-x="366" 
d="M184 323l-121 144l87 69l176 -213l-176 -213l-87 69z" />
    <glyph glyph-name="periodcentered.case" horiz-adv-x="278" 
d="M60 333q0 33 21.5 56t57.5 23t57.5 -23t21.5 -56q0 -34 -21.5 -57t-57.5 -23t-57.5 23t-21.5 57z" />
    <glyph glyph-name="zero.tnum" 
d="M511 333q0 -156 -56 -250.5t-179 -94.5t-179 94.5t-56 250.5t56 250.5t179 94.5t179 -94.5t56 -250.5zM375 333q0 115 -21 175.5t-78 60.5t-78 -60.5t-21 -175.5t21 -175.5t78 -60.5t78 60.5t21 175.5z" />
    <glyph glyph-name="one.tnum" 
d="M75 0v108h154v413l-139 -43l-31 112l227 76h81v-558h143v-108h-435z" />
    <glyph glyph-name="two.tnum" 
d="M118 532l-32 96q77 50 177 50q99 0 156.5 -53.5t57.5 -147.5q0 -74 -34.5 -135t-99.5 -125q-54 -52 -114 -106h254v-111h-414l-19 80q113 115 169 177q39 43 60 69t40.5 65.5t19.5 74.5q0 46 -27.5 73t-74.5 27q-65 0 -119 -34z" />
    <glyph glyph-name="three.tnum" 
d="M472 181q0 -87 -67 -140t-168 -53q-94 0 -175 36l23 104q71 -31 136 -31q55 0 84 24t29 64q0 96 -150 96h-56v111h37q73 0 114 27t41 74q0 36 -25 55.5t-69 19.5q-64 0 -120 -28l-24 99q70 39 172 39q89 0 146.5 -44t57.5 -118q0 -117 -125 -170q61 -18 100 -60.5
t39 -104.5z" />
    <glyph glyph-name="four.tnum" 
d="M318 425h124v-155h78v-106h-78v-164h-124v164h-269l-21 102l176 410l106 -46l-153 -360h161v155z" />
    <glyph glyph-name="five.tnum" 
d="M488 201q0 -97 -73.5 -155t-183.5 -58q-96 0 -167 30l19 107q71 -27 140 -27q59 0 93 24.5t34 70.5q0 98 -151 98h-108v375h360v-112h-223v-154h21q106 -1 172.5 -52.5t66.5 -146.5z" />
    <glyph glyph-name="six.tnum" 
d="M385 678l44 -102q-38 -20 -50.5 -26t-44 -24t-43.5 -28t-35 -29.5t-33.5 -36.5t-22.5 -40.5t-19 -50.5q50 55 135 55q87 0 141 -53t54 -142q0 -91 -65.5 -152t-159.5 -61q-117 0 -181 79.5t-64 185.5q0 154 89.5 260.5t254.5 164.5zM381 197q0 44 -25 69t-70 25
q-62 0 -107 -47q-1 -64 24.5 -107.5t79.5 -43.5q44 0 71 29.5t27 74.5z" />
    <glyph glyph-name="seven.tnum" 
d="M466 666l19 -109l-262 -557h-137l268 556h-288v110h400z" />
    <glyph glyph-name="eight.tnum" 
d="M276 678q93 0 150 -43t57 -118q0 -83 -117 -164q64 -40 99.5 -83t35.5 -103q0 -76 -65.5 -127.5t-159.5 -51.5q-103 0 -164.5 47.5t-61.5 128.5q0 56 36 97.5t99 83.5q-57 39 -87 77t-30 88q0 76 56.5 122t151.5 46zM371 167q0 35 -23 61.5t-72 57.5q-62 -46 -76 -64
q-20 -26 -20 -56q0 -37 25.5 -58t70.5 -21q42 0 68.5 22.5t26.5 57.5zM196 513q0 -29 17 -50t63 -52q39 27 59 50.5t20 51.5q0 31 -21.5 49t-57.5 18t-58 -19t-22 -48z" />
    <glyph glyph-name="nine.tnum" 
d="M158 -12l-44 102q52 24 85.5 42.5t69.5 46.5t58.5 64t34.5 82q-50 -55 -135 -55q-87 0 -141 53t-54 142q0 96 63 154.5t162 58.5q81 0 138.5 -40.5t82 -98.5t24.5 -126q0 -304 -344 -425zM162 470q0 -45 26 -70t69 -25q62 0 107 47q1 64 -24.5 107.5t-79.5 43.5
q-44 0 -71 -28t-27 -75z" />
    <glyph glyph-name="cent.tnum" 
d="M255 692h120v-119q63 -7 100 -27l-19 -98q-52 20 -111 20q-62 0 -96.5 -35t-34.5 -100t34.5 -100t96.5 -35q59 0 111 20l19 -98q-37 -20 -100 -27v-119h-120v125q-84 20 -131 81.5t-47 152.5t47 152.5t131 81.5v125z" />
    <glyph glyph-name="dollar.tnum" 
d="M327 -120h-122v122q-74 9 -135 37l24 103q71 -34 155 -34q44 0 71 19.5t27 56.5q0 34 -24 56t-80 49q-87 42 -126 85t-39 114q0 69 37 112t100 56v130h122v-123q64 -5 123 -35l-23 -104q-74 34 -140 34q-85 0 -85 -65q0 -29 20.5 -47t76.5 -47q31 -16 44 -23.5t43 -28.5
t44.5 -39t27.5 -47t13 -62q0 -71 -41.5 -121t-112.5 -69v-129z" />
    <glyph glyph-name="Euro.tnum" 
d="M398 678q81 0 135 -24l-13 -98q-40 15 -98 15q-124 0 -155 -112h215v-84h-228q-1 -14 -1 -42q0 -29 1 -42h228v-84h-215q31 -112 155 -112q56 0 98 14l13 -97q-54 -24 -135 -24q-105 0 -174 56.5t-94 162.5h-93v84h81q-2 26 -2 42q0 14 2 42h-81v84h93q25 106 94 162.5
t174 56.5z" />
    <glyph glyph-name="sterling.tnum" 
d="M450 361v-108h-167q-17 -89 -86 -144h289v-109h-406l-26 95q75 78 93 158h-92v108h103v83q0 114 55 174t159 60q87 0 143 -28l-18 -101q-49 20 -102 20t-76.5 -30.5t-23.5 -96.5v-81h155z" />
    <glyph glyph-name="yen.tnum" 
d="M493 132h-148v-132h-137v132h-149v95h149v22l-27 60h-122v96h82l-112 261h143l104 -292l104 292h143l-111 -261h81v-96h-122l-26 -60v-22h148v-95z" />
    <glyph glyph-name="numbersign.tnum" horiz-adv-x="696" 
d="M400 0l17 161h-167l-17 -161h-107l17 161h-98v90h107l18 172h-105v90h115l17 153h107l-17 -153h167l17 153h107l-17 -153h95v-90h-104l-18 -172h97v-90h-107l-17 -161h-107zM277 423l-18 -172h168l18 172h-168z" />
    <glyph glyph-name="plus.tnum" 
d="M511 272h-176v-194h-118v194h-176v102h176v194h118v-194h176v-102z" />
    <glyph glyph-name="plusminus.tnum" 
d="M511 320h-177v-157h-117v157h-177v101h177v161h117v-161h177v-101zM511 0h-471v100h471v-100z" />
    <glyph glyph-name="multiply.tnum" 
d="M120 555l156 -156l155 156l76 -77l-155 -155l155 -155l-76 -77l-155 156l-156 -156l-76 77l155 155l-155 155z" />
    <glyph glyph-name="divide.tnum" 
d="M511 272h-470v102h470v-102zM350 516q0 -31 -21 -52t-53 -21t-53.5 21t-21.5 52t21.5 52.5t53.5 21.5t53 -21t21 -53zM350 129q0 -31 -21 -52t-53 -21t-53.5 21t-21.5 52t21.5 52.5t53.5 21.5t53 -21.5t21 -52.5z" />
    <glyph glyph-name="equal.tnum" 
d="M506 385h-460v101h460v-101zM506 160h-460v101h460v-101z" />
    <glyph glyph-name="notequal.tnum" 
d="M453 577l-45 -91h98v-101h-146l-62 -124h208v-101h-256l-66 -134l-86 42l45 92h-97v101h146l62 124h-208v101h257l65 134z" />
    <glyph glyph-name="logicalnot.tnum" 
d="M511 374v-296h-118v194h-352v102h470z" />
    <glyph glyph-name="approxequal.tnum" 
d="M383 341q-47 0 -115 34q-60 29 -89 29q-20 0 -38.5 -7.5t-30.5 -16t-32 -25.5l-55 74q38 41 75.5 62t88.5 21q53 0 113 -35q50 -29 87 -29t90 39l52 -76q-68 -70 -146 -70zM383 134q-47 0 -115 34q-60 29 -89 29q-20 0 -38.5 -7.5t-30.5 -16t-32 -25.5l-55 74
q38 41 75.5 62t88.5 21q53 0 113 -35q50 -29 87 -29t90 39l52 -76q-68 -70 -146 -70z" />
    <glyph glyph-name="endash.tnum" 
d="M482 265h-413v107h413v-107z" />
    <glyph glyph-name="minus.tnum" 
d="M506 272h-460v102h460v-102z" />
    <glyph glyph-name="less.tnum" 
d="M40 377l429 201l42 -95l-352 -160l352 -160l-42 -95l-429 201v108z" />
    <glyph glyph-name="greater.tnum" 
d="M82 578l429 -201v-108l-429 -201l-42 95l352 160l-352 160z" />
    <glyph glyph-name="lessequal.tnum" 
d="M511 0h-471v100h471v-100zM43 422l433 156l32 -98l-328 -111l328 -110l-32 -99l-433 156v106z" />
    <glyph glyph-name="greaterequal.tnum" 
d="M511 0h-471v100h471v-100zM75 578l433 -156v-106l-433 -156l-32 99l328 110l-328 111z" />
    <glyph glyph-name="percent.tnum" horiz-adv-x="982" 
d="M418 480q0 -80 -48 -138.5t-136 -58.5t-136 58.5t-48 138.5t48 139t136 59t136 -59t48 -139zM308 480q0 49 -18.5 79t-55.5 30t-55.5 -30t-18.5 -79t18.5 -78.5t55.5 -29.5t55.5 29.5t18.5 78.5zM293 37l305 641l98 -47l-306 -643zM937 185q0 -80 -48 -138.5t-136 -58.5
t-136 58.5t-48 138.5t48 139t136 59t136 -59t48 -139zM827 185q0 49 -18.5 79t-55.5 30t-55.5 -30t-18.5 -79t18.5 -78.5t55.5 -29.5t55.5 29.5t18.5 78.5z" />
    <glyph glyph-name="perthousand.tnum" horiz-adv-x="1406" 
d="M418 480q0 -80 -48 -138.5t-136 -58.5t-136 58.5t-48 138.5t48 139t136 59t136 -59t48 -139zM308 480q0 49 -18.5 79t-55.5 30t-55.5 -30t-18.5 -79t18.5 -78.5t55.5 -29.5t55.5 29.5t18.5 78.5zM293 37l305 641l98 -47l-306 -643zM937 185q0 -80 -48 -138.5t-136 -58.5
t-136 58.5t-48 138.5t48 139t136 59t136 -59t48 -139zM827 185q0 49 -18.5 79t-55.5 30t-55.5 -30t-18.5 -79t18.5 -78.5t55.5 -29.5t55.5 29.5t18.5 78.5zM1361 185q0 -80 -48 -138.5t-136 -58.5t-136 58.5t-48 138.5t48 139t136 59t136 -59t48 -139zM1251 185
q0 49 -18.5 79t-55.5 30t-55.5 -30t-18.5 -79t18.5 -78.5t55.5 -29.5t55.5 29.5t18.5 78.5z" />
    <glyph glyph-name="zero.onum" horiz-adv-x="596" 
d="M561 253q0 -112 -70.5 -188.5t-192.5 -76.5t-192.5 76.5t-70.5 188.5t70.5 188t192.5 76t192.5 -76t70.5 -188zM424 253q0 71 -32 114.5t-94 43.5t-94 -43.5t-32 -114.5t32 -114.5t94 -43.5t94 43.5t32 114.5z" />
    <glyph glyph-name="one.onum" horiz-adv-x="400" 
d="M330 0h-137v361l-139 -49l-31 112l227 83h80v-507z" />
    <glyph glyph-name="two.onum" horiz-adv-x="509" 
d="M108 375l-35 96q71 46 164 46q90 0 144.5 -44t54.5 -120q0 -73 -38 -123t-109 -97q-26 -18 -36 -24h216v-109h-407l-20 81q113 86 155 120q2 2 18 14.5t20.5 17t18 17t19 20.5t13.5 20t11 24t3 24q0 34 -21.5 52.5t-60.5 18.5q-49 0 -110 -34z" />
    <glyph glyph-name="three.onum" horiz-adv-x="479" 
d="M437 17q0 -86 -65.5 -138t-166.5 -52q-92 0 -172 40l25 99q68 -34 135 -34q107 0 107 87q0 86 -154 102l-37 4v102l27 4q150 22 150 110q0 70 -85 70q-58 0 -122 -31l-25 97q77 40 172 40q88 0 142.5 -42.5t54.5 -113.5q0 -61 -36.5 -107t-100.5 -70q66 -17 108.5 -59
t42.5 -108z" />
    <glyph glyph-name="four.onum" horiz-adv-x="587" 
d="M560 22h-92v-185h-134v185h-279l-20 104l277 381h156v-379h92v-106zM334 128v241l-170 -241h170z" />
    <glyph glyph-name="five.onum" horiz-adv-x="496" 
d="M471 32q0 -96 -72 -150.5t-182 -54.5q-89 0 -162 26l18 105q71 -22 133 -22q129 0 129 88q0 90 -162 99l-93 5v379h352v-110h-216v-164l29 -2q95 -7 160.5 -58t65.5 -141z" />
    <glyph glyph-name="six.onum" horiz-adv-x="565" 
d="M399 678l44 -102q-38 -20 -50.5 -26t-44 -24t-43.5 -28t-35 -29.5t-33.5 -36.5t-22.5 -40.5t-19 -50.5q50 55 135 55q87 0 141 -53t54 -142q0 -91 -65.5 -152t-159.5 -61q-117 0 -181 79.5t-64 185.5q0 154 89.5 260.5t254.5 164.5zM395 197q0 44 -25 69t-70 25
q-62 0 -107 -47q-1 -64 24.5 -107.5t79.5 -43.5q44 0 71 29.5t27 74.5z" />
    <glyph glyph-name="seven.onum" horiz-adv-x="478" 
d="M429 507l19 -107q-125 -285 -298 -573l-105 61q181 310 271 510h-270v109h383z" />
    <glyph glyph-name="eight.onum" horiz-adv-x="553" 
d="M277 678q93 0 150 -43t57 -118q0 -83 -117 -164q64 -40 99.5 -83t35.5 -103q0 -76 -65.5 -127.5t-159.5 -51.5q-103 0 -164.5 47.5t-61.5 128.5q0 56 36 97.5t99 83.5q-57 39 -87 77t-30 88q0 76 56.5 122t151.5 46zM372 167q0 35 -23 61.5t-72 57.5q-62 -46 -76 -64
q-20 -26 -20 -56q0 -37 25.5 -58t70.5 -21q42 0 68.5 22.5t26.5 57.5zM197 513q0 -29 17 -50t63 -52q39 27 59 50.5t20 51.5q0 31 -21.5 49t-57.5 18t-58 -19t-22 -48z" />
    <glyph glyph-name="nine.onum" horiz-adv-x="566" 
d="M175 -173l-44 102q52 24 85.5 42.5t69.5 46.5t58.5 64t34.5 82q-50 -55 -135 -55q-87 0 -141 53t-54 142q0 96 63 154.5t162 58.5q81 0 138.5 -40.5t82 -98.5t24.5 -126q0 -304 -344 -425zM179 309q0 -45 26 -70t69 -25q62 0 107 47q1 64 -24.5 107.5t-79.5 43.5
q-44 0 -71 -28t-27 -75z" />
    <glyph glyph-name="cent.onum" horiz-adv-x="495" 
d="M232 598h125v-125q49 -8 83 -25l-18 -97q-51 19 -104 19q-63 0 -95.5 -30.5t-32.5 -86.5t32.5 -86.5t95.5 -30.5q53 0 104 19l18 -97q-34 -17 -83 -25v-125h-125v128q-84 17 -131.5 75t-47.5 142t47.5 142t131.5 75v128z" />
    <glyph glyph-name="dollar.onum" horiz-adv-x="480" 
d="M304 -104h-125v110q-68 10 -129 39l28 96q82 -40 152 -40q76 0 76 47q0 7 -2 13.5t-7 11.5t-9.5 8.5t-14 8t-14.5 7t-17.5 7.5t-18.5 7q-41 17 -61.5 26.5t-46 25t-37 31t-19.5 38.5t-8 52q0 52 34.5 87.5t90.5 47.5v111h125v-108q65 -7 109 -30l-20 -98q-70 32 -139 32
q-66 0 -66 -39q0 -5 1 -9t4 -7.5t5.5 -6.5t8 -6.5t9.5 -5.5t11.5 -5.5t12 -5.5t14 -6t14.5 -6q35 -15 49.5 -21.5t44.5 -23.5t43.5 -31.5t25.5 -38.5t12 -52q0 -59 -36.5 -99.5t-99.5 -55.5v-111z" />
    <glyph glyph-name="Euro.onum" horiz-adv-x="548" 
d="M99 288h-59v68h72q26 81 93 127t164 46q81 0 134 -24l-15 -94q-45 16 -99 16q-112 0 -143 -71h195v-68h-211q-1 -9 -1 -28t1 -28h211v-68h-195q30 -72 143 -72q54 0 99 16l15 -94q-53 -24 -134 -24q-96 0 -163.5 46.5t-93.5 127.5h-72v68h59q-1 9 -1 28t1 28z" />
    <glyph glyph-name="sterling.onum" horiz-adv-x="519" 
d="M55 199v100h82v21q0 107 56.5 158t156.5 51q78 0 131 -25l-16 -99q-48 17 -98 17q-49 0 -71 -23.5t-22 -78.5v-21h152v-100h-162q-15 -56 -63 -95h264v-104h-393l-22 87q61 49 78 112h-73z" />
    <glyph glyph-name="yen.onum" horiz-adv-x="550" 
d="M67 234v84h72l-101 201h139l98 -225l98 225h139l-101 -201h71v-84h-113l-26 -52v-9h139v-82h-139v-91h-137v91h-139v82h139v9l-26 52h-113z" />
    <glyph glyph-name="numbersign.onum" horiz-adv-x="663" 
d="M379 0l15 123h-155l-14 -123h-101l15 123h-87v83h96l15 123h-94v83h103l15 117h100l-14 -117h154l15 117h100l-14 -117h85v-83h-95l-14 -123h92v-83h-102l-15 -123h-100zM263 329l-14 -123h154l15 123h-155z" />
    <glyph glyph-name="plus.onum" horiz-adv-x="600" 
d="M535 209h-176v-194h-118v194h-176v102h176v194h118v-194h176v-102z" />
    <glyph glyph-name="plusminus.onum" horiz-adv-x="612" 
d="M542 290h-177v-136h-118v136h-177v102h177v134h118v-134h177v-102zM542 0h-472v99h472v-99z" />
    <glyph glyph-name="multiply.onum" horiz-adv-x="603" 
d="M146 491l156 -156l155 156l76 -77l-155 -155l155 -155l-76 -77l-155 156l-156 -156l-76 77l155 155l-155 155z" />
    <glyph glyph-name="divide.onum" horiz-adv-x="602" 
d="M537 209h-472v101h472v-101zM374 445q0 -31 -20.5 -51t-52.5 -20t-52.5 20t-20.5 51t20.5 51t52.5 20t52.5 -20t20.5 -51zM374 74q0 -31 -20.5 -51t-52.5 -20t-52.5 20t-20.5 51t20.5 51t52.5 20t52.5 -20t20.5 -51z" />
    <glyph glyph-name="equal.onum" horiz-adv-x="610" 
d="M535 322h-460v101h460v-101zM535 97h-460v101h460v-101z" />
    <glyph glyph-name="notequal.onum" horiz-adv-x="620" 
d="M487 514l-45 -91h98v-101h-146l-62 -124h208v-101h-256l-66 -134l-86 42l45 92h-97v101h146l62 124h-208v101h257l65 134z" />
    <glyph glyph-name="logicalnot.onum" horiz-adv-x="600" 
d="M535 310v-296h-118v194h-352v102h470z" />
    <glyph glyph-name="approxequal.onum" horiz-adv-x="629" 
d="M425 277q-47 0 -115 34q-60 29 -89 29q-20 0 -38.5 -7.5t-30.5 -16t-32 -25.5l-55 74q38 41 75.5 62t88.5 21q53 0 113 -35q50 -29 87 -29t90 39l52 -76q-68 -70 -146 -70zM425 70q-47 0 -115 34q-60 29 -89 29q-20 0 -38.5 -7.5t-30.5 -16t-32 -25.5l-55 74
q38 41 75.5 62t88.5 21q53 0 113 -35q50 -29 87 -29t90 39l52 -76q-68 -70 -146 -70z" />
    <glyph glyph-name="endash.onum" horiz-adv-x="553" 
d="M483 199h-413v111h413v-111z" />
    <glyph glyph-name="minus.onum" horiz-adv-x="571" 
d="M506 206h-441v104h441v-104z" />
    <glyph glyph-name="less.onum" horiz-adv-x="596" 
d="M65 313l429 201l42 -95l-352 -160l352 -160l-42 -95l-429 201v108z" />
    <glyph glyph-name="greater.onum" horiz-adv-x="596" 
d="M102 514l429 -201v-108l-429 -201l-42 95l352 160l-352 160z" />
    <glyph glyph-name="lessequal.onum" horiz-adv-x="601" 
d="M536 0h-471v99h471v-99zM68 392l441 137l25 -98l-331 -91l331 -90l-25 -99l-441 138v103z" />
    <glyph glyph-name="greaterequal.onum" horiz-adv-x="601" 
d="M536 0h-471v99h471v-99zM92 529l441 -137v-103l-441 -138l-25 99l331 90l-331 91z" />
    <glyph glyph-name="percent.onum" horiz-adv-x="906" 
d="M276 38l266 501l91 -45l-268 -504zM385 381q0 -66 -45 -112t-121 -46t-121 46t-45 112t45 112t121 46t121 -46t45 -112zM285 381q0 35 -17 56.5t-49 21.5t-49 -21.5t-17 -56.5t17 -56.5t49 -21.5t49 21.5t17 56.5zM854 148q0 -66 -45 -112t-121 -46t-121 46t-45 112
t45 112t121 46t121 -46t45 -112zM754 148q0 35 -17 56.5t-49 21.5t-49 -21.5t-17 -56.5t17 -56.5t49 -21.5t49 21.5t17 56.5z" />
    <glyph glyph-name="perthousand.onum" horiz-adv-x="1284" 
d="M276 38l266 501l91 -45l-268 -504zM385 381q0 -66 -45 -112t-121 -46t-121 46t-45 112t45 112t121 46t121 -46t45 -112zM285 381q0 35 -17 56.5t-49 21.5t-49 -21.5t-17 -56.5t17 -56.5t49 -21.5t49 21.5t17 56.5zM854 148q0 -66 -45 -112t-121 -46t-121 46t-45 112
t45 112t121 46t121 -46t45 -112zM754 148q0 35 -17 56.5t-49 21.5t-49 -21.5t-17 -56.5t17 -56.5t49 -21.5t49 21.5t17 56.5zM1232 148q0 -66 -45 -112t-121 -46t-121 46t-45 112t45 112t121 46t121 -46t45 -112zM1132 148q0 35 -17 56.5t-49 21.5t-49 -21.5t-17 -56.5
t17 -56.5t49 -21.5t49 21.5t17 56.5z" />
    <glyph glyph-name="zeroonum.tnum" 
d="M514 253q0 -110 -62 -187.5t-176 -77.5t-176 77.5t-62 187.5t62 187t176 77t176 -77t62 -187zM380 253q0 71 -26 115.5t-78 44.5t-78 -44.5t-26 -115.5t26 -115.5t78 -44.5t78 44.5t26 115.5z" />
    <glyph glyph-name="oneonum.tnum" 
d="M66 0v109h157v254l-130 -41l-34 107l221 78h80v-398h140v-109h-434z" />
    <glyph glyph-name="twoonum.tnum" 
d="M120 375l-35 96q71 46 164 46q90 0 144.5 -44t54.5 -120q0 -73 -38 -123t-109 -97q-26 -18 -36 -24h216v-109h-407l-20 81q113 86 155 120q2 2 18 14.5t20.5 17t18 17t19 20.5t13.5 20t11 24t3 24q0 34 -21.5 52.5t-60.5 18.5q-49 0 -110 -34z" />
    <glyph glyph-name="threeonum.tnum" 
d="M470 17q0 -86 -65.5 -138t-166.5 -52q-92 0 -172 40l25 99q68 -34 135 -34q107 0 107 87q0 86 -154 102l-37 4v102l27 4q150 22 150 110q0 70 -85 70q-58 0 -122 -31l-25 97q77 40 172 40q88 0 142.5 -42.5t54.5 -113.5q0 -61 -36.5 -107t-100.5 -70q66 -17 108.5 -59
t42.5 -108z" />
    <glyph glyph-name="fouronum.tnum" 
d="M208 517l106 -50l-160 -344h162v150h125v-150h89v-103h-89v-183h-125v183h-276l-18 101z" />
    <glyph glyph-name="fiveonum.tnum" 
d="M493 32q0 -96 -72 -150.5t-182 -54.5q-89 0 -162 26l18 105q71 -22 133 -22q129 0 129 88q0 90 -162 99l-93 5v379h352v-110h-216v-164l29 -2q95 -7 160.5 -58t65.5 -141z" />
    <glyph glyph-name="sixonum.tnum" 
d="M385 678l44 -102q-38 -20 -50.5 -26t-44 -24t-43.5 -28t-35 -29.5t-33.5 -36.5t-22.5 -40.5t-19 -50.5q50 55 135 55q87 0 141 -53t54 -142q0 -91 -65.5 -152t-159.5 -61q-117 0 -181 79.5t-64 185.5q0 154 89.5 260.5t254.5 164.5zM381 197q0 44 -25 69t-70 25
q-62 0 -107 -47q-1 -64 24.5 -107.5t79.5 -43.5q44 0 71 29.5t27 74.5z" />
    <glyph glyph-name="sevenonum.tnum" 
d="M465 507l19 -107q-97 -227 -300 -571l-104 62q192 329 273 507h-288v109h400z" />
    <glyph glyph-name="eightonum.tnum" 
d="M276 678q93 0 150 -43t57 -118q0 -83 -117 -164q64 -40 99.5 -83t35.5 -103q0 -76 -65.5 -127.5t-159.5 -51.5q-103 0 -164.5 47.5t-61.5 128.5q0 56 36 97.5t99 83.5q-57 39 -87 77t-30 88q0 76 56.5 122t151.5 46zM371 167q0 35 -23 61.5t-72 57.5q-62 -46 -76 -64
q-20 -26 -20 -56q0 -37 25.5 -58t70.5 -21q42 0 68.5 22.5t26.5 57.5zM196 513q0 -29 17 -50t63 -52q39 27 59 50.5t20 51.5q0 31 -21.5 49t-57.5 18t-58 -19t-22 -48z" />
    <glyph glyph-name="nineonum.tnum" 
d="M168 -173l-44 102q52 24 85.5 42.5t69.5 46.5t58.5 64t34.5 82q-50 -55 -135 -55q-87 0 -141 53t-54 142q0 96 63 154.5t162 58.5q81 0 138.5 -40.5t82 -98.5t24.5 -126q0 -304 -344 -425zM172 309q0 -45 26 -70t69 -25q62 0 107 47q1 64 -24.5 107.5t-79.5 43.5
q-44 0 -71 -28t-27 -75z" />
    <glyph glyph-name="centonum.tnum" 
d="M269 598h125v-125q49 -8 83 -25l-18 -97q-51 19 -104 19q-63 0 -95.5 -30.5t-32.5 -86.5t32.5 -86.5t95.5 -30.5q53 0 104 19l18 -97q-34 -17 -83 -25v-125h-125v128q-84 17 -131.5 75t-47.5 142t47.5 142t131.5 75v128z" />
    <glyph glyph-name="dollaronum.tnum" 
d="M353 -104h-125v110q-68 10 -129 39l28 96q82 -40 152 -40q76 0 76 47q0 7 -2 13.5t-7 11.5t-9.5 8.5t-14 8t-14.5 7t-17.5 7.5t-18.5 7q-41 17 -61.5 26.5t-46 25t-37 31t-19.5 38.5t-8 52q0 52 34.5 87.5t90.5 47.5v111h125v-108q65 -7 109 -30l-20 -98q-70 32 -139 32
q-66 0 -66 -39q0 -5 1 -9t4 -7.5t5.5 -6.5t8 -6.5t9.5 -5.5t11.5 -5.5t12 -5.5t14 -6t14.5 -6q35 -15 49.5 -21.5t44.5 -23.5t43.5 -31.5t25.5 -38.5t12 -52q0 -59 -36.5 -99.5t-99.5 -55.5v-111z" />
    <glyph glyph-name="Euroonum.tnum" 
d="M103 288h-59v68h72q26 81 93 127t164 46q81 0 134 -24l-15 -94q-45 16 -99 16q-112 0 -143 -71h195v-68h-211q-1 -9 -1 -28t1 -28h211v-68h-195q30 -72 143 -72q54 0 99 16l15 -94q-53 -24 -134 -24q-96 0 -163.5 46.5t-93.5 127.5h-72v68h59q-1 9 -1 28t1 28z" />
    <glyph glyph-name="sterlingonum.tnum" 
d="M73 199v100h82v21q0 107 56.5 158t156.5 51q78 0 131 -25l-16 -99q-48 17 -98 17q-49 0 -71 -23.5t-22 -78.5v-21h152v-100h-162q-15 -56 -63 -95h264v-104h-393l-22 87q61 49 78 112h-73z" />
    <glyph glyph-name="yenonum.tnum" 
d="M68 234v84h72l-101 201h139l98 -225l98 225h139l-101 -201h71v-84h-113l-26 -52v-9h139v-82h-139v-91h-137v91h-139v82h139v9l-26 52h-113z" />
    <glyph glyph-name="numbersignonum.tnum" horiz-adv-x="658" 
d="M379 0l15 123h-155l-14 -123h-101l15 123h-87v83h96l15 123h-94v83h103l15 117h100l-14 -117h154l15 117h100l-14 -117h85v-83h-95l-14 -123h92v-83h-102l-15 -123h-100zM263 329l-14 -123h154l15 123h-155z" />
    <glyph glyph-name="plusonum.tnum" 
d="M511 209h-176v-194h-118v194h-176v102h176v194h118v-194h176v-102z" />
    <glyph glyph-name="plusminusonum.tnum" 
d="M512 290h-177v-136h-118v136h-177v102h177v134h118v-134h177v-102zM512 0h-472v99h472v-99z" />
    <glyph glyph-name="multiplyonum.tnum" 
d="M120 491l156 -156l155 156l76 -77l-155 -155l155 -155l-76 -77l-155 156l-156 -156l-76 77l155 155l-155 155z" />
    <glyph glyph-name="divideonum.tnum" 
d="M512 209h-472v101h472v-101zM349 445q0 -31 -20.5 -51t-52.5 -20t-52.5 20t-20.5 51t20.5 51t52.5 20t52.5 -20t20.5 -51zM349 74q0 -31 -20.5 -51t-52.5 -20t-52.5 20t-20.5 51t20.5 51t52.5 20t52.5 -20t20.5 -51z" />
    <glyph glyph-name="equalonum.tnum" 
d="M506 322h-460v101h460v-101zM506 97h-460v101h460v-101z" />
    <glyph glyph-name="notequalonum.tnum" 
d="M453 514l-45 -91h98v-101h-146l-62 -124h208v-101h-256l-66 -134l-86 42l45 92h-97v101h146l62 124h-208v101h257l65 134z" />
    <glyph glyph-name="logicalnotonum.tnum" 
d="M511 310v-296h-118v194h-352v102h470z" />
    <glyph glyph-name="approxequalonum.tnum" 
d="M383 277q-47 0 -115 34q-60 29 -89 29q-20 0 -38.5 -7.5t-30.5 -16t-32 -25.5l-55 74q38 41 75.5 62t88.5 21q53 0 113 -35q50 -29 87 -29t90 39l52 -76q-68 -70 -146 -70zM383 70q-47 0 -115 34q-60 29 -89 29q-20 0 -38.5 -7.5t-30.5 -16t-32 -25.5l-55 74
q38 41 75.5 62t88.5 21q53 0 113 -35q50 -29 87 -29t90 39l52 -76q-68 -70 -146 -70z" />
    <glyph glyph-name="endashonum.tnum" 
d="M482 199h-413v111h413v-111z" />
    <glyph glyph-name="minusonum.tnum" 
d="M496 206h-441v104h441v-104z" />
    <glyph glyph-name="lessonum.tnum" 
d="M40 313l429 201l42 -95l-352 -160l352 -160l-42 -95l-429 201v108z" />
    <glyph glyph-name="greateronum.tnum" 
d="M82 514l429 -201v-108l-429 -201l-42 95l352 160l-352 160z" />
    <glyph glyph-name="lessequalonum.tnum" 
d="M511 0h-471v99h471v-99zM43 392l441 137l25 -98l-331 -91l331 -90l-25 -99l-441 138v103z" />
    <glyph glyph-name="greaterequalonum.tnum" 
d="M511 0h-471v99h471v-99zM67 529l441 -137v-103l-441 -138l-25 99l331 90l-331 91z" />
    <glyph glyph-name="percentonum.tnum" horiz-adv-x="906" 
d="M276 38l266 501l91 -45l-268 -504zM385 381q0 -66 -45 -112t-121 -46t-121 46t-45 112t45 112t121 46t121 -46t45 -112zM285 381q0 35 -17 56.5t-49 21.5t-49 -21.5t-17 -56.5t17 -56.5t49 -21.5t49 21.5t17 56.5zM854 148q0 -66 -45 -112t-121 -46t-121 46t-45 112
t45 112t121 46t121 -46t45 -112zM754 148q0 35 -17 56.5t-49 21.5t-49 -21.5t-17 -56.5t17 -56.5t49 -21.5t49 21.5t17 56.5z" />
    <glyph glyph-name="perthousandonum.tnum" horiz-adv-x="1284" 
d="M276 38l266 501l91 -45l-268 -504zM385 381q0 -66 -45 -112t-121 -46t-121 46t-45 112t45 112t121 46t121 -46t45 -112zM285 381q0 35 -17 56.5t-49 21.5t-49 -21.5t-17 -56.5t17 -56.5t49 -21.5t49 21.5t17 56.5zM854 148q0 -66 -45 -112t-121 -46t-121 46t-45 112
t45 112t121 46t121 -46t45 -112zM754 148q0 35 -17 56.5t-49 21.5t-49 -21.5t-17 -56.5t17 -56.5t49 -21.5t49 21.5t17 56.5zM1232 148q0 -66 -45 -112t-121 -46t-121 46t-45 112t45 112t121 46t121 -46t45 -112zM1132 148q0 35 -17 56.5t-49 21.5t-49 -21.5t-17 -56.5
t17 -56.5t49 -21.5t49 21.5t17 56.5z" />
    <glyph glyph-name="zerosmcp.tnum" 
d="M495 259q0 -120 -58 -194.5t-161 -74.5t-161 74.5t-58 194.5q0 121 58 195.5t161 74.5t161 -74.5t58 -195.5zM360 259q0 165 -84 165t-84 -165q0 -164 84 -164t84 164z" />
    <glyph glyph-name="onesmcp.tnum" 
d="M64 0v105h147v277l-125 -38l-28 107l209 68h80v-414h137v-105h-420z" />
    <glyph glyph-name="twosmcp.tnum" 
d="M130 393l-26 98q69 38 154 38q88 0 141 -43.5t53 -119.5q0 -68 -34.5 -118.5t-105.5 -106.5q-36 -27 -43 -32h193v-109h-367l-22 82q90 76 144 124q29 26 45.5 42t34.5 45.5t18 56.5q0 34 -21.5 52t-59.5 18q-59 0 -104 -27z" />
    <glyph glyph-name="threesmcp.tnum" 
d="M458 148q0 -73 -59.5 -115.5t-148.5 -42.5q-88 0 -157 32l23 95q54 -25 117 -25q89 0 89 58q0 59 -99 59h-73v102h59q45 0 72.5 16.5t27.5 47.5q0 52 -73 52q-54 0 -102 -24l-24 94q59 32 151 32q83 0 133.5 -35t50.5 -96q0 -42 -26.5 -76t-70.5 -53q110 -31 110 -121z
" />
    <glyph glyph-name="foursmcp.tnum" 
d="M312 338h122v-125h72v-98h-72v-115h-122v115h-244l-21 89l172 325l99 -50l-142 -266h136v125z" />
    <glyph glyph-name="fivesmcp.tnum" 
d="M462 161q0 -78 -60.5 -124.5t-158.5 -46.5q-82 0 -153 23l18 100q51 -21 120 -21q100 0 100 60q0 61 -102 61h-112v306h311v-104h-179v-97h10q91 0 148.5 -38.5t57.5 -118.5z" />
    <glyph glyph-name="sixsmcp.tnum" 
d="M368 529l35 -105q-85 -24 -134.5 -57t-68.5 -90q38 42 117 42q75 0 119.5 -40.5t44.5 -112.5q0 -74 -56.5 -125t-143.5 -51q-99 0 -155 63.5t-56 153.5q0 133 82.5 211t215.5 111zM359 159q0 31 -20 49.5t-54 18.5q-52 0 -88 -36q1 -42 22.5 -73.5t61.5 -31.5q34 0 56 20
t22 53z" />
    <glyph glyph-name="sevensmcp.tnum" 
d="M458 519l17 -96l-237 -423h-139l236 410h-243v109h366z" />
    <glyph glyph-name="eightsmcp.tnum" 
d="M462 399q0 -69 -93 -126q110 -58 110 -135q0 -62 -59 -105t-145 -43q-92 0 -147.5 39t-55.5 106q0 78 111 136q-45 26 -69.5 56t-24.5 72q0 59 53.5 94.5t132.5 35.5q81 0 134 -35t53 -95zM353 136q0 40 -78 81q-28 -16 -41.5 -25t-25 -24t-11.5 -32q0 -25 21 -40t57 -15
q35 0 56.5 15.5t21.5 39.5zM211 393q0 -21 15.5 -36.5t50.5 -34.5q63 35 63 71q0 21 -17.5 33t-47.5 12t-47 -12t-17 -33z" />
    <glyph glyph-name="ninesmcp.tnum" 
d="M175 -10l-35 105q82 21 133 55t71 93q-44 -44 -118 -44q-72 0 -118 42.5t-46 112.5q0 76 54 125.5t146 49.5q100 0 155.5 -64t55.5 -154q0 -130 -83 -209.5t-215 -111.5zM184 359q0 -32 19.5 -50t54.5 -18q51 0 88 37q-2 44 -23 74.5t-61 30.5q-35 0 -56.5 -20.5
t-21.5 -53.5z" />
    <glyph glyph-name="centsmcp.tnum" 
d="M269 598h125v-125q49 -8 83 -25l-18 -97q-51 19 -104 19q-63 0 -95.5 -30.5t-32.5 -86.5t32.5 -86.5t95.5 -30.5q53 0 104 19l18 -97q-34 -17 -83 -25v-125h-125v128q-84 17 -131.5 75t-47.5 142t47.5 142t131.5 75v128z" />
    <glyph glyph-name="dollarsmcp.tnum" 
d="M335 -104h-125v110q-68 10 -129 39l28 96q82 -40 152 -40q76 0 76 47q0 7 -2 13.5t-7 11.5t-9.5 8.5t-14 8t-14.5 7t-17.5 7.5t-18.5 7q-41 17 -61.5 26.5t-46 25t-37 31t-19.5 38.5t-8 52q0 52 34.5 87.5t90.5 47.5v111h125v-108q65 -7 109 -30l-20 -98q-70 32 -139 32
q-66 0 -66 -39q0 -5 1 -9t4 -7.5t5.5 -6.5t8 -6.5t9.5 -5.5t11.5 -5.5t12 -5.5t14 -6t14.5 -6q35 -15 49.5 -21.5t44.5 -23.5t43.5 -31.5t25.5 -38.5t12 -52q0 -59 -36.5 -99.5t-99.5 -55.5v-111z" />
    <glyph glyph-name="Eurosmcp.tnum" 
d="M103 288h-59v68h72q26 81 93 127t164 46q81 0 134 -24l-15 -94q-45 16 -99 16q-112 0 -143 -71h195v-68h-211q-1 -9 -1 -28t1 -28h211v-68h-195q30 -72 143 -72q54 0 99 16l15 -94q-53 -24 -134 -24q-96 0 -163.5 46.5t-93.5 127.5h-72v68h59q-1 9 -1 28t1 28z" />
    <glyph glyph-name="sterlingsmcp.tnum" 
d="M73 199v100h82v21q0 107 56.5 158t156.5 51q78 0 131 -25l-16 -99q-48 17 -98 17q-49 0 -71 -23.5t-22 -78.5v-21h152v-100h-162q-15 -56 -63 -95h264v-104h-393l-22 87q61 49 78 112h-73z" />
    <glyph glyph-name="yensmcp.tnum" 
d="M68 234v84h72l-101 201h139l98 -225l98 225h139l-101 -201h71v-84h-113l-26 -52v-9h139v-82h-139v-91h-137v91h-139v82h139v9l-26 52h-113z" />
    <glyph glyph-name="numbersignsmcp.tnum" horiz-adv-x="640" 
d="M366 0l13 117h-144l-13 -117h-101l13 117h-82v84h92l14 119h-90v84h100l13 115h100l-13 -115h145l13 115h100l-13 -115h82v-84h-91l-15 -119h90v-84h-99l-13 -117h-101zM259 320l-15 -119h145l14 119h-144z" />
    <glyph glyph-name="plussmcp.tnum" 
d="M511 209h-176v-194h-118v194h-176v102h176v194h118v-194h176v-102z" />
    <glyph glyph-name="plusminussmcp.tnum" 
d="M512 290h-177v-136h-118v136h-177v102h177v134h118v-134h177v-102zM512 0h-472v99h472v-99z" />
    <glyph glyph-name="multiplysmcp.tnum" 
d="M120 491l156 -156l155 156l76 -77l-155 -155l155 -155l-76 -77l-155 156l-156 -156l-76 77l155 155l-155 155z" />
    <glyph glyph-name="dividesmcp.tnum" 
d="M512 209h-472v101h472v-101zM349 445q0 -31 -20.5 -51t-52.5 -20t-52.5 20t-20.5 51t20.5 51t52.5 20t52.5 -20t20.5 -51zM349 74q0 -31 -20.5 -51t-52.5 -20t-52.5 20t-20.5 51t20.5 51t52.5 20t52.5 -20t20.5 -51z" />
    <glyph glyph-name="equalsmcp.tnum" 
d="M506 322h-460v101h460v-101zM506 97h-460v101h460v-101z" />
    <glyph glyph-name="notequalsmcp.tnum" 
d="M453 514l-45 -91h98v-101h-146l-62 -124h208v-101h-256l-66 -134l-86 42l45 92h-97v101h146l62 124h-208v101h257l65 134z" />
    <glyph glyph-name="logicalnotsmcp.tnum" 
d="M511 310v-296h-118v194h-352v102h470z" />
    <glyph glyph-name="approxequalsmcp.tnum" 
d="M383 277q-47 0 -115 34q-60 29 -89 29q-20 0 -38.5 -7.5t-30.5 -16t-32 -25.5l-55 74q38 41 75.5 62t88.5 21q53 0 113 -35q50 -29 87 -29t90 39l52 -76q-68 -70 -146 -70zM383 70q-47 0 -115 34q-60 29 -89 29q-20 0 -38.5 -7.5t-30.5 -16t-32 -25.5l-55 74
q38 41 75.5 62t88.5 21q53 0 113 -35q50 -29 87 -29t90 39l52 -76q-68 -70 -146 -70z" />
    <glyph glyph-name="endashsmcp.tnum" 
d="M482 199h-413v111h413v-111z" />
    <glyph glyph-name="minussmcp.tnum" 
d="M496 206h-441v104h441v-104z" />
    <glyph glyph-name="lesssmcp.tnum" 
d="M40 313l429 201l42 -95l-352 -160l352 -160l-42 -95l-429 201v108z" />
    <glyph glyph-name="greatersmcp.tnum" 
d="M82 514l429 -201v-108l-429 -201l-42 95l352 160l-352 160z" />
    <glyph glyph-name="lessequalsmcp.tnum" 
d="M511 0h-471v99h471v-99zM43 392l441 137l25 -98l-331 -91l331 -90l-25 -99l-441 138v103z" />
    <glyph glyph-name="greaterequalsmcp.tnum" 
d="M511 0h-471v99h471v-99zM67 529l441 -137v-103l-441 -138l-25 99l331 90l-331 91z" />
    <glyph glyph-name="percentsmcp.tnum" horiz-adv-x="910" 
d="M281 38l261 491l91 -45l-263 -494zM385 371q0 -66 -45 -112t-121 -46t-121 46t-45 112t45 112t121 46t121 -46t45 -112zM285 371q0 35 -17 56.5t-49 21.5t-49 -21.5t-17 -56.5t17 -56.5t49 -21.5t49 21.5t17 56.5zM858 148q0 -66 -45 -112t-121 -46t-121 46t-45 112
t45 112t121 46t121 -46t45 -112zM758 148q0 35 -17 56.5t-49 21.5t-49 -21.5t-17 -56.5t17 -56.5t49 -21.5t49 21.5t17 56.5z" />
    <glyph glyph-name="perthousandsmcp.tnum" horiz-adv-x="1288" 
d="M281 38l261 491l91 -45l-263 -494zM385 371q0 -66 -45 -112t-121 -46t-121 46t-45 112t45 112t121 46t121 -46t45 -112zM285 371q0 35 -17 56.5t-49 21.5t-49 -21.5t-17 -56.5t17 -56.5t49 -21.5t49 21.5t17 56.5zM858 148q0 -66 -45 -112t-121 -46t-121 46t-45 112
t45 112t121 46t121 -46t45 -112zM758 148q0 35 -17 56.5t-49 21.5t-49 -21.5t-17 -56.5t17 -56.5t49 -21.5t49 21.5t17 56.5zM1236 148q0 -66 -45 -112t-121 -46t-121 46t-45 112t45 112t121 46t121 -46t45 -112zM1136 148q0 35 -17 56.5t-49 21.5t-49 -21.5t-17 -56.5
t17 -56.5t49 -21.5t49 21.5t17 56.5z" />
    <glyph glyph-name="A.smcp" horiz-adv-x="618" 
d="M460 0l-37 100h-229l-36 -100h-139l216 519h148l216 -519h-139zM309 417l-78 -213h155z" />
    <glyph glyph-name="B.smcp" horiz-adv-x="540" 
d="M505 146q0 -66 -57.5 -106t-150.5 -40h-222v519h208q88 0 140.5 -34.5t52.5 -93.5q0 -39 -26.5 -72t-79.5 -49q60 -8 97.5 -40.5t37.5 -83.5zM375 158q0 58 -89 58h-79v-116h83q41 0 63 16t22 42zM207 312h59q36 0 58 15t22 41q0 51 -70 51h-69v-107z" />
    <glyph glyph-name="C.smcp" horiz-adv-x="528" 
d="M323 529q98 0 163 -31l-19 -100q-56 22 -124 22q-83 0 -126 -42t-43 -118t43 -118.5t126 -42.5q68 0 124 22l19 -100q-65 -31 -163 -31q-137 0 -211.5 75.5t-74.5 194.5q0 118 74.5 193.5t211.5 75.5z" />
    <glyph glyph-name="D.smcp" horiz-adv-x="614" 
d="M75 0v519h179q150 0 241.5 -71t91.5 -189t-91.5 -188.5t-241.5 -70.5h-179zM264 107q85 0 135.5 40.5t50.5 111.5t-50.5 112t-135.5 41h-52v-305h52z" />
    <glyph glyph-name="E.smcp" horiz-adv-x="497" 
d="M75 0v519h359v-106h-222v-98h213v-106h-213v-103h225v-106h-362z" />
    <glyph glyph-name="F.smcp" horiz-adv-x="479" 
d="M212 0h-137v519h361v-108h-224v-118h215v-108h-215v-185z" />
    <glyph glyph-name="G.smcp" horiz-adv-x="594" 
d="M340 529q104 0 179 -33l-17 -106q-76 30 -151 30q-177 0 -177 -169q0 -79 43.5 -119t122.5 -40q45 0 75 8v139h119v-215q-89 -34 -204 -34q-141 0 -217 72t-76 189q0 128 79.5 203t223.5 75z" />
    <glyph glyph-name="H.smcp" horiz-adv-x="637" 
d="M562 0h-137v206h-213v-206h-137v519h137v-201h213v201h137v-519z" />
    <glyph glyph-name="I.smcp" horiz-adv-x="293" 
d="M215 519v-519h-137v519h137z" />
    <glyph glyph-name="J.smcp" horiz-adv-x="291" 
d="M216 123q0 -89 -30 -155t-97 -126l-91 77q81 83 81 192v408h137v-396z" />
    <glyph glyph-name="K.smcp" horiz-adv-x="589" 
d="M212 0h-137v519h137v-248l195 248h162l-208 -257l218 -262h-171l-196 253v-253z" />
    <glyph glyph-name="L.smcp" horiz-adv-x="454" 
d="M75 519h137v-410h210v-109h-347v519z" />
    <glyph glyph-name="M.smcp" horiz-adv-x="776" 
d="M324 77l-117 213l-18 -290h-131l38 519h119l173 -315l173 315h119l38 -519h-131l-18 290l-117 -213h-128z" />
    <glyph glyph-name="N.smcp" horiz-adv-x="666" 
d="M591 0h-128l-254 306v-306h-134v519h128l254 -306v306h134v-519z" />
    <glyph glyph-name="O.smcp" horiz-adv-x="640" 
d="M604 259q0 -114 -77 -191.5t-207 -77.5t-207 77.5t-77 191.5t77 192t207 78t207 -78t77 -192zM320 97q71 0 109 45.5t38 116.5t-38 117t-109 46t-109 -46t-38 -117t38 -116.5t109 -45.5z" />
    <glyph glyph-name="P.smcp" horiz-adv-x="511" 
d="M487 350q0 -88 -66.5 -135t-178.5 -47h-30v-168h-137v519h183q105 0 167 -44.5t62 -124.5zM353 344q0 34 -25 53.5t-70 19.5h-46v-149h36q50 0 77.5 20.5t27.5 55.5z" />
    <glyph glyph-name="Q.smcp" horiz-adv-x="640" 
d="M564 -131l-204 123q-26 -2 -40 -2q-130 0 -207 77.5t-77 191.5t77 192t207 78t207 -78t77 -192q0 -67 -27.5 -123.5t-78.5 -92.5l130 -80zM320 97q71 0 109 45.5t38 116.5t-38 117t-109 46t-109 -46t-38 -117t38 -116.5t109 -45.5z" />
    <glyph glyph-name="R.smcp" horiz-adv-x="558" 
d="M495 354q0 -106 -110 -151l168 -203h-167l-135 175h-39v-175h-137v519h193q103 0 165 -42.5t62 -122.5zM362 350q0 33 -25 50t-67 17h-58v-146h34q53 0 84.5 20.5t31.5 58.5z" />
    <glyph glyph-name="S.smcp" horiz-adv-x="481" 
d="M440 158q0 -74 -56.5 -121t-155.5 -47q-94 0 -179 33l22 103q77 -32 152 -32q36 0 58.5 12.5t22.5 36.5q0 16 -12.5 28t-27.5 18.5t-49 18.5q-82 28 -121 63.5t-39 104.5q0 73 53 113t142 40q99 0 167 -34l-20 -102q-66 32 -143 32q-63 0 -63 -40q0 -21 17 -32.5
t60 -27.5q38 -14 59.5 -24t52 -30t45.5 -48.5t15 -64.5z" />
    <glyph glyph-name="T.smcp" horiz-adv-x="491" 
d="M27 519h437v-109h-150v-410h-137v410h-150v109z" />
    <glyph glyph-name="U.smcp" horiz-adv-x="628" 
d="M421 199v320h137v-318q0 -94 -66.5 -152.5t-177.5 -58.5t-177.5 58.5t-66.5 152.5v318h137v-320q0 -45 27.5 -72.5t79.5 -27.5t79.5 27.5t27.5 72.5z" />
    <glyph glyph-name="V.smcp" horiz-adv-x="550" 
d="M275 147l122 372h143l-192 -519h-146l-192 519h143z" />
    <glyph glyph-name="W.smcp" horiz-adv-x="874" 
d="M512 519l115 -337l87 337h139l-153 -519h-134l-129 372l-129 -372h-134l-153 519h139l87 -337l115 337h150z" />
    <glyph glyph-name="X.smcp" horiz-adv-x="610" 
d="M305 357l113 162h151l-191 -258l197 -261h-154l-116 161l-116 -161h-154l197 261l-191 258h151z" />
    <glyph glyph-name="Y.smcp" horiz-adv-x="528" 
d="M196 0v187l-191 332h152l107 -214l107 214h152l-191 -332v-187h-136z" />
    <glyph glyph-name="Z.smcp" horiz-adv-x="544" 
d="M72 412v107h409v-101l-251 -311h256v-107h-421v101l251 311h-244z" />
    <glyph glyph-name="zero.smcp" horiz-adv-x="558" 
d="M515 259q0 -120 -62 -194.5t-174 -74.5t-174 74.5t-62 194.5q0 121 62 195.5t174 74.5t174 -74.5t62 -195.5zM378 259q0 163 -99 163t-99 -163q0 -162 99 -162t99 162z" />
    <glyph glyph-name="one.smcp" horiz-adv-x="373" 
d="M298 0h-137v380l-120 -39l-29 106l197 72h89v-519z" />
    <glyph glyph-name="two.smcp" horiz-adv-x="461" 
d="M86 393l-26 98q69 38 154 38q88 0 141 -43.5t53 -119.5q0 -68 -34.5 -118.5t-105.5 -106.5q-36 -27 -43 -32h193v-109h-367l-22 82q90 76 144 124q29 26 45.5 42t34.5 45.5t18 56.5q0 34 -21.5 52t-59.5 18q-59 0 -104 -27z" />
    <glyph glyph-name="three.smcp" horiz-adv-x="450" 
d="M405 148q0 -73 -59.5 -115.5t-148.5 -42.5q-88 0 -157 32l23 95q54 -25 117 -25q89 0 89 58q0 59 -99 59h-73v102h59q45 0 72.5 16.5t27.5 47.5q0 52 -73 52q-54 0 -102 -24l-24 94q59 32 151 32q83 0 133.5 -35t50.5 -96q0 -42 -26.5 -76t-70.5 -53q110 -31 110 -121z
" />
    <glyph glyph-name="four.smcp" horiz-adv-x="503" 
d="M477 122h-75v-122h-126v122h-232l-20 92l234 305h144v-300h75v-97zM276 219v183l-133 -183h133z" />
    <glyph glyph-name="five.smcp" horiz-adv-x="450" 
d="M414 161q0 -78 -60.5 -124.5t-158.5 -46.5q-82 0 -153 23l18 100q51 -21 120 -21q100 0 100 60q0 61 -102 61h-112v306h311v-104h-179v-97h10q91 0 148.5 -38.5t57.5 -118.5z" />
    <glyph glyph-name="six.smcp" horiz-adv-x="484" 
d="M339 529l35 -105q-85 -24 -134.5 -57t-68.5 -90q38 42 117 42q75 0 119.5 -40.5t44.5 -112.5q0 -74 -56.5 -125t-143.5 -51q-99 0 -155 63.5t-56 153.5q0 133 82.5 211t215.5 111zM330 159q0 31 -20 49.5t-54 18.5q-52 0 -88 -36q1 -42 22.5 -73.5t61.5 -31.5q34 0 56 20
t22 53z" />
    <glyph glyph-name="seven.smcp" horiz-adv-x="431" 
d="M389 519l17 -95l-224 -424h-138l226 411h-235v108h354z" />
    <glyph glyph-name="eight.smcp" horiz-adv-x="505" 
d="M439 399q0 -69 -93 -126q110 -58 110 -135q0 -62 -59 -105t-145 -43q-92 0 -147.5 39t-55.5 106q0 78 111 136q-45 26 -69.5 56t-24.5 72q0 59 53.5 94.5t132.5 35.5q81 0 134 -35t53 -95zM330 136q0 40 -78 81q-28 -16 -41.5 -25t-25 -24t-11.5 -32q0 -25 21 -40t57 -15
q35 0 56.5 15.5t21.5 39.5zM188 393q0 -21 15.5 -36.5t50.5 -34.5q63 35 63 71q0 21 -17.5 33t-47.5 12t-47 -12t-17 -33z" />
    <glyph glyph-name="nine.smcp" horiz-adv-x="493" 
d="M153 -10l-35 105q82 21 133 55t71 93q-44 -44 -118 -44q-72 0 -118 42.5t-46 112.5q0 76 54 125.5t146 49.5q100 0 155.5 -64t55.5 -154q0 -130 -83 -209.5t-215 -111.5zM162 359q0 -32 19.5 -50t54.5 -18q51 0 88 37q-2 44 -23 74.5t-61 30.5q-35 0 -56.5 -20.5
t-21.5 -53.5z" />
    <glyph glyph-name="cent.smcp" horiz-adv-x="495" 
d="M232 598h125v-125q49 -8 83 -25l-18 -97q-51 19 -104 19q-63 0 -95.5 -30.5t-32.5 -86.5t32.5 -86.5t95.5 -30.5q53 0 104 19l18 -97q-34 -17 -83 -25v-125h-125v128q-84 17 -131.5 75t-47.5 142t47.5 142t131.5 75v128z" />
    <glyph glyph-name="dollar.smcp" horiz-adv-x="477" 
d="M301 -104h-125v110q-68 10 -129 39l28 96q82 -40 152 -40q76 0 76 47q0 7 -2 13.5t-7 11.5t-9.5 8.5t-14 8t-14.5 7t-17.5 7.5t-18.5 7q-41 17 -61.5 26.5t-46 25t-37 31t-19.5 38.5t-8 52q0 52 34.5 87.5t90.5 47.5v111h125v-108q65 -7 109 -30l-20 -98q-70 32 -139 32
q-66 0 -66 -39q0 -5 1 -9t4 -7.5t5.5 -6.5t8 -6.5t9.5 -5.5t11.5 -5.5t12 -5.5t14 -6t14.5 -6q35 -15 49.5 -21.5t44.5 -23.5t43.5 -31.5t25.5 -38.5t12 -52q0 -59 -36.5 -99.5t-99.5 -55.5v-111z" />
    <glyph glyph-name="Euro.smcp" horiz-adv-x="548" 
d="M99 288h-59v68h72q26 81 93 127t164 46q81 0 134 -24l-15 -94q-45 16 -99 16q-112 0 -143 -71h195v-68h-211q-1 -9 -1 -28t1 -28h211v-68h-195q30 -72 143 -72q54 0 99 16l15 -94q-53 -24 -134 -24q-96 0 -163.5 46.5t-93.5 127.5h-72v68h59q-1 9 -1 28t1 28z" />
    <glyph glyph-name="sterling.smcp" horiz-adv-x="519" 
d="M55 199v100h82v21q0 107 56.5 158t156.5 51q78 0 131 -25l-16 -99q-48 17 -98 17q-49 0 -71 -23.5t-22 -78.5v-21h152v-100h-162q-15 -56 -63 -95h264v-104h-393l-22 87q61 49 78 112h-73z" />
    <glyph glyph-name="yen.smcp" horiz-adv-x="550" 
d="M67 234v84h72l-101 201h139l98 -225l98 225h139l-101 -201h71v-84h-113l-26 -52v-9h139v-82h-139v-91h-137v91h-139v82h139v9l-26 52h-113z" />
    <glyph glyph-name="numbersign.smcp" horiz-adv-x="640" 
d="M366 0l13 117h-144l-13 -117h-101l13 117h-82v84h92l14 119h-90v84h100l13 115h100l-13 -115h145l13 115h100l-13 -115h82v-84h-91l-15 -119h90v-84h-99l-13 -117h-101zM259 320l-15 -119h145l14 119h-144z" />
    <glyph glyph-name="plus.smcp" horiz-adv-x="600" 
d="M535 209h-176v-194h-118v194h-176v102h176v194h118v-194h176v-102z" />
    <glyph glyph-name="plusminus.smcp" horiz-adv-x="612" 
d="M542 290h-177v-136h-118v136h-177v102h177v134h118v-134h177v-102zM542 0h-472v99h472v-99z" />
    <glyph glyph-name="multiply.smcp" horiz-adv-x="603" 
d="M146 491l156 -156l155 156l76 -77l-155 -155l155 -155l-76 -77l-155 156l-156 -156l-76 77l155 155l-155 155z" />
    <glyph glyph-name="divide.smcp" horiz-adv-x="602" 
d="M537 209h-472v101h472v-101zM374 445q0 -31 -20.5 -51t-52.5 -20t-52.5 20t-20.5 51t20.5 51t52.5 20t52.5 -20t20.5 -51zM374 74q0 -31 -20.5 -51t-52.5 -20t-52.5 20t-20.5 51t20.5 51t52.5 20t52.5 -20t20.5 -51z" />
    <glyph glyph-name="equal.smcp" horiz-adv-x="610" 
d="M535 322h-460v101h460v-101zM535 97h-460v101h460v-101z" />
    <glyph glyph-name="notequal.smcp" horiz-adv-x="620" 
d="M487 514l-45 -91h98v-101h-146l-62 -124h208v-101h-256l-66 -134l-86 42l45 92h-97v101h146l62 124h-208v101h257l65 134z" />
    <glyph glyph-name="logicalnot.smcp" horiz-adv-x="600" 
d="M535 310v-296h-118v194h-352v102h470z" />
    <glyph glyph-name="approxequal.smcp" horiz-adv-x="629" 
d="M425 277q-47 0 -115 34q-60 29 -89 29q-20 0 -38.5 -7.5t-30.5 -16t-32 -25.5l-55 74q38 41 75.5 62t88.5 21q53 0 113 -35q50 -29 87 -29t90 39l52 -76q-68 -70 -146 -70zM425 70q-47 0 -115 34q-60 29 -89 29q-20 0 -38.5 -7.5t-30.5 -16t-32 -25.5l-55 74
q38 41 75.5 62t88.5 21q53 0 113 -35q50 -29 87 -29t90 39l52 -76q-68 -70 -146 -70z" />
    <glyph glyph-name="endash.smcp" horiz-adv-x="553" 
d="M483 199h-413v111h413v-111z" />
    <glyph glyph-name="minus.smcp" horiz-adv-x="571" 
d="M506 206h-441v104h441v-104z" />
    <glyph glyph-name="less.smcp" horiz-adv-x="596" 
d="M65 313l429 201l42 -95l-352 -160l352 -160l-42 -95l-429 201v108z" />
    <glyph glyph-name="greater.smcp" horiz-adv-x="596" 
d="M102 514l429 -201v-108l-429 -201l-42 95l352 160l-352 160z" />
    <glyph glyph-name="lessequal.smcp" horiz-adv-x="601" 
d="M536 0h-471v99h471v-99zM68 392l441 137l25 -98l-331 -91l331 -90l-25 -99l-441 138v103z" />
    <glyph glyph-name="greaterequal.smcp" horiz-adv-x="601" 
d="M536 0h-471v99h471v-99zM92 529l441 -137v-103l-441 -138l-25 99l331 90l-331 91z" />
    <glyph glyph-name="percent.smcp" horiz-adv-x="910" 
d="M281 38l261 491l91 -45l-263 -494zM385 371q0 -66 -45 -112t-121 -46t-121 46t-45 112t45 112t121 46t121 -46t45 -112zM285 371q0 35 -17 56.5t-49 21.5t-49 -21.5t-17 -56.5t17 -56.5t49 -21.5t49 21.5t17 56.5zM858 148q0 -66 -45 -112t-121 -46t-121 46t-45 112
t45 112t121 46t121 -46t45 -112zM758 148q0 35 -17 56.5t-49 21.5t-49 -21.5t-17 -56.5t17 -56.5t49 -21.5t49 21.5t17 56.5z" />
    <glyph glyph-name="perthousand.smcp" horiz-adv-x="1288" 
d="M281 38l261 491l91 -45l-263 -494zM385 371q0 -66 -45 -112t-121 -46t-121 46t-45 112t45 112t121 46t121 -46t45 -112zM285 371q0 35 -17 56.5t-49 21.5t-49 -21.5t-17 -56.5t17 -56.5t49 -21.5t49 21.5t17 56.5zM858 148q0 -66 -45 -112t-121 -46t-121 46t-45 112
t45 112t121 46t121 -46t45 -112zM758 148q0 35 -17 56.5t-49 21.5t-49 -21.5t-17 -56.5t17 -56.5t49 -21.5t49 21.5t17 56.5zM1236 148q0 -66 -45 -112t-121 -46t-121 46t-45 112t45 112t121 46t121 -46t45 -112zM1136 148q0 35 -17 56.5t-49 21.5t-49 -21.5t-17 -56.5
t17 -56.5t49 -21.5t49 21.5t17 56.5z" />
    <glyph glyph-name="period.smcp" horiz-adv-x="278" 
d="M60 72q0 33 21.5 56t57.5 23t57.5 -23t21.5 -56q0 -34 -21.5 -57t-57.5 -23t-57.5 23t-21.5 57z" />
    <glyph glyph-name="ellipsis.smcp" horiz-adv-x="834" 
d="M60 72q0 33 21.5 56t57.5 23t57.5 -23t21.5 -56q0 -34 -21.5 -57t-57.5 -23t-57.5 23t-21.5 57zM338 72q0 33 21.5 56t57.5 23t57.5 -23t21.5 -56q0 -34 -21.5 -57t-57.5 -23t-57.5 23t-21.5 57zM616 72q0 33 21.5 56t57.5 23t57.5 -23t21.5 -56q0 -34 -21.5 -57
t-57.5 -23t-57.5 23t-21.5 57z" />
    <glyph glyph-name="comma.smcp" horiz-adv-x="282" 
d="M128 -136l-93 47q48 108 50 220l132 -11q-8 -147 -89 -256z" />
    <glyph glyph-name="colon.smcp" horiz-adv-x="278" 
d="M60 72q0 33 21.5 56t57.5 23t57.5 -23t21.5 -56q0 -34 -21.5 -57t-57.5 -23t-57.5 23t-21.5 57zM60 395q0 33 21.5 56t57.5 23t57.5 -23t21.5 -56q0 -34 -21.5 -57t-57.5 -23t-57.5 23t-21.5 57z" />
    <glyph glyph-name="semicolon.smcp" horiz-adv-x="278" 
d="M68 395q0 33 21.5 56t57.5 23t57.5 -23t21.5 -56q0 -34 -21.5 -57t-57.5 -23t-57.5 23t-21.5 57zM122 -136l-93 47q48 108 50 220l132 -11q-8 -147 -89 -256z" />
    <glyph glyph-name="hyphen.smcp" horiz-adv-x="394" 
d="M329 199h-264v111h264v-111z" />
    <glyph glyph-name="emdash.smcp" horiz-adv-x="819" 
d="M754 199h-689v111h689v-111z" />
    <glyph glyph-name="question.smcp" horiz-adv-x="431" 
d="M391 390q0 -42 -17.5 -75.5t-53 -59.5t-70 -43t-87.5 -38l-49 97q8 4 23 11t23 10.5t21 10t20.5 11t17 11t15 12.5t11 13t7.5 15t2 16q0 40 -57 40q-61 0 -125 -39l-34 98q82 49 179 49q75 0 124.5 -36.5t49.5 -102.5zM119 65q0 31 20.5 52.5t53.5 21.5q34 0 54 -21.5
t20 -52.5t-20 -52t-54 -21q-33 0 -53.5 21.5t-20.5 51.5z" />
    <glyph glyph-name="exclam.smcp" horiz-adv-x="318" 
d="M230 335l-32 -153h-77l-33 153v184h142v-184zM85 65q0 31 20.5 52.5t53.5 21.5q34 0 54 -21.5t20 -52.5t-20 -52t-54 -21q-33 0 -53.5 21.5t-20.5 51.5z" />
    <glyph glyph-name="questiondown.smcp" horiz-adv-x="431" 
d="M40 129q0 42 17.5 75.5t53 59.5t70 43t87.5 38l49 -97q-8 -4 -23 -11t-23 -10.5t-21 -10t-20.5 -11t-17 -11t-15 -12.5t-11 -13t-7.5 -15t-2 -16q0 -40 57 -40q61 0 125 39l34 -98q-82 -49 -179 -49q-75 0 -124.5 36.5t-49.5 102.5zM312 456q0 -31 -20.5 -52.5
t-53.5 -21.5q-34 0 -54 21.5t-20 52.5t20 52t54 21q33 0 53.5 -21.5t20.5 -51.5z" />
    <glyph glyph-name="exclamdown.smcp" horiz-adv-x="318" 
d="M198 337l32 -153v-184h-142v184l33 153h77zM85 456q0 30 20.5 51.5t53.5 21.5q34 0 54 -21t20 -52t-20 -52.5t-54 -21.5q-33 0 -53.5 21.5t-20.5 52.5z" />
    <glyph glyph-name="ampersand.smcp" horiz-adv-x="656" 
d="M413 410q0 -42 -24.5 -74.5t-71.5 -69.5q42 -30 107 -68q36 47 79 125l88 -48q-37 -70 -80 -127q57 -33 132 -72l-47 -86q-71 35 -154 82q-93 -82 -210 -82q-84 0 -134.5 35t-50.5 93q0 82 108 143q-75 65 -75 134q0 62 48 98t126 36q69 0 114 -33.5t45 -85.5zM243 78
q61 0 113 45q-55 33 -123 80q-30 -21 -42.5 -35.5t-12.5 -35.5q0 -26 17.5 -40t47.5 -14zM195 392q0 -31 47 -73q61 42 61 79q0 19 -14 31t-37 12q-57 0 -57 -49z" />
    <glyph glyph-name="ampersand.salt.smcp" horiz-adv-x="592" 
d="M45 138q0 100 113 132q-93 32 -93 117q0 70 58 106t152 36q107 0 177 -31l-18 -100q-76 28 -149 28q-90 0 -90 -52q0 -58 101 -58h273v-102h-84v-180q-96 -44 -223 -44q-97 0 -157 37t-60 111zM270 83q54 0 98 14v117h-84q-111 0 -111 -66q0 -65 97 -65z" />
    <glyph glyph-name="at.smcp" horiz-adv-x="671" 
d="M357 325q-29 0 -45.5 -23.5t-16.5 -58.5q0 -30 20 -30t46 31l14 79q-8 2 -18 2zM457 356l-15 -84q-2 -12 -2 -19q0 -49 46 -49q35 0 54.5 29t19.5 74q0 77 -55 122t-141 45q-104 0 -171 -64t-67 -173q0 -90 55 -140.5t156 -50.5q103 0 191 39l18 -59q-94 -44 -215 -44
q-132 0 -208 72.5t-76 183.5q0 129 86.5 214.5t234.5 85.5q120 0 193 -63.5t73 -157.5q0 -79 -43.5 -125.5t-112.5 -46.5q-37 0 -65.5 17t-37.5 42q-37 -54 -86 -54q-34 0 -53 24.5t-19 61.5q0 65 37.5 106.5t103.5 41.5q51 0 99 -28z" />
    <glyph glyph-name="asterisk.smcp" horiz-adv-x="373" 
d="M83 476l75 -44v87h57v-87l75 44l28 -49l-76 -45l76 -45l-28 -48l-75 44v-87h-57v87l-75 -44l-28 48l76 45l-76 45z" />
    <glyph glyph-name="parenleft.smcp" horiz-adv-x="350" 
d="M207 259q0 -136 93 -304l-94 -55q-72 95 -104 181t-32 178q0 180 136 360l94 -56q-93 -166 -93 -304z" />
    <glyph glyph-name="parenright.smcp" horiz-adv-x="350" 
d="M143 259q0 138 -93 304l94 56q136 -180 136 -360q0 -92 -32 -178t-104 -181l-94 55q93 168 93 304z" />
    <glyph glyph-name="bracketleft.smcp" horiz-adv-x="378" 
d="M328 -90h-233v699h233v-102h-96v-495h96v-102z" />
    <glyph glyph-name="bracketright.smcp" horiz-adv-x="378" 
d="M283 -90h-233v102h96v495h-96v102h233v-699z" />
    <glyph glyph-name="braceleft.smcp" horiz-adv-x="418" 
d="M267 130v-47q0 -69 62 -69h44v-104h-66q-91 0 -134 44t-43 138v51q0 73 -90 73v88q90 0 90 73v50q0 94 43 138t134 44h66v-104h-44q-62 0 -62 -69v-46q0 -50 -22.5 -82.5t-78.5 -47.5q56 -15 78.5 -47.5t22.5 -82.5z" />
    <glyph glyph-name="braceright.smcp" horiz-adv-x="418" 
d="M151 83v47q0 50 22.5 82.5t78.5 47.5q-56 15 -78.5 47.5t-22.5 82.5v46q0 69 -62 69h-44v104h66q91 0 134 -44t43 -138v-50q0 -73 90 -73v-88q-90 0 -90 -73v-51q0 -94 -43 -138t-134 -44h-66v104h44q62 0 62 69z" />
    <glyph glyph-name="slash.smcp" horiz-adv-x="425" 
d="M45 -59l222 678l118 -40l-223 -679z" />
    <glyph glyph-name="backslash.smcp" horiz-adv-x="425" 
d="M158 619l222 -678l-117 -41l-223 679z" />
    <glyph glyph-name="bar.smcp" horiz-adv-x="323" 
d="M218 -120h-113v746h113v-746z" />
    <glyph glyph-name="brokenbar.smcp" horiz-adv-x="323" 
d="M218 -120h-113v291h113v-291zM218 626v-291h-113v291h113z" />
    <glyph glyph-name="paragraph.smcp" horiz-adv-x="563" 
d="M493 0h-106v432h-107v-310q-99 0 -164.5 52.5t-65.5 145.5t64 146t166 53h213v-519z" />
    <glyph glyph-name="trademark.smcp" horiz-adv-x="732" 
d="M40 519h245v-57h-88v-260h-69v260h-88v57zM469 257l-63 141l-14 -196h-67l24 317h67l90 -196l90 196h67l24 -317h-67l-14 196l-63 -141h-74z" />
    <glyph glyph-name="quotedblleft.smcp" horiz-adv-x="488" 
d="M369 529l89 -45q-51 -108 -52 -216l-128 10q4 134 91 251zM146 529l89 -45q-51 -108 -52 -216l-128 10q4 134 91 251z" />
    <glyph glyph-name="quotedblright.smcp" horiz-adv-x="488" 
d="M139 268l-89 45q51 108 52 216l128 -10q-4 -134 -91 -251zM362 268l-89 45q51 108 52 216l128 -10q-4 -134 -91 -251z" />
    <glyph glyph-name="quoteleft.smcp" horiz-adv-x="265" 
d="M146 529l89 -45q-51 -108 -52 -216l-128 10q4 134 91 251z" />
    <glyph glyph-name="quoteright.smcp" horiz-adv-x="265" 
d="M139 268l-89 45q51 108 52 216l128 -10q-4 -134 -91 -251z" />
    <glyph glyph-name="quotesinglbase.smcp" horiz-adv-x="280" 
d="M124 -130l-89 45q51 108 52 216l128 -10q-4 -134 -91 -251z" />
    <glyph glyph-name="quotedblbase.smcp" horiz-adv-x="503" 
d="M124 -130l-89 45q51 108 52 216l128 -10q-4 -134 -91 -251zM347 -130l-89 45q51 108 52 216l128 -10q-4 -134 -91 -251z" />
    <glyph glyph-name="guillemotleft.smcp" horiz-adv-x="621" 
d="M303 403l-121 -144l121 -144l-87 -69l-176 213l176 213zM561 403l-121 -144l121 -144l-87 -69l-176 213l176 213z" />
    <glyph glyph-name="guillemotright.smcp" horiz-adv-x="621" 
d="M439 259l-121 144l87 69l176 -213l-176 -213l-87 69zM181 259l-121 144l87 69l176 -213l-176 -213l-87 69z" />
    <glyph glyph-name="guilsinglleft.smcp" horiz-adv-x="363" 
d="M303 403l-121 -144l121 -144l-87 -69l-176 213l176 213z" />
    <glyph glyph-name="guilsinglright.smcp" horiz-adv-x="363" 
d="M181 259l-121 144l87 69l176 -213l-176 -213l-87 69z" />
    <glyph glyph-name="asciicircum.smcp" horiz-adv-x="496" 
d="M314 519l132 -252l-101 -45l-97 195l-97 -195l-101 45l132 252h132z" />
    <glyph glyph-name="quotedbl.smcp" horiz-adv-x="488" 
d="M193 293h-108l-15 226h138zM403 293h-108l-15 226h138z" />
    <glyph glyph-name="quotesingle.smcp" horiz-adv-x="278" 
d="M193 293h-108l-15 226h138z" />
    <glyph glyph-name="asciitilde.smcp" horiz-adv-x="598" 
d="M457 357l96 -42q-28 -79 -58.5 -116t-84.5 -37q-39 0 -115 38q-64 32 -81 32q-24 0 -37 -16.5t-28 -54.5l-99 39q25 87 59 121.5t96 34.5q37 0 107 -36q6 -3 21.5 -11.5t22.5 -12t18.5 -7t20.5 -3.5q24 0 36 17t26 54z" />
    <glyph glyph-name="degree.smcp" horiz-adv-x="399" 
d="M60 398q0 56 39 93.5t100 37.5q62 0 101 -37.5t39 -93.5t-39.5 -93.5t-100.5 -37.5t-100 37.5t-39 93.5zM140 398q0 -29 16 -46.5t43 -17.5q28 0 44 17.5t16 46.5q0 30 -16 47.5t-44 17.5q-27 0 -43 -17.5t-16 -47.5z" />
    <glyph glyph-name="bullet.smcp" horiz-adv-x="428" 
d="M70 269q0 61 40.5 103t102.5 42t103.5 -42t41.5 -103q0 -59 -41.5 -101t-103.5 -42q-61 0 -102 42t-41 101z" />
    <glyph glyph-name="periodcentered.smcp" horiz-adv-x="278" 
d="M60 271q0 33 21.5 56t57.5 23t57.5 -23t21.5 -56q0 -34 -21.5 -57t-57.5 -23t-57.5 23t-21.5 57z" />
    <glyph glyph-name="acute.smcp" horiz-adv-x="425" 
d="M218 573h-113l54 120h161z" />
    <glyph glyph-name="breve.smcp" horiz-adv-x="534" 
d="M338 716l91 -26q-15 -58 -57.5 -87.5t-104.5 -29.5t-104.5 29.5t-57.5 87.5l91 26q19 -59 71 -59t71 59z" />
    <glyph glyph-name="caron.smcp" horiz-adv-x="532" 
d="M427 693l-93 -120h-136l-93 120h117l44 -58l44 58h117z" />
    <glyph glyph-name="cedilla.smcp" horiz-adv-x="391" 
d="M286 -117q0 -45 -48 -70t-124 -29l-9 67q71 8 71 34q0 12 -12 19.5t-24 9.5t-33 5l31 81h71l-14 -41q41 -4 66 -23t25 -53z" />
    <glyph glyph-name="circumflex.smcp" horiz-adv-x="532" 
d="M334 693l93 -120h-117l-44 58l-44 -58h-117l93 120h136z" />
    <glyph glyph-name="dieresis.smcp" horiz-adv-x="524" 
d="M105 633q0 27 18 44.5t47 17.5t47 -17.5t18 -44.5q0 -26 -18 -44t-47 -18t-47 18t-18 44zM289 633q0 27 18 44.5t47 17.5t47 -17.5t18 -44.5q0 -26 -18 -44t-47 -18t-47 18t-18 44z" />
    <glyph glyph-name="dotaccent.smcp" horiz-adv-x="369" 
d="M105 652q0 33 22.5 56t56.5 23q35 0 57.5 -23t22.5 -56t-22.5 -56t-57.5 -23q-34 0 -56.5 23t-22.5 56z" />
    <glyph glyph-name="grave.smcp" horiz-adv-x="425" 
d="M320 573h-113l-102 120h161z" />
    <glyph glyph-name="hungarumlaut.smcp" horiz-adv-x="593" 
d="M213 573h-108l44 120h136zM416 573h-108l44 120h136z" />
    <glyph glyph-name="macron.smcp" horiz-adv-x="536" 
d="M105 582v102h326v-102h-326z" />
    <glyph glyph-name="ogonek.smcp" horiz-adv-x="407" 
d="M292 -131l8 -67q-38 -18 -89 -18q-49 0 -77.5 27.5t-28.5 72.5q0 61 65 116h132q-85 -51 -85 -102q0 -35 35 -35q24 0 40 6z" />
    <glyph glyph-name="ring.smcp" horiz-adv-x="409" 
d="M304 645q0 -36 -27 -63t-73 -27t-72.5 27t-26.5 63t26.5 63.5t72.5 27.5t73 -27.5t27 -63.5zM165 645q0 -17 10.5 -28.5t28.5 -11.5t29 11.5t11 28.5t-11 29t-29 12t-28.5 -12t-10.5 -29z" />
    <glyph glyph-name="tilde.smcp" horiz-adv-x="591" 
d="M378 576q-33 0 -86 20q-51 19 -63 19q-27 0 -40 -41l-84 30q14 57 39.5 82.5t75.5 25.5q34 0 85 -20q50 -20 60 -20q15 0 23.5 9.5t19.5 31.5l78 -37q-20 -52 -43 -76t-65 -24z" />
    <glyph glyph-name="uni0315.smcp" horiz-adv-x="385" 
d="M204 290l-85 41q37 85 43 188l118 -11q-8 -128 -76 -218z" />
    <glyph glyph-name="uni0326.smcp" horiz-adv-x="369" 
d="M199 -250l-94 42q31 71 31 146h128q0 -109 -65 -188z" />
    <glyph glyph-name="Aacute.smcp" horiz-adv-x="618" 
d="M460 0l-37 100h-229l-36 -100h-139l216 519h148l216 -519h-139zM309 417l-78 -213h155zM373 573h-113l54 120h161z" />
    <glyph glyph-name="AE.smcp" horiz-adv-x="827" 
d="M449 0l-16 103h-225l-62 -103h-146l335 519h432v-105h-253l15 -100h229v-105h-212l17 -104h207v-105h-321zM385 411l-119 -207h150z" />
    <glyph glyph-name="AEacute.smcp" horiz-adv-x="827" 
d="M449 0l-16 103h-225l-62 -103h-146l335 519h432v-105h-253l15 -100h229v-105h-212l17 -104h207v-105h-321zM385 411l-119 -207h150zM501 573h-113l54 120h161z" />
    <glyph glyph-name="Abreve.smcp" horiz-adv-x="618" 
d="M460 0l-37 100h-229l-36 -100h-139l216 519h148l216 -519h-139zM309 417l-78 -213h155zM380 716l91 -26q-15 -58 -57.5 -87.5t-104.5 -29.5t-104.5 29.5t-57.5 87.5l91 26q19 -59 71 -59t71 59z" />
    <glyph glyph-name="Acircumflex.smcp" horiz-adv-x="618" 
d="M460 0l-37 100h-229l-36 -100h-139l216 519h148l216 -519h-139zM309 417l-78 -213h155zM377 693l93 -120h-117l-44 58l-44 -58h-117l93 120h136z" />
    <glyph glyph-name="Adieresis.smcp" horiz-adv-x="618" 
d="M460 0l-37 100h-229l-36 -100h-139l216 519h148l216 -519h-139zM309 417l-78 -213h155zM152 633q0 27 18 44.5t47 17.5t47 -17.5t18 -44.5q0 -26 -18 -44t-47 -18t-47 18t-18 44zM336 633q0 27 18 44.5t47 17.5t47 -17.5t18 -44.5q0 -26 -18 -44t-47 -18t-47 18t-18 44z
" />
    <glyph glyph-name="Agrave.smcp" horiz-adv-x="618" 
d="M460 0l-37 100h-229l-36 -100h-139l216 519h148l216 -519h-139zM309 417l-78 -213h155zM364 573h-113l-102 120h161z" />
    <glyph glyph-name="Amacron.smcp" horiz-adv-x="618" 
d="M460 0l-37 100h-229l-36 -100h-139l216 519h148l216 -519h-139zM309 417l-78 -213h155zM146 582v102h326v-102h-326z" />
    <glyph glyph-name="Aogonek.smcp" horiz-adv-x="618" 
d="M589 -131l8 -67q-38 -18 -89 -18q-49 0 -77.5 29t-28.5 74q0 61 58 113l-37 100h-229l-36 -100h-139l216 519h148l216 -519q-26 -15 -41.5 -27t-29.5 -32.5t-14 -42.5q0 -35 35 -35q23 0 40 6zM309 417l-78 -213h155z" />
    <glyph glyph-name="Aring.smcp" horiz-adv-x="618" 
d="M408 579q0 -34 -25 -61l216 -518h-139l-37 100h-229l-36 -100h-139l215 517q-25 25 -25 62t26 64t73 27t73.5 -27t26.5 -64zM309 417l-78 -213h155zM269 579q0 -17 10.5 -29t28.5 -12t29 12t11 29q0 18 -10.5 29.5t-29.5 11.5t-29 -11.5t-10 -29.5z" />
    <glyph glyph-name="Aringacute.smcp" horiz-adv-x="618" 
d="M408 579q0 -34 -25 -61l216 -518h-139l-37 100h-229l-36 -100h-139l215 517q-25 25 -25 62t26 64t73 27t73.5 -27t26.5 -64zM309 417l-78 -213h155zM269 579q0 -17 10.5 -29t28.5 -12t29 12t11 29q0 18 -10.5 29.5t-29.5 11.5t-29 -11.5t-10 -29.5zM375 704h-116l62 107
h150z" />
    <glyph glyph-name="Atilde.smcp" horiz-adv-x="618" 
d="M460 0l-37 100h-229l-36 -100h-139l216 519h148l216 -519h-139zM309 417l-78 -213h155zM391 576q-33 0 -86 20q-51 19 -63 19q-27 0 -40 -41l-84 30q14 57 39.5 82.5t75.5 25.5q34 0 85 -20q50 -20 60 -20q15 0 23.5 9.5t19.5 31.5l78 -37q-20 -52 -43 -76t-65 -24z" />
    <glyph glyph-name="Cacute.smcp" horiz-adv-x="528" 
d="M323 529q98 0 163 -31l-19 -100q-56 22 -124 22q-83 0 -126 -42t-43 -118t43 -118.5t126 -42.5q68 0 124 22l19 -100q-65 -31 -163 -31q-137 0 -211.5 75.5t-74.5 194.5q0 118 74.5 193.5t211.5 75.5zM345 573h-113l54 120h161z" />
    <glyph glyph-name="Ccaron.smcp" horiz-adv-x="528" 
d="M323 529q98 0 163 -31l-19 -100q-56 22 -124 22q-83 0 -126 -42t-43 -118t43 -118.5t126 -42.5q68 0 124 22l19 -100q-65 -31 -163 -31q-137 0 -211.5 75.5t-74.5 194.5q0 118 74.5 193.5t211.5 75.5zM468 693l-93 -120h-136l-93 120h117l44 -58l44 58h117z" />
    <glyph glyph-name="Ccedilla.smcp" horiz-adv-x="528" 
d="M421 -117q0 -45 -48 -70t-124 -29l-9 67q71 8 71 34q0 12 -12 19.5t-24 9.5t-33 5l28 75q-113 14 -173 86.5t-60 179.5q0 118 74.5 193.5t211.5 75.5q98 0 163 -31l-19 -100q-56 22 -124 22q-83 0 -126 -42t-43 -118t43 -118.5t126 -42.5q68 0 124 22l19 -100
q-57 -28 -146 -31l-10 -31q41 -4 66 -23t25 -53z" />
    <glyph glyph-name="Ccircumflex.smcp" horiz-adv-x="528" 
d="M323 529q98 0 163 -31l-19 -100q-56 22 -124 22q-83 0 -126 -42t-43 -118t43 -118.5t126 -42.5q68 0 124 22l19 -100q-65 -31 -163 -31q-137 0 -211.5 75.5t-74.5 194.5q0 118 74.5 193.5t211.5 75.5zM373 693l93 -120h-117l-44 58l-44 -58h-117l93 120h136z" />
    <glyph glyph-name="Cdotaccent.smcp" horiz-adv-x="528" 
d="M323 529q98 0 163 -31l-19 -100q-56 22 -124 22q-83 0 -126 -42t-43 -118t43 -118.5t126 -42.5q68 0 124 22l19 -100q-65 -31 -163 -31q-137 0 -211.5 75.5t-74.5 194.5q0 118 74.5 193.5t211.5 75.5zM226 652q0 33 22.5 56t56.5 23q35 0 57.5 -23t22.5 -56t-22.5 -56
t-57.5 -23q-34 0 -56.5 23t-22.5 56z" />
    <glyph glyph-name="Dcaron.smcp" horiz-adv-x="614" 
d="M75 0v519h179q150 0 241.5 -71t91.5 -189t-91.5 -188.5t-241.5 -70.5h-179zM264 107q85 0 135.5 40.5t50.5 111.5t-50.5 112t-135.5 41h-52v-305h52zM444 693l-93 -120h-136l-93 120h117l44 -58l44 58h117z" />
    <glyph glyph-name="Dcroat.smcp" horiz-adv-x="618" 
d="M79 0v207h-61v105h61v207h179q150 0 241.5 -71t91.5 -189t-91.5 -188.5t-241.5 -70.5h-179zM352 207h-136v-100h52q85 0 135.5 40.5t50.5 111.5t-50.5 112t-135.5 41h-52v-100h136v-105z" />
    <glyph glyph-name="Eacute.smcp" horiz-adv-x="497" 
d="M75 0v519h359v-106h-222v-98h213v-106h-213v-103h225v-106h-362zM290 573h-113l54 120h161z" />
    <glyph glyph-name="Ebreve.smcp" horiz-adv-x="497" 
d="M75 0v519h359v-106h-222v-98h213v-106h-213v-103h225v-106h-362zM339 716l91 -26q-15 -58 -57.5 -87.5t-104.5 -29.5t-104.5 29.5t-57.5 87.5l91 26q19 -59 71 -59t71 59z" />
    <glyph glyph-name="Ecaron.smcp" horiz-adv-x="497" 
d="M75 0v519h359v-106h-222v-98h213v-106h-213v-103h225v-106h-362zM426 693l-93 -120h-136l-93 120h117l44 -58l44 58h117z" />
    <glyph glyph-name="Ecircumflex.smcp" horiz-adv-x="497" 
d="M75 0v519h359v-106h-222v-98h213v-106h-213v-103h225v-106h-362zM328 693l93 -120h-117l-44 58l-44 -58h-117l93 120h136z" />
    <glyph glyph-name="Edieresis.smcp" horiz-adv-x="497" 
d="M75 0v519h359v-106h-222v-98h213v-106h-213v-103h225v-106h-362zM103 633q0 27 18 44.5t47 17.5t47 -17.5t18 -44.5q0 -26 -18 -44t-47 -18t-47 18t-18 44zM287 633q0 27 18 44.5t47 17.5t47 -17.5t18 -44.5q0 -26 -18 -44t-47 -18t-47 18t-18 44z" />
    <glyph glyph-name="Edotaccent.smcp" horiz-adv-x="497" 
d="M75 0v519h359v-106h-222v-98h213v-106h-213v-103h225v-106h-362zM179 652q0 33 22.5 56t56.5 23q35 0 57.5 -23t22.5 -56t-22.5 -56t-57.5 -23q-34 0 -56.5 23t-22.5 56z" />
    <glyph glyph-name="Egrave.smcp" horiz-adv-x="497" 
d="M75 0v519h359v-106h-222v-98h213v-106h-213v-103h225v-106h-362zM332 573h-113l-102 120h161z" />
    <glyph glyph-name="Emacron.smcp" horiz-adv-x="497" 
d="M75 0v519h359v-106h-222v-98h213v-106h-213v-103h225v-106h-362zM94 582v102h326v-102h-326z" />
    <glyph glyph-name="Eng.smcp" horiz-adv-x="666" 
d="M591 519v-437q0 -118 -46.5 -184t-165.5 -114l-48 104q99 42 127 122l-249 296v-306h-134v519h128l254 -306v306h134z" />
    <glyph glyph-name="Eogonek.smcp" horiz-adv-x="497" 
d="M75 0v519h359v-106h-222v-98h213v-106h-213v-103h225v-106q-85 -51 -85 -102q0 -35 35 -35q23 0 40 6l8 -67q-38 -18 -86 -18q-50 0 -79.5 26t-29.5 75q0 63 75 115h-240z" />
    <glyph glyph-name="Eth.smcp" horiz-adv-x="618" 
d="M79 0v207h-61v105h61v207h179q150 0 241.5 -71t91.5 -189t-91.5 -188.5t-241.5 -70.5h-179zM352 207h-136v-100h52q85 0 135.5 40.5t50.5 111.5t-50.5 112t-135.5 41h-52v-100h136v-105z" />
    <glyph glyph-name="Gbreve.smcp" horiz-adv-x="594" 
d="M340 529q104 0 179 -33l-17 -106q-76 30 -151 30q-177 0 -177 -169q0 -79 43.5 -119t122.5 -40q45 0 75 8v139h119v-215q-89 -34 -204 -34q-141 0 -217 72t-76 189q0 128 79.5 203t223.5 75zM394 716l91 -26q-15 -58 -57.5 -87.5t-104.5 -29.5t-104.5 29.5t-57.5 87.5
l91 26q19 -59 71 -59t71 59z" />
    <glyph glyph-name="Gcircumflex.smcp" horiz-adv-x="594" 
d="M340 529q104 0 179 -33l-17 -106q-76 30 -151 30q-177 0 -177 -169q0 -79 43.5 -119t122.5 -40q45 0 75 8v139h119v-215q-89 -34 -204 -34q-141 0 -217 72t-76 189q0 128 79.5 203t223.5 75zM384 693l93 -120h-117l-44 58l-44 -58h-117l93 120h136z" />
    <glyph glyph-name="Gcommaaccent.smcp" horiz-adv-x="594" 
d="M340 529q104 0 179 -33l-17 -106q-76 30 -151 30q-177 0 -177 -169q0 -79 43.5 -119t122.5 -40q45 0 75 8v139h119v-215q-89 -34 -204 -34q-141 0 -217 72t-76 189q0 128 79.5 203t223.5 75zM340 -250l-94 42q31 71 31 146h128q0 -109 -65 -188z" />
    <glyph glyph-name="Gdotaccent.smcp" horiz-adv-x="594" 
d="M340 529q104 0 179 -33l-17 -106q-76 30 -151 30q-177 0 -177 -169q0 -79 43.5 -119t122.5 -40q45 0 75 8v139h119v-215q-89 -34 -204 -34q-141 0 -217 72t-76 189q0 128 79.5 203t223.5 75zM234 652q0 33 22.5 56t56.5 23q35 0 57.5 -23t22.5 -56t-22.5 -56t-57.5 -23
q-34 0 -56.5 23t-22.5 56z" />
    <glyph glyph-name="germandbls.smcp" horiz-adv-x="955" 
d="M440 158q0 -74 -56.5 -121t-155.5 -47q-94 0 -179 33l22 103q77 -32 152 -32q36 0 58.5 12.5t22.5 36.5q0 16 -12.5 28t-27.5 18.5t-49 18.5q-82 28 -121 63.5t-39 104.5q0 73 53 113t142 40q99 0 167 -34l-20 -102q-66 32 -143 32q-63 0 -63 -40q0 -21 17 -32.5
t60 -27.5q38 -14 59.5 -24t52 -30t45.5 -48.5t15 -64.5zM914 158q0 -74 -56.5 -121t-155.5 -47q-94 0 -179 33l22 103q77 -32 152 -32q36 0 58.5 12.5t22.5 36.5q0 16 -12.5 28t-27.5 18.5t-49 18.5q-82 28 -121 63.5t-39 104.5q0 73 53 113t142 40q99 0 167 -34l-20 -102
q-66 32 -143 32q-63 0 -63 -40q0 -21 17 -32.5t60 -27.5q38 -14 59.5 -24t52 -30t45.5 -48.5t15 -64.5z" />
    <glyph glyph-name="Hbar.smcp" horiz-adv-x="637" 
d="M562 0h-137v206h-213v-206h-137v375h-64v81h64v63h137v-63h213v63h137v-63h64v-81h-64v-375zM212 318h213v57h-213v-57z" />
    <glyph glyph-name="Hcircumflex.smcp" horiz-adv-x="637" 
d="M562 0h-137v206h-213v-206h-137v519h137v-201h213v201h137v-519zM386 693l93 -120h-117l-44 58l-44 -58h-117l93 120h136z" />
    <glyph glyph-name="Iacute.smcp" horiz-adv-x="293" 
d="M215 519v-519h-137v519h137zM203 573h-113l54 120h161z" />
    <glyph glyph-name="Ibreve.smcp" horiz-adv-x="293" 
d="M215 519v-519h-137v519h137zM218 716l91 -26q-15 -58 -57.5 -87.5t-104.5 -29.5t-104.5 29.5t-57.5 87.5l91 26q19 -59 71 -59t71 59z" />
    <glyph glyph-name="Icircumflex.smcp" horiz-adv-x="293" 
d="M215 519v-519h-137v519h137zM215 693l93 -120h-117l-44 58l-44 -58h-117l93 120h136z" />
    <glyph glyph-name="Idieresis.smcp" horiz-adv-x="293" 
d="M215 519v-519h-137v519h137zM-10 633q0 27 18 44.5t47 17.5t47 -17.5t18 -44.5q0 -26 -18 -44t-47 -18t-47 18t-18 44zM174 633q0 27 18 44.5t47 17.5t47 -17.5t18 -44.5q0 -26 -18 -44t-47 -18t-47 18t-18 44z" />
    <glyph glyph-name="Igrave.smcp" horiz-adv-x="293" 
d="M215 519v-519h-137v519h137zM207 573h-113l-102 120h161z" />
    <glyph glyph-name="Imacron.smcp" horiz-adv-x="293" 
d="M215 519v-519h-137v519h137zM-16 582v102h326v-102h-326z" />
    <glyph glyph-name="Iogonek.smcp" horiz-adv-x="293" 
d="M205 -131l8 -67q-38 -18 -84 -18q-53 0 -80.5 28.5t-27.5 74.5q0 56 57 113v519h137v-519q-82 -58 -82 -102q0 -35 35 -35q20 0 37 6z" />
    <glyph glyph-name="Itilde.smcp" horiz-adv-x="293" 
d="M215 519v-519h-137v519h137zM233 576q-33 0 -86 20q-51 19 -63 19q-27 0 -40 -41l-84 30q14 57 39.5 82.5t75.5 25.5q34 0 85 -20q50 -20 60 -20q15 0 23.5 9.5t19.5 31.5l78 -37q-20 -52 -43 -76t-65 -24z" />
    <glyph glyph-name="IJ.smcp" horiz-adv-x="584" 
d="M215 519v-519h-137v519h137zM509 123q0 -89 -30 -155t-97 -126l-91 77q81 83 81 192v408h137v-396z" />
    <glyph glyph-name="Jcircumflex.smcp" horiz-adv-x="291" 
d="M216 123q0 -89 -30 -155t-97 -126l-91 77q81 83 81 192v408h137v-396zM217 693l93 -120h-117l-44 58l-44 -58h-117l93 120h136z" />
    <glyph glyph-name="Kcommaaccent.smcp" horiz-adv-x="589" 
d="M212 0h-137v519h137v-248l195 248h162l-208 -257l218 -262h-171l-196 253v-253zM304 -250l-94 42q31 71 31 146h128q0 -109 -65 -188z" />
    <glyph glyph-name="Lacute.smcp" horiz-adv-x="454" 
d="M75 519h137v-410h210v-109h-347v519zM198 573h-113l54 120h161z" />
    <glyph glyph-name="Lcaron.smcp" horiz-adv-x="454" 
d="M75 519h137v-410h210v-109h-347v519zM360 290l-85 41q37 85 43 188l118 -11q-8 -128 -76 -218z" />
    <glyph glyph-name="Lcommaaccent.smcp" horiz-adv-x="454" 
d="M75 519h137v-410h210v-109h-347v519zM223 -250l-94 42q31 71 31 146h128q0 -109 -65 -188z" />
    <glyph glyph-name="Ldot.smcp" horiz-adv-x="454" 
d="M75 519h137v-410h210v-109h-347v519zM254 265q0 33 21.5 56t57.5 23t57.5 -23t21.5 -56q0 -34 -21.5 -57t-57.5 -23t-57.5 23t-21.5 57z" />
    <glyph glyph-name="Lslash.smcp" horiz-adv-x="454" 
d="M75 519h137v-197l131 65l44 -97l-175 -87v-94h210v-109h-347v133l-45 -22l-43 98l88 44v266z" />
    <glyph glyph-name="Nacute.smcp" horiz-adv-x="666" 
d="M591 0h-128l-254 306v-306h-134v519h128l254 -306v306h134v-519zM374 573h-113l54 120h161z" />
    <glyph glyph-name="Ncaron.smcp" horiz-adv-x="666" 
d="M591 0h-128l-254 306v-306h-134v519h128l254 -306v306h134v-519zM490 693l-93 -120h-136l-93 120h117l44 -58l44 58h117z" />
    <glyph glyph-name="Ncommaaccent.smcp" horiz-adv-x="666" 
d="M591 0h-128l-254 306v-306h-134v519h128l254 -306v306h134v-519zM341 -250l-94 42q31 71 31 146h128q0 -109 -65 -188z" />
    <glyph glyph-name="Ntilde.smcp" horiz-adv-x="666" 
d="M591 0h-128l-254 306v-306h-134v519h128l254 -306v306h134v-519zM415 576q-33 0 -86 20q-51 19 -63 19q-27 0 -40 -41l-84 30q14 57 39.5 82.5t75.5 25.5q34 0 85 -20q50 -20 60 -20q15 0 23.5 9.5t19.5 31.5l78 -37q-20 -52 -43 -76t-65 -24z" />
    <glyph glyph-name="Oacute.smcp" horiz-adv-x="640" 
d="M604 259q0 -114 -77 -191.5t-207 -77.5t-207 77.5t-77 191.5t77 192t207 78t207 -78t77 -192zM320 97q71 0 109 45.5t38 116.5t-38 117t-109 46t-109 -46t-38 -117t38 -116.5t109 -45.5zM364 573h-113l54 120h161z" />
    <glyph glyph-name="Obreve.smcp" horiz-adv-x="640" 
d="M604 259q0 -114 -77 -191.5t-207 -77.5t-207 77.5t-77 191.5t77 192t207 78t207 -78t77 -192zM320 97q71 0 109 45.5t38 116.5t-38 117t-109 46t-109 -46t-38 -117t38 -116.5t109 -45.5zM391 716l91 -26q-15 -58 -57.5 -87.5t-104.5 -29.5t-104.5 29.5t-57.5 87.5l91 26
q19 -59 71 -59t71 59z" />
    <glyph glyph-name="Ocircumflex.smcp" horiz-adv-x="640" 
d="M604 259q0 -114 -77 -191.5t-207 -77.5t-207 77.5t-77 191.5t77 192t207 78t207 -78t77 -192zM320 97q71 0 109 45.5t38 116.5t-38 117t-109 46t-109 -46t-38 -117t38 -116.5t109 -45.5zM388 693l93 -120h-117l-44 58l-44 -58h-117l93 120h136z" />
    <glyph glyph-name="Odieresis.smcp" horiz-adv-x="640" 
d="M604 259q0 -114 -77 -191.5t-207 -77.5t-207 77.5t-77 191.5t77 192t207 78t207 -78t77 -192zM320 97q71 0 109 45.5t38 116.5t-38 117t-109 46t-109 -46t-38 -117t38 -116.5t109 -45.5zM163 633q0 27 18 44.5t47 17.5t47 -17.5t18 -44.5q0 -26 -18 -44t-47 -18t-47 18
t-18 44zM347 633q0 27 18 44.5t47 17.5t47 -17.5t18 -44.5q0 -26 -18 -44t-47 -18t-47 18t-18 44z" />
    <glyph glyph-name="Ograve.smcp" horiz-adv-x="640" 
d="M604 259q0 -114 -77 -191.5t-207 -77.5t-207 77.5t-77 191.5t77 192t207 78t207 -78t77 -192zM320 97q71 0 109 45.5t38 116.5t-38 117t-109 46t-109 -46t-38 -117t38 -116.5t109 -45.5zM376 573h-113l-102 120h161z" />
    <glyph glyph-name="Ohungarumlaut.smcp" horiz-adv-x="640" 
d="M604 259q0 -114 -77 -191.5t-207 -77.5t-207 77.5t-77 191.5t77 192t207 78t207 -78t77 -192zM320 97q71 0 109 45.5t38 116.5t-38 117t-109 46t-109 -46t-38 -117t38 -116.5t109 -45.5zM276 573h-108l44 120h136zM479 573h-108l44 120h136z" />
    <glyph glyph-name="Omacron.smcp" horiz-adv-x="640" 
d="M604 259q0 -114 -77 -191.5t-207 -77.5t-207 77.5t-77 191.5t77 192t207 78t207 -78t77 -192zM320 97q71 0 109 45.5t38 116.5t-38 117t-109 46t-109 -46t-38 -117t38 -116.5t109 -45.5zM157 582v102h326v-102h-326z" />
    <glyph glyph-name="Oslash.smcp" horiz-adv-x="642" 
d="M37 -23l77 90q-77 75 -77 192q0 114 77 192t207 78q90 0 158 -41l80 93l46 -42l-77 -89q77 -75 77 -191q0 -114 -77 -191.5t-207 -77.5q-89 0 -158 40l-80 -92zM174 259q0 -55 23 -96l205 237q-33 22 -81 22q-71 0 -109 -46t-38 -117zM321 97q71 0 109 45.5t38 116.5
q0 54 -23 95l-205 -236q34 -21 81 -21z" />
    <glyph glyph-name="Oslashacute.smcp" horiz-adv-x="642" 
d="M37 -23l77 90q-77 75 -77 192q0 114 77 192t207 78q90 0 158 -41l80 93l46 -42l-77 -89q77 -75 77 -191q0 -114 -77 -191.5t-207 -77.5q-89 0 -158 40l-80 -92zM174 259q0 -55 23 -96l205 237q-33 22 -81 22q-71 0 -109 -46t-38 -117zM321 97q71 0 109 45.5t38 116.5
q0 54 -23 95l-205 -236q34 -21 81 -21zM373 573h-113l54 120h161z" />
    <glyph glyph-name="Otilde.smcp" horiz-adv-x="640" 
d="M604 259q0 -114 -77 -191.5t-207 -77.5t-207 77.5t-77 191.5t77 192t207 78t207 -78t77 -192zM320 97q71 0 109 45.5t38 116.5t-38 117t-109 46t-109 -46t-38 -117t38 -116.5t109 -45.5zM406 576q-33 0 -86 20q-51 19 -63 19q-27 0 -40 -41l-84 30q14 57 39.5 82.5
t75.5 25.5q34 0 85 -20q50 -20 60 -20q15 0 23.5 9.5t19.5 31.5l78 -37q-20 -52 -43 -76t-65 -24z" />
    <glyph glyph-name="OE.smcp" horiz-adv-x="861" 
d="M331 529q53 0 110 -10h359v-105h-222v-99h213v-105h-213v-105h225v-105h-362q-47 -10 -110 -10q-143 0 -219.5 76t-76.5 193q0 118 76.5 194t219.5 76zM441 105v309q-36 9 -102 9q-80 0 -123.5 -44t-43.5 -120t43.5 -119.5t123.5 -43.5q61 0 102 9z" />
    <glyph glyph-name="Racute.smcp" horiz-adv-x="558" 
d="M495 354q0 -106 -110 -151l168 -203h-167l-135 175h-39v-175h-137v519h193q103 0 165 -42.5t62 -122.5zM362 350q0 33 -25 50t-67 17h-58v-146h34q53 0 84.5 20.5t31.5 58.5zM304 573h-113l54 120h161z" />
    <glyph glyph-name="Rcaron.smcp" horiz-adv-x="558" 
d="M495 354q0 -106 -110 -151l168 -203h-167l-135 175h-39v-175h-137v519h193q103 0 165 -42.5t62 -122.5zM362 350q0 33 -25 50t-67 17h-58v-146h34q53 0 84.5 20.5t31.5 58.5zM431 693l-93 -120h-136l-93 120h117l44 -58l44 58h117z" />
    <glyph glyph-name="Rcommaaccent.smcp" horiz-adv-x="558" 
d="M495 354q0 -106 -110 -151l168 -203h-167l-135 175h-39v-175h-137v519h193q103 0 165 -42.5t62 -122.5zM362 350q0 33 -25 50t-67 17h-58v-146h34q53 0 84.5 20.5t31.5 58.5zM286 -250l-94 42q31 71 31 146h128q0 -109 -65 -188z" />
    <glyph glyph-name="Sacute.smcp" horiz-adv-x="481" 
d="M440 158q0 -74 -56.5 -121t-155.5 -47q-94 0 -179 33l22 103q77 -32 152 -32q36 0 58.5 12.5t22.5 36.5q0 16 -12.5 28t-27.5 18.5t-49 18.5q-82 28 -121 63.5t-39 104.5q0 73 53 113t142 40q99 0 167 -34l-20 -102q-66 32 -143 32q-63 0 -63 -40q0 -21 17 -32.5
t60 -27.5q38 -14 59.5 -24t52 -30t45.5 -48.5t15 -64.5zM282 573h-113l54 120h161z" />
    <glyph glyph-name="Scaron.smcp" horiz-adv-x="481" 
d="M440 158q0 -74 -56.5 -121t-155.5 -47q-94 0 -179 33l22 103q77 -32 152 -32q36 0 58.5 12.5t22.5 36.5q0 16 -12.5 28t-27.5 18.5t-49 18.5q-82 28 -121 63.5t-39 104.5q0 73 53 113t142 40q99 0 167 -34l-20 -102q-66 32 -143 32q-63 0 -63 -40q0 -21 17 -32.5
t60 -27.5q38 -14 59.5 -24t52 -30t45.5 -48.5t15 -64.5zM402 693l-93 -120h-136l-93 120h117l44 -58l44 58h117z" />
    <glyph glyph-name="Scedilla.smcp" horiz-adv-x="481" 
d="M344 -117q0 -45 -48 -70t-124 -29l-9 67q71 8 71 34q0 12 -12 19.5t-24 9.5t-33 5l27 72q-78 6 -143 32l22 103q77 -32 152 -32q36 0 58.5 12.5t22.5 36.5q0 16 -12.5 28t-27.5 18.5t-49 18.5q-82 28 -121 63.5t-39 104.5q0 73 53 113t142 40q99 0 167 -34l-20 -102
q-66 32 -143 32q-63 0 -63 -40q0 -21 17 -32.5t60 -27.5q38 -14 59.5 -24t52 -30t45.5 -48.5t15 -64.5q0 -67 -47 -112.5t-129 -53.5l-11 -33q41 -4 66 -23t25 -53z" />
    <glyph glyph-name="Scircumflex.smcp" horiz-adv-x="481" 
d="M440 158q0 -74 -56.5 -121t-155.5 -47q-94 0 -179 33l22 103q77 -32 152 -32q36 0 58.5 12.5t22.5 36.5q0 16 -12.5 28t-27.5 18.5t-49 18.5q-82 28 -121 63.5t-39 104.5q0 73 53 113t142 40q99 0 167 -34l-20 -102q-66 32 -143 32q-63 0 -63 -40q0 -21 17 -32.5
t60 -27.5q38 -14 59.5 -24t52 -30t45.5 -48.5t15 -64.5zM312 693l93 -120h-117l-44 58l-44 -58h-117l93 120h136z" />
    <glyph glyph-name="Scommaaccent.smcp" horiz-adv-x="481" 
d="M440 158q0 -74 -56.5 -121t-155.5 -47q-94 0 -179 33l22 103q77 -32 152 -32q36 0 58.5 12.5t22.5 36.5q0 16 -12.5 28t-27.5 18.5t-49 18.5q-82 28 -121 63.5t-39 104.5q0 73 53 113t142 40q99 0 167 -34l-20 -102q-66 32 -143 32q-63 0 -63 -40q0 -21 17 -32.5
t60 -27.5q38 -14 59.5 -24t52 -30t45.5 -48.5t15 -64.5zM246 -250l-94 42q31 71 31 146h128q0 -109 -65 -188z" />
    <glyph glyph-name="Tbar.smcp" horiz-adv-x="491" 
d="M409 185h-95v-185h-137v185h-95v101h95v124h-150v109h437v-109h-150v-124h95v-101z" />
    <glyph glyph-name="Tcaron.smcp" horiz-adv-x="491" 
d="M27 519h437v-109h-150v-410h-137v410h-150v109zM407 693l-93 -120h-136l-93 120h117l44 -58l44 58h117z" />
    <glyph glyph-name="Tcommaaccent.smcp" horiz-adv-x="491" 
d="M27 519h437v-109h-150v-410h-137v410h-150v109zM242 -250l-94 42q31 71 31 146h128q0 -109 -65 -188z" />
    <glyph glyph-name="Thorn.smcp" horiz-adv-x="505" 
d="M487 270q0 -88 -66.5 -135t-178.5 -47h-30v-88h-137v519h137v-80h46q105 0 167 -44.5t62 -124.5zM353 264q0 34 -25 53.5t-70 19.5h-46v-149h36q50 0 77.5 20.5t27.5 55.5z" />
    <glyph glyph-name="Uacute.smcp" horiz-adv-x="628" 
d="M421 199v320h137v-318q0 -94 -66.5 -152.5t-177.5 -58.5t-177.5 58.5t-66.5 152.5v318h137v-320q0 -45 27.5 -72.5t79.5 -27.5t79.5 27.5t27.5 72.5zM358 573h-113l54 120h161z" />
    <glyph glyph-name="Ubreve.smcp" horiz-adv-x="628" 
d="M421 199v320h137v-318q0 -94 -66.5 -152.5t-177.5 -58.5t-177.5 58.5t-66.5 152.5v318h137v-320q0 -45 27.5 -72.5t79.5 -27.5t79.5 27.5t27.5 72.5zM385 716l91 -26q-15 -58 -57.5 -87.5t-104.5 -29.5t-104.5 29.5t-57.5 87.5l91 26q19 -59 71 -59t71 59z" />
    <glyph glyph-name="Ucircumflex.smcp" horiz-adv-x="628" 
d="M421 199v320h137v-318q0 -94 -66.5 -152.5t-177.5 -58.5t-177.5 58.5t-66.5 152.5v318h137v-320q0 -45 27.5 -72.5t79.5 -27.5t79.5 27.5t27.5 72.5zM382 693l93 -120h-117l-44 58l-44 -58h-117l93 120h136z" />
    <glyph glyph-name="Udieresis.smcp" horiz-adv-x="628" 
d="M421 199v320h137v-318q0 -94 -66.5 -152.5t-177.5 -58.5t-177.5 58.5t-66.5 152.5v318h137v-320q0 -45 27.5 -72.5t79.5 -27.5t79.5 27.5t27.5 72.5zM157 633q0 27 18 44.5t47 17.5t47 -17.5t18 -44.5q0 -26 -18 -44t-47 -18t-47 18t-18 44zM341 633q0 27 18 44.5
t47 17.5t47 -17.5t18 -44.5q0 -26 -18 -44t-47 -18t-47 18t-18 44z" />
    <glyph glyph-name="Ugrave.smcp" horiz-adv-x="628" 
d="M421 199v320h137v-318q0 -94 -66.5 -152.5t-177.5 -58.5t-177.5 58.5t-66.5 152.5v318h137v-320q0 -45 27.5 -72.5t79.5 -27.5t79.5 27.5t27.5 72.5zM374 573h-113l-102 120h161z" />
    <glyph glyph-name="Uhungarumlaut.smcp" horiz-adv-x="628" 
d="M421 199v320h137v-318q0 -94 -66.5 -152.5t-177.5 -58.5t-177.5 58.5t-66.5 152.5v318h137v-320q0 -45 27.5 -72.5t79.5 -27.5t79.5 27.5t27.5 72.5zM264 573h-108l44 120h136zM467 573h-108l44 120h136z" />
    <glyph glyph-name="Umacron.smcp" horiz-adv-x="628" 
d="M421 199v320h137v-318q0 -94 -66.5 -152.5t-177.5 -58.5t-177.5 58.5t-66.5 152.5v318h137v-320q0 -45 27.5 -72.5t79.5 -27.5t79.5 27.5t27.5 72.5zM151 582v102h326v-102h-326z" />
    <glyph glyph-name="Uogonek.smcp" horiz-adv-x="628" 
d="M441 -131l8 -67q-37 -18 -89 -18q-49 0 -77.5 27.5t-28.5 72.5q0 67 78 107q-5 -1 -18 -1q-111 0 -177.5 58.5t-66.5 152.5v318h137v-320q0 -45 27.5 -72.5t79.5 -27.5t79.5 27.5t27.5 72.5v320h137v-318q0 -95 -66 -153q-7 -6 -29.5 -25t-35 -31t-29 -29.5t-24.5 -34
t-8 -31.5q0 -34 37 -34q22 0 38 6z" />
    <glyph glyph-name="Uring.smcp" horiz-adv-x="628" 
d="M421 199v320h137v-318q0 -94 -66.5 -152.5t-177.5 -58.5t-177.5 58.5t-66.5 152.5v318h137v-320q0 -45 27.5 -72.5t79.5 -27.5t79.5 27.5t27.5 72.5zM413 645q0 -36 -27 -63t-73 -27t-72.5 27t-26.5 63t26.5 63.5t72.5 27.5t73 -27.5t27 -63.5zM274 645q0 -17 10.5 -28.5
t28.5 -11.5t29 11.5t11 28.5t-11 29t-29 12t-28.5 -12t-10.5 -29z" />
    <glyph glyph-name="Utilde.smcp" horiz-adv-x="628" 
d="M421 199v320h137v-318q0 -94 -66.5 -152.5t-177.5 -58.5t-177.5 58.5t-66.5 152.5v318h137v-320q0 -45 27.5 -72.5t79.5 -27.5t79.5 27.5t27.5 72.5zM403 576q-33 0 -86 20q-51 19 -63 19q-27 0 -40 -41l-84 30q14 57 39.5 82.5t75.5 25.5q34 0 85 -20q50 -20 60 -20
q15 0 23.5 9.5t19.5 31.5l78 -37q-20 -52 -43 -76t-65 -24z" />
    <glyph glyph-name="Wacute.smcp" horiz-adv-x="874" 
d="M512 519l115 -337l87 337h139l-153 -519h-134l-129 372l-129 -372h-134l-153 519h139l87 -337l115 337h150zM497 573h-113l54 120h161z" />
    <glyph glyph-name="Wcircumflex.smcp" horiz-adv-x="874" 
d="M512 519l115 -337l87 337h139l-153 -519h-134l-129 372l-129 -372h-134l-153 519h139l87 -337l115 337h150zM505 693l93 -120h-117l-44 58l-44 -58h-117l93 120h136z" />
    <glyph glyph-name="Wdieresis.smcp" horiz-adv-x="874" 
d="M512 519l115 -337l87 337h139l-153 -519h-134l-129 372l-129 -372h-134l-153 519h139l87 -337l115 337h150zM280 633q0 27 18 44.5t47 17.5t47 -17.5t18 -44.5q0 -26 -18 -44t-47 -18t-47 18t-18 44zM464 633q0 27 18 44.5t47 17.5t47 -17.5t18 -44.5q0 -26 -18 -44
t-47 -18t-47 18t-18 44z" />
    <glyph glyph-name="Wgrave.smcp" horiz-adv-x="874" 
d="M512 519l115 -337l87 337h139l-153 -519h-134l-129 372l-129 -372h-134l-153 519h139l87 -337l115 337h150zM490 573h-113l-102 120h161z" />
    <glyph glyph-name="Yacute.smcp" horiz-adv-x="528" 
d="M196 0v187l-191 332h152l107 -214l107 214h152l-191 -332v-187h-136zM310 573h-113l54 120h161z" />
    <glyph glyph-name="Ycircumflex.smcp" horiz-adv-x="528" 
d="M196 0v187l-191 332h152l107 -214l107 214h152l-191 -332v-187h-136zM332 693l93 -120h-117l-44 58l-44 -58h-117l93 120h136z" />
    <glyph glyph-name="Ydieresis.smcp" horiz-adv-x="528" 
d="M196 0v187l-191 332h152l107 -214l107 214h152l-191 -332v-187h-136zM107 633q0 27 18 44.5t47 17.5t47 -17.5t18 -44.5q0 -26 -18 -44t-47 -18t-47 18t-18 44zM291 633q0 27 18 44.5t47 17.5t47 -17.5t18 -44.5q0 -26 -18 -44t-47 -18t-47 18t-18 44z" />
    <glyph glyph-name="Ygrave.smcp" horiz-adv-x="528" 
d="M196 0v187l-191 332h152l107 -214l107 214h152l-191 -332v-187h-136zM329 573h-113l-102 120h161z" />
    </font>
</defs>
</svg>
