<?xml version="1.0" standalone="no"?>
<!DOCTYPE svg PUBLIC "-//W3C//DTD SVG 1.1//EN" "http://www.w3.org/Graphics/SVG/1.1/DTD/svg11.dtd" >
<svg>
<metadata>
Created by FontForge 20120731 at Mon Aug 29 20:30:11 2016
 By ,,,
Copyright (c) 2007 by Process Type Foundry. All rights reserved.
</metadata>
<defs>
<font id="Seravek" horiz-adv-x="552" >
  <font-face 
    font-family="Seravek"
    font-weight="400"
    font-stretch="normal"
    units-per-em="1000"
    panose-1="2 11 5 3 4 0 0 2 0 4"
    ascent="750"
    descent="-250"
    x-height="480"
    cap-height="666"
    bbox="-95 -296 1254 933"
    underline-thickness="49"
    underline-position="-177"
    unicode-range="U+0020-FB04"
  />
<missing-glyph horiz-adv-x="676" 
d="M105 0v666h466v-666h-466zM522 616h-340l340 -527v527zM154 576v-527h339z" />
    <glyph glyph-name="f_f" unicode="ff" horiz-adv-x="658" 
d="M503 0h-90v407h-212v-407h-90v407h-81v73h81v25q0 105 49 158t137 53q45 0 72 -10l-7 -70q-24 7 -55 7q-57 0 -81.5 -34.5t-24.5 -99.5v-29h212v20q0 107 50 161.5t138 54.5q51 0 82 -12l-8 -69q-29 8 -63 8q-109 0 -109 -137v-26h140v-73h-140v-407z" />
    <glyph glyph-name="fi" unicode="fi" horiz-adv-x="562" 
d="M201 0h-90v407h-81v73h81v22q0 214 207 214q75 0 127 -23l-11 -69q-51 19 -112 19q-64 0 -92.5 -33.5t-28.5 -104.5v-25h286v-480h-90v407h-196v-407z" />
    <glyph glyph-name="fl" unicode="fl" horiz-adv-x="625" 
d="M413 633q-40 10 -90 10q-64 0 -93 -33t-29 -104v-26h137v-73h-137v-407h-90v407h-81v73h81v24q0 105 54 158.5t152 53.5q53 0 96 -10h90v-582q0 -60 51 -60q22 0 45 6l4 -67q-33 -11 -73 -11q-60 0 -88.5 35t-28.5 93v513z" />
    <glyph glyph-name="f_f_i" unicode="ffi" horiz-adv-x="864" 
d="M413 480v22q0 214 207 214q75 0 127 -23l-11 -69q-51 19 -112 19q-64 0 -92.5 -33.5t-28.5 -104.5v-25h286v-480h-90v407h-196v-407h-90v407h-212v-407h-90v407h-81v73h81v25q0 105 49 158t137 53q45 0 72 -10l-7 -70q-24 7 -55 7q-57 0 -81.5 -34.5t-24.5 -99.5v-29h212
z" />
    <glyph glyph-name="f_f_l" unicode="ffl" horiz-adv-x="927" 
d="M715 633q-40 10 -90 10q-64 0 -93 -33t-29 -104v-26h137v-73h-137v-407h-90v407h-212v-407h-90v407h-81v73h81v25q0 105 49 158t137 53q45 0 72 -10l-7 -70q-24 7 -55 7q-57 0 -81.5 -34.5t-24.5 -99.5v-29h212v24q0 105 54 158.5t152 53.5q53 0 96 -10h90v-582
q0 -60 51 -60q22 0 45 6l4 -67q-33 -11 -73 -11q-60 0 -88.5 35t-28.5 93v513z" />
    <glyph glyph-name="f_b" unicode="fb" horiz-adv-x="880" 
d="M413 633q-40 10 -90 10q-64 0 -93 -33t-29 -104v-26h137v-73h-137v-407h-90v407h-81v73h81v24q0 105 54 158.5t152 53.5q53 0 96 -10h90v-270q51 54 137 54q91 0 146.5 -69t55.5 -177q0 -110 -67.5 -182t-186.5 -72q-94 0 -175 35v608zM618 418q-66 0 -115 -45v-297
q37 -14 85 -14q80 0 122 49t42 132q0 77 -34.5 126t-99.5 49z" />
    <glyph glyph-name="f_f_b" unicode="ffb" horiz-adv-x="1182" 
d="M715 633q-40 10 -90 10q-64 0 -93 -33t-29 -104v-26h137v-73h-137v-407h-90v407h-212v-407h-90v407h-81v73h81v25q0 105 49 158t137 53q45 0 72 -10l-7 -70q-24 7 -55 7q-57 0 -81.5 -34.5t-24.5 -99.5v-29h212v24q0 105 54 158.5t152 53.5q53 0 96 -10h90v-270
q51 54 137 54q91 0 146.5 -69t55.5 -177q0 -110 -67.5 -182t-186.5 -72q-94 0 -175 35v608zM920 418q-66 0 -115 -45v-297q37 -14 85 -14q80 0 122 49t42 132q0 77 -34.5 126t-99.5 49z" />
    <glyph glyph-name="f_h" unicode="fh" horiz-adv-x="892" 
d="M503 0h-90v633q-40 10 -90 10q-64 0 -93 -33t-29 -104v-26h137v-73h-137v-407h-90v407h-81v73h81v24q0 105 54 158.5t152 53.5q53 0 96 -10h90v-287q59 71 149 71q85 0 127.5 -67t42.5 -170v-253h-90v250q0 167 -110 167q-69 0 -119 -65v-352z" />
    <glyph glyph-name="f_f_h" unicode="ffh" horiz-adv-x="1194" 
d="M805 0h-90v633q-40 10 -90 10q-64 0 -93 -33t-29 -104v-26h137v-73h-137v-407h-90v407h-212v-407h-90v407h-81v73h81v25q0 105 49 158t137 53q45 0 72 -10l-7 -70q-24 7 -55 7q-57 0 -81.5 -34.5t-24.5 -99.5v-29h212v24q0 105 54 158.5t152 53.5q53 0 96 -10h90v-287
q59 71 149 71q85 0 127.5 -67t42.5 -170v-253h-90v250q0 167 -110 167q-69 0 -119 -65v-352z" />
    <glyph glyph-name="f_j" unicode="fj" horiz-adv-x="557" 
d="M201 0h-90v407h-81v73h81v22q0 214 207 214q75 0 127 -23l-11 -69q-51 19 -112 19q-64 0 -92.5 -33.5t-28.5 -104.5v-25h286v-362q0 -101 -28.5 -180.5t-102.5 -153.5l-62 49q103 113 103 269v305h-196v-407z" />
    <glyph glyph-name="f_f_j" unicode="ffj" horiz-adv-x="859" 
d="M503 0h-90v407h-212v-407h-90v407h-81v73h81v25q0 105 49 158t137 53q45 0 72 -10l-7 -70q-24 7 -55 7q-57 0 -81.5 -34.5t-24.5 -99.5v-29h212v22q0 214 207 214q75 0 127 -23l-11 -69q-51 19 -112 19q-64 0 -92.5 -33.5t-28.5 -104.5v-25h286v-362q0 -101 -28.5 -180.5
t-102.5 -153.5l-62 49q103 113 103 269v305h-196v-407z" />
    <glyph glyph-name="f_k" unicode="fk" horiz-adv-x="834" 
d="M503 0h-90v633q-40 10 -90 10q-64 0 -93 -33t-29 -104v-26h137v-73h-137v-407h-90v407h-81v73h81v24q0 105 54 158.5t152 53.5q53 0 96 -10h90v-453l192 227h104l-203 -236l220 -244h-109l-204 238v-238z" />
    <glyph glyph-name="f_f_k" unicode="ffk" horiz-adv-x="1136" 
d="M805 0h-90v633q-40 10 -90 10q-64 0 -93 -33t-29 -104v-26h137v-73h-137v-407h-90v407h-212v-407h-90v407h-81v73h81v25q0 105 49 158t137 53q45 0 72 -10l-7 -70q-24 7 -55 7q-57 0 -81.5 -34.5t-24.5 -99.5v-29h212v24q0 105 54 158.5t152 53.5q53 0 96 -10h90v-453
l192 227h104l-203 -236l220 -244h-109l-204 238v-238z" />
    <glyph glyph-name=".notdef" horiz-adv-x="676" 
d="M105 0v666h466v-666h-466zM522 616h-340l340 -527v527zM154 576v-527h339z" />
    <glyph glyph-name=".null" horiz-adv-x="0" 
 />
    <glyph glyph-name="nonmarkingreturn" horiz-adv-x="333" 
 />
    <glyph glyph-name="space" unicode=" " horiz-adv-x="215" 
 />
    <glyph glyph-name="exclam" unicode="!" horiz-adv-x="296" 
d="M195 460l-20 -281h-52l-22 281v206h94v-206zM206 51q0 -25 -16 -41.5t-42 -16.5t-42 16.5t-16 41.5t16 41.5t42 16.5t42 -16.5t16 -41.5z" />
    <glyph glyph-name="quotedbl" unicode="&#x22;" horiz-adv-x="417" 
d="M155 429h-68l-12 237h92zM330 429h-68l-12 237h92z" />
    <glyph glyph-name="numbersign" unicode="#" horiz-adv-x="672" 
d="M403 0l19 177h-196l-19 -177h-73l19 177h-108v62h114l21 196h-115v62h122l18 169h73l-18 -169h196l18 169h73l-18 -169h103v-62h-110l-20 -196h107v-62h-114l-19 -177h-73zM253 435l-21 -196h197l20 196h-196z" />
    <glyph glyph-name="dollar" unicode="$" horiz-adv-x="495" 
d="M282 -120h-81v121q-74 7 -141 39l17 70q84 -38 153 -38q58 0 90 26.5t32 75.5q0 44 -32.5 75.5t-93.5 62.5q-155 79 -155 190q0 66 39.5 107t103.5 52v125h81v-122q72 -4 119 -31l-17 -70q-67 31 -133 31q-105 0 -105 -89q0 -21 7 -37t27 -32.5t30.5 -23.5t43.5 -27
q2 -1 23.5 -13.5t28.5 -17t27 -18.5t29.5 -23.5t24.5 -26t22 -31.5t12.5 -35.5t5.5 -41.5q0 -68 -42.5 -113t-115.5 -60v-125z" />
    <glyph glyph-name="percent" unicode="%" horiz-adv-x="911" 
d="M266 20l314 658l66 -31l-315 -659zM391 483q0 -80 -45 -137t-123 -57t-123 57t-45 137t45 137.5t123 57.5t123 -57.5t45 -137.5zM132 483q0 -56 22.5 -93t68.5 -37t68.5 37t22.5 93q0 55 -23 93t-68 38t-68 -38t-23 -93zM856 182q0 -80 -45 -137t-123 -57t-123 57
t-45 137t45 137.5t123 57.5t123 -57.5t45 -137.5zM597 182q0 -56 22.5 -93t68.5 -37t68.5 37t22.5 93q0 55 -23 93t-68 38t-68 -38t-23 -93z" />
    <glyph glyph-name="ampersand" unicode="&#x26;" horiz-adv-x="740" 
d="M653 359q-64 -143 -112 -199q38 -25 174 -106l-40 -66q-76 44 -180 115q-108 -115 -245 -115q-89 0 -142 42t-53 110q0 43 23 82t47.5 60t61.5 47q-100 89 -100 181q0 77 49 122.5t134 45.5q71 0 118.5 -39t47.5 -100q0 -101 -141 -205q89 -73 188 -135q47 63 105 192z
M249 53q103 0 188 90q-128 82 -198 143q-32 -26 -49 -40.5t-34.5 -43.5t-17.5 -58q0 -43 29 -67t82 -24zM164 510q0 -70 80 -137q53 38 84.5 75.5t31.5 86.5q0 37 -26.5 58.5t-67.5 21.5q-47 0 -74.5 -28t-27.5 -77z" />
    <glyph glyph-name="quotesingle" unicode="'" horiz-adv-x="242" 
d="M155 429h-68l-12 237h92z" />
    <glyph glyph-name="parenleft" unicode="(" horiz-adv-x="337" 
d="M165 280q0 -212 117 -431l-66 -35q-141 229 -141 466t141 466l66 -35q-117 -219 -117 -431z" />
    <glyph glyph-name="parenright" unicode=")" horiz-adv-x="337" 
d="M172 280q0 212 -117 431l66 35q141 -229 141 -466t-141 -466l-66 35q117 219 117 431z" />
    <glyph glyph-name="asterisk" unicode="*" horiz-adv-x="408" 
d="M331 449l-105 60v-121h-44v121l-105 -60l-22 38l105 60l-105 60l22 38l105 -61v122h44v-122l105 61l22 -38l-105 -60l105 -60z" />
    <glyph glyph-name="plus" unicode="+" horiz-adv-x="606" 
d="M534 289h-192v-204h-78v204h-192v68h192v204h78v-204h192v-68z" />
    <glyph glyph-name="comma" unicode="," horiz-adv-x="260" 
d="M99 -161l-59 32q59 118 63 236l87 -9q-6 -138 -91 -259z" />
    <glyph glyph-name="hyphen" unicode="-" horiz-adv-x="355" 
d="M300 220h-245v75h245v-75z" />
    <glyph glyph-name="period" unicode="." horiz-adv-x="256" 
d="M186 51q0 -25 -16 -41.5t-42 -16.5t-42 16.5t-16 41.5t16 41.5t42 16.5t42 -16.5t16 -41.5z" />
    <glyph glyph-name="slash" unicode="/" horiz-adv-x="418" 
d="M45 -76l253 768l75 -26l-252 -766z" />
    <glyph glyph-name="zero" unicode="0" horiz-adv-x="592" 
d="M540 333q0 -155 -62 -250t-182 -95t-182 95t-62 250t62 250t182 95t182 -95t62 -250zM296 62q153 0 153 271t-153 271t-153 -271t153 -271z" />
    <glyph glyph-name="one" unicode="1" horiz-adv-x="351" 
d="M266 0h-91v570l-129 -53l-26 71l187 78h59v-666z" />
    <glyph glyph-name="two" unicode="2" horiz-adv-x="475" 
d="M83 570l-21 69q63 39 153 39q92 0 148.5 -54t56.5 -144q0 -78 -36.5 -140t-113.5 -142q-71 -72 -130 -124h290v-74h-393l-11 55q108 109 191 200q56 62 84 113t28 108q0 59 -33 93t-90 34q-62 0 -123 -33z" />
    <glyph glyph-name="three" unicode="3" horiz-adv-x="486" 
d="M428 176q0 -85 -62 -136.5t-159 -51.5q-86 0 -161 33l18 73q70 -32 137 -32q65 0 100.5 30.5t35.5 79.5q0 67 -52.5 99.5t-132.5 32.5h-39v74h36q74 0 124.5 35.5t50.5 93.5q0 47 -30 72t-82 25q-61 0 -125 -29l-18 69q63 34 154 34q84 0 138 -44t54 -115
q0 -118 -135 -173q65 -17 106.5 -62t41.5 -108z" />
    <glyph glyph-name="four" unicode="4" horiz-adv-x="536" 
d="M501 192h-90v-192h-87v192h-277l-12 70l276 404h100v-401h90v-73zM324 265v301l-200 -301h200z" />
    <glyph glyph-name="five" unicode="5" horiz-adv-x="509" 
d="M459 188q0 -89 -67.5 -144.5t-170.5 -55.5q-93 0 -161 28l15 72q67 -27 144 -27q67 0 108.5 32t41.5 88q0 64 -51 97.5t-135 33.5h-98v354h345v-74h-254v-207h32q105 0 178 -50.5t73 -146.5z" />
    <glyph glyph-name="six" unicode="6" horiz-adv-x="547" 
d="M380 678l34 -64q-116 -58 -183 -124.5t-87 -171.5q61 72 159 72q87 0 141.5 -54.5t54.5 -139.5q0 -92 -63.5 -150t-153.5 -58q-107 0 -167 79t-60 180q0 285 325 431zM411 197q0 57 -32.5 88t-90.5 31q-41 0 -80 -19.5t-65 -49.5q-3 -75 33.5 -131t104.5 -56q60 0 95 39
t35 98z" />
    <glyph glyph-name="seven" unicode="7" horiz-adv-x="454" 
d="M405 666l13 -73l-264 -593h-91l269 592h-300v74h373z" />
    <glyph glyph-name="eight" unicode="8" horiz-adv-x="542" 
d="M271 678q82 0 137.5 -41t55.5 -111q0 -89 -130 -174q72 -42 110 -86t38 -106q0 -75 -62.5 -123.5t-148.5 -48.5q-92 0 -151.5 45.5t-59.5 123.5q0 103 148 191q-130 76 -130 175q0 70 55 112.5t138 42.5zM395 159q0 46 -28.5 76.5t-95.5 71.5q-73 -51 -92 -71
q-32 -36 -32 -80q0 -46 33.5 -72.5t90.5 -26.5q55 0 89.5 29t34.5 73zM164 524q0 -41 24.5 -68.5t82.5 -62.5q54 36 80.5 65.5t26.5 65.5q0 38 -29 61.5t-78 23.5q-50 0 -78.5 -24t-28.5 -61z" />
    <glyph glyph-name="nine" unicode="9" horiz-adv-x="547" 
d="M165 -12l-34 64q116 58 183 124.5t87 171.5q-59 -72 -159 -72q-87 0 -141.5 54.5t-54.5 139.5q0 93 62 150.5t155 57.5q107 0 167 -79t60 -180q0 -285 -325 -431zM134 469q0 -57 32.5 -88t90.5 -31q85 0 145 69q3 75 -33.5 131t-104.5 56q-62 0 -96 -38.5t-34 -98.5z" />
    <glyph glyph-name="colon" unicode=":" horiz-adv-x="256" 
d="M186 51q0 -25 -16 -41.5t-42 -16.5t-42 16.5t-16 41.5t16 41.5t42 16.5t42 -16.5t16 -41.5zM186 364q0 -25 -16 -41.5t-42 -16.5t-42 16.5t-16 41.5t16 41.5t42 16.5t42 -16.5t16 -41.5z" />
    <glyph glyph-name="semicolon" unicode=";" horiz-adv-x="254" 
d="M194 364q0 -25 -16 -41.5t-42 -16.5t-42 16.5t-16 41.5t16 41.5t42 16.5t42 -16.5t16 -41.5zM87 -161l-59 32q59 118 63 236l87 -9q-6 -138 -91 -259z" />
    <glyph glyph-name="less" unicode="&#x3c;" horiz-adv-x="587" 
d="M65 356l431 215l31 -64l-385 -184l385 -184l-31 -64l-431 215v66z" />
    <glyph glyph-name="equal" unicode="=" horiz-adv-x="616" 
d="M82 395v68h452v-68h-452zM82 184v68h452v-68h-452z" />
    <glyph glyph-name="greater" unicode="&#x3e;" horiz-adv-x="587" 
d="M91 571l431 -215v-66l-431 -215l-31 64l385 184l-385 184z" />
    <glyph glyph-name="question" unicode="?" horiz-adv-x="457" 
d="M402 503q0 -45 -18 -85.5t-56 -77t-72 -62.5t-89 -64q-10 -7 -15 -10l-44 60q50 36 66 47.5t52 42t48.5 48t25 44.5t12.5 54q0 48 -30.5 75.5t-79.5 27.5q-67 0 -128 -36l-24 70q68 41 161 41q81 0 136 -46t55 -129zM222 51q0 -25 -16 -41.5t-42 -16.5t-42 16.5t-16 41.5
t16 41.5t42 16.5t42 -16.5t16 -41.5z" />
    <glyph glyph-name="at" unicode="@" horiz-adv-x="813" 
d="M445 398q60 0 109 -27l-26 -149q-3 -15 -3 -28q0 -63 55 -63q49 0 84 51t35 125q0 101 -72 161.5t-188 60.5q-138 0 -226.5 -87.5t-88.5 -231.5q0 -129 76 -202t213 -73q117 0 245 59l18 -51q-54 -29 -127.5 -45.5t-138.5 -16.5q-164 0 -257 91t-93 236q0 167 108 271
t274 104q144 0 231.5 -78t87.5 -196q0 -96 -53 -162t-134 -66q-48 0 -77 27t-31 67q-22 -40 -53 -64t-65 -24q-41 0 -61 30.5t-20 77.5q0 84 47 143.5t131 59.5zM441 343q-50 0 -78.5 -44.5t-28.5 -101.5q0 -55 33 -55q45 0 96 101l17 95q-18 5 -39 5z" />
    <glyph glyph-name="A" unicode="A" horiz-adv-x="676" 
d="M383 666l265 -666h-94l-61 161h-311l-60 -161h-94l265 666h90zM338 582l-128 -347h256z" />
    <glyph glyph-name="B" unicode="B" horiz-adv-x="569" 
d="M526 186q0 -83 -71 -134.5t-187 -51.5h-188v666h206q97 0 156.5 -44.5t59.5 -117.5q0 -56 -37 -96.5t-100 -60.5q75 -14 118 -55t43 -106zM438 189q0 58 -50 88t-126 30h-94v-235h106q76 0 120 30t44 87zM168 379h85q70 0 115 31.5t45 83.5q0 48 -37 74t-98 26h-110v-215
z" />
    <glyph glyph-name="C" unicode="C" horiz-adv-x="610" 
d="M389 678q104 0 176 -31l-15 -71q-76 27 -150 27q-124 0 -194.5 -71t-70.5 -199t70.5 -199t194.5 -71q74 0 150 27l15 -71q-72 -31 -176 -31q-161 0 -253.5 96t-92.5 249t92.5 249t253.5 96z" />
    <glyph glyph-name="D" unicode="D" horiz-adv-x="683" 
d="M80 0v666h185q170 0 275 -94t105 -239t-105 -239t-275 -94h-185zM265 74q125 0 206.5 69.5t81.5 189.5t-81.5 189.5t-206.5 69.5h-93v-518h93z" />
    <glyph glyph-name="E" unicode="E" horiz-adv-x="510" 
d="M80 0v666h371v-75h-279v-213h267v-75h-267v-228h282v-75h-374z" />
    <glyph glyph-name="F" unicode="F" horiz-adv-x="495" 
d="M172 0h-92v666h375v-75h-283v-228h271v-75h-271v-288z" />
    <glyph glyph-name="G" unicode="G" horiz-adv-x="677" 
d="M400 678q118 0 199 -39l-15 -73q-92 37 -183 37q-125 0 -195.5 -73t-70.5 -205q0 -128 68 -196.5t200 -68.5q65 0 120 16v217h84v-268q-88 -37 -215 -37q-162 0 -255.5 92.5t-93.5 244.5q0 159 96 256t261 97z" />
    <glyph glyph-name="H" unicode="H" horiz-adv-x="685" 
d="M605 0h-92v299h-341v-299h-92v666h92v-289h341v289h92v-666z" />
    <glyph glyph-name="I" unicode="I" horiz-adv-x="262" 
d="M177 666v-666h-92v666h92z" />
    <glyph glyph-name="J" unicode="J" horiz-adv-x="250" 
d="M175 152q-2 -95 -26.5 -165t-95.5 -145l-64 51q94 106 94 244v529h92v-514z" />
    <glyph glyph-name="K" unicode="K" horiz-adv-x="585" 
d="M172 0h-92v666h92v-323l278 323h111l-287 -330l306 -336h-116l-292 330v-330z" />
    <glyph glyph-name="L" unicode="L" horiz-adv-x="472" 
d="M80 666h92v-591h278v-75h-370v666z" />
    <glyph glyph-name="M" unicode="M" horiz-adv-x="846" 
d="M423 195l228 471h83l48 -666h-88l-32 519l-192 -399h-94l-192 399l-32 -519h-88l48 666h83z" />
    <glyph glyph-name="N" unicode="N" horiz-adv-x="709" 
d="M629 0h-88l-373 523v-523h-88v666h88l373 -523v523h88v-666z" />
    <glyph glyph-name="O" unicode="O" horiz-adv-x="740" 
d="M370 -12q-151 0 -238 99.5t-87 245.5t87 245.5t238 99.5t238 -99.5t87 -245.5t-87 -245.5t-238 -99.5zM370 62q111 0 172 76.5t61 194.5t-61 194.5t-172 76.5t-172 -76.5t-61 -194.5t61 -194.5t172 -76.5z" />
    <glyph glyph-name="P" unicode="P" horiz-adv-x="508" 
d="M496 471q0 -94 -78.5 -151t-199.5 -57h-46v-263h-92v666h161q113 0 184 -50.5t71 -144.5zM404 472q0 62 -46 91t-120 29h-66v-255h49q82 0 132.5 36t50.5 99z" />
    <glyph glyph-name="Q" unicode="Q" horiz-adv-x="740" 
d="M370 -12q-151 0 -238 99.5t-87 245.5t87 245.5t238 99.5t238 -99.5t87 -245.5q0 -102 -45 -185.5t-127 -125.5l165 -104l-43 -68l-220 142q-34 -4 -55 -4zM370 62q111 0 172 76.5t61 194.5t-61 194.5t-172 76.5t-172 -76.5t-61 -194.5t61 -194.5t172 -76.5z" />
    <glyph glyph-name="R" unicode="R" horiz-adv-x="584" 
d="M172 267v-267h-92v666h173q112 0 184.5 -49t72.5 -139q0 -69 -44.5 -120t-124.5 -74l235 -284h-113l-217 268q-14 -1 -74 -1zM418 476q0 59 -47 87.5t-119 28.5h-80v-251h46q89 0 144.5 34t55.5 101z" />
    <glyph glyph-name="S" unicode="S" horiz-adv-x="501" 
d="M464 173q0 -84 -67 -134.5t-167 -50.5q-108 0 -191 40l18 73q83 -39 171 -39q66 0 105.5 28t39.5 79q0 22 -9 41.5t-18.5 31t-34 27t-37.5 21.5t-47 22q-83 39 -128.5 81t-45.5 110q0 85 57.5 130t154.5 45q98 0 173 -40l-17 -73q-76 39 -156 39q-121 0 -121 -94
q0 -40 24 -63.5t92 -56.5q39 -19 55.5 -27.5t51.5 -31.5t51.5 -42t31 -50t14.5 -66z" />
    <glyph glyph-name="T" unicode="T" horiz-adv-x="528" 
d="M22 666h484v-75h-196v-591h-92v591h-196v75z" />
    <glyph glyph-name="U" unicode="U" horiz-adv-x="674" 
d="M506 232v434h92v-430q0 -108 -69 -178t-192 -70t-192 70t-69 178v430h92v-434q0 -77 44 -123t125 -46t125 46t44 123z" />
    <glyph glyph-name="V" unicode="V" horiz-adv-x="594" 
d="M297 109l195 557h92l-239 -666h-96l-239 666h92z" />
    <glyph glyph-name="W" unicode="W" horiz-adv-x="944" 
d="M524 666l160 -545l147 545h89l-190 -666h-91l-167 578l-167 -578h-91l-190 666h89l147 -545l160 545h104z" />
    <glyph glyph-name="X" unicode="X" horiz-adv-x="596" 
d="M471 0l-173 263l-173 -263h-97l222 335l-219 331h97l170 -258l170 258h97l-219 -331l222 -335h-97z" />
    <glyph glyph-name="Y" unicode="Y" horiz-adv-x="540" 
d="M270 348l167 318h98l-219 -403v-263h-92v263l-219 403h98z" />
    <glyph glyph-name="Z" unicode="Z" horiz-adv-x="540" 
d="M63 592v74h430v-74l-345 -518h352v-74h-450v74l345 518h-332z" />
    <glyph glyph-name="bracketleft" unicode="[" horiz-adv-x="358" 
d="M298 -176h-198v912h198v-73h-108v-766h108v-73z" />
    <glyph glyph-name="backslash" unicode="\" horiz-adv-x="419" 
d="M121 692l253 -768l-77 -24l-252 766z" />
    <glyph glyph-name="bracketright" unicode="]" horiz-adv-x="358" 
d="M258 -176h-198v73h108v766h-108v73h198v-912z" />
    <glyph glyph-name="asciicircum" unicode="^" horiz-adv-x="510" 
d="M295 666l155 -318l-69 -32l-126 277l-126 -277l-69 32l155 318h80z" />
    <glyph glyph-name="underscore" unicode="_" horiz-adv-x="415" 
d="M418 -250h-421v49h421v-49z" />
    <glyph glyph-name="grave" unicode="`" horiz-adv-x="404" 
d="M289 555h-76l-98 160h100z" />
    <glyph glyph-name="a" unicode="a" horiz-adv-x="501" 
d="M345 0v60q-23 -29 -66 -49.5t-94 -20.5q-60 0 -98.5 36.5t-38.5 96.5q0 64 45 99t126 40q57 4 124 4v21q0 130 -112 130q-65 0 -127 -34l-21 66q68 41 164 41q86 0 136 -52.5t50 -148.5v-289h-88zM211 56q75 0 132 62v89q-55 -3 -108 -9q-100 -11 -100 -75q0 -67 76 -67z
" />
    <glyph glyph-name="b" unicode="b" horiz-adv-x="541" 
d="M74 25v681h90v-270q51 54 137 54q91 0 146.5 -69t55.5 -177q0 -110 -67.5 -182t-186.5 -72q-94 0 -175 35zM279 418q-66 0 -115 -45v-297q37 -14 85 -14q80 0 122 49t42 132q0 77 -34.5 126t-99.5 49z" />
    <glyph glyph-name="c" unicode="c" horiz-adv-x="446" 
d="M276 490q81 0 135 -26l-13 -69q-57 23 -114 23q-78 0 -118 -48t-40 -130t40 -130t118 -48q56 0 114 23l13 -69q-54 -26 -135 -26q-115 0 -177.5 71.5t-62.5 178.5t62.5 178.5t177.5 71.5z" />
    <glyph glyph-name="d" unicode="d" horiz-adv-x="544" 
d="M469 706v-706h-85v66q-64 -76 -157 -76q-83 0 -135 69t-52 177q0 118 68.5 186t175.5 68q50 0 95 -13v229h90zM252 62q73 0 127 66v277q-33 13 -85 13q-76 0 -120 -47.5t-44 -134.5q0 -82 30.5 -128t91.5 -46z" />
    <glyph glyph-name="e" unicode="e" horiz-adv-x="484" 
d="M260 490q89 0 137 -54t48 -140q0 -41 -10 -81h-303q5 -154 157 -154q69 0 137 28l12 -67q-67 -32 -162 -32q-115 0 -175.5 69.5t-60.5 178.5q0 108 60 180t160 72zM257 423q-55 0 -88 -40t-37 -99h226q7 60 -18 99.5t-83 39.5z" />
    <glyph glyph-name="f" unicode="f" horiz-adv-x="356" 
d="M201 0h-90v407h-81v73h81v20q0 107 50 161.5t138 54.5q51 0 82 -12l-8 -69q-29 8 -63 8q-109 0 -109 -137v-26h140v-73h-140v-407z" />
    <glyph glyph-name="g" unicode="g" horiz-adv-x="513" 
d="M243 161q-20 0 -38 3q-15 -20 -15 -40q0 -33 54 -37l99 -8q156 -12 156 -122q0 -76 -80.5 -124.5t-188.5 -48.5q-92 0 -151 32t-59 93q0 85 135 122q-47 23 -47 70t53 74q-50 18 -79.5 57.5t-29.5 91.5q0 71 55 118.5t136 47.5q32 0 67 -10h179v-67h-84q29 -42 29 -89
q0 -72 -54.5 -117.5t-136.5 -45.5zM306 9l-98 8q-25 -12 -36.5 -18t-30 -19t-26.5 -28t-8 -33q0 -72 127 -72q69 0 124 26.5t55 73.5q0 32 -28.5 45t-78.5 17zM243 225q48 0 79.5 27.5t31.5 72.5q0 46 -31 73t-80 27q-50 0 -80.5 -26.5t-30.5 -73.5t31.5 -73.5t79.5 -26.5z
" />
    <glyph glyph-name="h" unicode="h" horiz-adv-x="554" 
d="M165 0h-90v706h90v-287q59 71 149 71q85 0 127.5 -67t42.5 -170v-253h-90v250q0 167 -110 167q-69 0 -119 -65v-352z" />
    <glyph glyph-name="i" unicode="i" horiz-adv-x="240" 
d="M165 0h-90v480h90v-480zM63 622q0 24 16 40.5t41 16.5t41 -16.5t16 -40.5t-16 -40.5t-41 -16.5t-41 16.5t-16 40.5z" />
    <glyph glyph-name="j" unicode="j" horiz-adv-x="235" 
d="M165 118q0 -101 -28.5 -180.5t-102.5 -153.5l-62 49q103 113 103 269v378h90v-362zM63 622q0 24 16 40.5t41 16.5t41 -16.5t16 -40.5t-16 -40.5t-41 -16.5t-41 16.5t-16 40.5z" />
    <glyph glyph-name="k" unicode="k" horiz-adv-x="490" 
d="M165 0h-90v706h90v-453l192 227h104l-203 -236l220 -244h-109l-204 238v-238z" />
    <glyph glyph-name="l" unicode="l" horiz-adv-x="276" 
d="M160 706v-582q0 -60 51 -60q23 0 45 6l4 -67q-33 -11 -73 -11q-60 0 -88.5 35t-28.5 93v586h90z" />
    <glyph glyph-name="m" unicode="m" horiz-adv-x="861" 
d="M597 417q-68 0 -128 -76q9 -41 9 -88v-253h-90v250q0 80 -23.5 123.5t-80.5 43.5q-69 0 -119 -65v-352h-90v480h86v-70q58 80 153 80q96 0 137 -94q64 94 172 94q85 0 126.5 -67t41.5 -170v-253h-90v250q0 80 -23.5 123.5t-80.5 43.5z" />
    <glyph glyph-name="n" unicode="n" horiz-adv-x="554" 
d="M165 0h-90v480h86v-70q58 80 153 80q85 0 127.5 -67t42.5 -170v-253h-90v250q0 167 -110 167q-69 0 -119 -65v-352z" />
    <glyph glyph-name="o" unicode="o" horiz-adv-x="546" 
d="M506 240q0 -106 -63 -178t-170 -72t-170 72t-63 178t63 178t170 72t170 -72t63 -178zM416 240q0 79 -37 129.5t-106 50.5t-106 -50.5t-37 -129.5t37 -129.5t106 -50.5t106 50.5t37 129.5z" />
    <glyph glyph-name="p" unicode="p" horiz-adv-x="544" 
d="M75 -206v686h86v-65q57 75 152 75q85 0 138 -68.5t53 -177.5q0 -118 -68.5 -186t-175.5 -68q-50 0 -95 13v-209h-90zM290 417q-74 0 -125 -65v-277q33 -13 85 -13q76 0 120 47.5t44 134.5q0 78 -31.5 125.5t-92.5 47.5z" />
    <glyph glyph-name="q" unicode="q" horiz-adv-x="544" 
d="M469 456v-662h-90v250q-51 -54 -137 -54q-93 0 -147.5 68.5t-54.5 176.5q0 113 67 184t187 71q96 0 175 -34zM264 62q66 0 115 45v298q-36 13 -84 13q-80 0 -122.5 -50t-42.5 -134q0 -79 33.5 -125.5t100.5 -46.5z" />
    <glyph glyph-name="r" unicode="r" horiz-adv-x="361" 
d="M345 481v-75h-23q-105 0 -157 -85v-321h-90v480h86v-92q43 98 147 98q22 0 37 -5z" />
    <glyph glyph-name="s" unicode="s" horiz-adv-x="418" 
d="M383 137q0 -66 -54 -106.5t-137 -40.5q-87 0 -148 29l15 71q66 -29 134 -29q45 0 73.5 16.5t28.5 48.5q0 29 -24.5 47.5t-71.5 36.5q-32 13 -53 23.5t-45.5 28.5t-37 42t-12.5 54q0 66 49.5 99t121.5 33q77 0 139 -32l-15 -68q-63 29 -124 29q-83 0 -83 -56q0 -9 4.5 -18
t10 -14.5t17 -12.5t18 -10.5t21 -10t19.5 -8.5q2 -1 23 -10t33.5 -15t33.5 -20t33 -28t21.5 -35t9.5 -44z" />
    <glyph glyph-name="t" unicode="t" horiz-adv-x="389" 
d="M20 407v73h86v123h90v-123h158v-73h-158v-245q0 -48 15.5 -73.5t57.5 -25.5t76 13l8 -68q-42 -18 -103 -18q-74 0 -109 45.5t-35 123.5v248h-86z" />
    <glyph glyph-name="u" unicode="u" horiz-adv-x="545" 
d="M380 480h90v-480h-86v70q-58 -80 -153 -80q-84 0 -125 66.5t-41 170.5v253h90v-250q0 -80 23.5 -123.5t82.5 -43.5q67 0 119 65v352z" />
    <glyph glyph-name="v" unicode="v" horiz-adv-x="470" 
d="M235 91l129 389h91l-173 -480h-94l-173 480h91z" />
    <glyph glyph-name="w" unicode="w" horiz-adv-x="754" 
d="M426 480l122 -374l101 374h85l-142 -480h-84l-131 403l-131 -403h-84l-142 480h85l101 -374l122 374h98z" />
    <glyph glyph-name="x" unicode="x" horiz-adv-x="491" 
d="M467 480l-174 -237l178 -243h-96l-130 179l-129 -179h-96l178 243l-174 237h96l125 -173l126 173h96z" />
    <glyph glyph-name="y" unicode="y" horiz-adv-x="460" 
d="M205 -206h-88l71 201l-176 485h93l126 -393l124 393h93z" />
    <glyph glyph-name="z" unicode="z" horiz-adv-x="452" 
d="M412 0h-357v70l248 340h-239v70h337v-70l-248 -340h259v-70z" />
    <glyph glyph-name="braceleft" unicode="{" horiz-adv-x="401" 
d="M241 132v-124q0 -59 19 -85t67 -26h24v-73h-23q-91 0 -134 44t-43 145v133q0 51 -22.5 74.5t-69.5 23.5h-14v72h14q47 0 69.5 23.5t22.5 74.5v133q0 101 43 145t134 44h23v-73h-24q-48 0 -67 -26t-19 -85v-124q0 -62 -25.5 -97.5t-84.5 -50.5q59 -15 84.5 -50.5
t25.5 -97.5z" />
    <glyph glyph-name="bar" unicode="|" horiz-adv-x="264" 
d="M169 -250h-74v1000h74v-1000z" />
    <glyph glyph-name="braceright" unicode="}" horiz-adv-x="401" 
d="M160 8v124q0 62 25.5 97.5t84.5 50.5q-59 15 -84.5 50.5t-25.5 97.5v124q0 59 -19 85t-67 26h-24v73h23q91 0 134 -44t43 -145v-133q0 -51 22.5 -74.5t69.5 -23.5h14v-72h-14q-47 0 -69.5 -23.5t-22.5 -74.5v-133q0 -101 -43 -145t-134 -44h-23v73h24q48 0 67 26t19 85z
" />
    <glyph glyph-name="asciitilde" unicode="~" horiz-adv-x="581" 
d="M462 417l64 -28q-21 -63 -52 -93.5t-79 -30.5q-10 0 -20 2t-24 7.5t-20.5 8t-25.5 12t-22 11.5q-64 32 -86 32q-15 0 -26 -5t-19.5 -18t-13 -23t-12.5 -30l-66 28q19 66 51 95t86 29q42 0 110 -37q66 -36 89 -36q18 0 31.5 12.5t20 26t14.5 37.5z" />
    <glyph glyph-name="uni00A0" unicode="&#xa0;" horiz-adv-x="215" 
 />
    <glyph glyph-name="exclamdown" unicode="&#xa1;" horiz-adv-x="306" 
d="M180 304l20 -281v-206h-94v206l22 281h52zM211 432q0 -25 -16 -41.5t-42 -16.5t-42 16.5t-16 41.5t16 41.5t42 16.5t42 -16.5t16 -41.5z" />
    <glyph glyph-name="cent" unicode="&#xa2;" horiz-adv-x="497" 
d="M246 568v121h81v-117q62 -5 105 -26l-13 -67q-50 21 -111 21q-75 0 -115 -43.5t-40 -123.5t40 -123.5t115 -43.5q61 0 111 21l13 -67q-43 -21 -105 -26v-117h-81v121q-87 18 -134 81t-47 154t47 154t134 81z" />
    <glyph glyph-name="sterling" unicode="&#xa3;" horiz-adv-x="537" 
d="M422 342v-72h-171q-4 -57 -33.5 -110.5t-71.5 -86.5h311v-73h-389l-18 65q97 94 112 205h-107v72h110v110q0 108 50.5 167t145.5 59q80 0 131 -27l-15 -71q-48 25 -108 25q-59 0 -86.5 -38t-27.5 -116v-109h167z" />
    <glyph glyph-name="currency" unicode="&#xa4;" horiz-adv-x="632" 
d="M420 510l88 88l54 -51l-83 -84q48 -56 48 -130q0 -73 -48 -131l83 -83l-54 -51l-88 87q-45 -27 -104 -27t-104 27l-88 -87l-54 51l83 83q-48 58 -48 131q0 74 48 130l-83 84l54 51l88 -88q47 28 104 28t104 -28zM182 333q0 -61 36.5 -102t97.5 -41t97.5 41t36.5 102
t-36.5 102t-97.5 41t-97.5 -41t-36.5 -102z" />
    <glyph glyph-name="yen" unicode="&#xa5;" horiz-adv-x="546" 
d="M273 351l128 315h95l-123 -279h100v-65h-128l-27 -59v-48h155v-64h-155v-151h-90v151h-155v64h155v48l-27 59h-128v65h100l-123 279h95z" />
    <glyph glyph-name="brokenbar" unicode="&#xa6;" horiz-adv-x="264" 
d="M169 750v-385h-74v385h74zM169 -250h-74v385h74v-385z" />
    <glyph glyph-name="section" unicode="&#xa7;" horiz-adv-x="615" 
d="M365 716q80 0 127 -20l-10 -58q-53 17 -104 17q-50 0 -79 -28t-29 -76q0 -40 25 -74.5t83 -84.5q36 -30 54 -46.5t47 -47.5t43.5 -56t26 -60t11.5 -71q0 -78 -45.5 -138t-115.5 -89.5t-151 -29.5q-78 0 -139 21l11 60q58 -20 120 -20q56 0 87 28t31 75q0 29 -17.5 59.5
t-33.5 47t-54 48.5t-47 40q-75 69 -108 123.5t-33 129.5q0 116 85.5 183t214.5 67zM234 639q-97 -58 -97 -170q0 -62 30 -105t94 -100q6 -5 29.5 -25.5t34 -30t30.5 -29.5t30 -34.5t22.5 -34.5t17.5 -40.5t5 -42.5q0 -42 -28 -84q36 24 61 65.5t25 88.5q0 64 -36 114.5
t-113 116.5q-76 65 -108.5 111t-32.5 105t36 95z" />
    <glyph glyph-name="dieresis" unicode="&#xa8;" horiz-adv-x="519" 
d="M223 632q0 -23 -15 -38.5t-39 -15.5t-39 15.5t-15 38.5t15 38.5t39 15.5t39 -15.5t15 -38.5zM404 632q0 -23 -15 -38.5t-39 -15.5t-39 15.5t-15 38.5t15 38.5t39 15.5t39 -15.5t15 -38.5z" />
    <glyph glyph-name="copyright" unicode="&#xa9;" horiz-adv-x="814" 
d="M754 333q0 -145 -97.5 -245t-249.5 -100t-249.5 100t-97.5 245t97 245t250 100t250 -100t97 -245zM99 333q0 -129 86 -220t222 -91t222 91t86 220t-86 220t-222 91t-222 -91t-86 -220zM427 529q62 0 101 -18l-9 -53q-42 14 -84 14q-66 0 -101 -36.5t-35 -102.5t35 -102.5
t101 -36.5q42 0 84 14l9 -53q-39 -18 -101 -18q-89 0 -142 55t-53 141t53 141t142 55z" />
    <glyph glyph-name="ordfeminine" unicode="&#xaa;" horiz-adv-x="455" 
d="M65 198v62h325v-62h-325zM287 328v38q-44 -46 -112 -46q-47 0 -74.5 25.5t-27.5 68.5q0 90 111 100q53 5 102 5v13q0 82 -78 82q-48 0 -94 -22l-15 57q50 27 123 27q64 0 103 -35.5t39 -107.5v-205h-77zM195 375q43 0 91 33v64q-34 -3 -77 -9q-62 -8 -62 -47
q0 -41 48 -41z" />
    <glyph glyph-name="guillemotleft" unicode="&#xab;" horiz-adv-x="575" 
d="M145 241l131 -162l-59 -46l-167 208l167 208l59 -46zM374 241l131 -162l-59 -46l-167 208l167 208l59 -46z" />
    <glyph glyph-name="logicalnot" unicode="&#xac;" horiz-adv-x="612" 
d="M537 85h-78v204h-384v68h462v-272z" />
    <glyph glyph-name="registered" unicode="&#xae;" horiz-adv-x="564" 
d="M367 513q0 -46 -49 -63l74 -92h-55l-65 84h-15v-84h-44v217h76q33 0 55.5 -17t22.5 -45zM323 511q0 29 -40 29h-26v-63h14q52 0 52 34zM60 460q0 90 62 154t160 64t160 -64t62 -154t-62 -154t-160 -64t-160 64t-62 154zM471 460q0 80 -52.5 135t-136.5 55t-136.5 -55
t-52.5 -135t52.5 -135t136.5 -55t136.5 55t52.5 135z" />
    <glyph glyph-name="macron" unicode="&#xaf;" horiz-adv-x="502" 
d="M115 582v69h272v-69h-272z" />
    <glyph glyph-name="degree" unicode="&#xb0;" horiz-adv-x="400" 
d="M70 554q0 52 36 88t94 36t94 -36t36 -88t-36 -88.5t-94 -36.5t-94 36.5t-36 88.5zM271 554q0 32 -18.5 54t-52.5 22t-52.5 -22t-18.5 -54t18.5 -54t52.5 -22t52.5 22t18.5 54z" />
    <glyph glyph-name="plusminus" unicode="&#xb1;" horiz-adv-x="612" 
d="M537 318h-192v-178h-78v178h-192v66h192v177h78v-177h192v-66zM75 0v68h462v-68h-462z" />
    <glyph glyph-name="twosuperior" unicode="&#xb2;" horiz-adv-x="389" 
d="M73 737l-18 58q53 29 116 29q65 0 102.5 -33t37.5 -88q0 -51 -29.5 -90.5t-85.5 -83.5q-13 -10 -33.5 -25.5t-27.5 -21.5h189v-62h-281l-15 50q15 12 38.5 31.5t43 35.5t37.5 32q28 24 43.5 40t29 40.5t13.5 48.5q0 31 -18.5 47.5t-53.5 16.5q-40 0 -88 -25z" />
    <glyph glyph-name="threesuperior" unicode="&#xb3;" horiz-adv-x="364" 
d="M308 526q0 -52 -43 -84t-113 -32q-62 0 -112 25l13 57q47 -21 92 -21q40 0 62.5 15t22.5 42q0 61 -98 61h-48v62h43q44 0 69 17t25 45q0 50 -70 50q-43 0 -86 -20l-14 57q48 24 114 24q57 0 95 -27t38 -73q0 -70 -79 -100q40 -10 64.5 -36.5t24.5 -61.5z" />
    <glyph glyph-name="acute" unicode="&#xb4;" horiz-adv-x="404" 
d="M191 555h-76l74 160h100z" />
    <glyph glyph-name="mu" unicode="&#xb5;" horiz-adv-x="605" 
d="M75 -206v686h90v-250q0 -167 105 -167q64 0 120 65v352h90v-350q0 -37 12.5 -55t49.5 -18h18v-54q-26 -9 -56 -9q-85 0 -107 79q-61 -83 -149 -83q-38 0 -69 21.5t-44 54.5q30 -97 30 -168v-104h-90z" />
    <glyph glyph-name="paragraph" unicode="&#xb6;" horiz-adv-x="575" 
d="M495 -140h-74v742h-116v-421q-109 0 -177 63.5t-68 176.5q0 112 70.5 178.5t173.5 66.5h191v-806z" />
    <glyph glyph-name="periodcentered" unicode="&#xb7;" horiz-adv-x="256" 
d="M186 255q0 -25 -16 -41.5t-42 -16.5t-42 16.5t-16 41.5t16 41.5t42 16.5t42 -16.5t16 -41.5z" />
    <glyph glyph-name="cedilla" unicode="&#xb8;" horiz-adv-x="388" 
d="M273 -119q0 -43 -37.5 -65t-106.5 -32l-13 54q77 11 77 42q0 13 -13 21.5t-26.5 12t-38.5 8.5l32 78h57l-16 -44q85 -18 85 -75z" />
    <glyph glyph-name="onesuperior" unicode="&#xb9;" horiz-adv-x="304" 
d="M212 420h-78v316l-101 -33l-18 61l143 50h54v-394z" />
    <glyph glyph-name="ordmasculine" unicode="&#xba;" horiz-adv-x="484" 
d="M419 498q0 -74 -48.5 -126t-128.5 -52t-128.5 52t-48.5 126t48.5 126t128.5 52t128.5 -52t48.5 -126zM142 498q0 -50 27 -83t73 -33t73 33t27 83t-27 83t-73 33t-73 -33t-27 -83zM80 198v62h325v-62h-325z" />
    <glyph glyph-name="guillemotright" unicode="&#xbb;" horiz-adv-x="575" 
d="M299 79l131 162l-131 162l59 46l167 -208l-167 -208zM70 79l131 162l-131 162l59 46l167 -208l-167 -208z" />
    <glyph glyph-name="onequarter" unicode="&#xbc;" horiz-adv-x="835" 
d="M200 21l353 657l60 -32l-353 -658zM252 272h-78v316l-101 -33l-18 61l143 50h54v-394zM785 100h-63v-100h-74v100h-185l-16 52l198 242h77v-235h63v-59zM648 159v155l-122 -155h122z" />
    <glyph glyph-name="onehalf" unicode="&#xbd;" horiz-adv-x="883" 
d="M200 21l353 657l60 -32l-353 -658zM252 272h-78v316l-101 -33l-18 61l143 50h54v-394zM562 317l-18 58q53 29 116 29q65 0 102.5 -33t37.5 -88q0 -51 -29.5 -90.5t-85.5 -83.5q-13 -10 -33.5 -25.5t-27.5 -21.5h189v-62h-281l-15 50q15 12 38.5 31.5t43 35.5t37.5 32
q28 24 43.5 40t29 40.5t13.5 48.5q0 31 -18.5 47.5t-53.5 16.5q-40 0 -88 -25z" />
    <glyph glyph-name="threequarters" unicode="&#xbe;" horiz-adv-x="862" 
d="M227 21l353 657l60 -32l-353 -658zM812 100h-63v-100h-74v100h-185l-16 52l198 242h77v-235h63v-59zM675 159v155l-122 -155h122zM338 378q0 -52 -43 -84t-113 -32q-62 0 -112 25l13 57q47 -21 92 -21q40 0 62.5 15t22.5 42q0 61 -98 61h-48v62h43q44 0 69 17t25 45
q0 50 -70 50q-43 0 -86 -20l-14 57q48 24 114 24q57 0 95 -27t38 -73q0 -70 -79 -100q40 -10 64.5 -36.5t24.5 -61.5z" />
    <glyph glyph-name="questiondown" unicode="&#xbf;" horiz-adv-x="457" 
d="M55 -20q0 45 18 85.5t56 77t72 62.5t89 64q10 7 15 10l44 -60q-50 -36 -66 -47.5t-52 -42t-48.5 -48t-25 -44.5t-12.5 -54q0 -48 30.5 -75.5t79.5 -27.5q67 0 128 36l24 -70q-68 -41 -161 -41q-81 0 -136 46t-55 129zM235 432q0 25 16 41.5t42 16.5t42 -16.5t16 -41.5
t-16 -41.5t-42 -16.5t-42 16.5t-16 41.5z" />
    <glyph glyph-name="Agrave" unicode="&#xc0;" horiz-adv-x="676" 
d="M383 666l265 -666h-94l-61 161h-311l-60 -161h-94l265 666h90zM338 582l-128 -347h256zM374 729h-75l-115 114h106z" />
    <glyph glyph-name="Aacute" unicode="&#xc1;" horiz-adv-x="676" 
d="M383 666l265 -666h-94l-61 161h-311l-60 -161h-94l265 666h90zM338 582l-128 -347h256zM380 729h-75l84 114h106z" />
    <glyph glyph-name="Acircumflex" unicode="&#xc2;" horiz-adv-x="676" 
d="M383 666l265 -666h-94l-61 161h-311l-60 -161h-94l265 666h90zM338 582l-128 -347h256zM385 843l92 -114h-80l-59 75l-59 -75h-80l92 114h94z" />
    <glyph glyph-name="Atilde" unicode="&#xc3;" horiz-adv-x="676" 
d="M383 666l265 -666h-94l-61 161h-311l-60 -161h-94l265 666h90zM338 582l-128 -347h256zM415 734q-16 0 -83 23q-54 18 -70 18q-12 0 -20.5 -6.5t-12.5 -14.5t-10 -24l-55 19q13 51 35 72.5t64 21.5q33 0 86 -20q55 -21 66 -21q15 0 23.5 10t17.5 31l54 -24
q-16 -45 -37.5 -65t-57.5 -20z" />
    <glyph glyph-name="Adieresis" unicode="&#xc4;" horiz-adv-x="676" 
d="M383 666l265 -666h-94l-61 161h-311l-60 -161h-94l265 666h90zM338 582l-128 -347h256zM292 789q0 -23 -14.5 -37t-38.5 -14t-38.5 14t-14.5 37t14.5 37t38.5 14t38.5 -14t14.5 -37zM489 789q0 -23 -14.5 -37t-38.5 -14t-38.5 14t-14.5 37t14.5 37t38.5 14t38.5 -14
t14.5 -37z" />
    <glyph glyph-name="Aring" unicode="&#xc5;" horiz-adv-x="676" 
d="M338 810q42 0 65 -25t23 -59q0 -47 -39 -71l261 -655h-94l-61 161h-311l-60 -161h-94l261 655q-39 25 -39 71q0 34 23 59t65 25zM338 582l-128 -347h256zM379 726q0 19 -10.5 31.5t-30.5 12.5t-30.5 -12.5t-10.5 -31.5t11 -31.5t30 -12.5t30 12.5t11 31.5z" />
    <glyph glyph-name="AE" unicode="&#xc6;" horiz-adv-x="879" 
d="M818 666v-75h-318l27 -213h267v-75h-257l29 -228h255v-75h-330l-20 160h-280l-89 -160h-97l384 666h429zM420 577l-187 -343h228z" />
    <glyph glyph-name="Ccedilla" unicode="&#xc7;" horiz-adv-x="610" 
d="M454 -119q0 -43 -37.5 -65t-106.5 -32l-13 54q77 11 77 42q0 13 -13 21.5t-26.5 12t-38.5 8.5l29 71q-133 18 -207.5 110.5t-74.5 229.5q0 153 92.5 249t253.5 96q104 0 176 -31l-15 -71q-76 27 -150 27q-124 0 -194.5 -71t-70.5 -199t70.5 -199t194.5 -71q74 0 150 27
l15 -71q-72 -31 -176 -31h-9l-11 -32q85 -18 85 -75z" />
    <glyph glyph-name="Egrave" unicode="&#xc8;" horiz-adv-x="510" 
d="M80 0v666h371v-75h-279v-213h267v-75h-267v-228h282v-75h-374zM331 729h-75l-115 114h106z" />
    <glyph glyph-name="Eacute" unicode="&#xc9;" horiz-adv-x="510" 
d="M80 0v666h371v-75h-279v-213h267v-75h-267v-228h282v-75h-374zM275 729h-75l84 114h106z" />
    <glyph glyph-name="Ecircumflex" unicode="&#xca;" horiz-adv-x="510" 
d="M80 0v666h371v-75h-279v-213h267v-75h-267v-228h282v-75h-374zM319 843l92 -114h-80l-59 75l-59 -75h-80l92 114h94z" />
    <glyph glyph-name="Edieresis" unicode="&#xcb;" horiz-adv-x="510" 
d="M80 0v666h371v-75h-279v-213h267v-75h-267v-228h282v-75h-374zM228 789q0 -23 -14.5 -37t-38.5 -14t-38.5 14t-14.5 37t14.5 37t38.5 14t38.5 -14t14.5 -37zM425 789q0 -23 -14.5 -37t-38.5 -14t-38.5 14t-14.5 37t14.5 37t38.5 14t38.5 -14t14.5 -37z" />
    <glyph glyph-name="Igrave" unicode="&#xcc;" horiz-adv-x="262" 
d="M177 666v-666h-92v666h92zM172 729h-75l-115 114h106z" />
    <glyph glyph-name="Iacute" unicode="&#xcd;" horiz-adv-x="262" 
d="M177 666v-666h-92v666h92zM167 729h-75l84 114h106z" />
    <glyph glyph-name="Icircumflex" unicode="&#xce;" horiz-adv-x="262" 
d="M177 666v-666h-92v666h92zM178 843l92 -114h-80l-59 75l-59 -75h-80l92 114h94z" />
    <glyph glyph-name="Idieresis" unicode="&#xcf;" horiz-adv-x="262" 
d="M177 666v-666h-92v666h92zM86 789q0 -23 -14.5 -37t-38.5 -14t-38.5 14t-14.5 37t14.5 37t38.5 14t38.5 -14t14.5 -37zM283 789q0 -23 -14.5 -37t-38.5 -14t-38.5 14t-14.5 37t14.5 37t38.5 14t38.5 -14t14.5 -37z" />
    <glyph glyph-name="Eth" unicode="&#xd0;" horiz-adv-x="729" 
d="M45 296v74h81v296h185q170 0 275 -94t105 -239t-105 -239t-275 -94h-185v296h-81zM311 74q125 0 206.5 69.5t81.5 189.5t-81.5 189.5t-206.5 69.5h-93v-222h181v-74h-181v-222h93z" />
    <glyph glyph-name="Ntilde" unicode="&#xd1;" horiz-adv-x="709" 
d="M629 0h-88l-373 523v-523h-88v666h88l373 -523v523h88v-666zM432 734q-16 0 -83 23q-54 18 -70 18q-12 0 -20.5 -6.5t-12.5 -14.5t-10 -24l-55 19q13 51 35 72.5t64 21.5q33 0 86 -20q55 -21 66 -21q15 0 23.5 10t17.5 31l54 -24q-16 -45 -37.5 -65t-57.5 -20z" />
    <glyph glyph-name="Ograve" unicode="&#xd2;" horiz-adv-x="740" 
d="M370 -12q-151 0 -238 99.5t-87 245.5t87 245.5t238 99.5t238 -99.5t87 -245.5t-87 -245.5t-238 -99.5zM370 62q111 0 172 76.5t61 194.5t-61 194.5t-172 76.5t-172 -76.5t-61 -194.5t61 -194.5t172 -76.5zM412 729h-75l-115 114h106z" />
    <glyph glyph-name="Oacute" unicode="&#xd3;" horiz-adv-x="740" 
d="M370 -12q-151 0 -238 99.5t-87 245.5t87 245.5t238 99.5t238 -99.5t87 -245.5t-87 -245.5t-238 -99.5zM370 62q111 0 172 76.5t61 194.5t-61 194.5t-172 76.5t-172 -76.5t-61 -194.5t61 -194.5t172 -76.5zM397 729h-75l84 114h106z" />
    <glyph glyph-name="Ocircumflex" unicode="&#xd4;" horiz-adv-x="740" 
d="M370 -12q-151 0 -238 99.5t-87 245.5t87 245.5t238 99.5t238 -99.5t87 -245.5t-87 -245.5t-238 -99.5zM370 62q111 0 172 76.5t61 194.5t-61 194.5t-172 76.5t-172 -76.5t-61 -194.5t61 -194.5t172 -76.5zM417 843l92 -114h-80l-59 75l-59 -75h-80l92 114h94z" />
    <glyph glyph-name="Otilde" unicode="&#xd5;" horiz-adv-x="740" 
d="M370 -12q-151 0 -238 99.5t-87 245.5t87 245.5t238 99.5t238 -99.5t87 -245.5t-87 -245.5t-238 -99.5zM370 62q111 0 172 76.5t61 194.5t-61 194.5t-172 76.5t-172 -76.5t-61 -194.5t61 -194.5t172 -76.5zM448 734q-16 0 -83 23q-54 18 -70 18q-12 0 -20.5 -6.5
t-12.5 -14.5t-10 -24l-55 19q13 51 35 72.5t64 21.5q33 0 86 -20q55 -21 66 -21q15 0 23.5 10t17.5 31l54 -24q-16 -45 -37.5 -65t-57.5 -20z" />
    <glyph glyph-name="Odieresis" unicode="&#xd6;" horiz-adv-x="740" 
d="M370 -12q-151 0 -238 99.5t-87 245.5t87 245.5t238 99.5t238 -99.5t87 -245.5t-87 -245.5t-238 -99.5zM370 62q111 0 172 76.5t61 194.5t-61 194.5t-172 76.5t-172 -76.5t-61 -194.5t61 -194.5t172 -76.5zM324 789q0 -23 -14.5 -37t-38.5 -14t-38.5 14t-14.5 37t14.5 37
t38.5 14t38.5 -14t14.5 -37zM521 789q0 -23 -14.5 -37t-38.5 -14t-38.5 14t-14.5 37t14.5 37t38.5 14t38.5 -14t14.5 -37z" />
    <glyph glyph-name="multiply" unicode="&#xd7;" horiz-adv-x="582" 
d="M291 373l160 161l51 -51l-160 -160l160 -160l-51 -51l-160 161l-160 -161l-51 51l160 160l-160 160l51 51z" />
    <glyph glyph-name="Oslash" unicode="&#xd8;" horiz-adv-x="746" 
d="M373 -12q-110 0 -191 57l-87 -109l-46 37l89 111q-90 98 -90 249q0 146 87 245.5t238 99.5q111 0 192 -59l88 111l46 -38l-90 -113q89 -97 89 -246q0 -146 -87 -245.5t-238 -99.5zM140 333q0 -110 51 -182l324 406q-60 47 -142 47q-111 0 -172 -76.5t-61 -194.5zM373 62
q111 0 172 76.5t61 194.5q0 108 -50 179l-324 -404q59 -46 141 -46z" />
    <glyph glyph-name="Ugrave" unicode="&#xd9;" horiz-adv-x="674" 
d="M506 232v434h92v-430q0 -108 -69 -178t-192 -70t-192 70t-69 178v430h92v-434q0 -77 44 -123t125 -46t125 46t44 123zM391 729h-75l-115 114h106z" />
    <glyph glyph-name="Uacute" unicode="&#xda;" horiz-adv-x="674" 
d="M506 232v434h92v-430q0 -108 -69 -178t-192 -70t-192 70t-69 178v430h92v-434q0 -77 44 -123t125 -46t125 46t44 123zM357 729h-75l84 114h106z" />
    <glyph glyph-name="Ucircumflex" unicode="&#xdb;" horiz-adv-x="674" 
d="M506 232v434h92v-430q0 -108 -69 -178t-192 -70t-192 70t-69 178v430h92v-434q0 -77 44 -123t125 -46t125 46t44 123zM384 843l92 -114h-80l-59 75l-59 -75h-80l92 114h94z" />
    <glyph glyph-name="Udieresis" unicode="&#xdc;" horiz-adv-x="674" 
d="M506 232v434h92v-430q0 -108 -69 -178t-192 -70t-192 70t-69 178v430h92v-434q0 -77 44 -123t125 -46t125 46t44 123zM291 789q0 -23 -14.5 -37t-38.5 -14t-38.5 14t-14.5 37t14.5 37t38.5 14t38.5 -14t14.5 -37zM488 789q0 -23 -14.5 -37t-38.5 -14t-38.5 14t-14.5 37
t14.5 37t38.5 14t38.5 -14t14.5 -37z" />
    <glyph glyph-name="Yacute" unicode="&#xdd;" horiz-adv-x="540" 
d="M270 348l167 318h98l-219 -403v-263h-92v263l-219 403h98zM298 729h-75l84 114h106z" />
    <glyph glyph-name="Thorn" unicode="&#xde;" horiz-adv-x="516" 
d="M496 342q0 -94 -78.5 -151t-199.5 -57h-46v-134h-92v666h92v-129h69q113 0 184 -50.5t71 -144.5zM404 343q0 62 -46 91t-120 29h-66v-255h51q82 0 131.5 36t49.5 99z" />
    <glyph glyph-name="germandbls" unicode="&#xdf;" horiz-adv-x="590" 
d="M165 0h-90v482q0 113 60.5 173.5t164.5 60.5q72 0 125.5 -38.5t53.5 -107.5q0 -51 -57 -122q-6 -8 -16.5 -20.5t-14.5 -18t-10.5 -14.5t-9 -14.5t-4.5 -13t-2 -15.5q0 -9 3.5 -17.5t13 -16.5t15 -12t22 -14t20.5 -13q3 -2 21.5 -13.5t25 -16.5t22 -16.5t22 -21t16 -23
t13 -28.5t3.5 -32q0 -61 -50 -99.5t-125 -38.5q-72 0 -126 23l12 71q58 -23 114 -23q39 0 63 16.5t24 45.5q0 20 -14 37.5t-27.5 26.5t-42.5 26q-32 18 -48 29t-33.5 27.5t-24.5 35t-7 43.5q0 13 3.5 27t7 23t12.5 22.5t12.5 18t14.5 17.5l11 14q3 4 12 15t13 15.5
t10.5 14.5t9.5 17t5.5 16.5t2.5 19.5q0 34 -27.5 54.5t-69.5 20.5q-62 0 -95.5 -42.5t-33.5 -121.5v-479z" />
    <glyph glyph-name="agrave" unicode="&#xe0;" horiz-adv-x="501" 
d="M345 0v60q-23 -29 -66 -49.5t-94 -20.5q-60 0 -98.5 36.5t-38.5 96.5q0 64 45 99t126 40q57 4 124 4v21q0 130 -112 130q-65 0 -127 -34l-21 66q68 41 164 41q86 0 136 -52.5t50 -148.5v-289h-88zM211 56q75 0 132 62v89q-55 -3 -108 -9q-100 -11 -100 -75q0 -67 76 -67z
M297 555h-76l-98 160h100z" />
    <glyph glyph-name="aacute" unicode="&#xe1;" horiz-adv-x="501" 
d="M345 0v60q-23 -29 -66 -49.5t-94 -20.5q-60 0 -98.5 36.5t-38.5 96.5q0 64 45 99t126 40q57 4 124 4v21q0 130 -112 130q-65 0 -127 -34l-21 66q68 41 164 41q86 0 136 -52.5t50 -148.5v-289h-88zM211 56q75 0 132 62v89q-55 -3 -108 -9q-100 -11 -100 -75q0 -67 76 -67z
M275 555h-76l74 160h100z" />
    <glyph glyph-name="acircumflex" unicode="&#xe2;" horiz-adv-x="501" 
d="M345 0v60q-23 -29 -66 -49.5t-94 -20.5q-60 0 -98.5 36.5t-38.5 96.5q0 64 45 99t126 40q57 4 124 4v21q0 130 -112 130q-65 0 -127 -34l-21 66q68 41 164 41q86 0 136 -52.5t50 -148.5v-289h-88zM211 56q75 0 132 62v89q-55 -3 -108 -9q-100 -11 -100 -75q0 -67 76 -67z
M296 715l107 -160h-80l-70 110l-70 -110h-80l107 160h86z" />
    <glyph glyph-name="atilde" unicode="&#xe3;" horiz-adv-x="501" 
d="M345 0v60q-23 -29 -66 -49.5t-94 -20.5q-60 0 -98.5 36.5t-38.5 96.5q0 64 45 99t126 40q57 4 124 4v21q0 130 -112 130q-65 0 -127 -34l-21 66q68 41 164 41q86 0 136 -52.5t50 -148.5v-289h-88zM211 56q75 0 132 62v89q-55 -3 -108 -9q-100 -11 -100 -75q0 -67 76 -67z
M327 567q-21 0 -80 28q-40 19 -53 19q-18 0 -27 -11t-21 -40l-54 22q13 50 36.5 73.5t65.5 23.5q29 0 71 -22q5 -3 15.5 -8.5t16.5 -8.5t14 -5.5t15 -2.5q11 0 20 7.5t13.5 15t11.5 23.5l53 -25q-18 -45 -40.5 -67t-56.5 -22z" />
    <glyph glyph-name="adieresis" unicode="&#xe4;" horiz-adv-x="501" 
d="M345 0v60q-23 -29 -66 -49.5t-94 -20.5q-60 0 -98.5 36.5t-38.5 96.5q0 64 45 99t126 40q57 4 124 4v21q0 130 -112 130q-65 0 -127 -34l-21 66q68 41 164 41q86 0 136 -52.5t50 -148.5v-289h-88zM211 56q75 0 132 62v89q-55 -3 -108 -9q-100 -11 -100 -75q0 -67 76 -67z
M218 632q0 -23 -15 -38.5t-39 -15.5t-39 15.5t-15 38.5t15 38.5t39 15.5t39 -15.5t15 -38.5zM399 632q0 -23 -15 -38.5t-39 -15.5t-39 15.5t-15 38.5t15 38.5t39 15.5t39 -15.5t15 -38.5z" />
    <glyph glyph-name="aring" unicode="&#xe5;" horiz-adv-x="501" 
d="M345 0v60q-23 -29 -66 -49.5t-94 -20.5q-60 0 -98.5 36.5t-38.5 96.5q0 64 45 99t126 40q57 4 124 4v21q0 130 -112 130q-65 0 -127 -34l-21 66q68 41 164 41q86 0 136 -52.5t50 -148.5v-289h-88zM211 56q75 0 132 62v89q-55 -3 -108 -9q-100 -11 -100 -75q0 -67 76 -67z
M253 719q41 0 64.5 -25t23.5 -59t-23.5 -58.5t-64.5 -24.5t-64.5 24.5t-23.5 58.5t23.5 59t64.5 25zM294 635q0 19 -11 31.5t-30 12.5t-30 -12.5t-11 -31.5t11 -31t30 -12t30 12t11 31z" />
    <glyph glyph-name="ae" unicode="&#xe6;" horiz-adv-x="800" 
d="M567 490q89 0 138 -55.5t49 -141.5q0 -37 -11 -81h-303q5 -151 152 -151q73 0 140 32l17 -66q-70 -37 -164 -37q-118 0 -181 76q-88 -76 -198 -76q-67 0 -109 37.5t-42 95.5q0 135 166 148q35 3 127 5v21q0 59 -29 89.5t-83 30.5q-58 0 -124 -33l-18 68q66 38 152 38
q109 0 158 -78q60 78 163 78zM224 56q84 0 148 59q-18 39 -23 94q-81 -2 -117 -5q-92 -7 -92 -77q0 -71 84 -71zM565 423q-57 0 -89.5 -39t-35.5 -103h226q2 18 2 27q0 53 -26.5 84t-76.5 31z" />
    <glyph glyph-name="ccedilla" unicode="&#xe7;" horiz-adv-x="446" 
d="M349 -119q0 -43 -37.5 -65t-106.5 -32l-13 54q77 11 77 42q0 13 -13 21.5t-26.5 12t-38.5 8.5l30 73q-89 17 -137 84.5t-48 160.5q0 107 62.5 178.5t177.5 71.5q81 0 135 -26l-13 -69q-57 23 -114 23q-78 0 -118 -48t-40 -130t40 -130t118 -48q56 0 114 23l13 -69
q-54 -26 -135 -26l-12 -34q85 -18 85 -75z" />
    <glyph glyph-name="egrave" unicode="&#xe8;" horiz-adv-x="484" 
d="M260 490q89 0 137 -54t48 -140q0 -41 -10 -81h-303q5 -154 157 -154q69 0 137 28l12 -67q-67 -32 -162 -32q-115 0 -175.5 69.5t-60.5 178.5q0 108 60 180t160 72zM257 423q-55 0 -88 -40t-37 -99h226q7 60 -18 99.5t-83 39.5zM297 555h-76l-98 160h100z" />
    <glyph glyph-name="eacute" unicode="&#xe9;" horiz-adv-x="484" 
d="M260 490q89 0 137 -54t48 -140q0 -41 -10 -81h-303q5 -154 157 -154q69 0 137 28l12 -67q-67 -32 -162 -32q-115 0 -175.5 69.5t-60.5 178.5q0 108 60 180t160 72zM257 423q-55 0 -88 -40t-37 -99h226q7 60 -18 99.5t-83 39.5zM283 555h-76l74 160h100z" />
    <glyph glyph-name="ecircumflex" unicode="&#xea;" horiz-adv-x="484" 
d="M260 490q89 0 137 -54t48 -140q0 -41 -10 -81h-303q5 -154 157 -154q69 0 137 28l12 -67q-67 -32 -162 -32q-115 0 -175.5 69.5t-60.5 178.5q0 108 60 180t160 72zM257 423q-55 0 -88 -40t-37 -99h226q7 60 -18 99.5t-83 39.5zM301 715l107 -160h-80l-70 110l-70 -110
h-80l107 160h86z" />
    <glyph glyph-name="edieresis" unicode="&#xeb;" horiz-adv-x="484" 
d="M260 490q89 0 137 -54t48 -140q0 -41 -10 -81h-303q5 -154 157 -154q69 0 137 28l12 -67q-67 -32 -162 -32q-115 0 -175.5 69.5t-60.5 178.5q0 108 60 180t160 72zM257 423q-55 0 -88 -40t-37 -99h226q7 60 -18 99.5t-83 39.5zM224 632q0 -23 -15 -38.5t-39 -15.5
t-39 15.5t-15 38.5t15 38.5t39 15.5t39 -15.5t15 -38.5zM405 632q0 -23 -15 -38.5t-39 -15.5t-39 15.5t-15 38.5t15 38.5t39 15.5t39 -15.5t15 -38.5z" />
    <glyph glyph-name="igrave" unicode="&#xec;" horiz-adv-x="240" 
d="M165 0h-90v480h90v-480zM159 555h-76l-98 160h100z" />
    <glyph glyph-name="iacute" unicode="&#xed;" horiz-adv-x="240" 
d="M165 0h-90v480h90v-480zM159 555h-76l74 160h100z" />
    <glyph glyph-name="icircumflex" unicode="&#xee;" horiz-adv-x="240" 
d="M165 0h-90v480h90v-480zM163 715l107 -160h-80l-70 110l-70 -110h-80l107 160h86z" />
    <glyph glyph-name="idieresis" unicode="&#xef;" horiz-adv-x="240" 
d="M165 0h-90v480h90v-480zM84 632q0 -23 -15 -38.5t-39 -15.5t-39 15.5t-15 38.5t15 38.5t39 15.5t39 -15.5t15 -38.5zM265 632q0 -23 -15 -38.5t-39 -15.5t-39 15.5t-15 38.5t15 38.5t39 15.5t39 -15.5t15 -38.5z" />
    <glyph glyph-name="eth" unicode="&#xf0;" horiz-adv-x="547" 
d="M166 545l79 60q-59 27 -145 44l17 67q108 -12 194 -60l83 64l35 -45l-68 -52q143 -110 143 -310q0 -145 -61 -234t-175 -89q-109 0 -167 69t-58 170q0 109 60 169.5t155 60.5q88 0 152 -43q-27 100 -111 159l-97 -75zM131 227q0 -76 35.5 -121.5t102.5 -45.5
q50 0 84.5 34t48 78t13.5 91v81q-61 45 -134 45q-71 0 -110.5 -42t-39.5 -120z" />
    <glyph glyph-name="ntilde" unicode="&#xf1;" horiz-adv-x="554" 
d="M165 0h-90v480h86v-70q58 80 153 80q85 0 127.5 -67t42.5 -170v-253h-90v250q0 167 -110 167q-69 0 -119 -65v-352zM349 567q-21 0 -80 28q-40 19 -53 19q-18 0 -27 -11t-21 -40l-54 22q13 50 36.5 73.5t65.5 23.5q29 0 71 -22q5 -3 15.5 -8.5t16.5 -8.5t14 -5.5t15 -2.5
q11 0 20 7.5t13.5 15t11.5 23.5l53 -25q-18 -45 -40.5 -67t-56.5 -22z" />
    <glyph glyph-name="ograve" unicode="&#xf2;" horiz-adv-x="546" 
d="M506 240q0 -106 -63 -178t-170 -72t-170 72t-63 178t63 178t170 72t170 -72t63 -178zM416 240q0 79 -37 129.5t-106 50.5t-106 -50.5t-37 -129.5t37 -129.5t106 -50.5t106 50.5t37 129.5zM309 555h-76l-98 160h100z" />
    <glyph glyph-name="oacute" unicode="&#xf3;" horiz-adv-x="546" 
d="M506 240q0 -106 -63 -178t-170 -72t-170 72t-63 178t63 178t170 72t170 -72t63 -178zM416 240q0 79 -37 129.5t-106 50.5t-106 -50.5t-37 -129.5t37 -129.5t106 -50.5t106 50.5t37 129.5zM310 555h-76l74 160h100z" />
    <glyph glyph-name="ocircumflex" unicode="&#xf4;" horiz-adv-x="546" 
d="M506 240q0 -106 -63 -178t-170 -72t-170 72t-63 178t63 178t170 72t170 -72t63 -178zM416 240q0 79 -37 129.5t-106 50.5t-106 -50.5t-37 -129.5t37 -129.5t106 -50.5t106 50.5t37 129.5zM316 715l107 -160h-80l-70 110l-70 -110h-80l107 160h86z" />
    <glyph glyph-name="otilde" unicode="&#xf5;" horiz-adv-x="546" 
d="M506 240q0 -106 -63 -178t-170 -72t-170 72t-63 178t63 178t170 72t170 -72t63 -178zM416 240q0 79 -37 129.5t-106 50.5t-106 -50.5t-37 -129.5t37 -129.5t106 -50.5t106 50.5t37 129.5zM347 567q-21 0 -80 28q-40 19 -53 19q-18 0 -27 -11t-21 -40l-54 22
q13 50 36.5 73.5t65.5 23.5q29 0 71 -22q5 -3 15.5 -8.5t16.5 -8.5t14 -5.5t15 -2.5q11 0 20 7.5t13.5 15t11.5 23.5l53 -25q-18 -45 -40.5 -67t-56.5 -22z" />
    <glyph glyph-name="odieresis" unicode="&#xf6;" horiz-adv-x="546" 
d="M506 240q0 -106 -63 -178t-170 -72t-170 72t-63 178t63 178t170 72t170 -72t63 -178zM416 240q0 79 -37 129.5t-106 50.5t-106 -50.5t-37 -129.5t37 -129.5t106 -50.5t106 50.5t37 129.5zM236 632q0 -23 -15 -38.5t-39 -15.5t-39 15.5t-15 38.5t15 38.5t39 15.5t39 -15.5
t15 -38.5zM417 632q0 -23 -15 -38.5t-39 -15.5t-39 15.5t-15 38.5t15 38.5t39 15.5t39 -15.5t15 -38.5z" />
    <glyph glyph-name="divide" unicode="&#xf7;" horiz-adv-x="612" 
d="M537 289h-462v68h462v-68zM249 510q0 24 16 40.5t41 16.5t41 -16.5t16 -40.5t-16 -40.5t-41 -16.5t-41 16.5t-16 40.5zM249 136q0 24 16 40.5t41 16.5t41 -16.5t16 -40.5t-16 -40.5t-41 -16.5t-41 16.5t-16 40.5z" />
    <glyph glyph-name="oslash" unicode="&#xf8;" horiz-adv-x="556" 
d="M45 -31l66 89q-66 71 -66 182q0 106 63 178t170 72q71 0 126 -35l64 87l43 -31l-66 -90q66 -71 66 -181q0 -106 -63 -178t-170 -72q-71 0 -127 35l-64 -87zM421 240q0 66 -27 113l-197 -266q35 -24 81 -24q69 0 106 49.5t37 127.5zM135 240q0 -66 27 -113l196 266
q-35 24 -80 24q-69 0 -106 -49.5t-37 -127.5z" />
    <glyph glyph-name="ugrave" unicode="&#xf9;" horiz-adv-x="545" 
d="M380 480h90v-480h-86v70q-58 -80 -153 -80q-84 0 -125 66.5t-41 170.5v253h90v-250q0 -80 23.5 -123.5t82.5 -43.5q67 0 119 65v352zM334 555h-76l-98 160h100z" />
    <glyph glyph-name="uacute" unicode="&#xfa;" horiz-adv-x="545" 
d="M380 480h90v-480h-86v70q-58 -80 -153 -80q-84 0 -125 66.5t-41 170.5v253h90v-250q0 -80 23.5 -123.5t82.5 -43.5q67 0 119 65v352zM301 555h-76l74 160h100z" />
    <glyph glyph-name="ucircumflex" unicode="&#xfb;" horiz-adv-x="545" 
d="M380 480h90v-480h-86v70q-58 -80 -153 -80q-84 0 -125 66.5t-41 170.5v253h90v-250q0 -80 23.5 -123.5t82.5 -43.5q67 0 119 65v352zM315 715l107 -160h-80l-70 110l-70 -110h-80l107 160h86z" />
    <glyph glyph-name="udieresis" unicode="&#xfc;" horiz-adv-x="545" 
d="M380 480h90v-480h-86v70q-58 -80 -153 -80q-84 0 -125 66.5t-41 170.5v253h90v-250q0 -80 23.5 -123.5t82.5 -43.5q67 0 119 65v352zM236 632q0 -23 -15 -38.5t-39 -15.5t-39 15.5t-15 38.5t15 38.5t39 15.5t39 -15.5t15 -38.5zM417 632q0 -23 -15 -38.5t-39 -15.5
t-39 15.5t-15 38.5t15 38.5t39 15.5t39 -15.5t15 -38.5z" />
    <glyph glyph-name="yacute" unicode="&#xfd;" horiz-adv-x="460" 
d="M205 -206h-88l71 201l-176 485h93l126 -393l124 393h93zM258 555h-76l74 160h100z" />
    <glyph glyph-name="thorn" unicode="&#xfe;" horiz-adv-x="546" 
d="M75 -206v912h90v-288q56 72 148 72q85 0 138 -68.5t53 -177.5q0 -118 -68.5 -186t-175.5 -68q-50 0 -95 13v-209h-90zM290 417q-74 0 -125 -65v-277q33 -13 85 -13q76 0 120 47.5t44 134.5q0 78 -31.5 125.5t-92.5 47.5z" />
    <glyph glyph-name="ydieresis" unicode="&#xff;" horiz-adv-x="460" 
d="M205 -206h-88l71 201l-176 485h93l126 -393l124 393h93zM194 632q0 -23 -15 -38.5t-39 -15.5t-39 15.5t-15 38.5t15 38.5t39 15.5t39 -15.5t15 -38.5zM375 632q0 -23 -15 -38.5t-39 -15.5t-39 15.5t-15 38.5t15 38.5t39 15.5t39 -15.5t15 -38.5z" />
    <glyph glyph-name="Amacron" unicode="&#x100;" horiz-adv-x="676" 
d="M383 666l265 -666h-94l-61 161h-311l-60 -161h-94l265 666h90zM338 582l-128 -347h256zM193 758v70h289v-70h-289z" />
    <glyph glyph-name="amacron" unicode="&#x101;" horiz-adv-x="501" 
d="M345 0v60q-23 -29 -66 -49.5t-94 -20.5q-60 0 -98.5 36.5t-38.5 96.5q0 64 45 99t126 40q57 4 124 4v21q0 130 -112 130q-65 0 -127 -34l-21 66q68 41 164 41q86 0 136 -52.5t50 -148.5v-289h-88zM211 56q75 0 132 62v89q-55 -3 -108 -9q-100 -11 -100 -75q0 -67 76 -67z
M123 582v69h272v-69h-272z" />
    <glyph glyph-name="Abreve" unicode="&#x102;" horiz-adv-x="676" 
d="M383 666l265 -666h-94l-61 161h-311l-60 -161h-94l265 666h90zM338 582l-128 -347h256zM414 855l62 -18q-13 -52 -50 -81.5t-88 -29.5t-88 29.5t-50 81.5l62 18q20 -69 76 -69t76 69z" />
    <glyph glyph-name="abreve" unicode="&#x103;" horiz-adv-x="501" 
d="M345 0v60q-23 -29 -66 -49.5t-94 -20.5q-60 0 -98.5 36.5t-38.5 96.5q0 64 45 99t126 40q57 4 124 4v21q0 130 -112 130q-65 0 -127 -34l-21 66q68 41 164 41q86 0 136 -52.5t50 -148.5v-289h-88zM211 56q75 0 132 62v89q-55 -3 -108 -9q-100 -11 -100 -75q0 -67 76 -67z
M336 706l66 -14q-11 -66 -50.5 -100.5t-96.5 -34.5t-96.5 34.5t-50.5 100.5l66 14q7 -41 27.5 -64t53.5 -23t53.5 23t27.5 64z" />
    <glyph glyph-name="Aogonek" unicode="&#x104;" horiz-adv-x="676" 
d="M638 -149l9 -50q-32 -17 -78 -17q-42 0 -70.5 24.5t-28.5 67.5q0 30 14.5 56t29.5 38.5t40 29.5l-61 161h-311l-60 -161h-94l265 666h90l265 -666q-5 -3 -17 -12t-16.5 -12.5t-14.5 -11t-14.5 -12l-11.5 -11.5t-10.5 -13t-7 -13t-5 -14.5t-1.5 -15.5q0 -43 43 -43
q23 0 45 9zM338 582l-128 -347h256z" />
    <glyph glyph-name="aogonek" unicode="&#x105;" horiz-adv-x="501" 
d="M423 -149l9 -50q-32 -17 -78 -17q-44 0 -71.5 24.5t-27.5 65.5q0 30 17.5 57.5t33 40t39.5 28.5v60q-23 -29 -66 -49.5t-94 -20.5q-60 0 -98.5 36.5t-38.5 96.5q0 64 45 99t126 40q57 4 124 4v21q0 130 -112 130q-65 0 -127 -34l-21 66q68 41 164 41q86 0 136 -52.5
t50 -148.5v-289q-7 -5 -22 -16t-21.5 -16t-17.5 -14.5t-16 -16t-11 -15.5t-8 -18t-2 -19q0 -43 43 -43q23 0 45 9zM211 56q75 0 132 62v89q-55 -3 -108 -9q-100 -11 -100 -75q0 -67 76 -67z" />
    <glyph glyph-name="Cacute" unicode="&#x106;" horiz-adv-x="610" 
d="M389 678q104 0 176 -31l-15 -71q-76 27 -150 27q-124 0 -194.5 -71t-70.5 -199t70.5 -199t194.5 -71q74 0 150 27l15 -71q-72 -31 -176 -31q-161 0 -253.5 96t-92.5 249t92.5 249t253.5 96zM387 729h-75l84 114h106z" />
    <glyph glyph-name="cacute" unicode="&#x107;" horiz-adv-x="446" 
d="M276 490q81 0 135 -26l-13 -69q-57 23 -114 23q-78 0 -118 -48t-40 -130t40 -130t118 -48q56 0 114 23l13 -69q-54 -26 -135 -26q-115 0 -177.5 71.5t-62.5 178.5t62.5 178.5t177.5 71.5zM272 555h-76l74 160h100z" />
    <glyph glyph-name="Ccircumflex" unicode="&#x108;" horiz-adv-x="610" 
d="M389 678q104 0 176 -31l-15 -71q-76 27 -150 27q-124 0 -194.5 -71t-70.5 -199t70.5 -199t194.5 -71q74 0 150 27l15 -71q-72 -31 -176 -31q-161 0 -253.5 96t-92.5 249t92.5 249t253.5 96zM413 843l92 -114h-80l-59 75l-59 -75h-80l92 114h94z" />
    <glyph glyph-name="ccircumflex" unicode="&#x109;" horiz-adv-x="446" 
d="M276 490q81 0 135 -26l-13 -69q-57 23 -114 23q-78 0 -118 -48t-40 -130t40 -130t118 -48q56 0 114 23l13 -69q-54 -26 -135 -26q-115 0 -177.5 71.5t-62.5 178.5t62.5 178.5t177.5 71.5zM296 715l107 -160h-80l-70 110l-70 -110h-80l107 160h86z" />
    <glyph glyph-name="Cdotaccent" unicode="&#x10a;" horiz-adv-x="610" 
d="M389 678q104 0 176 -31l-15 -71q-76 27 -150 27q-124 0 -194.5 -71t-70.5 -199t70.5 -199t194.5 -71q74 0 150 27l15 -71q-72 -31 -176 -31q-161 0 -253.5 96t-92.5 249t92.5 249t253.5 96zM319 795q0 24 16 40.5t41 16.5t41 -16.5t16 -40.5t-16 -40.5t-41 -16.5
t-41 16.5t-16 40.5z" />
    <glyph glyph-name="cdotaccent" unicode="&#x10b;" horiz-adv-x="446" 
d="M276 490q81 0 135 -26l-13 -69q-57 23 -114 23q-78 0 -118 -48t-40 -130t40 -130t118 -48q56 0 114 23l13 -69q-54 -26 -135 -26q-115 0 -177.5 71.5t-62.5 178.5t62.5 178.5t177.5 71.5zM195 622q0 24 16 40.5t41 16.5t41 -16.5t16 -40.5t-16 -40.5t-41 -16.5t-41 16.5
t-16 40.5z" />
    <glyph glyph-name="Ccaron" unicode="&#x10c;" horiz-adv-x="610" 
d="M389 678q104 0 176 -31l-15 -71q-76 27 -150 27q-124 0 -194.5 -71t-70.5 -199t70.5 -199t194.5 -71q74 0 150 27l15 -71q-72 -31 -176 -31q-161 0 -253.5 96t-92.5 249t92.5 249t253.5 96zM509 843l-92 -114h-94l-92 114h80l59 -75l59 75h80z" />
    <glyph glyph-name="ccaron" unicode="&#x10d;" horiz-adv-x="446" 
d="M276 490q81 0 135 -26l-13 -69q-57 23 -114 23q-78 0 -118 -48t-40 -130t40 -130t118 -48q56 0 114 23l13 -69q-54 -26 -135 -26q-115 0 -177.5 71.5t-62.5 178.5t62.5 178.5t177.5 71.5zM409 715l-107 -160h-86l-107 160h80l70 -110l70 110h80z" />
    <glyph glyph-name="Dcaron" unicode="&#x10e;" horiz-adv-x="683" 
d="M80 0v666h185q170 0 275 -94t105 -239t-105 -239t-275 -94h-185zM265 74q125 0 206.5 69.5t81.5 189.5t-81.5 189.5t-206.5 69.5h-93v-518h93zM440 843l-92 -114h-94l-92 114h80l59 -75l59 75h80z" />
    <glyph glyph-name="dcaron" unicode="&#x10f;" horiz-adv-x="663" 
d="M469 706v-706h-85v66q-64 -76 -157 -76q-83 0 -135 69t-52 177q0 118 68.5 186t175.5 68q50 0 95 -13v229h90zM252 62q73 0 127 66v277q-33 13 -85 13q-76 0 -120 -47.5t-44 -134.5q0 -82 30.5 -128t91.5 -46zM605 474l-57 27q44 96 50 205l80 -8q-8 -127 -73 -224z" />
    <glyph glyph-name="Dcroat" unicode="&#x110;" horiz-adv-x="729" 
d="M45 296v74h81v296h185q170 0 275 -94t105 -239t-105 -239t-275 -94h-185v296h-81zM311 74q125 0 206.5 69.5t81.5 189.5t-81.5 189.5t-206.5 69.5h-93v-222h181v-74h-181v-222h93z" />
    <glyph glyph-name="dcroat" unicode="&#x111;" horiz-adv-x="544" 
d="M230 555v65h149v86h90v-86h75v-65h-75v-555h-85v66q-64 -76 -157 -76q-83 0 -135 69t-52 177q0 118 68.5 186t175.5 68q50 0 95 -13v78h-149zM252 62q73 0 127 66v277q-33 13 -85 13q-76 0 -120 -47.5t-44 -134.5q0 -82 30.5 -128t91.5 -46z" />
    <glyph glyph-name="Emacron" unicode="&#x112;" horiz-adv-x="510" 
d="M80 0v666h371v-75h-279v-213h267v-75h-267v-228h282v-75h-374zM130 758v70h289v-70h-289z" />
    <glyph glyph-name="emacron" unicode="&#x113;" horiz-adv-x="484" 
d="M260 490q89 0 137 -54t48 -140q0 -41 -10 -81h-303q5 -154 157 -154q69 0 137 28l12 -67q-67 -32 -162 -32q-115 0 -175.5 69.5t-60.5 178.5q0 108 60 180t160 72zM257 423q-55 0 -88 -40t-37 -99h226q7 60 -18 99.5t-83 39.5zM121 582v69h272v-69h-272z" />
    <glyph glyph-name="Ebreve" unicode="&#x114;" horiz-adv-x="510" 
d="M80 0v666h371v-75h-279v-213h267v-75h-267v-228h282v-75h-374zM352 855l62 -18q-13 -52 -50 -81.5t-88 -29.5t-88 29.5t-50 81.5l62 18q20 -69 76 -69t76 69z" />
    <glyph glyph-name="ebreve" unicode="&#x115;" horiz-adv-x="484" 
d="M260 490q89 0 137 -54t48 -140q0 -41 -10 -81h-303q5 -154 157 -154q69 0 137 28l12 -67q-67 -32 -162 -32q-115 0 -175.5 69.5t-60.5 178.5q0 108 60 180t160 72zM257 423q-55 0 -88 -40t-37 -99h226q7 60 -18 99.5t-83 39.5zM342 706l66 -14q-11 -66 -50.5 -100.5
t-96.5 -34.5t-96.5 34.5t-50.5 100.5l66 14q7 -41 27.5 -64t53.5 -23t53.5 23t27.5 64z" />
    <glyph glyph-name="Edotaccent" unicode="&#x116;" horiz-adv-x="510" 
d="M80 0v666h371v-75h-279v-213h267v-75h-267v-228h282v-75h-374zM213 795q0 24 16 40.5t41 16.5t41 -16.5t16 -40.5t-16 -40.5t-41 -16.5t-41 16.5t-16 40.5z" />
    <glyph glyph-name="edotaccent" unicode="&#x117;" horiz-adv-x="484" 
d="M260 490q89 0 137 -54t48 -140q0 -41 -10 -81h-303q5 -154 157 -154q69 0 137 28l12 -67q-67 -32 -162 -32q-115 0 -175.5 69.5t-60.5 178.5q0 108 60 180t160 72zM257 423q-55 0 -88 -40t-37 -99h226q7 60 -18 99.5t-83 39.5zM198 622q0 24 16 40.5t41 16.5t41 -16.5
t16 -40.5t-16 -40.5t-41 -16.5t-41 16.5t-16 40.5z" />
    <glyph glyph-name="Eogonek" unicode="&#x118;" horiz-adv-x="510" 
d="M80 0v666h371v-75h-279v-213h267v-75h-267v-228h282v-75q-7 -5 -22 -16t-21.5 -16t-17.5 -14.5t-16 -16t-11 -15.5t-8 -18t-2 -19q0 -43 43 -43q23 0 45 9l9 -50q-32 -17 -78 -17q-44 0 -71.5 24.5t-27.5 65.5q0 43 25 72t65 54h-286z" />
    <glyph glyph-name="eogonek" unicode="&#x119;" horiz-adv-x="484" 
d="M418 -149l9 -50q-32 -17 -78 -17q-44 0 -71.5 24.5t-27.5 65.5q0 75 86 121q-19 -5 -60 -5q-115 0 -175.5 69.5t-60.5 178.5q0 108 60 180t160 72q89 0 137 -54t48 -140q0 -41 -10 -81h-303q5 -154 157 -154q69 0 137 28l12 -67q-53 -40 -80.5 -70.5t-27.5 -64.5
q0 -45 43 -45q23 0 45 9zM257 423q-55 0 -88 -40t-37 -99h226q7 60 -18 99.5t-83 39.5z" />
    <glyph glyph-name="Ecaron" unicode="&#x11a;" horiz-adv-x="510" 
d="M80 0v666h371v-75h-279v-213h267v-75h-267v-228h282v-75h-374zM413 843l-92 -114h-94l-92 114h80l59 -75l59 75h80z" />
    <glyph glyph-name="ecaron" unicode="&#x11b;" horiz-adv-x="484" 
d="M260 490q89 0 137 -54t48 -140q0 -41 -10 -81h-303q5 -154 157 -154q69 0 137 28l12 -67q-67 -32 -162 -32q-115 0 -175.5 69.5t-60.5 178.5q0 108 60 180t160 72zM257 423q-55 0 -88 -40t-37 -99h226q7 60 -18 99.5t-83 39.5zM408 715l-107 -160h-86l-107 160h80
l70 -110l70 110h80z" />
    <glyph glyph-name="Gcircumflex" unicode="&#x11c;" horiz-adv-x="677" 
d="M400 678q118 0 199 -39l-15 -73q-92 37 -183 37q-125 0 -195.5 -73t-70.5 -205q0 -128 68 -196.5t200 -68.5q65 0 120 16v217h84v-268q-88 -37 -215 -37q-162 0 -255.5 92.5t-93.5 244.5q0 159 96 256t261 97zM425 843l92 -114h-80l-59 75l-59 -75h-80l92 114h94z" />
    <glyph glyph-name="gcircumflex" unicode="&#x11d;" horiz-adv-x="513" 
d="M243 161q-20 0 -38 3q-15 -20 -15 -40q0 -33 54 -37l99 -8q156 -12 156 -122q0 -76 -80.5 -124.5t-188.5 -48.5q-92 0 -151 32t-59 93q0 85 135 122q-47 23 -47 70t53 74q-50 18 -79.5 57.5t-29.5 91.5q0 71 55 118.5t136 47.5q32 0 67 -10h179v-67h-84q29 -42 29 -89
q0 -72 -54.5 -117.5t-136.5 -45.5zM306 9l-98 8q-25 -12 -36.5 -18t-30 -19t-26.5 -28t-8 -33q0 -72 127 -72q69 0 124 26.5t55 73.5q0 32 -28.5 45t-78.5 17zM243 225q48 0 79.5 27.5t31.5 72.5q0 46 -31 73t-80 27q-50 0 -80.5 -26.5t-30.5 -73.5t31.5 -73.5t79.5 -26.5z
M290 715l107 -160h-80l-70 110l-70 -110h-80l107 160h86z" />
    <glyph glyph-name="Gbreve" unicode="&#x11e;" horiz-adv-x="677" 
d="M400 678q118 0 199 -39l-15 -73q-92 37 -183 37q-125 0 -195.5 -73t-70.5 -205q0 -128 68 -196.5t200 -68.5q65 0 120 16v217h84v-268q-88 -37 -215 -37q-162 0 -255.5 92.5t-93.5 244.5q0 159 96 256t261 97zM451 855l62 -18q-13 -52 -50 -81.5t-88 -29.5t-88 29.5
t-50 81.5l62 18q20 -69 76 -69t76 69z" />
    <glyph glyph-name="gbreve" unicode="&#x11f;" horiz-adv-x="513" 
d="M243 161q-20 0 -38 3q-15 -20 -15 -40q0 -33 54 -37l99 -8q156 -12 156 -122q0 -76 -80.5 -124.5t-188.5 -48.5q-92 0 -151 32t-59 93q0 85 135 122q-47 23 -47 70t53 74q-50 18 -79.5 57.5t-29.5 91.5q0 71 55 118.5t136 47.5q32 0 67 -10h179v-67h-84q29 -42 29 -89
q0 -72 -54.5 -117.5t-136.5 -45.5zM306 9l-98 8q-25 -12 -36.5 -18t-30 -19t-26.5 -28t-8 -33q0 -72 127 -72q69 0 124 26.5t55 73.5q0 32 -28.5 45t-78.5 17zM243 225q48 0 79.5 27.5t31.5 72.5q0 46 -31 73t-80 27q-50 0 -80.5 -26.5t-30.5 -73.5t31.5 -73.5t79.5 -26.5z
M324 706l66 -14q-11 -66 -50.5 -100.5t-96.5 -34.5t-96.5 34.5t-50.5 100.5l66 14q7 -41 27.5 -64t53.5 -23t53.5 23t27.5 64z" />
    <glyph glyph-name="Gdotaccent" unicode="&#x120;" horiz-adv-x="677" 
d="M400 678q118 0 199 -39l-15 -73q-92 37 -183 37q-125 0 -195.5 -73t-70.5 -205q0 -128 68 -196.5t200 -68.5q65 0 120 16v217h84v-268q-88 -37 -215 -37q-162 0 -255.5 92.5t-93.5 244.5q0 159 96 256t261 97zM314 795q0 24 16 40.5t41 16.5t41 -16.5t16 -40.5t-16 -40.5
t-41 -16.5t-41 16.5t-16 40.5z" />
    <glyph glyph-name="gdotaccent" unicode="&#x121;" horiz-adv-x="513" 
d="M243 161q-20 0 -38 3q-15 -20 -15 -40q0 -33 54 -37l99 -8q156 -12 156 -122q0 -76 -80.5 -124.5t-188.5 -48.5q-92 0 -151 32t-59 93q0 85 135 122q-47 23 -47 70t53 74q-50 18 -79.5 57.5t-29.5 91.5q0 71 55 118.5t136 47.5q32 0 67 -10h179v-67h-84q29 -42 29 -89
q0 -72 -54.5 -117.5t-136.5 -45.5zM306 9l-98 8q-25 -12 -36.5 -18t-30 -19t-26.5 -28t-8 -33q0 -72 127 -72q69 0 124 26.5t55 73.5q0 32 -28.5 45t-78.5 17zM243 225q48 0 79.5 27.5t31.5 72.5q0 46 -31 73t-80 27q-50 0 -80.5 -26.5t-30.5 -73.5t31.5 -73.5t79.5 -26.5z
M185 622q0 24 16 40.5t41 16.5t41 -16.5t16 -40.5t-16 -40.5t-41 -16.5t-41 16.5t-16 40.5z" />
    <glyph glyph-name="Gcommaaccent" unicode="&#x122;" horiz-adv-x="677" 
d="M400 678q118 0 199 -39l-15 -73q-92 37 -183 37q-125 0 -195.5 -73t-70.5 -205q0 -128 68 -196.5t200 -68.5q65 0 120 16v217h84v-268q-88 -37 -215 -37q-162 0 -255.5 92.5t-93.5 244.5q0 159 96 256t261 97zM368 -250l-63 27q37 81 40 152h86q-3 -47 -20.5 -96
t-42.5 -83z" />
    <glyph glyph-name="gcommaaccent" unicode="&#x123;" horiz-adv-x="524" 
d="M243 161q-20 0 -38 3q-15 -20 -15 -40q0 -33 54 -37l99 -8q156 -12 156 -122q0 -76 -80.5 -124.5t-188.5 -48.5q-92 0 -151 32t-59 93q0 85 135 122q-47 23 -47 70t53 74q-50 18 -79.5 57.5t-29.5 91.5q0 71 55 118.5t136 47.5q32 0 67 -10h179v-67h-84q29 -42 29 -89
q0 -72 -54.5 -117.5t-136.5 -45.5zM306 9l-98 8q-25 -12 -36.5 -18t-30 -19t-26.5 -28t-8 -33q0 -72 127 -72q69 0 124 26.5t55 73.5q0 32 -28.5 45t-78.5 17zM243 225q48 0 79.5 27.5t31.5 72.5q0 46 -31 73t-80 27q-50 0 -80.5 -26.5t-30.5 -73.5t31.5 -73.5t79.5 -26.5z
M259 725l61 -27q-28 -57 -30 -143l-84 4q1 98 53 166z" />
    <glyph glyph-name="Hcircumflex" unicode="&#x124;" horiz-adv-x="685" 
d="M605 0h-92v299h-341v-299h-92v666h92v-289h341v289h92v-666zM389 843l92 -114h-80l-59 75l-59 -75h-80l92 114h94z" />
    <glyph glyph-name="hcircumflex" unicode="&#x125;" horiz-adv-x="554" 
d="M165 0h-90v706h90v-287q59 71 149 71q85 0 127.5 -67t42.5 -170v-253h-90v250q0 167 -110 167q-69 0 -119 -65v-352zM168 863l92 -114h-80l-59 75l-59 -75h-80l92 114h94z" />
    <glyph glyph-name="Hbar" unicode="&#x126;" horiz-adv-x="729" 
d="M627 0h-92v299h-341v-299h-92v477h-87v67h87v122h92v-122h341v122h92v-122h87v-67h-87v-477zM194 377h341v100h-341v-100z" />
    <glyph glyph-name="hbar" unicode="&#x127;" horiz-adv-x="554" 
d="M0 555v65h75v86h90v-86h149v-65h-149v-136q59 71 149 71q85 0 127.5 -67t42.5 -170v-253h-90v250q0 167 -110 167q-69 0 -119 -65v-352h-90v555h-75z" />
    <glyph glyph-name="Itilde" unicode="&#x128;" horiz-adv-x="262" 
d="M177 666v-666h-92v666h92zM209 734q-16 0 -83 23q-54 18 -70 18q-12 0 -20.5 -6.5t-12.5 -14.5t-10 -24l-55 19q13 51 35 72.5t64 21.5q33 0 86 -20q55 -21 66 -21q15 0 23.5 10t17.5 31l54 -24q-16 -45 -37.5 -65t-57.5 -20z" />
    <glyph glyph-name="itilde" unicode="&#x129;" horiz-adv-x="240" 
d="M165 0h-90v480h90v-480zM190 567q-21 0 -80 28q-40 19 -53 19q-18 0 -27 -11t-21 -40l-54 22q13 50 36.5 73.5t65.5 23.5q29 0 71 -22q5 -3 15.5 -8.5t16.5 -8.5t14 -5.5t15 -2.5q11 0 20 7.5t13.5 15t11.5 23.5l53 -25q-18 -45 -40.5 -67t-56.5 -22z" />
    <glyph glyph-name="uni012A" unicode="&#x12a;" horiz-adv-x="262" 
d="M177 666v-666h-92v666h92zM-13 758v70h289v-70h-289z" />
    <glyph glyph-name="imacron" unicode="&#x12b;" horiz-adv-x="240" 
d="M165 0h-90v480h90v-480zM-16 582v69h272v-69h-272z" />
    <glyph glyph-name="Ibreve" unicode="&#x12c;" horiz-adv-x="262" 
d="M177 666v-666h-92v666h92zM207 855l62 -18q-13 -52 -50 -81.5t-88 -29.5t-88 29.5t-50 81.5l62 18q20 -69 76 -69t76 69z" />
    <glyph glyph-name="uni012D" unicode="&#x12d;" horiz-adv-x="240" 
d="M165 0h-90v480h90v-480zM201 706l66 -14q-11 -66 -50.5 -100.5t-96.5 -34.5t-96.5 34.5t-50.5 100.5l66 14q15 -87 81 -87t81 87z" />
    <glyph glyph-name="Iogonek" unicode="&#x12e;" horiz-adv-x="262" 
d="M181 -149l8 -52q-30 -15 -74 -15q-45 0 -72 26.5t-27 69.5q0 28 12.5 53t23.5 36.5t33 30.5v666h92v-666q-40 -30 -60.5 -55.5t-20.5 -57.5q0 -45 43 -45q20 0 42 9z" />
    <glyph glyph-name="iogonek" unicode="&#x12f;" horiz-adv-x="240" 
d="M169 -149l8 -52q-30 -15 -74 -15q-45 0 -72 26.5t-27 68.5q0 69 71 121v480h90v-480q-40 -30 -60.5 -55.5t-20.5 -57.5q0 -45 43 -45q20 0 42 9zM63 622q0 24 16 40.5t41 16.5t41 -16.5t16 -40.5t-16 -40.5t-41 -16.5t-41 16.5t-16 40.5z" />
    <glyph glyph-name="Idotaccent" unicode="&#x130;" horiz-adv-x="262" 
d="M177 666v-666h-92v666h92zM74 795q0 24 16 40.5t41 16.5t41 -16.5t16 -40.5t-16 -40.5t-41 -16.5t-41 16.5t-16 40.5z" />
    <glyph glyph-name="dotlessi" unicode="&#x131;" horiz-adv-x="240" 
d="M165 0h-90v480h90v-480z" />
    <glyph glyph-name="IJ" unicode="&#x132;" horiz-adv-x="512" 
d="M177 666v-666h-92v666h92zM437 152q-2 -95 -26.5 -165t-95.5 -145l-64 51q94 106 94 244v529h92v-514z" />
    <glyph glyph-name="ij" unicode="&#x133;" horiz-adv-x="475" 
d="M165 0h-90v480h90v-480zM63 622q0 24 16 40.5t41 16.5t41 -16.5t16 -40.5t-16 -40.5t-41 -16.5t-41 16.5t-16 40.5zM405 118q0 -101 -28.5 -180.5t-102.5 -153.5l-62 49q103 113 103 269v378h90v-362zM303 622q0 24 16 40.5t41 16.5t41 -16.5t16 -40.5t-16 -40.5
t-41 -16.5t-41 16.5t-16 40.5z" />
    <glyph glyph-name="Jcircumflex" unicode="&#x134;" horiz-adv-x="250" 
d="M175 152q-2 -95 -26.5 -165t-95.5 -145l-64 51q94 106 94 244v529h92v-514zM172 843l92 -114h-80l-59 75l-59 -75h-80l92 114h94z" />
    <glyph glyph-name="jcircumflex" unicode="&#x135;" horiz-adv-x="235" 
d="M165 118q0 -101 -28.5 -180.5t-102.5 -153.5l-62 49q103 113 103 269v378h90v-362zM161 715l107 -160h-80l-70 110l-70 -110h-80l107 160h86z" />
    <glyph glyph-name="Kcommaaccent" unicode="&#x136;" horiz-adv-x="585" 
d="M172 0h-92v666h92v-323l278 323h111l-287 -330l306 -336h-116l-292 330v-330zM285 -250l-63 27q37 81 40 152h86q-3 -47 -20.5 -96t-42.5 -83z" />
    <glyph glyph-name="kcommaaccent" unicode="&#x137;" horiz-adv-x="490" 
d="M165 0h-90v706h90v-453l192 227h104l-203 -236l220 -244h-109l-204 238v-238zM242 -250l-63 27q37 81 40 152h86q-3 -47 -20.5 -96t-42.5 -83z" />
    <glyph glyph-name="kgreenlandic" unicode="&#x138;" horiz-adv-x="490" 
d="M165 0h-90v480h90v-227l192 227h104l-203 -236l220 -244h-109l-204 238v-238z" />
    <glyph glyph-name="Lacute" unicode="&#x139;" horiz-adv-x="472" 
d="M80 666h92v-591h278v-75h-370v666zM166 729h-75l84 114h106z" />
    <glyph glyph-name="lacute" unicode="&#x13a;" horiz-adv-x="276" 
d="M160 706v-582q0 -60 51 -60q23 0 45 6l4 -67q-33 -11 -73 -11q-60 0 -88.5 35t-28.5 93v586h90zM151 749h-75l84 114h106z" />
    <glyph glyph-name="Lcommaaccent" unicode="&#x13b;" horiz-adv-x="472" 
d="M80 666h92v-591h278v-75h-370v666zM253 -250l-63 27q37 81 40 152h86q-3 -47 -20.5 -96t-42.5 -83z" />
    <glyph glyph-name="lcommaaccent" unicode="&#x13c;" horiz-adv-x="276" 
d="M160 706v-582q0 -60 51 -60q23 0 45 6l4 -67q-33 -11 -73 -11q-60 0 -88.5 35t-28.5 93v586h90zM149 -250l-63 27q37 81 40 152h86q-3 -47 -20.5 -96t-42.5 -83z" />
    <glyph glyph-name="Lcaron" unicode="&#x13d;" horiz-adv-x="472" 
d="M80 666h92v-591h278v-75h-370v666zM349 437l-57 27q44 96 50 205l80 -8q-8 -127 -73 -224z" />
    <glyph glyph-name="lcaron" unicode="&#x13e;" horiz-adv-x="364" 
d="M160 706v-582q0 -60 51 -60q23 0 45 6l4 -67q-33 -11 -73 -11q-60 0 -88.5 35t-28.5 93v586h90zM306 474l-57 27q44 96 50 205l80 -8q-8 -127 -73 -224z" />
    <glyph glyph-name="Ldot" unicode="&#x13f;" horiz-adv-x="472" 
d="M80 666h92v-591h278v-75h-370v666zM401 324q0 -25 -16 -41.5t-42 -16.5t-42 16.5t-16 41.5t16 41.5t42 16.5t42 -16.5t16 -41.5z" />
    <glyph glyph-name="ldot" unicode="&#x140;" horiz-adv-x="381" 
d="M160 706v-582q0 -60 51 -60q23 0 45 6l4 -67q-33 -11 -73 -11q-60 0 -88.5 35t-28.5 93v586h90zM361 294q0 -25 -16 -41.5t-42 -16.5t-42 16.5t-16 41.5t16 41.5t42 16.5t42 -16.5t16 -41.5z" />
    <glyph glyph-name="Lslash" unicode="&#x141;" horiz-adv-x="472" 
d="M375 425l-203 -102v-248h278v-75h-370v277l-60 -30l-29 66l89 44v309h92v-263l173 87z" />
    <glyph glyph-name="lslash" unicode="&#x142;" horiz-adv-x="282" 
d="M288 415l-128 -65v-226q0 -60 51 -60q23 0 45 6l4 -67q-33 -11 -73 -11q-60 0 -88.5 35t-28.5 93v185l-57 -28l-29 66l86 43v320h90v-275l98 49z" />
    <glyph glyph-name="Nacute" unicode="&#x143;" horiz-adv-x="709" 
d="M629 0h-88l-373 523v-523h-88v666h88l373 -523v523h88v-666zM367 729h-75l84 114h106z" />
    <glyph glyph-name="nacute" unicode="&#x144;" horiz-adv-x="554" 
d="M165 0h-90v480h86v-70q58 80 153 80q85 0 127.5 -67t42.5 -170v-253h-90v250q0 167 -110 167q-69 0 -119 -65v-352zM293 555h-76l74 160h100z" />
    <glyph glyph-name="Ncommaaccent" unicode="&#x145;" horiz-adv-x="709" 
d="M629 0h-88l-373 523v-523h-88v666h88l373 -523v523h88v-666zM330 -250l-63 27q37 81 40 152h86q-3 -47 -20.5 -96t-42.5 -83z" />
    <glyph glyph-name="ncommaaccent" unicode="&#x146;" horiz-adv-x="554" 
d="M165 0h-90v480h86v-70q58 80 153 80q85 0 127.5 -67t42.5 -170v-253h-90v250q0 167 -110 167q-69 0 -119 -65v-352zM268 -250l-63 27q37 81 40 152h86q-3 -47 -20.5 -96t-42.5 -83z" />
    <glyph glyph-name="Ncaron" unicode="&#x147;" horiz-adv-x="709" 
d="M629 0h-88l-373 523v-523h-88v666h88l373 -523v523h88v-666zM498 843l-92 -114h-94l-92 114h80l59 -75l59 75h80z" />
    <glyph glyph-name="ncaron" unicode="&#x148;" horiz-adv-x="554" 
d="M165 0h-90v480h86v-70q58 80 153 80q85 0 127.5 -67t42.5 -170v-253h-90v250q0 167 -110 167q-69 0 -119 -65v-352zM425 715l-107 -160h-86l-107 160h80l70 -110l70 110h80z" />
    <glyph glyph-name="napostrophe" unicode="&#x149;" horiz-adv-x="649" 
d="M260 0h-90v480h86v-70q58 80 153 80q85 0 127.5 -67t42.5 -170v-253h-90v250q0 167 -110 167q-69 0 -119 -65v-352zM66 474l-57 27q44 96 50 205l80 -8q-8 -127 -73 -224z" />
    <glyph glyph-name="Eng" unicode="&#x14a;" horiz-adv-x="709" 
d="M629 78q0 -105 -49.5 -177.5t-161.5 -116.5l-32 69q130 57 149 155l-367 515v-523h-88v666h88l373 -523v523h88v-588z" />
    <glyph glyph-name="eng" unicode="&#x14b;" horiz-adv-x="554" 
d="M394 250q0 167 -110 167q-69 0 -119 -65v-352h-90v480h86v-70q58 80 153 80q85 0 127.5 -67t42.5 -170v-175q0 -107 -47 -178.5t-158 -115.5l-33 71q148 55 148 209v186z" />
    <glyph glyph-name="Omacron" unicode="&#x14c;" horiz-adv-x="740" 
d="M370 -12q-151 0 -238 99.5t-87 245.5t87 245.5t238 99.5t238 -99.5t87 -245.5t-87 -245.5t-238 -99.5zM370 62q111 0 172 76.5t61 194.5t-61 194.5t-172 76.5t-172 -76.5t-61 -194.5t61 -194.5t172 -76.5zM225 758v70h289v-70h-289z" />
    <glyph glyph-name="omacron" unicode="&#x14d;" horiz-adv-x="546" 
d="M506 240q0 -106 -63 -178t-170 -72t-170 72t-63 178t63 178t170 72t170 -72t63 -178zM416 240q0 79 -37 129.5t-106 50.5t-106 -50.5t-37 -129.5t37 -129.5t106 -50.5t106 50.5t37 129.5zM137 582v69h272v-69h-272z" />
    <glyph glyph-name="Obreve" unicode="&#x14e;" horiz-adv-x="740" 
d="M370 -12q-151 0 -238 99.5t-87 245.5t87 245.5t238 99.5t238 -99.5t87 -245.5t-87 -245.5t-238 -99.5zM370 62q111 0 172 76.5t61 194.5t-61 194.5t-172 76.5t-172 -76.5t-61 -194.5t61 -194.5t172 -76.5zM446 855l62 -18q-13 -52 -50 -81.5t-88 -29.5t-88 29.5t-50 81.5
l62 18q20 -69 76 -69t76 69z" />
    <glyph glyph-name="obreve" unicode="&#x14f;" horiz-adv-x="546" 
d="M506 240q0 -106 -63 -178t-170 -72t-170 72t-63 178t63 178t170 72t170 -72t63 -178zM416 240q0 79 -37 129.5t-106 50.5t-106 -50.5t-37 -129.5t37 -129.5t106 -50.5t106 50.5t37 129.5zM354 706l66 -14q-11 -66 -50.5 -100.5t-96.5 -34.5t-96.5 34.5t-50.5 100.5l66 14
q7 -41 27.5 -64t53.5 -23t53.5 23t27.5 64z" />
    <glyph glyph-name="Ohungarumlaut" unicode="&#x150;" horiz-adv-x="740" 
d="M370 -12q-151 0 -238 99.5t-87 245.5t87 245.5t238 99.5t238 -99.5t87 -245.5t-87 -245.5t-238 -99.5zM370 62q111 0 172 76.5t61 194.5t-61 194.5t-172 76.5t-172 -76.5t-61 -194.5t61 -194.5t172 -76.5zM325 729h-71l45 114h91zM503 729h-71l45 114h91z" />
    <glyph glyph-name="ohungarumlaut" unicode="&#x151;" horiz-adv-x="546" 
d="M506 240q0 -106 -63 -178t-170 -72t-170 72t-63 178t63 178t170 72t170 -72t63 -178zM416 240q0 79 -37 129.5t-106 50.5t-106 -50.5t-37 -129.5t37 -129.5t106 -50.5t106 50.5t37 129.5zM222 555h-72l57 160h92zM397 555h-72l57 160h92z" />
    <glyph glyph-name="OE" unicode="&#x152;" horiz-adv-x="953" 
d="M385 678q75 0 136 -12h371v-75h-279v-213h267v-75h-267v-228h282v-75h-374q-69 -12 -136 -12q-165 0 -252.5 98.5t-87.5 246.5t87.5 246.5t252.5 98.5zM521 78v510q-60 15 -127 15q-128 0 -192.5 -70.5t-64.5 -199.5t64.5 -199.5t192.5 -70.5q67 0 127 15z" />
    <glyph glyph-name="oe" unicode="&#x153;" horiz-adv-x="860" 
d="M635 490q89 0 138 -54t49 -140q0 -37 -11 -81h-303q5 -154 155 -154q71 0 139 28l12 -67q-70 -32 -161 -32q-67 0 -120 29.5t-77 77.5q-27 -48 -77 -77.5t-110 -29.5q-107 0 -168 72t-61 178t63 178t170 72q124 0 188 -106q23 46 68 76t106 30zM416 240q0 78 -37 127.5
t-106 49.5t-106 -49.5t-37 -127.5t37 -127.5t106 -49.5t106 49.5t37 127.5zM632 423q-53 0 -86 -39.5t-38 -99.5h226q2 18 2 27q0 50 -26.5 81t-77.5 31z" />
    <glyph glyph-name="Racute" unicode="&#x154;" horiz-adv-x="584" 
d="M172 267v-267h-92v666h173q112 0 184.5 -49t72.5 -139q0 -69 -44.5 -120t-124.5 -74l235 -284h-113l-217 268q-14 -1 -74 -1zM418 476q0 59 -47 87.5t-119 28.5h-80v-251h46q89 0 144.5 34t55.5 101zM272 729h-75l84 114h106z" />
    <glyph glyph-name="racute" unicode="&#x155;" horiz-adv-x="361" 
d="M345 481v-75h-23q-105 0 -157 -85v-321h-90v480h86v-92q43 98 147 98q22 0 37 -5zM218 555h-76l74 160h100z" />
    <glyph glyph-name="Rcommaaccent" unicode="&#x156;" horiz-adv-x="584" 
d="M172 267v-267h-92v666h173q112 0 184.5 -49t72.5 -139q0 -69 -44.5 -120t-124.5 -74l235 -284h-113l-217 268q-14 -1 -74 -1zM418 476q0 59 -47 87.5t-119 28.5h-80v-251h46q89 0 144.5 34t55.5 101zM287 -250l-63 27q37 81 40 152h86q-3 -47 -20.5 -96t-42.5 -83z" />
    <glyph glyph-name="rcommaaccent" unicode="&#x157;" horiz-adv-x="361" 
d="M345 481v-75h-23q-105 0 -157 -85v-321h-90v480h86v-92q43 98 147 98q22 0 37 -5zM98 -250l-63 27q37 81 40 152h86q-3 -47 -20.5 -96t-42.5 -83z" />
    <glyph glyph-name="Rcaron" unicode="&#x158;" horiz-adv-x="584" 
d="M172 267v-267h-92v666h173q112 0 184.5 -49t72.5 -139q0 -69 -44.5 -120t-124.5 -74l235 -284h-113l-217 268q-14 -1 -74 -1zM418 476q0 59 -47 87.5t-119 28.5h-80v-251h46q89 0 144.5 34t55.5 101zM418 843l-92 -114h-94l-92 114h80l59 -75l59 75h80z" />
    <glyph glyph-name="rcaron" unicode="&#x159;" horiz-adv-x="361" 
d="M345 481v-75h-23q-105 0 -157 -85v-321h-90v480h86v-92q43 98 147 98q22 0 37 -5zM362 715l-107 -160h-86l-107 160h80l70 -110l70 110h80z" />
    <glyph glyph-name="Sacute" unicode="&#x15a;" horiz-adv-x="501" 
d="M464 173q0 -84 -67 -134.5t-167 -50.5q-108 0 -191 40l18 73q83 -39 171 -39q66 0 105.5 28t39.5 79q0 22 -9 41.5t-18.5 31t-34 27t-37.5 21.5t-47 22q-83 39 -128.5 81t-45.5 110q0 85 57.5 130t154.5 45q98 0 173 -40l-17 -73q-76 39 -156 39q-121 0 -121 -94
q0 -40 24 -63.5t92 -56.5q39 -19 55.5 -27.5t51.5 -31.5t51.5 -42t31 -50t14.5 -66zM258 729h-75l84 114h106z" />
    <glyph glyph-name="sacute" unicode="&#x15b;" horiz-adv-x="418" 
d="M383 137q0 -66 -54 -106.5t-137 -40.5q-87 0 -148 29l15 71q66 -29 134 -29q45 0 73.5 16.5t28.5 48.5q0 29 -24.5 47.5t-71.5 36.5q-32 13 -53 23.5t-45.5 28.5t-37 42t-12.5 54q0 66 49.5 99t121.5 33q77 0 139 -32l-15 -68q-63 29 -124 29q-83 0 -83 -56q0 -9 4.5 -18
t10 -14.5t17 -12.5t18 -10.5t21 -10t19.5 -8.5q2 -1 23 -10t33.5 -15t33.5 -20t33 -28t21.5 -35t9.5 -44zM231 555h-76l74 160h100z" />
    <glyph glyph-name="Scircumflex" unicode="&#x15c;" horiz-adv-x="501" 
d="M464 173q0 -84 -67 -134.5t-167 -50.5q-108 0 -191 40l18 73q83 -39 171 -39q66 0 105.5 28t39.5 79q0 22 -9 41.5t-18.5 31t-34 27t-37.5 21.5t-47 22q-83 39 -128.5 81t-45.5 110q0 85 57.5 130t154.5 45q98 0 173 -40l-17 -73q-76 39 -156 39q-121 0 -121 -94
q0 -40 24 -63.5t92 -56.5q39 -19 55.5 -27.5t51.5 -31.5t51.5 -42t31 -50t14.5 -66zM298 843l92 -114h-80l-59 75l-59 -75h-80l92 114h94z" />
    <glyph glyph-name="scircumflex" unicode="&#x15d;" horiz-adv-x="418" 
d="M383 137q0 -66 -54 -106.5t-137 -40.5q-87 0 -148 29l15 71q66 -29 134 -29q45 0 73.5 16.5t28.5 48.5q0 29 -24.5 47.5t-71.5 36.5q-32 13 -53 23.5t-45.5 28.5t-37 42t-12.5 54q0 66 49.5 99t121.5 33q77 0 139 -32l-15 -68q-63 29 -124 29q-83 0 -83 -56q0 -9 4.5 -18
t10 -14.5t17 -12.5t18 -10.5t21 -10t19.5 -8.5q2 -1 23 -10t33.5 -15t33.5 -20t33 -28t21.5 -35t9.5 -44zM252 715l107 -160h-80l-70 110l-70 -110h-80l107 160h86z" />
    <glyph glyph-name="Scedilla" unicode="&#x15e;" horiz-adv-x="501" 
d="M333 -119q0 -43 -37.5 -65t-106.5 -32l-13 54q77 11 77 42q0 13 -13 21.5t-26.5 12t-38.5 8.5l27 67q-92 5 -163 39l18 73q83 -39 171 -39q66 0 105.5 28t39.5 79q0 22 -9 41.5t-18.5 31t-34 27t-37.5 21.5t-47 22q-83 39 -128.5 81t-45.5 110q0 85 57.5 130t154.5 45
q98 0 173 -40l-17 -73q-76 39 -156 39q-121 0 -121 -94q0 -40 24 -63.5t92 -56.5q39 -19 55.5 -27.5t51.5 -31.5t51.5 -42t31 -50t14.5 -66q0 -77 -57.5 -126.5t-146.5 -57.5l-12 -33q85 -18 85 -75z" />
    <glyph glyph-name="Scedilla" unicode="&#xf6c1;" horiz-adv-x="501" 
d="M333 -119q0 -43 -37.5 -65t-106.5 -32l-13 54q77 11 77 42q0 13 -13 21.5t-26.5 12t-38.5 8.5l27 67q-92 5 -163 39l18 73q83 -39 171 -39q66 0 105.5 28t39.5 79q0 22 -9 41.5t-18.5 31t-34 27t-37.5 21.5t-47 22q-83 39 -128.5 81t-45.5 110q0 85 57.5 130t154.5 45
q98 0 173 -40l-17 -73q-76 39 -156 39q-121 0 -121 -94q0 -40 24 -63.5t92 -56.5q39 -19 55.5 -27.5t51.5 -31.5t51.5 -42t31 -50t14.5 -66q0 -77 -57.5 -126.5t-146.5 -57.5l-12 -33q85 -18 85 -75z" />
    <glyph glyph-name="scedilla" unicode="&#x15f;" horiz-adv-x="418" 
d="M300 -119q0 -43 -37.5 -65t-106.5 -32l-13 54q77 11 77 42q0 13 -13 21.5t-26.5 12t-38.5 8.5l28 69q-81 6 -126 28l15 71q66 -29 134 -29q45 0 73.5 16.5t28.5 48.5q0 29 -24.5 47.5t-71.5 36.5q-32 13 -53 23.5t-45.5 28.5t-37 42t-12.5 54q0 66 49.5 99t121.5 33
q77 0 139 -32l-15 -68q-63 29 -124 29q-83 0 -83 -56q0 -9 4.5 -18t10 -14.5t17 -12.5t18 -10.5t21 -10t19.5 -8.5q2 -1 23 -10t33.5 -15t33.5 -20t33 -28t21.5 -35t9.5 -44q0 -59 -43 -98t-112 -47l-13 -36q85 -18 85 -75z" />
    <glyph glyph-name="scedilla" unicode="&#xf6c2;" horiz-adv-x="418" 
d="M300 -119q0 -43 -37.5 -65t-106.5 -32l-13 54q77 11 77 42q0 13 -13 21.5t-26.5 12t-38.5 8.5l28 69q-81 6 -126 28l15 71q66 -29 134 -29q45 0 73.5 16.5t28.5 48.5q0 29 -24.5 47.5t-71.5 36.5q-32 13 -53 23.5t-45.5 28.5t-37 42t-12.5 54q0 66 49.5 99t121.5 33
q77 0 139 -32l-15 -68q-63 29 -124 29q-83 0 -83 -56q0 -9 4.5 -18t10 -14.5t17 -12.5t18 -10.5t21 -10t19.5 -8.5q2 -1 23 -10t33.5 -15t33.5 -20t33 -28t21.5 -35t9.5 -44q0 -59 -43 -98t-112 -47l-13 -36q85 -18 85 -75z" />
    <glyph glyph-name="Scaron" unicode="&#x160;" horiz-adv-x="501" 
d="M464 173q0 -84 -67 -134.5t-167 -50.5q-108 0 -191 40l18 73q83 -39 171 -39q66 0 105.5 28t39.5 79q0 22 -9 41.5t-18.5 31t-34 27t-37.5 21.5t-47 22q-83 39 -128.5 81t-45.5 110q0 85 57.5 130t154.5 45q98 0 173 -40l-17 -73q-76 39 -156 39q-121 0 -121 -94
q0 -40 24 -63.5t92 -56.5q39 -19 55.5 -27.5t51.5 -31.5t51.5 -42t31 -50t14.5 -66zM390 843l-92 -114h-94l-92 114h80l59 -75l59 75h80z" />
    <glyph glyph-name="scaron" unicode="&#x161;" horiz-adv-x="418" 
d="M383 137q0 -66 -54 -106.5t-137 -40.5q-87 0 -148 29l15 71q66 -29 134 -29q45 0 73.5 16.5t28.5 48.5q0 29 -24.5 47.5t-71.5 36.5q-32 13 -53 23.5t-45.5 28.5t-37 42t-12.5 54q0 66 49.5 99t121.5 33q77 0 139 -32l-15 -68q-63 29 -124 29q-83 0 -83 -56q0 -9 4.5 -18
t10 -14.5t17 -12.5t18 -10.5t21 -10t19.5 -8.5q2 -1 23 -10t33.5 -15t33.5 -20t33 -28t21.5 -35t9.5 -44zM362 715l-107 -160h-86l-107 160h80l70 -110l70 110h80z" />
    <glyph glyph-name="Tcommaaccent" unicode="&#x162;" horiz-adv-x="528" 
d="M22 666h484v-75h-196v-591h-92v591h-196v75zM243 -250l-63 27q37 81 40 152h86q-3 -47 -20.5 -96t-42.5 -83z" />
    <glyph glyph-name="Tcommaaccent" unicode="&#x21a;" horiz-adv-x="528" 
d="M22 666h484v-75h-196v-591h-92v591h-196v75zM243 -250l-63 27q37 81 40 152h86q-3 -47 -20.5 -96t-42.5 -83z" />
    <glyph glyph-name="tcommaaccent" unicode="&#x163;" horiz-adv-x="389" 
d="M20 407v73h86v123h90v-123h158v-73h-158v-245q0 -48 15.5 -73.5t57.5 -25.5t76 13l8 -68q-42 -18 -103 -18q-74 0 -109 45.5t-35 123.5v248h-86zM216 -250l-63 27q37 81 40 152h86q-3 -47 -20.5 -96t-42.5 -83z" />
    <glyph glyph-name="tcommaaccent" unicode="&#x21b;" horiz-adv-x="389" 
d="M20 407v73h86v123h90v-123h158v-73h-158v-245q0 -48 15.5 -73.5t57.5 -25.5t76 13l8 -68q-42 -18 -103 -18q-74 0 -109 45.5t-35 123.5v248h-86zM216 -250l-63 27q37 81 40 152h86q-3 -47 -20.5 -96t-42.5 -83z" />
    <glyph glyph-name="Tcaron" unicode="&#x164;" horiz-adv-x="528" 
d="M22 666h484v-75h-196v-591h-92v591h-196v75zM403 843l-92 -114h-94l-92 114h80l59 -75l59 75h80z" />
    <glyph glyph-name="tcaron" unicode="&#x165;" horiz-adv-x="397" 
d="M20 407v73h85v123h91v-123h158v-73h-158v-245q0 -48 15.5 -73.5t57.5 -25.5t76 13l8 -68q-42 -18 -103 -18q-74 0 -109 45.5t-35 123.5v248h-86zM319 565l-60 32q36 72 40 153l80 -8q-3 -97 -60 -177z" />
    <glyph glyph-name="Tbar" unicode="&#x166;" horiz-adv-x="528" 
d="M442 280h-132v-280h-92v280h-132v71h132v240h-196v75h484v-75h-196v-240h132v-71z" />
    <glyph glyph-name="tbar" unicode="&#x167;" horiz-adv-x="389" 
d="M20 231v68h86v108h-86v73h85v123h91v-123h158v-73h-158v-108h126v-68h-126v-69q0 -48 15.5 -73.5t57.5 -25.5t76 13l8 -68q-42 -18 -103 -18q-74 0 -109 45.5t-35 123.5v72h-86z" />
    <glyph glyph-name="Utilde" unicode="&#x168;" horiz-adv-x="674" 
d="M506 232v434h92v-430q0 -108 -69 -178t-192 -70t-192 70t-69 178v430h92v-434q0 -77 44 -123t125 -46t125 46t44 123zM418 734q-16 0 -83 23q-54 18 -70 18q-12 0 -20.5 -6.5t-12.5 -14.5t-10 -24l-55 19q13 51 35 72.5t64 21.5q33 0 86 -20q55 -21 66 -21q15 0 23.5 10
t17.5 31l54 -24q-16 -45 -37.5 -65t-57.5 -20z" />
    <glyph glyph-name="utilde" unicode="&#x169;" horiz-adv-x="545" 
d="M380 480h90v-480h-86v70q-58 -80 -153 -80q-84 0 -125 66.5t-41 170.5v253h90v-250q0 -80 23.5 -123.5t82.5 -43.5q67 0 119 65v352zM353 567q-21 0 -80 28q-40 19 -53 19q-18 0 -27 -11t-21 -40l-54 22q13 50 36.5 73.5t65.5 23.5q29 0 71 -22q5 -3 15.5 -8.5t16.5 -8.5
t14 -5.5t15 -2.5q11 0 20 7.5t13.5 15t11.5 23.5l53 -25q-18 -45 -40.5 -67t-56.5 -22z" />
    <glyph glyph-name="Umacron" unicode="&#x16a;" horiz-adv-x="674" 
d="M506 232v434h92v-430q0 -108 -69 -178t-192 -70t-192 70t-69 178v430h92v-434q0 -77 44 -123t125 -46t125 46t44 123zM192 758v70h289v-70h-289z" />
    <glyph glyph-name="umacron" unicode="&#x16b;" horiz-adv-x="545" 
d="M380 480h90v-480h-86v70q-58 -80 -153 -80q-84 0 -125 66.5t-41 170.5v253h90v-250q0 -80 23.5 -123.5t82.5 -43.5q67 0 119 65v352zM140 582v69h272v-69h-272z" />
    <glyph glyph-name="Ubreve" unicode="&#x16c;" horiz-adv-x="674" 
d="M506 232v434h92v-430q0 -108 -69 -178t-192 -70t-192 70t-69 178v430h92v-434q0 -77 44 -123t125 -46t125 46t44 123zM413 855l62 -18q-13 -52 -50 -81.5t-88 -29.5t-88 29.5t-50 81.5l62 18q20 -69 76 -69t76 69z" />
    <glyph glyph-name="ubreve" unicode="&#x16d;" horiz-adv-x="545" 
d="M380 480h90v-480h-86v70q-58 -80 -153 -80q-84 0 -125 66.5t-41 170.5v253h90v-250q0 -80 23.5 -123.5t82.5 -43.5q67 0 119 65v352zM359 706l66 -14q-11 -66 -50.5 -100.5t-96.5 -34.5t-96.5 34.5t-50.5 100.5l66 14q15 -87 81 -87t81 87z" />
    <glyph glyph-name="Uring" unicode="&#x16e;" horiz-adv-x="674" 
d="M506 232v434h92v-430q0 -108 -69 -178t-192 -70t-192 70t-69 178v430h92v-434q0 -77 44 -123t125 -46t125 46t44 123zM337 896q41 0 64.5 -25t23.5 -59t-23.5 -58.5t-64.5 -24.5t-64.5 24.5t-23.5 58.5t23.5 59t64.5 25zM378 812q0 19 -11 31.5t-30 12.5t-30 -12.5
t-11 -31.5t11 -31t30 -12t30 12t11 31z" />
    <glyph glyph-name="uring" unicode="&#x16f;" horiz-adv-x="545" 
d="M380 480h90v-480h-86v70q-58 -80 -153 -80q-84 0 -125 66.5t-41 170.5v253h90v-250q0 -80 23.5 -123.5t82.5 -43.5q67 0 119 65v352zM275 719q41 0 64.5 -25t23.5 -59t-23.5 -58.5t-64.5 -24.5t-64.5 24.5t-23.5 58.5t23.5 59t64.5 25zM316 635q0 19 -11 31.5t-30 12.5
t-30 -12.5t-11 -31.5t11 -31t30 -12t30 12t11 31z" />
    <glyph glyph-name="Uhungarumlaut" unicode="&#x170;" horiz-adv-x="674" 
d="M506 232v434h92v-430q0 -108 -69 -178t-192 -70t-192 70t-69 178v430h92v-434q0 -77 44 -123t125 -46t125 46t44 123zM276 729h-71l45 114h91zM454 729h-71l45 114h91z" />
    <glyph glyph-name="uhungarumlaut" unicode="&#x171;" horiz-adv-x="545" 
d="M380 480h90v-480h-86v70q-58 -80 -153 -80q-84 0 -125 66.5t-41 170.5v253h90v-250q0 -80 23.5 -123.5t82.5 -43.5q67 0 119 65v352zM214 555h-72l57 160h92zM389 555h-72l57 160h92z" />
    <glyph glyph-name="Uogonek" unicode="&#x172;" horiz-adv-x="674" 
d="M455 -149l9 -50q-32 -17 -78 -17q-44 0 -71.5 24.5t-27.5 65.5q0 68 86 116q-22 -2 -36 -2q-123 0 -192 70t-69 178v430h92v-434q0 -77 44 -123t125 -46t125 46t44 123v434h92v-430q0 -122 -85 -192q-15 -13 -42 -33.5t-41.5 -32.5t-31 -29t-24 -32.5t-7.5 -31.5
q0 -43 43 -43q23 0 45 9z" />
    <glyph glyph-name="uogonek" unicode="&#x173;" horiz-adv-x="545" 
d="M460 -149l9 -50q-32 -17 -78 -17q-44 0 -71.5 24.5t-27.5 65.5q0 71 92 126v70q-58 -80 -153 -80q-84 0 -125 66.5t-41 170.5v253h90v-250q0 -80 23.5 -123.5t82.5 -43.5q67 0 119 65v352h90v-480q-7 -5 -22 -16t-21.5 -16t-17.5 -14.5t-16 -16t-11 -15.5t-8 -18t-2 -19
q0 -43 43 -43q23 0 45 9z" />
    <glyph glyph-name="Wcircumflex" unicode="&#x174;" horiz-adv-x="944" 
d="M524 666l160 -545l147 545h89l-190 -666h-91l-167 578l-167 -578h-91l-190 666h89l147 -545l160 545h104zM519 843l92 -114h-80l-59 75l-59 -75h-80l92 114h94z" />
    <glyph glyph-name="wcircumflex" unicode="&#x175;" horiz-adv-x="754" 
d="M426 480l122 -374l101 374h85l-142 -480h-84l-131 403l-131 -403h-84l-142 480h85l101 -374l122 374h98zM420 715l107 -160h-80l-70 110l-70 -110h-80l107 160h86z" />
    <glyph glyph-name="Ycircumflex" unicode="&#x176;" horiz-adv-x="540" 
d="M270 348l167 318h98l-219 -403v-263h-92v263l-219 403h98zM317 843l92 -114h-80l-59 75l-59 -75h-80l92 114h94z" />
    <glyph glyph-name="ycircumflex" unicode="&#x177;" horiz-adv-x="460" 
d="M205 -206h-88l71 201l-176 485h93l126 -393l124 393h93zM281 715l107 -160h-80l-70 110l-70 -110h-80l107 160h86z" />
    <glyph glyph-name="Ydieresis" unicode="&#x178;" horiz-adv-x="540" 
d="M270 348l167 318h98l-219 -403v-263h-92v263l-219 403h98zM224 789q0 -23 -14.5 -37t-38.5 -14t-38.5 14t-14.5 37t14.5 37t38.5 14t38.5 -14t14.5 -37zM421 789q0 -23 -14.5 -37t-38.5 -14t-38.5 14t-14.5 37t14.5 37t38.5 14t38.5 -14t14.5 -37z" />
    <glyph glyph-name="Zacute" unicode="&#x179;" horiz-adv-x="540" 
d="M63 592v74h430v-74l-345 -518h352v-74h-450v74l345 518h-332zM289 729h-75l84 114h106z" />
    <glyph glyph-name="zacute" unicode="&#x17a;" horiz-adv-x="452" 
d="M412 0h-357v70l248 340h-239v70h337v-70l-248 -340h259v-70zM257 555h-76l74 160h100z" />
    <glyph glyph-name="Zdotaccent" unicode="&#x17b;" horiz-adv-x="540" 
d="M63 592v74h430v-74l-345 -518h352v-74h-450v74l345 518h-332zM224 795q0 24 16 40.5t41 16.5t41 -16.5t16 -40.5t-16 -40.5t-41 -16.5t-41 16.5t-16 40.5z" />
    <glyph glyph-name="zdotaccent" unicode="&#x17c;" horiz-adv-x="452" 
d="M412 0h-357v70l248 340h-239v70h337v-70l-248 -340h259v-70zM182 622q0 24 16 40.5t41 16.5t41 -16.5t16 -40.5t-16 -40.5t-41 -16.5t-41 16.5t-16 40.5z" />
    <glyph glyph-name="Zcaron" unicode="&#x17d;" horiz-adv-x="540" 
d="M63 592v74h430v-74l-345 -518h352v-74h-450v74l345 518h-332zM430 843l-92 -114h-94l-92 114h80l59 -75l59 75h80z" />
    <glyph glyph-name="zcaron" unicode="&#x17e;" horiz-adv-x="452" 
d="M412 0h-357v70l248 340h-239v70h337v-70l-248 -340h259v-70zM391 715l-107 -160h-86l-107 160h80l70 -110l70 110h80z" />
    <glyph glyph-name="florin" unicode="&#x192;" 
d="M224 341h-99v72h105l3 34q11 123 56 176t132 53q46 0 86 -14l-9 -69q-33 10 -69 10q-51 0 -74.5 -34t-31.5 -124l-3 -32h121v-72h-127l-16 -180q-4 -49 -9 -81t-18.5 -74t-33 -67t-54.5 -43t-83 -18q-50 0 -90 15l9 70q38 -12 72 -12q28 0 48 11t31.5 26.5t19.5 46.5
t11 55.5t7 69.5z" />
    <glyph glyph-name="Aringacute" unicode="&#x1fa;" horiz-adv-x="676" 
d="M338 810q42 0 65 -25t23 -59q0 -47 -39 -71l261 -655h-94l-61 161h-311l-60 -161h-94l261 655q-39 25 -39 71q0 34 23 59t65 25zM338 582l-128 -347h256zM379 726q0 19 -10.5 31.5t-30.5 12.5t-30.5 -12.5t-10.5 -31.5t11 -31.5t30 -12.5t30 12.5t11 31.5zM379 841h-74
l50 92h105z" />
    <glyph glyph-name="aringacute" unicode="&#x1fb;" horiz-adv-x="501" 
d="M345 0v60q-23 -29 -66 -49.5t-94 -20.5q-60 0 -98.5 36.5t-38.5 96.5q0 64 45 99t126 40q57 4 124 4v21q0 130 -112 130q-65 0 -127 -34l-21 66q68 41 164 41q86 0 136 -52.5t50 -148.5v-289h-88zM211 56q75 0 132 62v89q-55 -3 -108 -9q-100 -11 -100 -75q0 -67 76 -67z
M252 712q41 0 64.5 -25t23.5 -59t-23.5 -58.5t-64.5 -24.5t-64.5 24.5t-23.5 58.5t23.5 59t64.5 25zM293 628q0 19 -11 31.5t-30 12.5t-30 -12.5t-11 -31.5t11 -31t30 -12t30 12t11 31zM293 757h-72l50 92h103z" />
    <glyph glyph-name="AEacute" unicode="&#x1fc;" horiz-adv-x="879" 
d="M818 666v-75h-318l27 -213h267v-75h-257l29 -228h255v-75h-330l-20 160h-280l-89 -160h-97l384 666h429zM420 577l-187 -343h228zM509 729h-75l84 114h106z" />
    <glyph glyph-name="aeacute" unicode="&#x1fd;" horiz-adv-x="800" 
d="M567 490q89 0 138 -55.5t49 -141.5q0 -37 -11 -81h-303q5 -151 152 -151q73 0 140 32l17 -66q-70 -37 -164 -37q-118 0 -181 76q-88 -76 -198 -76q-67 0 -109 37.5t-42 95.5q0 135 166 148q35 3 127 5v21q0 59 -29 89.5t-83 30.5q-58 0 -124 -33l-18 68q66 38 152 38
q109 0 158 -78q60 78 163 78zM224 56q84 0 148 59q-18 39 -23 94q-81 -2 -117 -5q-92 -7 -92 -77q0 -71 84 -71zM565 423q-57 0 -89.5 -39t-35.5 -103h226q2 18 2 27q0 53 -26.5 84t-76.5 31zM443 555h-76l74 160h100z" />
    <glyph glyph-name="Oslashacute" unicode="&#x1fe;" horiz-adv-x="746" 
d="M373 -12q-110 0 -191 57l-87 -109l-46 37l89 111q-90 98 -90 249q0 146 87 245.5t238 99.5q111 0 192 -59l88 111l46 -38l-90 -113q89 -97 89 -246q0 -146 -87 -245.5t-238 -99.5zM140 333q0 -110 51 -182l324 406q-60 47 -142 47q-111 0 -172 -76.5t-61 -194.5zM373 62
q111 0 172 76.5t61 194.5q0 108 -50 179l-324 -404q59 -46 141 -46zM394 729h-75l84 114h106z" />
    <glyph glyph-name="oslashacute" unicode="&#x1ff;" horiz-adv-x="556" 
d="M45 -31l66 89q-66 71 -66 182q0 106 63 178t170 72q71 0 126 -35l64 87l43 -31l-66 -90q66 -71 66 -181q0 -106 -63 -178t-170 -72q-71 0 -127 35l-64 -87zM421 240q0 66 -27 113l-197 -266q35 -24 81 -24q69 0 106 49.5t37 127.5zM135 240q0 -66 27 -113l196 266
q-35 24 -80 24q-69 0 -106 -49.5t-37 -127.5zM308 555h-76l74 160h100z" />
    <glyph glyph-name="Scommaaccent" unicode="&#x218;" horiz-adv-x="501" 
d="M464 173q0 -84 -67 -134.5t-167 -50.5q-108 0 -191 40l18 73q83 -39 171 -39q66 0 105.5 28t39.5 79q0 22 -9 41.5t-18.5 31t-34 27t-37.5 21.5t-47 22q-83 39 -128.5 81t-45.5 110q0 85 57.5 130t154.5 45q98 0 173 -40l-17 -73q-76 39 -156 39q-121 0 -121 -94
q0 -40 24 -63.5t92 -56.5q39 -19 55.5 -27.5t51.5 -31.5t51.5 -42t31 -50t14.5 -66zM223 -250l-63 27q37 81 40 152h86q-3 -47 -20.5 -96t-42.5 -83z" />
    <glyph glyph-name="scommaaccent" unicode="&#x219;" horiz-adv-x="418" 
d="M383 137q0 -66 -54 -106.5t-137 -40.5q-87 0 -148 29l15 71q66 -29 134 -29q45 0 73.5 16.5t28.5 48.5q0 29 -24.5 47.5t-71.5 36.5q-32 13 -53 23.5t-45.5 28.5t-37 42t-12.5 54q0 66 49.5 99t121.5 33q77 0 139 -32l-15 -68q-63 29 -124 29q-83 0 -83 -56q0 -9 4.5 -18
t10 -14.5t17 -12.5t18 -10.5t21 -10t19.5 -8.5q2 -1 23 -10t33.5 -15t33.5 -20t33 -28t21.5 -35t9.5 -44zM192 -250l-63 27q37 81 40 152h86q-3 -47 -20.5 -96t-42.5 -83z" />
    <glyph glyph-name="circumflex" unicode="&#x2c6;" horiz-adv-x="530" 
d="M308 715l107 -160h-80l-70 110l-70 -110h-80l107 160h86z" />
    <glyph glyph-name="caron" unicode="&#x2c7;" horiz-adv-x="530" 
d="M415 715l-107 -160h-86l-107 160h80l70 -110l70 110h80z" />
    <glyph glyph-name="breve" unicode="&#x2d8;" horiz-adv-x="524" 
d="M343 706l66 -14q-11 -66 -50.5 -100.5t-96.5 -34.5t-96.5 34.5t-50.5 100.5l66 14q15 -87 81 -87t81 87z" />
    <glyph glyph-name="dotaccent" unicode="&#x2d9;" horiz-adv-x="344" 
d="M115 622q0 24 16 40.5t41 16.5t41 -16.5t16 -40.5t-16 -40.5t-41 -16.5t-41 16.5t-16 40.5z" />
    <glyph glyph-name="ring" unicode="&#x2da;" horiz-adv-x="406" 
d="M203 719q41 0 64.5 -25t23.5 -59t-23.5 -58.5t-64.5 -24.5t-64.5 24.5t-23.5 58.5t23.5 59t64.5 25zM244 635q0 19 -11 31.5t-30 12.5t-30 -12.5t-11 -31.5t11 -31t30 -12t30 12t11 31z" />
    <glyph glyph-name="ogonek" unicode="&#x2db;" horiz-adv-x="404" 
d="M279 -149l9 -50q-32 -17 -78 -17q-44 0 -71.5 24.5t-27.5 65.5q0 30 17.5 57.5t33 40t39.5 28.5h88q-7 -5 -22 -16t-21.5 -16t-17.5 -14.5t-16 -16t-11 -15.5t-8 -18t-2 -19q0 -43 43 -43q23 0 45 9z" />
    <glyph glyph-name="tilde" unicode="&#x2dc;" horiz-adv-x="562" 
d="M350 567q-21 0 -80 28q-40 19 -53 19q-18 0 -27 -11t-21 -40l-54 22q13 50 36.5 73.5t65.5 23.5q29 0 71 -22q5 -3 15.5 -8.5t16.5 -8.5t14 -5.5t15 -2.5q11 0 20 7.5t13.5 15t11.5 23.5l53 -25q-18 -45 -40.5 -67t-56.5 -22z" />
    <glyph glyph-name="hungarumlaut" unicode="&#x2dd;" horiz-adv-x="554" 
d="M187 555h-72l57 160h92zM362 555h-72l57 160h92z" />
    <glyph glyph-name="uni0312" unicode="&#x312;" horiz-adv-x="342" 
d="M166 725l61 -27q-28 -57 -30 -143l-84 4q1 98 53 166z" />
    <glyph glyph-name="uni0315" unicode="&#x315;" horiz-adv-x="360" 
d="M172 474l-57 27q44 96 50 205l80 -8q-8 -127 -73 -224z" />
    <glyph glyph-name="uni0326" unicode="&#x326;" horiz-adv-x="352" 
d="M176 -250l-63 27q37 81 40 152h86q-3 -47 -20.5 -96t-42.5 -83z" />
    <glyph glyph-name="Omega" unicode="&#x3a9;" horiz-adv-x="780" 
d="M715 367q0 -92 -41.5 -169t-111.5 -125h132v-73h-235v73q166 110 166 290q0 111 -65.5 176.5t-169.5 65.5t-169.5 -65.5t-65.5 -176.5q0 -180 166 -290v-73h-235v73h132q-70 48 -111.5 125t-41.5 169q0 140 92 225.5t233 85.5t233 -85.5t92 -225.5z" />
    <glyph glyph-name="pi" unicode="&#x3c0;" horiz-adv-x="699" 
d="M659 408h-122q-53 -111 -53 -210q0 -136 103 -136q22 0 51 9l7 -68q-31 -13 -79 -13q-83 0 -126 59.5t-43 145.5q0 103 56 213h-200v-33q0 -182 -73 -375h-92q76 204 76 377v31h-114v72h609v-72z" />
    <glyph glyph-name="Wgrave" unicode="&#x1e80;" horiz-adv-x="944" 
d="M524 666l160 -545l147 545h89l-190 -666h-91l-167 578l-167 -578h-91l-190 666h89l147 -545l160 545h104zM509 729h-75l-115 114h106z" />
    <glyph glyph-name="wgrave" unicode="&#x1e81;" horiz-adv-x="754" 
d="M426 480l122 -374l101 374h85l-142 -480h-84l-131 403l-131 -403h-84l-142 480h85l101 -374l122 374h98zM414 555h-76l-98 160h100z" />
    <glyph glyph-name="Wacute" unicode="&#x1e82;" horiz-adv-x="944" 
d="M524 666l160 -545l147 545h89l-190 -666h-91l-167 578l-167 -578h-91l-190 666h89l147 -545l160 545h104zM512 729h-75l84 114h106z" />
    <glyph glyph-name="wacute" unicode="&#x1e83;" horiz-adv-x="754" 
d="M426 480l122 -374l101 374h85l-142 -480h-84l-131 403l-131 -403h-84l-142 480h85l101 -374l122 374h98zM416 555h-76l74 160h100z" />
    <glyph glyph-name="Wdieresis" unicode="&#x1e84;" horiz-adv-x="944" 
d="M524 666l160 -545l147 545h89l-190 -666h-91l-167 578l-167 -578h-91l-190 666h89l147 -545l160 545h104zM426 789q0 -23 -14.5 -37t-38.5 -14t-38.5 14t-14.5 37t14.5 37t38.5 14t38.5 -14t14.5 -37zM623 789q0 -23 -14.5 -37t-38.5 -14t-38.5 14t-14.5 37t14.5 37
t38.5 14t38.5 -14t14.5 -37z" />
    <glyph glyph-name="wdieresis" unicode="&#x1e85;" horiz-adv-x="754" 
d="M426 480l122 -374l101 374h85l-142 -480h-84l-131 403l-131 -403h-84l-142 480h85l101 -374l122 374h98zM340 632q0 -23 -15 -38.5t-39 -15.5t-39 15.5t-15 38.5t15 38.5t39 15.5t39 -15.5t15 -38.5zM521 632q0 -23 -15 -38.5t-39 -15.5t-39 15.5t-15 38.5t15 38.5
t39 15.5t39 -15.5t15 -38.5z" />
    <glyph glyph-name="Ygrave" unicode="&#x1ef2;" horiz-adv-x="540" 
d="M270 348l167 318h98l-219 -403v-263h-92v263l-219 403h98zM322 729h-75l-115 114h106z" />
    <glyph glyph-name="ygrave" unicode="&#x1ef3;" horiz-adv-x="460" 
d="M205 -206h-88l71 201l-176 485h93l126 -393l124 393h93zM283 555h-76l-98 160h100z" />
    <glyph glyph-name="endash" unicode="&#x2013;" horiz-adv-x="519" 
d="M454 276h-389v73h389v-73z" />
    <glyph glyph-name="emdash" unicode="&#x2014;" horiz-adv-x="769" 
d="M714 220h-659v75h659v-75z" />
    <glyph glyph-name="quoteleft" unicode="&#x2018;" horiz-adv-x="243" 
d="M145 706l58 -29q-50 -108 -56 -223l-82 8q6 134 80 244z" />
    <glyph glyph-name="quoteright" unicode="&#x2019;" horiz-adv-x="243" 
d="M113 454l-58 29q50 108 56 223l82 -8q-6 -134 -80 -244z" />
    <glyph glyph-name="quotesinglbase" unicode="&#x201a;" horiz-adv-x="248" 
d="M98 -145l-58 29q50 108 56 223l82 -8q-6 -134 -80 -244z" />
    <glyph glyph-name="quotedblleft" unicode="&#x201c;" horiz-adv-x="432" 
d="M140 706l58 -29q-50 -108 -56 -223l-82 8q6 134 80 244zM329 706l58 -29q-50 -108 -56 -223l-82 8q6 134 80 244z" />
    <glyph glyph-name="quotedblright" unicode="&#x201d;" horiz-adv-x="432" 
d="M302 454l-58 29q50 108 56 223l82 -8q-6 -134 -80 -244zM113 454l-58 29q50 108 56 223l82 -8q-6 -134 -80 -244z" />
    <glyph glyph-name="quotedblbase" unicode="&#x201e;" horiz-adv-x="437" 
d="M287 -145l-58 29q50 108 56 223l82 -8q-6 -134 -80 -244zM98 -145l-58 29q50 108 56 223l82 -8q-6 -134 -80 -244z" />
    <glyph glyph-name="dagger" unicode="&#x2020;" horiz-adv-x="462" 
d="M254 116h-46l-22 289l19 105l-83 -17h-57v75h57l83 -18l-19 106v50h90v-50l-19 -106l83 18h57v-75h-57l-83 17l19 -105z" />
    <glyph glyph-name="daggerdbl" unicode="&#x2021;" horiz-adv-x="472" 
d="M281 405v-104l-19 -105l83 17h57v-75h-57l-83 18l19 -106v-50h-90v50l19 106l-83 -18h-57v75h57l83 -17l-19 105v104l19 105l-83 -17h-57v75h57l83 -18l-19 106v50h90v-50l-19 -106l83 18h57v-75h-57l-83 17z" />
    <glyph glyph-name="bullet" unicode="&#x2022;" horiz-adv-x="400" 
d="M325 284q0 -52 -36 -89t-89 -37t-89 37t-36 89t36 89t89 37t89 -37t36 -89z" />
    <glyph glyph-name="ellipsis" unicode="&#x2026;" horiz-adv-x="768" 
d="M186 51q0 -25 -16 -41.5t-42 -16.5t-42 16.5t-16 41.5t16 41.5t42 16.5t42 -16.5t16 -41.5zM442 51q0 -25 -16 -41.5t-42 -16.5t-42 16.5t-16 41.5t16 41.5t42 16.5t42 -16.5t16 -41.5zM698 51q0 -25 -16 -41.5t-42 -16.5t-42 16.5t-16 41.5t16 41.5t42 16.5t42 -16.5
t16 -41.5z" />
    <glyph glyph-name="perthousand" unicode="&#x2030;" horiz-adv-x="1309" 
d="M266 20l314 658l66 -31l-315 -659zM391 483q0 -80 -45 -137t-123 -57t-123 57t-45 137t45 137.5t123 57.5t123 -57.5t45 -137.5zM132 483q0 -56 22.5 -93t68.5 -37t68.5 37t22.5 93q0 55 -23 93t-68 38t-68 -38t-23 -93zM856 182q0 -80 -45 -137t-123 -57t-123 57
t-45 137t45 137.5t123 57.5t123 -57.5t45 -137.5zM597 182q0 -56 22.5 -93t68.5 -37t68.5 37t22.5 93q0 55 -23 93t-68 38t-68 -38t-23 -93zM1254 182q0 -80 -45 -137t-123 -57t-123 57t-45 137t45 137.5t123 57.5t123 -57.5t45 -137.5zM995 182q0 -56 22.5 -93t68.5 -37
t68.5 37t22.5 93q0 55 -23 93t-68 38t-68 -38t-23 -93z" />
    <glyph glyph-name="guilsinglleft" unicode="&#x2039;" horiz-adv-x="346" 
d="M145 241l131 -162l-59 -46l-167 208l167 208l59 -46z" />
    <glyph glyph-name="guilsinglright" unicode="&#x203a;" horiz-adv-x="346" 
d="M70 79l131 162l-131 162l59 46l167 -208l-167 -208z" />
    <glyph glyph-name="fraction" unicode="&#x2044;" horiz-adv-x="223" 
d="M-95 21l353 657l60 -32l-353 -658z" />
    <glyph glyph-name="uni2070" unicode="&#x2070;" horiz-adv-x="401" 
d="M366 617q0 -89 -42.5 -148t-123.5 -59t-123 58.5t-42 148.5t42 148.5t123 58.5t123.5 -59t42.5 -148zM288 617q0 145 -88 145q-87 0 -87 -145t87 -145q88 0 88 145z" />
    <glyph glyph-name="uni2074" unicode="&#x2074;" horiz-adv-x="387" 
d="M365 520h-63v-100h-74v100h-185l-16 52l198 242h77v-235h63v-59zM228 579v155l-122 -155h122z" />
    <glyph glyph-name="uni2075" unicode="&#x2075;" horiz-adv-x="353" 
d="M321 535q0 -58 -47 -91.5t-116 -33.5q-65 0 -113 19l11 60q50 -18 99 -18q40 0 65 15.5t25 44.5q0 61 -105 61h-74v222h231v-62h-156v-98h18q70 0 116 -30.5t46 -88.5z" />
    <glyph glyph-name="uni2076" unicode="&#x2076;" horiz-adv-x="377" 
d="M274 824l20 -57q-81 -28 -123.5 -61t-53.5 -87q43 40 105 40q53 0 90 -31.5t37 -87.5q0 -53 -42 -91.5t-107 -38.5q-72 0 -115 48t-43 115q0 184 232 251zM279 537q0 32 -21 49.5t-52 17.5q-55 0 -90 -39q0 -43 23.5 -70.5t61.5 -27.5q35 0 56.5 19.5t21.5 50.5z" />
    <glyph glyph-name="uni2077" unicode="&#x2077;" horiz-adv-x="339" 
d="M307 814l12 -55l-193 -339h-78l191 332h-199v62h267z" />
    <glyph glyph-name="uni2078" unicode="&#x2078;" horiz-adv-x="385" 
d="M40 519q0 66 94 105q-79 40 -79 101q0 45 38 72t99 27t99.5 -27t38.5 -72q0 -58 -81 -97q96 -42 96 -109q0 -48 -46 -78.5t-107 -30.5q-70 0 -111 29t-41 80zM272 521q0 42 -80 74q-27 -13 -40.5 -21t-26 -23t-12.5 -32q0 -25 21 -40t58 -15q35 0 57.5 16t22.5 41z
M125 724q0 -41 67 -70q68 32 68 71q0 20 -18 33.5t-50 13.5q-31 0 -49 -13.5t-18 -34.5z" />
    <glyph glyph-name="uni2079" unicode="&#x2079;" horiz-adv-x="383" 
d="M111 410l-20 57q156 51 177 148q-43 -40 -105 -40q-53 0 -90 31.5t-37 87.5q0 57 41.5 93.5t107.5 36.5q72 0 115 -48t43 -115q0 -184 -232 -251zM106 695q0 -32 20 -48.5t53 -16.5q55 0 90 39q0 43 -23.5 70.5t-61.5 27.5q-34 0 -56 -19.5t-22 -52.5z" />
    <glyph glyph-name="uni207A" unicode="&#x207a;" horiz-adv-x="444" 
d="M384 588h-126v-124h-72v124h-126v65h126v124h72v-124h126v-65z" />
    <glyph glyph-name="uni207B" unicode="&#x207b;" horiz-adv-x="422" 
d="M55 588v65h312v-65h-312z" />
    <glyph glyph-name="uni207C" unicode="&#x207c;" horiz-adv-x="444" 
d="M65 660v64h314v-64h-314zM65 517v64h314v-64h-314z" />
    <glyph glyph-name="uni207D" unicode="&#x207d;" horiz-adv-x="246" 
d="M138 618q0 -110 78 -223l-50 -36q-106 124 -106 259t106 259l50 -36q-78 -113 -78 -223z" />
    <glyph glyph-name="uni207E" unicode="&#x207e;" horiz-adv-x="246" 
d="M108 618q0 110 -78 223l50 36q106 -124 106 -259t-106 -259l-50 36q78 113 78 223z" />
    <glyph glyph-name="uni207F" unicode="&#x207f;" horiz-adv-x="425" 
d="M138 420h-78v340h74v-51q41 59 112 59q62 0 94 -47t32 -119v-182h-78v175q0 111 -75 111q-46 0 -81 -42v-244z" />
    <glyph glyph-name="uni2080" unicode="&#x2080;" horiz-adv-x="401" 
d="M366 37q0 -89 -42.5 -148t-123.5 -59t-123 58.5t-42 148.5t42 148.5t123 58.5t123.5 -59t42.5 -148zM288 37q0 145 -88 145q-87 0 -87 -145t87 -145q88 0 88 145z" />
    <glyph glyph-name="uni2081" unicode="&#x2081;" horiz-adv-x="277" 
d="M212 -160h-78v316l-101 -33l-18 61l143 50h54v-394z" />
    <glyph glyph-name="uni2082" unicode="&#x2082;" horiz-adv-x="354" 
d="M73 157l-18 58q53 29 116 29q65 0 102.5 -33t37.5 -88q0 -51 -29.5 -90.5t-85.5 -83.5q-13 -10 -33.5 -25.5t-27.5 -21.5h189v-62h-281l-15 50q15 12 38.5 31.5t43 35.5t37.5 32q28 24 43.5 40t29 40.5t13.5 48.5q0 31 -18.5 47.5t-53.5 16.5q-40 0 -88 -25z" />
    <glyph glyph-name="uni2083" unicode="&#x2083;" horiz-adv-x="348" 
d="M308 -54q0 -52 -43 -84t-113 -32q-62 0 -112 25l13 57q47 -21 92 -21q40 0 62.5 15t22.5 42q0 61 -98 61h-48v62h43q44 0 69 17t25 45q0 50 -70 50q-43 0 -86 -20l-14 57q48 24 114 24q57 0 95 -27t38 -73q0 -70 -79 -100q40 -10 64.5 -36.5t24.5 -61.5z" />
    <glyph glyph-name="uni2084" unicode="&#x2084;" horiz-adv-x="387" 
d="M365 -60h-63v-100h-74v100h-185l-16 52l198 242h77v-235h63v-59zM228 -1v155l-122 -155h122z" />
    <glyph glyph-name="uni2085" unicode="&#x2085;" horiz-adv-x="353" 
d="M321 -45q0 -58 -47 -91.5t-116 -33.5q-65 0 -113 19l11 60q50 -18 99 -18q40 0 65 15.5t25 44.5q0 61 -105 61h-74v222h231v-62h-156v-98h18q70 0 116 -30.5t46 -88.5z" />
    <glyph glyph-name="uni2086" unicode="&#x2086;" horiz-adv-x="377" 
d="M274 244l20 -57q-81 -28 -123.5 -61t-53.5 -87q43 40 105 40q53 0 90 -31.5t37 -87.5q0 -53 -42 -91.5t-107 -38.5q-72 0 -115 48t-43 115q0 184 232 251zM279 -43q0 32 -21 49.5t-52 17.5q-55 0 -90 -39q0 -43 23.5 -70.5t61.5 -27.5q35 0 56.5 19.5t21.5 50.5z" />
    <glyph glyph-name="uni2087" unicode="&#x2087;" horiz-adv-x="339" 
d="M307 234l12 -55l-193 -339h-78l191 332h-199v62h267z" />
    <glyph glyph-name="uni2088" unicode="&#x2088;" horiz-adv-x="385" 
d="M40 -61q0 66 94 105q-79 40 -79 101q0 45 38 72t99 27t99.5 -27t38.5 -72q0 -58 -81 -97q96 -42 96 -109q0 -48 -46 -78.5t-107 -30.5q-70 0 -111 29t-41 80zM272 -59q0 42 -80 74q-27 -13 -40.5 -21t-26 -23t-12.5 -32q0 -25 21 -40t58 -15q35 0 57.5 16t22.5 41z
M125 144q0 -41 67 -70q68 32 68 71q0 20 -18 33.5t-50 13.5q-31 0 -49 -13.5t-18 -34.5z" />
    <glyph glyph-name="uni2089" unicode="&#x2089;" horiz-adv-x="383" 
d="M111 -170l-20 57q156 51 177 148q-43 -40 -105 -40q-53 0 -90 31.5t-37 87.5q0 57 41.5 93.5t107.5 36.5q72 0 115 -48t43 -115q0 -184 -232 -251zM106 115q0 -32 20 -48.5t53 -16.5q55 0 90 39q0 43 -23.5 70.5t-61.5 27.5q-34 0 -56 -19.5t-22 -52.5z" />
    <glyph glyph-name="uni208A" unicode="&#x208a;" horiz-adv-x="444" 
d="M384 8h-126v-124h-72v124h-126v65h126v124h72v-124h126v-65z" />
    <glyph glyph-name="uni208B" unicode="&#x208b;" horiz-adv-x="422" 
d="M55 8v65h312v-65h-312z" />
    <glyph glyph-name="uni208C" unicode="&#x208c;" horiz-adv-x="444" 
d="M65 80v64h314v-64h-314zM65 -63v64h314v-64h-314z" />
    <glyph glyph-name="uni208D" unicode="&#x208d;" horiz-adv-x="246" 
d="M138 38q0 -110 78 -223l-50 -36q-106 124 -106 259t106 259l50 -36q-78 -113 -78 -223z" />
    <glyph glyph-name="uni208E" unicode="&#x208e;" horiz-adv-x="246" 
d="M108 38q0 110 -78 223l50 36q106 -124 106 -259t-106 -259l-50 36q78 113 78 223z" />
    <glyph glyph-name="Euro" unicode="&#x20ac;" horiz-adv-x="590" 
d="M405 678q73 0 125 -21l-11 -67q-43 17 -106 17q-146 0 -181 -152h251v-61h-261q-2 -20 -2 -61q0 -42 2 -61h261v-61h-251q35 -152 181 -152q63 0 106 17l11 -67q-52 -21 -125 -21q-104 0 -170 58.5t-90 164.5h-100v61h91q-3 28 -3 61q0 31 3 61h-91v61h100q24 105 90 164
t170 59z" />
    <glyph glyph-name="uni2113" unicode="&#x2113;" horiz-adv-x="510" 
d="M15 255q46 19 115 52v183q0 226 174 226q69 0 109 -43.5t40 -116.5q0 -165 -233 -282v-103q0 -54 18 -81t63 -27q59 0 120 37l23 -66q-70 -44 -154 -44q-78 0 -119 48t-41 128v64q-12 -6 -41 -18t-47 -20zM220 496v-144q153 84 150 199q-1 44 -20 69t-50 25
q-46 0 -63 -36t-17 -113z" />
    <glyph glyph-name="uni2116" unicode="&#x2116;" horiz-adv-x="1069" 
d="M1013 498q0 -74 -48.5 -126t-128.5 -52t-128.5 52t-48.5 126t48.5 126t128.5 52t128.5 -52t48.5 -126zM736 498q0 -50 27 -83t73 -33t73 33t27 83t-27 83t-73 33t-73 -33t-27 -83zM674 198v62h325v-62h-325zM553 0h-83l-307 514v-514h-83v666h83l307 -514v514h83v-666z
" />
    <glyph glyph-name="published" unicode="&#x2117;" horiz-adv-x="834" 
d="M572 407q0 -57 -45 -91t-116 -34h-20v-137h-67v376h98q65 0 107.5 -30t42.5 -84zM505 404q0 60 -93 60h-21v-126h16q98 0 98 66zM764 333q0 -145 -97.5 -245t-249.5 -100t-249.5 100t-97.5 245t97 245t250 100t250 -100t97 -245zM109 333q0 -129 86 -220t222 -91t222 91
t86 220t-86 220t-222 91t-222 -91t-86 -220z" />
    <glyph glyph-name="trademark" unicode="&#x2122;" horiz-adv-x="715" 
d="M40 666h236v-46h-90v-267h-56v267h-90v46zM463 412l-73 161l-15 -220h-54l23 313h58l91 -206l91 206h58l23 -313h-54l-15 220l-73 -161h-60z" />
    <glyph glyph-name="estimated" unicode="&#x212e;" horiz-adv-x="834" 
d="M774 321h-572v-221q88 -77 216 -77q85 0 154 29.5t136 93.5l24 -25q-142 -131 -315 -131q-153 0 -255 101t-102 252q0 141 105 237t252 96q145 0 251 -97t106 -235v-23zM417 643q-125 0 -215 -79v-211h430v211q-100 79 -215 79z" />
    <glyph glyph-name="onethird" unicode="&#x2153;" horiz-adv-x="856" 
d="M200 21l353 657l60 -32l-353 -658zM252 272h-78v316l-101 -33l-18 61l143 50h54v-394zM801 106q0 -52 -43 -84t-113 -32q-62 0 -112 25l13 57q47 -21 92 -21q40 0 62.5 15t22.5 42q0 61 -98 61h-48v62h43q44 0 69 17t25 45q0 50 -70 50q-43 0 -86 -20l-14 57
q48 24 114 24q57 0 95 -27t38 -73q0 -70 -79 -100q40 -10 64.5 -36.5t24.5 -61.5z" />
    <glyph glyph-name="twothirds" unicode="&#x2154;" horiz-adv-x="920" 
d="M266 21l353 657l60 -32l-353 -658zM865 106q0 -52 -43 -84t-113 -32q-62 0 -112 25l13 57q47 -21 92 -21q40 0 62.5 15t22.5 42q0 61 -98 61h-48v62h43q44 0 69 17t25 45q0 50 -70 50q-43 0 -86 -20l-14 57q48 24 114 24q57 0 95 -27t38 -73q0 -70 -79 -100
q40 -10 64.5 -36.5t24.5 -61.5zM97 589l-18 58q53 29 116 29q65 0 102.5 -33t37.5 -88q0 -51 -29.5 -90.5t-85.5 -83.5q-13 -10 -33.5 -25.5t-27.5 -21.5h189v-62h-281l-15 50q15 12 38.5 31.5t43 35.5t37.5 32q28 24 43.5 40t29 40.5t13.5 48.5q0 31 -18.5 47.5t-53.5 16.5
q-40 0 -88 -25z" />
    <glyph glyph-name="oneeighth" unicode="&#x215b;" horiz-adv-x="868" 
d="M200 21l353 657l60 -32l-353 -658zM252 272h-78v316l-101 -33l-18 61l143 50h54v-394zM508 99q0 66 94 105q-79 40 -79 101q0 45 38 72t99 27t99.5 -27t38.5 -72q0 -58 -81 -97q96 -42 96 -109q0 -48 -46 -78.5t-107 -30.5q-70 0 -111 29t-41 80zM740 101q0 42 -80 74
q-27 -13 -40.5 -21t-26 -23t-12.5 -32q0 -25 21 -40t58 -15q35 0 57.5 16t22.5 41zM593 304q0 -41 67 -70q68 32 68 71q0 20 -18 33.5t-50 13.5q-31 0 -49 -13.5t-18 -34.5z" />
    <glyph glyph-name="threeeighths" unicode="&#x215c;" horiz-adv-x="893" 
d="M533 99q0 66 94 105q-79 40 -79 101q0 45 38 72t99 27t99.5 -27t38.5 -72q0 -58 -81 -97q96 -42 96 -109q0 -48 -46 -78.5t-107 -30.5q-70 0 -111 29t-41 80zM765 101q0 42 -80 74q-27 -13 -40.5 -21t-26 -23t-12.5 -32q0 -25 21 -40t58 -15q35 0 57.5 16t22.5 41z
M618 304q0 -41 67 -70q68 32 68 71q0 20 -18 33.5t-50 13.5q-31 0 -49 -13.5t-18 -34.5zM227 21l353 657l60 -32l-353 -658zM338 378q0 -52 -43 -84t-113 -32q-62 0 -112 25l13 57q47 -21 92 -21q40 0 62.5 15t22.5 42q0 61 -98 61h-48v62h43q44 0 69 17t25 45q0 50 -70 50
q-43 0 -86 -20l-14 57q48 24 114 24q57 0 95 -27t38 -73q0 -70 -79 -100q40 -10 64.5 -36.5t24.5 -61.5z" />
    <glyph glyph-name="fiveeighths" unicode="&#x215d;" horiz-adv-x="909" 
d="M243 21l353 657l60 -32l-353 -658zM549 99q0 66 94 105q-79 40 -79 101q0 45 38 72t99 27t99.5 -27t38.5 -72q0 -58 -81 -97q96 -42 96 -109q0 -48 -46 -78.5t-107 -30.5q-70 0 -111 29t-41 80zM781 101q0 42 -80 74q-27 -13 -40.5 -21t-26 -23t-12.5 -32q0 -25 21 -40
t58 -15q35 0 57.5 16t22.5 41zM634 304q0 -41 67 -70q68 32 68 71q0 20 -18 33.5t-50 13.5q-31 0 -49 -13.5t-18 -34.5zM346 387q0 -58 -47 -91.5t-116 -33.5q-65 0 -113 19l11 60q49 -18 99 -18q40 0 65 15.5t25 44.5q0 61 -105 61h-74v222h231v-62h-156v-98h18
q70 0 116 -30.5t46 -88.5z" />
    <glyph glyph-name="seveneighths" unicode="&#x215e;" horiz-adv-x="846" 
d="M176 21l353 657l60 -32l-353 -658zM486 99q0 66 94 105q-79 40 -79 101q0 45 38 72t99 27t99.5 -27t38.5 -72q0 -58 -81 -97q96 -42 96 -109q0 -48 -46 -78.5t-107 -30.5q-70 0 -111 29t-41 80zM718 101q0 42 -80 74q-27 -13 -40.5 -21t-26 -23t-12.5 -32q0 -25 21 -40
t58 -15q35 0 57.5 16t22.5 41zM571 304q0 -41 67 -70q68 32 68 71q0 20 -18 33.5t-50 13.5q-31 0 -49 -13.5t-18 -34.5zM347 666l12 -55l-193 -339h-78l191 332h-199v62h267z" />
    <glyph glyph-name="arrowleft" unicode="&#x2190;" horiz-adv-x="982" 
d="M407 676l52 -52l-257 -256h685v-70h-685l257 -256l-52 -52l-342 343z" />
    <glyph glyph-name="arrowup" unicode="&#x2191;" horiz-adv-x="743" 
d="M335 0v537l-213 -214l-52 52l302 301l301 -300l-52 -52l-212 213v-537h-74z" />
    <glyph glyph-name="arrowright" unicode="&#x2192;" horiz-adv-x="982" 
d="M523 624l52 52l342 -343l-342 -343l-52 52l257 256h-685v70h685z" />
    <glyph glyph-name="arrowdown" unicode="&#x2193;" horiz-adv-x="743" 
d="M335 129v537h74v-537l212 213l52 -52l-301 -300l-302 301l52 52z" />
    <glyph glyph-name="partialdiff" unicode="&#x2202;" horiz-adv-x="574" 
d="M55 203q0 106 61.5 168t156.5 62q101 0 165 -70q-1 56 -11 104t-30 89t-55 65t-82 24q-61 0 -132 -45l-28 63q75 53 166 53q53 0 96.5 -20t73 -54.5t50 -81t29.5 -99t9 -110.5q0 -63 -17.5 -126t-50 -116.5t-85 -87t-115.5 -33.5q-90 0 -145.5 62t-55.5 153zM143 200
q0 -61 30 -100.5t85 -39.5q72 0 117.5 64t57.5 161q-66 76 -148 76q-67 0 -104.5 -42t-37.5 -119z" />
    <glyph glyph-name="Delta" unicode="&#x2206;" horiz-adv-x="702" 
d="M392 666l270 -666h-622l270 666h82zM546 71l-195 505l-195 -505h390z" />
    <glyph glyph-name="product" unicode="&#x220f;" horiz-adv-x="843" 
d="M268 593v-799h-89v799h-124v73h733v-73h-124v-799h-89v799h-307z" />
    <glyph glyph-name="summation" unicode="&#x2211;" horiz-adv-x="585" 
d="M403 230l-246 -363h373v-73h-470v73l247 363l-247 363v73h470v-73h-373z" />
    <glyph glyph-name="minus" unicode="&#x2212;" horiz-adv-x="558" 
d="M493 289h-428v68h428v-68z" />
    <glyph glyph-name="radical" unicode="&#x221a;" horiz-adv-x="743" 
d="M75 278l-25 70l184 70l180 -438l200 802h79l-226 -882h-96l-181 423z" />
    <glyph glyph-name="infinity" unicode="&#x221e;" horiz-adv-x="910" 
d="M455 269q-94 -112 -215 -112q-80 0 -130 46.5t-50 119.5t50 119.5t130 46.5q121 0 215 -112q94 112 215 112q80 0 130 -46.5t50 -119.5t-50 -119.5t-130 -46.5q-121 0 -215 112zM498 323q73 -99 164 -99q49 0 78 26.5t29 72.5t-29 72.5t-78 26.5q-91 0 -164 -99zM412 323
q-73 99 -164 99q-49 0 -78 -26.5t-29 -72.5t29 -72.5t78 -26.5q91 0 164 99z" />
    <glyph glyph-name="integral" unicode="&#x222b;" horiz-adv-x="443" 
d="M164 431q0 155 45.5 220t141.5 65q45 0 77 -12l-7 -68q-23 7 -55 7q-63 0 -87.5 -47.5t-24.5 -165.5v-347q0 -56 -5 -99.5t-18 -82t-33.5 -63.5t-53 -39.5t-75.5 -14.5q-33 0 -69 9l6 70q24 -6 48 -6q67 0 88.5 52.5t21.5 174.5v347z" />
    <glyph glyph-name="approxequal" unicode="&#x2248;" horiz-adv-x="609" 
d="M413 346q-45 0 -111 34q-56 29 -87 29q-43 0 -97 -46l-38 49q35 34 66.5 50.5t72.5 16.5q46 0 107 -33q56 -30 89 -30q36 0 89 41l35 -51q-63 -60 -126 -60zM413 167q-45 0 -111 34q-56 29 -87 29q-43 0 -97 -46l-38 49q35 34 66.5 50.5t72.5 16.5q46 0 107 -33
q56 -30 89 -30q36 0 89 41l35 -51q-63 -60 -126 -60z" />
    <glyph glyph-name="notequal" unicode="&#x2260;" horiz-adv-x="626" 
d="M87 395v68h271l72 125l54 -32l-54 -93h109v-68h-148l-83 -143h231v-68h-270l-72 -125l-54 32l53 93h-109v68h149l82 143h-231z" />
    <glyph glyph-name="lessequal" unicode="&#x2264;" horiz-adv-x="597" 
d="M65 0v68h462v-68h-462zM65 395l439 176l23 -66l-372 -143l372 -143l-23 -66l-439 176v66z" />
    <glyph glyph-name="greaterequal" unicode="&#x2265;" horiz-adv-x="597" 
d="M532 68v-68h-462v68h462zM93 571l439 -176v-66l-439 -176l-23 66l372 143l-372 143z" />
    <glyph glyph-name="lozenge" unicode="&#x25ca;" horiz-adv-x="576" 
d="M331 666l205 -333l-205 -333h-86l-205 333l205 333h86zM131 333l157 -261l157 261l-157 261z" />
    <glyph glyph-name="apple" unicode="&#xf8ff;" horiz-adv-x="831" 
d="M766 333h-333v-333h-333v666h666v-333z" />
    <glyph glyph-name="acute.case" horiz-adv-x="420" 
d="M190 729h-75l84 114h106z" />
    <glyph glyph-name="breve.case" horiz-adv-x="506" 
d="M329 855l62 -18q-13 -52 -50 -81.5t-88 -29.5t-88 29.5t-50 81.5l62 18q20 -69 76 -69t76 69z" />
    <glyph glyph-name="caron.case" horiz-adv-x="508" 
d="M393 843l-92 -114h-94l-92 114h80l59 -75l59 75h80z" />
    <glyph glyph-name="circumflex.case" horiz-adv-x="508" 
d="M301 843l92 -114h-80l-59 75l-59 -75h-80l92 114h94z" />
    <glyph glyph-name="dieresis.case" horiz-adv-x="533" 
d="M221 789q0 -23 -14.5 -37t-38.5 -14t-38.5 14t-14.5 37t14.5 37t38.5 14t38.5 -14t14.5 -37zM418 789q0 -23 -14.5 -37t-38.5 -14t-38.5 14t-14.5 37t14.5 37t38.5 14t38.5 -14t14.5 -37z" />
    <glyph glyph-name="dotaccent.case" horiz-adv-x="344" 
d="M115 795q0 24 16 40.5t41 16.5t41 -16.5t16 -40.5t-16 -40.5t-41 -16.5t-41 16.5t-16 40.5z" />
    <glyph glyph-name="grave.case" horiz-adv-x="420" 
d="M305 729h-75l-115 114h106z" />
    <glyph glyph-name="hungarumlaut.case" horiz-adv-x="544" 
d="M186 729h-71l45 114h91zM364 729h-71l45 114h91z" />
    <glyph glyph-name="macron.case" horiz-adv-x="519" 
d="M115 758v70h289v-70h-289z" />
    <glyph glyph-name="ring.case" horiz-adv-x="406" 
d="M203 896q41 0 64.5 -25t23.5 -59t-23.5 -58.5t-64.5 -24.5t-64.5 24.5t-23.5 58.5t23.5 59t64.5 25zM244 812q0 19 -11 31.5t-30 12.5t-30 -12.5t-11 -31.5t11 -31t30 -12t30 12t11 31z" />
    <glyph glyph-name="tilde.case" horiz-adv-x="576" 
d="M366 734q-16 0 -83 23q-54 18 -70 18q-12 0 -20.5 -6.5t-12.5 -14.5t-10 -24l-55 19q13 51 35 72.5t64 21.5q33 0 86 -20q55 -21 66 -21q15 0 23.5 10t17.5 31l54 -24q-16 -45 -37.5 -65t-57.5 -20z" />
    <glyph glyph-name="ampersand.salt" horiz-adv-x="680" 
d="M70 171q0 66 40.5 111t107.5 61q-57 20 -90 59.5t-33 96.5q0 87 61.5 133t172.5 46q104 0 182 -35l-16 -70q-76 32 -164 32q-148 0 -148 -111q0 -56 46.5 -87t128.5 -31h282v-71h-101v-271q-106 -46 -227 -46q-111 0 -176.5 48.5t-65.5 134.5zM316 56q82 0 142 23v226
h-102q-91 0 -144.5 -34t-53.5 -100q0 -57 41 -86t117 -29z" />
    <glyph glyph-name="g.salt" horiz-adv-x="543" 
d="M471 457v-436q0 -113 -59.5 -175t-178.5 -62q-81 0 -156 26l11 72q70 -25 143 -25q81 0 115.5 39.5t34.5 120.5v47q-51 -54 -137 -54q-93 0 -147.5 64.5t-54.5 170.5q0 111 66.5 178t187.5 67q90 0 175 -33zM266 81q66 0 115 45v280q-36 13 -84 13q-81 0 -123.5 -46.5
t-42.5 -128.5q0 -76 34 -119.5t101 -43.5z" />
    <glyph glyph-name="gcircumflex.salt" horiz-adv-x="543" 
d="M471 457v-436q0 -113 -59.5 -175t-178.5 -62q-81 0 -156 26l11 72q70 -25 143 -25q81 0 115.5 39.5t34.5 120.5v47q-51 -54 -137 -54q-93 0 -147.5 64.5t-54.5 170.5q0 111 66.5 178t187.5 67q90 0 175 -33zM266 81q66 0 115 45v280q-36 13 -84 13q-81 0 -123.5 -46.5
t-42.5 -128.5q0 -76 34 -119.5t101 -43.5zM328 715l107 -160h-80l-70 110l-70 -110h-80l107 160h86z" />
    <glyph glyph-name="gbreve.salt" horiz-adv-x="543" 
d="M471 457v-436q0 -113 -59.5 -175t-178.5 -62q-81 0 -156 26l11 72q70 -25 143 -25q81 0 115.5 39.5t34.5 120.5v47q-51 -54 -137 -54q-93 0 -147.5 64.5t-54.5 170.5q0 111 66.5 178t187.5 67q90 0 175 -33zM266 81q66 0 115 45v280q-36 13 -84 13q-81 0 -123.5 -46.5
t-42.5 -128.5q0 -76 34 -119.5t101 -43.5zM364 706l66 -14q-11 -66 -50.5 -100.5t-96.5 -34.5t-96.5 34.5t-50.5 100.5l66 14q7 -41 27.5 -64t53.5 -23t53.5 23t27.5 64z" />
    <glyph glyph-name="gdotaccent.salt" horiz-adv-x="543" 
d="M471 457v-436q0 -113 -59.5 -175t-178.5 -62q-81 0 -156 26l11 72q70 -25 143 -25q81 0 115.5 39.5t34.5 120.5v47q-51 -54 -137 -54q-93 0 -147.5 64.5t-54.5 170.5q0 111 66.5 178t187.5 67q90 0 175 -33zM266 81q66 0 115 45v280q-36 13 -84 13q-81 0 -123.5 -46.5
t-42.5 -128.5q0 -76 34 -119.5t101 -43.5zM222 622q0 24 16 40.5t41 16.5t41 -16.5t16 -40.5t-16 -40.5t-41 -16.5t-41 16.5t-16 40.5z" />
    <glyph glyph-name="gcommaaccent.salt" horiz-adv-x="543" 
d="M471 457v-436q0 -113 -59.5 -175t-178.5 -62q-81 0 -156 26l11 72q70 -25 143 -25q81 0 115.5 39.5t34.5 120.5v47q-51 -54 -137 -54q-93 0 -147.5 64.5t-54.5 170.5q0 111 66.5 178t187.5 67q90 0 175 -33zM266 81q66 0 115 45v280q-36 13 -84 13q-81 0 -123.5 -46.5
t-42.5 -128.5q0 -76 34 -119.5t101 -43.5zM284 725l61 -27q-28 -57 -30 -143l-84 4q1 98 53 166z" />
    <glyph glyph-name="parenleft.case" horiz-adv-x="337" 
d="M165 323q0 -212 117 -431l-66 -35q-141 229 -141 466t141 466l66 -35q-117 -219 -117 -431z" />
    <glyph glyph-name="parenright.case" horiz-adv-x="337" 
d="M172 323q0 212 -117 431l66 35q141 -229 141 -466t-141 -466l-66 35q117 219 117 431z" />
    <glyph glyph-name="bracketleft.case" horiz-adv-x="358" 
d="M298 -134h-198v912h198v-73h-108v-766h108v-73z" />
    <glyph glyph-name="bracketright.case" horiz-adv-x="358" 
d="M258 -134h-198v73h108v766h-108v73h198v-912z" />
    <glyph glyph-name="braceleft.case" horiz-adv-x="401" 
d="M241 175v-124q0 -59 19 -85t67 -26h24v-73h-23q-91 0 -134 44t-43 145v133q0 51 -22.5 74.5t-69.5 23.5h-14v72h14q47 0 69.5 23.5t22.5 74.5v133q0 101 43 145t134 44h23v-73h-24q-48 0 -67 -26t-19 -85v-124q0 -61 -25.5 -97t-84.5 -51q59 -15 84.5 -51t25.5 -97z" />
    <glyph glyph-name="braceright.case" horiz-adv-x="401" 
d="M160 51v124q0 61 25.5 97t84.5 51q-59 15 -84.5 51t-25.5 97v124q0 59 -19 85t-67 26h-24v73h23q91 0 134 -44t43 -145v-133q0 -51 22.5 -74.5t69.5 -23.5h14v-72h-14q-47 0 -69.5 -23.5t-22.5 -74.5v-133q0 -101 -43 -145t-134 -44h-23v73h24q48 0 67 26t19 85z" />
    <glyph glyph-name="at.case" horiz-adv-x="816" 
d="M445 498q60 0 109 -27l-26 -149q-3 -15 -3 -28q0 -63 55 -63q49 0 84 51t35 125q0 101 -72 161.5t-188 60.5q-138 0 -226.5 -87.5t-88.5 -231.5q0 -129 76 -202t213 -73q117 0 245 59l18 -51q-54 -29 -127.5 -45.5t-138.5 -16.5q-164 0 -257 91t-93 236q0 167 108 271
t274 104q144 0 231.5 -78t87.5 -196q0 -96 -53 -162t-134 -66q-48 0 -77 27t-31 67q-22 -40 -53 -64t-65 -24q-41 0 -61 30.5t-20 77.5q0 84 47 143.5t131 59.5zM441 443q-50 0 -78.5 -44.5t-28.5 -101.5q0 -55 33 -55q45 0 96 101l17 95q-18 5 -39 5z" />
    <glyph glyph-name="asterisk.case" horiz-adv-x="408" 
d="M331 409l-105 60v-121h-44v121l-105 -60l-22 38l105 60l-105 60l22 38l105 -61v122h44v-122l105 61l22 -38l-105 -60l105 -60z" />
    <glyph glyph-name="hyphen.case" horiz-adv-x="355" 
d="M300 286h-245v75h245v-75z" />
    <glyph glyph-name="emdash.case" horiz-adv-x="769" 
d="M714 286h-659v75h659v-75z" />
    <glyph glyph-name="slash.case" horiz-adv-x="418" 
d="M45 -52l253 768l75 -26l-252 -766z" />
    <glyph glyph-name="backslash.case" horiz-adv-x="419" 
d="M121 716l253 -768l-77 -24l-252 766z" />
    <glyph glyph-name="bullet.case" horiz-adv-x="400" 
d="M325 323q0 -52 -36 -89t-89 -37t-89 37t-36 89t36 89t89 37t89 -37t36 -89z" />
    <glyph glyph-name="questiondown.case" horiz-adv-x="457" 
d="M55 163q0 45 18 85.5t56 77t72 62.5t89 64q10 7 15 10l44 -60q-50 -36 -66 -47.5t-52 -42t-48.5 -48t-25 -44.5t-12.5 -54q0 -48 30.5 -75.5t79.5 -27.5q67 0 128 36l24 -70q-68 -41 -161 -41q-81 0 -136 46t-55 129zM235 620q0 25 16 41.5t42 16.5t42 -16.5t16 -41.5
t-16 -41.5t-42 -16.5t-42 16.5t-16 41.5z" />
    <glyph glyph-name="exclamdown.case" horiz-adv-x="306" 
d="M180 487l20 -281v-206h-94v206l22 281h52zM211 620q0 -25 -16 -41.5t-42 -16.5t-42 16.5t-16 41.5t16 41.5t42 16.5t42 -16.5t16 -41.5z" />
    <glyph glyph-name="guillemotleft.case" horiz-adv-x="575" 
d="M145 333l131 -162l-59 -46l-167 208l167 208l59 -46zM374 333l131 -162l-59 -46l-167 208l167 208l59 -46z" />
    <glyph glyph-name="guillemotright.case" horiz-adv-x="575" 
d="M299 171l131 162l-131 162l59 46l167 -208l-167 -208zM70 171l131 162l-131 162l59 46l167 -208l-167 -208z" />
    <glyph glyph-name="guilsinglleft.case" horiz-adv-x="346" 
d="M145 333l131 -162l-59 -46l-167 208l167 208l59 -46z" />
    <glyph glyph-name="guilsinglright.case" horiz-adv-x="346" 
d="M70 171l131 162l-131 162l59 46l167 -208l-167 -208z" />
    <glyph glyph-name="periodcentered.case" horiz-adv-x="256" 
d="M186 333q0 -25 -16 -41.5t-42 -16.5t-42 16.5t-16 41.5t16 41.5t42 16.5t42 -16.5t16 -41.5z" />
    <glyph glyph-name="zero.tnum" 
d="M501 333q0 -74 -12.5 -134.5t-38.5 -108.5t-70 -75t-104 -27t-104 27t-70 75t-38.5 108.5t-12.5 134.5t12.5 134.5t38.5 108.5t70 75t104 27t104 -27t70 -75t38.5 -108.5t12.5 -134.5zM411 333q0 272 -135 272t-135 -272t135 -272t135 272z" />
    <glyph glyph-name="one.tnum" 
d="M85 0v73h165v498l-152 -50l-21 73l206 72h57v-593h154v-73h-409z" />
    <glyph glyph-name="two.tnum" 
d="M121 570l-21 69q63 39 153 39q92 0 148.5 -54t56.5 -144q0 -78 -36.5 -140t-113.5 -142q-71 -72 -130 -124h290v-74h-393l-11 55q108 109 191 200q56 62 84 113t28 108q0 59 -33 93t-90 34q-62 0 -123 -33z" />
    <glyph glyph-name="three.tnum" 
d="M457 176q0 -85 -62 -136.5t-159 -51.5q-86 0 -161 33l18 73q70 -32 137 -32q65 0 100.5 30.5t35.5 79.5q0 67 -52.5 99.5t-132.5 32.5h-39v74h36q74 0 124.5 35.5t50.5 93.5q0 47 -30 72t-82 25q-61 0 -125 -29l-18 69q63 34 154 34q84 0 138 -44t54 -115
q0 -118 -135 -173q65 -17 106.5 -62t41.5 -108z" />
    <glyph glyph-name="four.tnum" 
d="M336 414h83v-162h96v-71h-96v-181h-83v181h-279l-12 68l188 427l71 -31l-171 -393h203v162z" />
    <glyph glyph-name="five.tnum" 
d="M482 188q0 -89 -67.5 -144.5t-170.5 -55.5q-87 0 -155 28l15 72q70 -27 138 -27q67 0 108.5 32t41.5 88q0 64 -51 97.5t-135 33.5h-92v354h339v-74h-248v-207h26q105 0 178 -50.5t73 -146.5z" />
    <glyph glyph-name="six.tnum" 
d="M389 678l34 -64q-116 -58 -183 -124.5t-87 -171.5q61 72 159 72q87 0 141.5 -54.5t54.5 -139.5q0 -92 -63.5 -150t-153.5 -58q-107 0 -167 79t-60 180q0 285 325 431zM420 197q0 57 -32.5 88t-90.5 31q-41 0 -80 -19.5t-65 -49.5q-3 -75 33.5 -131t104.5 -56q60 0 95 39
t35 98z" />
    <glyph glyph-name="seven.tnum" 
d="M486 666l13 -73l-278 -593h-90l284 592h-309v74h380z" />
    <glyph glyph-name="eight.tnum" 
d="M276 678q82 0 137.5 -41t55.5 -111q0 -89 -130 -174q72 -42 110 -86t38 -106q0 -75 -62.5 -123.5t-148.5 -48.5q-92 0 -151.5 45.5t-59.5 123.5q0 103 148 191q-130 76 -130 175q0 70 55 112.5t138 42.5zM400 159q0 46 -28.5 76.5t-95.5 71.5q-73 -51 -92 -71
q-32 -36 -32 -80q0 -46 33.5 -72.5t90.5 -26.5q55 0 89.5 29t34.5 73zM169 524q0 -41 24.5 -68.5t82.5 -62.5q54 36 80.5 65.5t26.5 65.5q0 38 -29 61.5t-78 23.5q-50 0 -78.5 -24t-28.5 -61z" />
    <glyph glyph-name="nine.tnum" 
d="M173 -12l-34 64q116 58 183 124.5t87 171.5q-59 -72 -159 -72q-87 0 -141.5 54.5t-54.5 139.5q0 93 62 150.5t155 57.5q107 0 167 -79t60 -180q0 -285 -325 -431zM142 469q0 -57 32.5 -88t90.5 -31q85 0 145 69q3 75 -33.5 131t-104.5 56q-62 0 -96 -38.5t-34 -98.5z" />
    <glyph glyph-name="cent.tnum" 
d="M273 568v121h81v-117q62 -5 105 -26l-13 -67q-50 21 -111 21q-75 0 -115 -43.5t-40 -123.5t40 -123.5t115 -43.5q61 0 111 21l13 -67q-43 -21 -105 -26v-117h-81v121q-87 18 -134 81t-47 154t47 154t134 81z" />
    <glyph glyph-name="dollar.tnum" 
d="M318 -120h-81v121q-74 7 -141 39l17 70q84 -38 153 -38q58 0 90 26.5t32 75.5q0 44 -32.5 75.5t-93.5 62.5q-155 79 -155 190q0 66 39.5 107t103.5 52v125h81v-122q72 -4 119 -31l-17 -70q-67 31 -133 31q-105 0 -105 -89q0 -21 7 -37t27 -32.5t30.5 -23.5t43.5 -27
q2 -1 23.5 -13.5t28.5 -17t27 -18.5t29.5 -23.5t24.5 -26t22 -31.5t12.5 -35.5t5.5 -41.5q0 -68 -42.5 -113t-115.5 -60v-125z" />
    <glyph glyph-name="Euro.tnum" 
d="M393 678q73 0 125 -21l-11 -67q-43 17 -106 17q-146 0 -181 -152h251v-61h-261q-2 -20 -2 -61q0 -42 2 -61h261v-61h-251q35 -152 181 -152q63 0 106 17l11 -67q-52 -21 -125 -21q-104 0 -170 58.5t-90 164.5h-100v61h91q-3 28 -3 61q0 31 3 61h-91v61h100q24 105 90 164
t170 59z" />
    <glyph glyph-name="sterling.tnum" 
d="M437 342v-72h-171q-4 -57 -33.5 -110.5t-71.5 -86.5h311v-73h-389l-18 65q97 94 112 205h-107v72h110v110q0 108 50.5 167t145.5 59q80 0 131 -27l-15 -71q-48 25 -108 25q-59 0 -86.5 -38t-27.5 -116v-109h167z" />
    <glyph glyph-name="yen.tnum" 
d="M276 351l128 315h95l-123 -279h100v-65h-128l-27 -59v-48h155v-64h-155v-151h-90v151h-155v64h155v48l-27 59h-128v65h100l-123 279h95z" />
    <glyph glyph-name="numbersign.tnum" horiz-adv-x="692" 
d="M413 0l19 177h-196l-19 -177h-73l19 177h-108v62h114l21 196h-115v62h122l18 169h73l-18 -169h196l18 169h73l-18 -169h103v-62h-110l-20 -196h107v-62h-114l-19 -177h-73zM263 435l-21 -196h197l20 196h-196z" />
    <glyph glyph-name="plus.tnum" 
d="M507 289h-192v-204h-78v204h-192v68h192v204h78v-204h192v-68z" />
    <glyph glyph-name="plusminus.tnum" 
d="M507 318h-192v-178h-78v178h-192v66h192v177h78v-177h192v-66zM45 0v68h462v-68h-462z" />
    <glyph glyph-name="multiply.tnum" 
d="M276 373l160 161l51 -51l-160 -160l160 -160l-51 -51l-160 161l-160 -161l-51 51l160 160l-160 160l51 51z" />
    <glyph glyph-name="divide.tnum" 
d="M507 289h-462v68h462v-68zM219 510q0 24 16 40.5t41 16.5t41 -16.5t16 -40.5t-16 -40.5t-41 -16.5t-41 16.5t-16 40.5zM219 136q0 24 16 40.5t41 16.5t41 -16.5t16 -40.5t-16 -40.5t-41 -16.5t-41 16.5t-16 40.5z" />
    <glyph glyph-name="equal.tnum" 
d="M50 395v68h452v-68h-452zM50 184v68h452v-68h-452z" />
    <glyph glyph-name="notequal.tnum" 
d="M50 395v68h271l72 125l54 -32l-54 -93h109v-68h-148l-83 -143h231v-68h-270l-72 -125l-54 32l53 93h-109v68h149l82 143h-231z" />
    <glyph glyph-name="logicalnot.tnum" 
d="M507 85h-78v204h-384v68h462v-272z" />
    <glyph glyph-name="approxequal.tnum" 
d="M379 346q-45 0 -111 34q-56 29 -87 29q-43 0 -97 -46l-38 49q35 34 66.5 50.5t72.5 16.5q46 0 107 -33q56 -30 89 -30q36 0 89 41l35 -51q-63 -60 -126 -60zM379 167q-45 0 -111 34q-56 29 -87 29q-43 0 -97 -46l-38 49q35 34 66.5 50.5t72.5 16.5q46 0 107 -33
q56 -30 89 -30q36 0 89 41l35 -51q-63 -60 -126 -60z" />
    <glyph glyph-name="endash.tnum" 
d="M470 276h-389v73h389v-73z" />
    <glyph glyph-name="minus.tnum" 
d="M490 289h-428v68h428v-68z" />
    <glyph glyph-name="less.tnum" 
d="M45 356l431 215l31 -64l-385 -184l385 -184l-31 -64l-431 215v66z" />
    <glyph glyph-name="greater.tnum" 
d="M76 571l431 -215v-66l-431 -215l-31 64l385 184l-385 184z" />
    <glyph glyph-name="lessequal.tnum" 
d="M45 0v68h462v-68h-462zM45 395l439 176l23 -66l-372 -143l372 -143l-23 -66l-439 176v66z" />
    <glyph glyph-name="greaterequal.tnum" 
d="M507 68v-68h-462v68h462zM68 571l439 -176v-66l-439 -176l-23 66l372 143l-372 143z" />
    <glyph glyph-name="percent.tnum" horiz-adv-x="911" 
d="M266 20l314 658l66 -31l-315 -659zM391 483q0 -80 -45 -137t-123 -57t-123 57t-45 137t45 137.5t123 57.5t123 -57.5t45 -137.5zM132 483q0 -56 22.5 -93t68.5 -37t68.5 37t22.5 93q0 55 -23 93t-68 38t-68 -38t-23 -93zM856 182q0 -80 -45 -137t-123 -57t-123 57
t-45 137t45 137.5t123 57.5t123 -57.5t45 -137.5zM597 182q0 -56 22.5 -93t68.5 -37t68.5 37t22.5 93q0 55 -23 93t-68 38t-68 -38t-23 -93z" />
    <glyph glyph-name="perthousand.tnum" horiz-adv-x="1309" 
d="M266 20l314 658l66 -31l-315 -659zM391 483q0 -80 -45 -137t-123 -57t-123 57t-45 137t45 137.5t123 57.5t123 -57.5t45 -137.5zM132 483q0 -56 22.5 -93t68.5 -37t68.5 37t22.5 93q0 55 -23 93t-68 38t-68 -38t-23 -93zM856 182q0 -80 -45 -137t-123 -57t-123 57
t-45 137t45 137.5t123 57.5t123 -57.5t45 -137.5zM597 182q0 -56 22.5 -93t68.5 -37t68.5 37t22.5 93q0 55 -23 93t-68 38t-68 -38t-23 -93zM1254 182q0 -80 -45 -137t-123 -57t-123 57t-45 137t45 137.5t123 57.5t123 -57.5t45 -137.5zM995 182q0 -56 22.5 -93t68.5 -37
t68.5 37t22.5 93q0 55 -23 93t-68 38t-68 -38t-23 -93z" />
    <glyph glyph-name="zero.onum" horiz-adv-x="582" 
d="M537 250q0 -108 -67 -185t-179 -77t-179 77t-67 185t67 185t179 77t179 -77t67 -185zM447 250q0 81 -40.5 135t-115.5 54t-115.5 -54t-40.5 -135t40.5 -135t115.5 -54t115.5 54t40.5 135z" />
    <glyph glyph-name="one.onum" horiz-adv-x="371" 
d="M291 0h-90v406l-141 -61l-27 72l201 83h57v-500z" />
    <glyph glyph-name="two.onum" horiz-adv-x="509" 
d="M117 403l-25 67q73 42 151 42q82 0 131 -42.5t49 -113.5q0 -74 -40.5 -126t-112.5 -103q-29 -21 -80 -54h268v-73h-391l-14 55q36 27 92 70t63 49q39 30 59.5 48t43 53.5t22.5 72.5q0 42 -25.5 66.5t-73.5 24.5q-52 0 -117 -36z" />
    <glyph glyph-name="three.onum" horiz-adv-x="476" 
d="M419 3q0 -80 -61 -130.5t-157 -50.5q-81 0 -159 38l19 67q70 -35 136 -35q61 0 97.5 28t36.5 78q0 61 -49.5 93t-123.5 41l-41 5v70l32 6q78 15 123 51t45 90q0 41 -29 63.5t-79 22.5q-62 0 -130 -35l-19 68q71 39 162 39q82 0 133 -40.5t51 -109.5q0 -65 -44.5 -113.5
t-117.5 -70.5q75 -14 125 -58.5t50 -116.5z" />
    <glyph glyph-name="four.onum" horiz-adv-x="568" 
d="M531 41h-101v-209h-86v209h-287l-14 68l291 391h96v-389h101v-70zM344 111v295l-205 -295h205z" />
    <glyph glyph-name="five.onum" horiz-adv-x="478" 
d="M448 13q0 -89 -66.5 -140t-164.5 -51q-86 0 -154 26l13 72q70 -25 134 -25q71 0 109.5 29.5t38.5 84.5q0 113 -190 125l-81 5v361h326v-73h-240v-219l34 -2q103 -6 172 -54.5t69 -138.5z" />
    <glyph glyph-name="six.onum" horiz-adv-x="555" 
d="M388 678l34 -64q-116 -58 -183 -124.5t-87 -171.5q61 72 159 72q87 0 141.5 -54.5t54.5 -139.5q0 -92 -63.5 -150t-153.5 -58q-107 0 -167 79t-60 180q0 285 325 431zM419 197q0 57 -32.5 88t-90.5 31q-41 0 -80 -19.5t-65 -49.5q-3 -75 33.5 -131t104.5 -56q60 0 95 39
t35 98z" />
    <glyph glyph-name="seven.onum" horiz-adv-x="461" 
d="M413 500l13 -72q-141 -335 -303 -606l-67 37q174 297 284 568h-290v73h363z" />
    <glyph glyph-name="eight.onum" horiz-adv-x="532" 
d="M266 678q82 0 137.5 -41t55.5 -111q0 -89 -130 -174q72 -42 110 -86t38 -106q0 -75 -62.5 -123.5t-148.5 -48.5q-92 0 -151.5 45.5t-59.5 123.5q0 103 148 191q-130 76 -130 175q0 70 55 112.5t138 42.5zM390 159q0 46 -28.5 76.5t-95.5 71.5q-73 -51 -92 -71
q-32 -36 -32 -80q0 -46 33.5 -72.5t90.5 -26.5q55 0 89.5 29t34.5 73zM159 524q0 -41 24.5 -68.5t82.5 -62.5q54 36 80.5 65.5t26.5 65.5q0 38 -29 61.5t-78 23.5q-50 0 -78.5 -24t-28.5 -61z" />
    <glyph glyph-name="nine.onum" horiz-adv-x="559" 
d="M177 -178l-34 64q116 58 183 124.5t87 171.5q-59 -72 -159 -72q-87 0 -141.5 54.5t-54.5 139.5q0 93 62 150.5t155 57.5q107 0 167 -79t60 -180q0 -285 -325 -431zM146 303q0 -57 32.5 -88t90.5 -31q85 0 145 69q3 75 -33.5 131t-104.5 56q-62 0 -96 -38.5t-34 -98.5z
" />
    <glyph glyph-name="cent.onum" horiz-adv-x="498" 
d="M338 -83h-83v120q-92 13 -141 75t-49 144t49 144t141 75v120h83v-119q57 -6 95 -23l-12 -66q-54 20 -110 20q-78 0 -118 -39.5t-40 -111.5t40 -111.5t118 -39.5q56 0 110 20l12 -66q-41 -19 -95 -24v-118z" />
    <glyph glyph-name="dollar.onum" horiz-adv-x="478" 
d="M278 -107h-83v110q-75 9 -135 41l20 65q71 -41 151 -41q47 0 74.5 19.5t27.5 53.5t-26.5 54.5t-81.5 40.5q-80 28 -117 61t-37 92q0 52 34.5 85.5t91.5 41.5v111h83v-110q65 -3 113 -29l-15 -66q-67 31 -132 31q-90 0 -90 -62q0 -32 21 -48t73 -36q40 -15 61.5 -25.5
t50.5 -29.5t42.5 -44.5t13.5 -58.5q0 -56 -39 -95.5t-101 -49.5v-111z" />
    <glyph glyph-name="Euro.onum" horiz-adv-x="573" 
d="M216 256q0 -28 2 -40h244v-58h-230q39 -99 169 -99q60 0 111 19l11 -64q-53 -24 -132 -24q-91 0 -157 44t-92 124h-82v58h70q-2 26 -2 40t2 40h-70v58h82q26 80 92 124t157 44q79 0 132 -24l-11 -64q-51 19 -111 19q-129 0 -169 -99h230v-58h-244q-2 -13 -2 -40z" />
    <glyph glyph-name="sterling.onum" horiz-adv-x="525" 
d="M69 212v71h90v36q0 105 52 154t142 49q69 0 122 -25l-15 -68q-48 20 -99 20q-59 0 -85.5 -30.5t-26.5 -100.5v-35h170v-71h-175q-6 -43 -30 -81.5t-55 -59.5h300v-71h-384l-15 59q85 79 95 153h-86z" />
    <glyph glyph-name="yen.onum" horiz-adv-x="518" 
d="M473 512l-106 -203h77v-59h-108l-32 -62v-20h140v-58h-140v-110h-90v110h-140v58h140v20l-33 62h-107v59h77l-106 203h91l123 -253l123 253h91z" />
    <glyph glyph-name="numbersign.onum" horiz-adv-x="647" 
d="M384 0l16 128h-178l-15 -128h-69l15 128h-91v59h98l19 152h-98v59h105l15 124h69l-15 -124h178l15 124h69l-15 -124h90v-59h-97l-19 -152h98v-59h-105l-16 -128h-69zM248 339l-19 -152h178l19 152h-178z" />
    <glyph glyph-name="plus.onum" horiz-adv-x="612" 
d="M537 216h-192v-204h-78v204h-192v68h192v204h78v-204h192v-68z" />
    <glyph glyph-name="plusminus.onum" horiz-adv-x="616" 
d="M539 272h-192v-146h-78v146h-192v68h192v146h78v-146h192v-68zM77 0v67h462v-67h-462z" />
    <glyph glyph-name="multiply.onum" horiz-adv-x="582" 
d="M291 300l160 161l51 -51l-160 -160l160 -160l-51 -51l-160 161l-160 -161l-51 51l160 160l-160 160l51 51z" />
    <glyph glyph-name="divide.onum" horiz-adv-x="632" 
d="M547 216h-462v68h462v-68zM259 437q0 24 16 40.5t41 16.5t41 -16.5t16 -40.5t-16 -40.5t-41 -16.5t-41 16.5t-16 40.5zM259 63q0 24 16 40.5t41 16.5t41 -16.5t16 -40.5t-16 -40.5t-41 -16.5t-41 16.5t-16 40.5z" />
    <glyph glyph-name="equal.onum" horiz-adv-x="622" 
d="M85 322v68h452v-68h-452zM85 111v68h452v-68h-452z" />
    <glyph glyph-name="notequal.onum" horiz-adv-x="628" 
d="M88 322v68h271l72 125l54 -32l-54 -93h109v-68h-148l-83 -143h231v-68h-270l-72 -125l-54 32l53 93h-109v68h149l82 143h-231z" />
    <glyph glyph-name="logicalnot.onum" horiz-adv-x="622" 
d="M542 12h-78v204h-384v68h462v-272z" />
    <glyph glyph-name="approxequal.onum" horiz-adv-x="614" 
d="M413 273q-45 0 -111 34q-56 29 -87 29q-43 0 -97 -46l-38 49q35 34 66.5 50.5t72.5 16.5q46 0 107 -33q56 -30 89 -30q36 0 89 41l35 -51q-63 -60 -126 -60zM413 94q-45 0 -111 34q-56 29 -87 29q-43 0 -97 -46l-38 49q35 34 66.5 50.5t72.5 16.5q46 0 107 -33
q56 -30 89 -30q36 0 89 41l35 -51q-63 -60 -126 -60z" />
    <glyph glyph-name="endash.onum" horiz-adv-x="539" 
d="M464 214h-389v73h389v-73z" />
    <glyph glyph-name="minus.onum" horiz-adv-x="588" 
d="M508 216h-428v68h428v-68z" />
    <glyph glyph-name="less.onum" horiz-adv-x="597" 
d="M70 283l431 215l31 -64l-385 -184l385 -184l-31 -64l-431 215v66z" />
    <glyph glyph-name="greater.onum" horiz-adv-x="597" 
d="M96 498l431 -215v-66l-431 -215l-31 64l385 184l-385 184z" />
    <glyph glyph-name="lessequal.onum" horiz-adv-x="602" 
d="M70 0v68h462v-68h-462zM70 348l443 156l19 -66l-374 -123l374 -123l-19 -66l-443 156v66z" />
    <glyph glyph-name="greaterequal.onum" horiz-adv-x="602" 
d="M532 68v-68h-462v68h462zM89 504l443 -156v-66l-443 -156l-19 66l374 123l-374 123z" />
    <glyph glyph-name="percent.onum" horiz-adv-x="836" 
d="M252 21l277 511l58 -31l-278 -511zM363 382q0 -62 -41 -106t-109 -44t-109.5 44t-41.5 106t41.5 106t109.5 44t109 -43.5t41 -106.5zM294 382q0 41 -22 67.5t-59 26.5t-59.5 -26.5t-22.5 -67.5q0 -40 22.5 -67t59.5 -27t59 27t22 67zM774 140q0 -62 -41 -106t-109 -44
t-109.5 44t-41.5 106t41.5 106t109.5 44t109 -43.5t41 -106.5zM705 140q0 41 -22 67.5t-59 26.5t-59.5 -26.5t-22.5 -67.5q0 -40 22.5 -67t59.5 -27t59 27t22 67z" />
    <glyph glyph-name="perthousand.onum" horiz-adv-x="1191" 
d="M252 21l277 511l58 -31l-278 -511zM363 382q0 -62 -41 -106t-109 -44t-109.5 44t-41.5 106t41.5 106t109.5 44t109 -43.5t41 -106.5zM294 382q0 41 -22 67.5t-59 26.5t-59.5 -26.5t-22.5 -67.5q0 -40 22.5 -67t59.5 -27t59 27t22 67zM774 140q0 -62 -41 -106t-109 -44
t-109.5 44t-41.5 106t41.5 106t109.5 44t109 -43.5t41 -106.5zM705 140q0 41 -22 67.5t-59 26.5t-59.5 -26.5t-22.5 -67.5q0 -40 22.5 -67t59.5 -27t59 27t22 67zM1129 140q0 -62 -41 -106t-109 -44t-109.5 44t-41.5 106t41.5 106t109.5 44t109 -43.5t41 -106.5zM1060 140
q0 41 -22 67.5t-59 26.5t-59.5 -26.5t-22.5 -67.5q0 -40 22.5 -67t59.5 -27t59 27t22 67z" />
    <glyph glyph-name="zeroonum.tnum" 
d="M501 250q0 -107 -60.5 -184.5t-164.5 -77.5t-164.5 77.5t-60.5 184.5t60.5 184.5t164.5 77.5t164.5 -77.5t60.5 -184.5zM412 250q0 82 -35 136t-101 54t-101 -54t-35 -136q0 -81 35 -135.5t101 -54.5t101 54.5t35 135.5z" />
    <glyph glyph-name="oneonum.tnum" 
d="M78 0v73h171v334l-154 -57l-22 70l209 80h57v-427h156v-73h-417z" />
    <glyph glyph-name="twoonum.tnum" 
d="M127 403l-25 67q73 42 151 42q82 0 131 -42.5t49 -113.5q0 -74 -40.5 -126t-112.5 -103q-29 -21 -80 -54h268v-73h-391l-14 55q36 27 92 70t63 49q39 30 59.5 48t43 53.5t22.5 72.5q0 42 -25.5 66.5t-73.5 24.5q-52 0 -117 -36z" />
    <glyph glyph-name="threeonum.tnum" 
d="M455 3q0 -80 -61 -130.5t-157 -50.5q-81 0 -159 38l19 67q70 -35 136 -35q61 0 97.5 28t36.5 78q0 61 -49.5 93t-123.5 41l-41 5v70l32 6q78 15 123 51t45 90q0 41 -29 63.5t-79 22.5q-62 0 -130 -35l-19 68q71 39 162 39q82 0 133 -40.5t51 -109.5q0 -65 -44.5 -113.5
t-117.5 -70.5q75 -14 125 -58.5t50 -116.5z" />
    <glyph glyph-name="fouronum.tnum" 
d="M232 512l71 -31l-171 -380h205v169h86v-169h98v-70h-98v-199h-86v199h-281l-12 68z" />
    <glyph glyph-name="fiveonum.tnum" 
d="M478 13q0 -89 -66.5 -140t-164.5 -51q-86 0 -154 26l13 72q70 -25 134 -25q71 0 109.5 29.5t38.5 84.5q0 113 -190 125l-81 5v361h329v-73h-243v-219l34 -2q103 -6 172 -54.5t69 -138.5z" />
    <glyph glyph-name="sixonum.tnum" 
d="M388 678l34 -64q-116 -58 -183 -124.5t-87 -171.5q61 72 159 72q87 0 141.5 -54.5t54.5 -139.5q0 -92 -63.5 -150t-153.5 -58q-107 0 -167 79t-60 180q0 285 325 431zM419 197q0 57 -32.5 88t-90.5 31q-41 0 -80 -19.5t-65 -49.5q-3 -75 33.5 -131t104.5 -56q60 0 95 39
t35 98z" />
    <glyph glyph-name="sevenonum.tnum" 
d="M453 500l13 -72q-124 -295 -310 -606l-67 37q195 333 294 568h-301v73h371z" />
    <glyph glyph-name="eightonum.tnum" 
d="M276 678q82 0 137.5 -41t55.5 -111q0 -89 -130 -174q72 -42 110 -86t38 -106q0 -75 -62.5 -123.5t-148.5 -48.5q-92 0 -151.5 45.5t-59.5 123.5q0 103 148 191q-130 76 -130 175q0 70 55 112.5t138 42.5zM400 159q0 46 -28.5 76.5t-95.5 71.5q-73 -51 -92 -71
q-32 -36 -32 -80q0 -46 33.5 -72.5t90.5 -26.5q55 0 89.5 29t34.5 73zM169 524q0 -41 24.5 -68.5t82.5 -62.5q54 36 80.5 65.5t26.5 65.5q0 38 -29 61.5t-78 23.5q-50 0 -78.5 -24t-28.5 -61z" />
    <glyph glyph-name="nineonum.tnum" 
d="M173 -178l-34 64q116 58 183 124.5t87 171.5q-59 -72 -159 -72q-87 0 -141.5 54.5t-54.5 139.5q0 93 62 150.5t155 57.5q107 0 167 -79t60 -180q0 -285 -325 -431zM142 303q0 -57 32.5 -88t90.5 -31q85 0 145 69q3 75 -33.5 131t-104.5 56q-62 0 -96 -38.5t-34 -98.5z
" />
    <glyph glyph-name="centonum.tnum" 
d="M365 -83h-83v120q-92 13 -141 75t-49 144t49 144t141 75v120h83v-119q57 -6 95 -23l-12 -66q-54 20 -110 20q-78 0 -118 -39.5t-40 -111.5t40 -111.5t118 -39.5q56 0 110 20l12 -66q-41 -19 -95 -24v-118z" />
    <glyph glyph-name="dollaronum.tnum" 
d="M315 -107h-83v110q-75 9 -135 41l20 65q71 -41 151 -41q47 0 74.5 19.5t27.5 53.5t-26.5 54.5t-81.5 40.5q-80 28 -117 61t-37 92q0 52 34.5 85.5t91.5 41.5v111h83v-110q65 -3 113 -29l-15 -66q-67 31 -132 31q-90 0 -90 -62q0 -32 21 -48t73 -36q40 -15 61.5 -25.5
t50.5 -29.5t42.5 -44.5t13.5 -58.5q0 -56 -39 -95.5t-101 -49.5v-111z" />
    <glyph glyph-name="Euroonum.tnum" 
d="M190 256q0 -28 2 -40h244v-58h-230q39 -99 169 -99q60 0 111 19l11 -64q-53 -24 -132 -24q-91 0 -157 44t-92 124h-82v58h70q-2 26 -2 40t2 40h-70v58h82q26 80 92 124t157 44q79 0 132 -24l-11 -64q-51 19 -111 19q-129 0 -169 -99h230v-58h-244q-2 -13 -2 -40z" />
    <glyph glyph-name="sterlingonum.tnum" 
d="M96 212v71h90v36q0 105 52 154t142 49q69 0 122 -25l-15 -68q-48 20 -99 20q-59 0 -85.5 -30.5t-26.5 -100.5v-35h170v-71h-175q-6 -43 -30 -81.5t-55 -59.5h300v-71h-384l-15 59q85 79 95 153h-86z" />
    <glyph glyph-name="yenonum.tnum" 
d="M490 512l-106 -203h77v-59h-108l-32 -62v-20h140v-58h-140v-110h-90v110h-140v58h140v20l-33 62h-107v59h77l-106 203h91l123 -253l123 253h91z" />
    <glyph glyph-name="numbersignonum.tnum" horiz-adv-x="645" 
d="M382 0l16 128h-178l-15 -128h-69l15 128h-91v59h98l19 152h-98v59h105l15 124h69l-15 -124h178l15 124h69l-15 -124h90v-59h-97l-19 -152h98v-59h-105l-16 -128h-69zM246 339l-19 -152h178l19 152h-178z" />
    <glyph glyph-name="plusonum.tnum" 
d="M507 216h-192v-204h-78v204h-192v68h192v204h78v-204h192v-68z" />
    <glyph glyph-name="plusminusonum.tnum" 
d="M507 272h-192v-146h-78v146h-192v68h192v146h78v-146h192v-68zM45 0v67h462v-67h-462z" />
    <glyph glyph-name="multiplyonum.tnum" 
d="M276 300l160 161l51 -51l-160 -160l160 -160l-51 -51l-160 161l-160 -161l-51 51l160 160l-160 160l51 51z" />
    <glyph glyph-name="divideonum.tnum" 
d="M507 216h-462v68h462v-68zM219 437q0 24 16 40.5t41 16.5t41 -16.5t16 -40.5t-16 -40.5t-41 -16.5t-41 16.5t-16 40.5zM219 63q0 24 16 40.5t41 16.5t41 -16.5t16 -40.5t-16 -40.5t-41 -16.5t-41 16.5t-16 40.5z" />
    <glyph glyph-name="equalonum.tnum" 
d="M50 322v68h452v-68h-452zM50 111v68h452v-68h-452z" />
    <glyph glyph-name="notequalonum.tnum" 
d="M50 322v68h271l72 125l54 -32l-54 -93h109v-68h-148l-83 -143h231v-68h-270l-72 -125l-54 32l53 93h-109v68h149l82 143h-231z" />
    <glyph glyph-name="logicalnotonum.tnum" 
d="M507 12h-78v204h-384v68h462v-272z" />
    <glyph glyph-name="approxequalonum.tnum" 
d="M379 273q-45 0 -111 34q-56 29 -87 29q-43 0 -97 -46l-38 49q35 34 66.5 50.5t72.5 16.5q46 0 107 -33q56 -30 89 -30q36 0 89 41l35 -51q-63 -60 -126 -60zM379 94q-45 0 -111 34q-56 29 -87 29q-43 0 -97 -46l-38 49q35 34 66.5 50.5t72.5 16.5q46 0 107 -33
q56 -30 89 -30q36 0 89 41l35 -51q-63 -60 -126 -60z" />
    <glyph glyph-name="endashonum.tnum" 
d="M470 214h-389v73h389v-73z" />
    <glyph glyph-name="minusonum.tnum" 
d="M490 216h-428v68h428v-68z" />
    <glyph glyph-name="lessonum.tnum" 
d="M45 283l431 215l31 -64l-385 -184l385 -184l-31 -64l-431 215v66z" />
    <glyph glyph-name="greateronum.tnum" 
d="M76 498l431 -215v-66l-431 -215l-31 64l385 184l-385 184z" />
    <glyph glyph-name="lessequalonum.tnum" 
d="M45 0v68h462v-68h-462zM45 348l443 156l19 -66l-374 -123l374 -123l-19 -66l-443 156v66z" />
    <glyph glyph-name="greaterequalonum.tnum" 
d="M507 68v-68h-462v68h462zM64 504l443 -156v-66l-443 -156l-19 66l374 123l-374 123z" />
    <glyph glyph-name="percentonum.tnum" horiz-adv-x="836" 
d="M252 21l277 511l58 -31l-278 -511zM363 382q0 -62 -41 -106t-109 -44t-109.5 44t-41.5 106t41.5 106t109.5 44t109 -43.5t41 -106.5zM294 382q0 41 -22 67.5t-59 26.5t-59.5 -26.5t-22.5 -67.5q0 -40 22.5 -67t59.5 -27t59 27t22 67zM774 140q0 -62 -41 -106t-109 -44
t-109.5 44t-41.5 106t41.5 106t109.5 44t109 -43.5t41 -106.5zM705 140q0 41 -22 67.5t-59 26.5t-59.5 -26.5t-22.5 -67.5q0 -40 22.5 -67t59.5 -27t59 27t22 67z" />
    <glyph glyph-name="perthousandonum.tnum" horiz-adv-x="1191" 
d="M252 21l277 511l58 -31l-278 -511zM363 382q0 -62 -41 -106t-109 -44t-109.5 44t-41.5 106t41.5 106t109.5 44t109 -43.5t41 -106.5zM294 382q0 41 -22 67.5t-59 26.5t-59.5 -26.5t-22.5 -67.5q0 -40 22.5 -67t59.5 -27t59 27t22 67zM774 140q0 -62 -41 -106t-109 -44
t-109.5 44t-41.5 106t41.5 106t109.5 44t109 -43.5t41 -106.5zM705 140q0 41 -22 67.5t-59 26.5t-59.5 -26.5t-22.5 -67.5q0 -40 22.5 -67t59.5 -27t59 27t22 67zM1129 140q0 -62 -41 -106t-109 -44t-109.5 44t-41.5 106t41.5 106t109.5 44t109 -43.5t41 -106.5zM1060 140
q0 41 -22 67.5t-59 26.5t-59.5 -26.5t-22.5 -67.5q0 -40 22.5 -67t59.5 -27t59 27t22 67z" />
    <glyph glyph-name="zerosmcp.tnum" 
d="M475 256q0 -118 -51.5 -192t-147.5 -74t-147.5 74t-51.5 192t51.5 192t147.5 74t147.5 -74t51.5 -192zM387 256q0 88 -26.5 142.5t-84.5 54.5t-84.5 -54.5t-26.5 -142.5t26.5 -142.5t84.5 -54.5t84.5 54.5t26.5 142.5z" />
    <glyph glyph-name="onesmcp.tnum" 
d="M76 0v71h161v351l-146 -43l-19 72l197 61h58v-441h153v-71h-404z" />
    <glyph glyph-name="twosmcp.tnum" 
d="M135 420l-22 66q60 36 140 36q77 0 126 -41t49 -111q0 -65 -34 -115.5t-101 -108.5q-12 -10 -91 -73h240v-73h-348l-16 56q133 116 152 133q35 33 54 53.5t36.5 53.5t17.5 65q0 42 -25.5 65t-71.5 23q-53 0 -106 -29z" />
    <glyph glyph-name="threesmcp.tnum" 
d="M438 137q0 -66 -54 -106.5t-137 -40.5q-78 0 -150 31l17 70q63 -29 126 -29q50 0 79.5 19t29.5 56q0 43 -39 63.5t-93 20.5h-61v73h54q58 0 92.5 25.5t34.5 64.5q0 66 -91 66q-54 0 -113 -28l-18 67q61 33 144 33q73 0 120 -34.5t47 -91.5q0 -45 -27.5 -80.5t-75.5 -54.5
q115 -30 115 -124z" />
    <glyph glyph-name="foursmcp.tnum" 
d="M318 336h84v-140h84v-68h-84v-128h-84v128h-248l-21 61l181 333l66 -35l-157 -291h179v140z" />
    <glyph glyph-name="fivesmcp.tnum" 
d="M453 149q0 -72 -55.5 -115.5t-147.5 -43.5q-78 0 -151 25l14 72q69 -24 134 -24q55 0 86 22t31 58q0 85 -137 85h-105v284h295v-73h-207v-138h38q84 0 144.5 -37.5t60.5 -114.5z" />
    <glyph glyph-name="sixsmcp.tnum" 
d="M360 522l27 -67q-95 -35 -147.5 -79.5t-67.5 -116.5q50 47 130 47q72 0 117.5 -41t45.5 -110q0 -66 -52.5 -115.5t-132.5 -49.5q-92 0 -143 64t-51 148q0 120 76 201.5t198 118.5zM381 151q0 43 -26.5 66t-71.5 23q-60 0 -112 -46q0 -55 27.5 -96.5t81.5 -41.5
q46 0 73.5 26t27.5 69z" />
    <glyph glyph-name="sevensmcp.tnum" 
d="M454 512l13 -64l-260 -448h-90l256 439h-257v73h338z" />
    <glyph glyph-name="eightsmcp.tnum" 
d="M443 400q0 -75 -103 -134q121 -59 121 -138q0 -60 -54 -99t-131 -39q-81 0 -133 37.5t-52 98.5q0 82 122 140q-104 57 -104 134q0 56 47 89t120 33t120 -33t47 -89zM378 123q0 58 -102 105q-24 -12 -37.5 -20.5t-31 -22t-25.5 -29t-8 -33.5q0 -32 28 -52t74 -20t74 20
t28 52zM189 399q0 -30 21.5 -52.5t65.5 -45.5q87 49 87 98q0 28 -23.5 45t-63.5 17t-63.5 -17t-23.5 -45z" />
    <glyph glyph-name="ninesmcp.tnum" 
d="M183 -10l-27 67q94 35 147 80.5t68 117.5q-20 -22 -55.5 -35.5t-74.5 -13.5q-72 0 -117.5 41t-45.5 110q0 70 52 117.5t133 47.5q92 0 143 -64t51 -148q0 -120 -76 -201.5t-198 -118.5zM162 360q0 -43 26.5 -65.5t71.5 -22.5q62 0 112 46q0 55 -27.5 96.5t-81.5 41.5
q-46 0 -73.5 -26t-27.5 -70z" />
    <glyph glyph-name="centsmcp.tnum" 
d="M365 -83h-83v120q-92 13 -141 75t-49 144t49 144t141 75v120h83v-119q57 -6 95 -23l-12 -66q-54 20 -110 20q-78 0 -118 -39.5t-40 -111.5t40 -111.5t118 -39.5q56 0 110 20l12 -66q-41 -19 -95 -24v-118z" />
    <glyph glyph-name="dollarsmcp.tnum" 
d="M315 -107h-83v110q-75 9 -135 41l20 65q71 -41 151 -41q47 0 74.5 19.5t27.5 53.5t-26.5 54.5t-81.5 40.5q-80 28 -117 61t-37 92q0 52 34.5 85.5t91.5 41.5v111h83v-110q65 -3 113 -29l-15 -66q-67 31 -132 31q-90 0 -90 -62q0 -32 21 -48t73 -36q40 -15 61.5 -25.5
t50.5 -29.5t42.5 -44.5t13.5 -58.5q0 -56 -39 -95.5t-101 -49.5v-111z" />
    <glyph glyph-name="Eurosmcp.tnum" 
d="M192 256q0 -28 2 -40h244v-58h-230q39 -99 169 -99q60 0 111 19l11 -64q-53 -24 -132 -24q-91 0 -157 44t-92 124h-82v58h70q-2 26 -2 40t2 40h-70v58h82q26 80 92 124t157 44q79 0 132 -24l-11 -64q-51 19 -111 19q-129 0 -169 -99h230v-58h-244q-2 -13 -2 -40z" />
    <glyph glyph-name="sterlingsmcp.tnum" 
d="M77 212v71h90v36q0 105 52 154t142 49q69 0 122 -25l-15 -68q-48 20 -99 20q-59 0 -85.5 -30.5t-26.5 -100.5v-35h170v-71h-175q-6 -43 -30 -81.5t-55 -59.5h300v-71h-384l-15 59q85 79 95 153h-86z" />
    <glyph glyph-name="yensmcp.tnum" 
d="M490 512l-106 -203h77v-59h-108l-32 -62v-20h140v-58h-140v-110h-90v110h-140v58h140v20l-33 62h-107v59h77l-106 203h91l123 -253l123 253h91z" />
    <glyph glyph-name="numbersignsmcp.tnum" horiz-adv-x="635" 
d="M370 0l15 131h-160l-15 -131h-69l15 131h-91v59h98l17 137h-98v59h105l15 126h69l-15 -126h160l15 126h69l-15 -126h90v-59h-97l-17 -137h98v-59h-105l-15 -131h-69zM249 327l-17 -137h160l17 137h-160z" />
    <glyph glyph-name="plussmcp.tnum" 
d="M507 222h-192v-204h-78v204h-192v68h192v204h78v-204h192v-68z" />
    <glyph glyph-name="plusminussmcp.tnum" 
d="M507 280h-192v-146h-78v146h-192v68h192v146h78v-146h192v-68zM45 0v68h462v-68h-462z" />
    <glyph glyph-name="multiplysmcp.tnum" 
d="M276 306l160 161l51 -51l-160 -160l160 -160l-51 -51l-160 161l-160 -161l-51 51l160 160l-160 160l51 51z" />
    <glyph glyph-name="dividesmcp.tnum" 
d="M507 222h-462v68h462v-68zM219 443q0 24 16 40.5t41 16.5t41 -16.5t16 -40.5t-16 -40.5t-41 -16.5t-41 16.5t-16 40.5zM219 69q0 24 16 40.5t41 16.5t41 -16.5t16 -40.5t-16 -40.5t-41 -16.5t-41 16.5t-16 40.5z" />
    <glyph glyph-name="equalsmcp.tnum" 
d="M50 328v68h452v-68h-452zM50 117v68h452v-68h-452z" />
    <glyph glyph-name="notequalsmcp.tnum" 
d="M50 328v68h271l72 125l54 -32l-54 -93h109v-68h-148l-83 -143h231v-68h-270l-72 -125l-54 32l53 93h-109v68h149l82 143h-231z" />
    <glyph glyph-name="logicalnotsmcp.tnum" 
d="M507 18h-78v204h-384v68h462v-272z" />
    <glyph glyph-name="approxequalsmcp.tnum" 
d="M379 279q-45 0 -111 34q-56 29 -87 29q-43 0 -97 -46l-38 49q35 34 66.5 50.5t72.5 16.5q46 0 107 -33q56 -30 89 -30q36 0 89 41l35 -51q-63 -60 -126 -60zM379 100q-45 0 -111 34q-56 29 -87 29q-43 0 -97 -46l-38 49q35 34 66.5 50.5t72.5 16.5q46 0 107 -33
q56 -30 89 -30q36 0 89 41l35 -51q-63 -60 -126 -60z" />
    <glyph glyph-name="endashsmcp.tnum" 
d="M470 214h-389v73h389v-73z" />
    <glyph glyph-name="minussmcp.tnum" 
d="M490 223h-428v68h428v-68z" />
    <glyph glyph-name="lesssmcp.tnum" 
d="M45 289l431 215l31 -64l-385 -184l385 -184l-31 -64l-431 215v66z" />
    <glyph glyph-name="greatersmcp.tnum" 
d="M76 504l431 -215v-66l-431 -215l-31 64l385 184l-385 184z" />
    <glyph glyph-name="lessequalsmcp.tnum" 
d="M45 0v68h462v-68h-462zM45 348l443 156l19 -66l-374 -123l374 -123l-19 -66l-443 156v66z" />
    <glyph glyph-name="greaterequalsmcp.tnum" 
d="M507 68v-68h-462v68h462zM64 504l443 -156v-66l-443 -156l-19 66l374 123l-374 123z" />
    <glyph glyph-name="percentsmcp.tnum" horiz-adv-x="833" 
d="M252 21l272 501l58 -31l-273 -501zM363 372q0 -62 -41 -106t-109 -44t-109.5 44t-41.5 106t41.5 106t109.5 44t109 -43.5t41 -106.5zM294 372q0 41 -22 67.5t-59 26.5t-59.5 -26.5t-22.5 -67.5q0 -40 22.5 -67t59.5 -27t59 27t22 67zM771 140q0 -62 -41 -106t-109 -44
t-109.5 44t-41.5 106t41.5 106t109.5 44t109 -43.5t41 -106.5zM702 140q0 41 -22 67.5t-59 26.5t-59.5 -26.5t-22.5 -67.5q0 -40 22.5 -67t59.5 -27t59 27t22 67z" />
    <glyph glyph-name="perthousandsmcp.tnum" horiz-adv-x="1183" 
d="M252 21l272 501l58 -31l-273 -501zM363 372q0 -62 -41 -106t-109 -44t-109.5 44t-41.5 106t41.5 106t109.5 44t109 -43.5t41 -106.5zM294 372q0 41 -22 67.5t-59 26.5t-59.5 -26.5t-22.5 -67.5q0 -40 22.5 -67t59.5 -27t59 27t22 67zM771 140q0 -62 -41 -106t-109 -44
t-109.5 44t-41.5 106t41.5 106t109.5 44t109 -43.5t41 -106.5zM702 140q0 41 -22 67.5t-59 26.5t-59.5 -26.5t-22.5 -67.5q0 -40 22.5 -67t59.5 -27t59 27t22 67zM1121 140q0 -62 -41 -106t-109 -44t-109.5 44t-41.5 106t41.5 106t109.5 44t109 -43.5t41 -106.5zM1052 140
q0 41 -22 67.5t-59 26.5t-59.5 -26.5t-22.5 -67.5q0 -40 22.5 -67t59.5 -27t59 27t22 67z" />
    <glyph glyph-name="A.smcp" horiz-adv-x="598" 
d="M346 512l220 -512h-93l-48 120h-252l-48 -120h-93l220 512h94zM299 444l-98 -253h196z" />
    <glyph glyph-name="B.smcp" horiz-adv-x="520" 
d="M476 143q0 -63 -57 -103t-152 -40h-182v512h180q83 0 133.5 -34.5t50.5 -88.5q0 -41 -29 -73.5t-81 -47.5q62 -8 99.5 -41t37.5 -84zM389 147q0 42 -38.5 62.5t-95.5 20.5h-84v-162h95q57 0 90 21.5t33 57.5zM171 298h68q55 0 89 20t34 58q0 68 -104 68h-87v-146z" />
    <glyph glyph-name="C.smcp" horiz-adv-x="520" 
d="M325 522q94 0 151 -27l-15 -68q-55 22 -125 22q-99 0 -150.5 -51t-51.5 -142t51.5 -142t150.5 -51q70 0 125 22l15 -68q-57 -27 -151 -27q-133 0 -207 75t-74 191t74 191t207 75z" />
    <glyph glyph-name="D.smcp" horiz-adv-x="601" 
d="M85 0v512h155q146 0 234.5 -71.5t88.5 -184.5t-88.5 -184.5t-234.5 -71.5h-155zM245 72q101 0 164.5 49t63.5 135t-63.5 135t-164.5 49h-70v-368h70z" />
    <glyph glyph-name="E.smcp" horiz-adv-x="475" 
d="M85 0v512h327v-72h-237v-150h228v-72h-228v-146h240v-72h-330z" />
    <glyph glyph-name="F.smcp" horiz-adv-x="457" 
d="M175 0h-90v512h329v-73h-239v-160h230v-73h-230v-206z" />
    <glyph glyph-name="G.smcp" horiz-adv-x="588" 
d="M338 522q102 0 165 -29l-13 -72q-73 28 -146 28q-104 0 -157 -51t-53 -148q0 -93 52 -141t152 -48q56 0 96 12v155h81v-208q-68 -30 -183 -30q-137 0 -212.5 73t-75.5 187q0 126 77.5 199t216.5 73z" />
    <glyph glyph-name="H.smcp" horiz-adv-x="620" 
d="M535 0h-90v221h-270v-221h-90v512h90v-215h270v215h90v-512z" />
    <glyph glyph-name="I.smcp" horiz-adv-x="264" 
d="M177 512v-512h-90v512h90z" />
    <glyph glyph-name="J.smcp" horiz-adv-x="260" 
d="M178 123q-1 -84 -27 -148t-93 -125l-62 53q92 93 92 212v397h90v-389z" />
    <glyph glyph-name="K.smcp" horiz-adv-x="551" 
d="M175 0h-90v512h90v-244l226 244h113l-241 -253l260 -259h-120l-238 250v-250z" />
    <glyph glyph-name="L.smcp" horiz-adv-x="446" 
d="M85 512h90v-439h233v-73h-323v512z" />
    <glyph glyph-name="M.smcp" horiz-adv-x="748" 
d="M328 84l-153 285l-20 -369h-84l31 512h79l193 -354l193 354h79l31 -512h-84l-20 369l-153 -285h-92z" />
    <glyph glyph-name="N.smcp" horiz-adv-x="645" 
d="M560 0h-82l-306 378v-378h-87v512h82l306 -378v378h87v-512z" />
    <glyph glyph-name="O.smcp" horiz-adv-x="638" 
d="M319 -10q-122 0 -197.5 76.5t-75.5 189.5t75.5 189.5t197.5 76.5t197.5 -76.5t75.5 -189.5t-75.5 -189.5t-197.5 -76.5zM319 61q84 0 133.5 55.5t49.5 139.5t-49.5 139.5t-133.5 55.5t-133.5 -55.5t-49.5 -139.5t49.5 -139.5t133.5 -55.5z" />
    <glyph glyph-name="P.smcp" horiz-adv-x="486" 
d="M454 359q0 -82 -66 -126t-172 -44h-41v-189h-90v512h158q97 0 154 -41t57 -112zM364 355q0 43 -34.5 64.5t-90.5 21.5h-64v-181h46q66 0 104.5 24t38.5 71z" />
    <glyph glyph-name="Q.smcp" horiz-adv-x="638" 
d="M564 -120l-188 115q-30 -5 -57 -5q-122 0 -197.5 76.5t-75.5 189.5t75.5 189.5t197.5 76.5t197.5 -76.5t75.5 -189.5q0 -72 -33 -132.5t-92 -95.5l138 -83zM319 61q84 0 133.5 55.5t49.5 139.5t-49.5 139.5t-133.5 55.5t-133.5 -55.5t-49.5 -139.5t49.5 -139.5
t133.5 -55.5z" />
    <glyph glyph-name="R.smcp" horiz-adv-x="541" 
d="M463 360q0 -57 -37 -96t-100 -57l194 -207h-114l-174 194h-57v-194h-90v512h174q88 0 146 -39.5t58 -112.5zM374 357q0 40 -34 61.5t-84 21.5h-81v-175h55q63 0 103.5 23t40.5 69z" />
    <glyph glyph-name="S.smcp" horiz-adv-x="464" 
d="M414 144q0 -67 -55.5 -110.5t-142.5 -43.5q-85 0 -161 33l17 72q75 -33 143 -33q48 0 79.5 19t31.5 54q0 15 -7 28t-15 21.5t-26.5 18t-29.5 13.5t-36 14q-37 14 -59 24.5t-46 28.5t-35 43.5t-11 59.5q0 64 49 100t130 36q83 0 149 -34l-17 -70q-68 32 -133 32
q-90 0 -90 -61q0 -31 21 -47t68 -33q31 -11 46.5 -17.5t45 -22t44.5 -31t27.5 -40.5t12.5 -54z" />
    <glyph glyph-name="T.smcp" horiz-adv-x="478" 
d="M34 512h410v-73h-160v-439h-90v439h-160v73z" />
    <glyph glyph-name="U.smcp" horiz-adv-x="620" 
d="M448 191v321h90v-316q0 -90 -61.5 -148t-166.5 -58t-166.5 58t-61.5 148v316h90v-321q0 -58 36.5 -93t101.5 -35t101.5 35t36.5 93z" />
    <glyph glyph-name="V.smcp" horiz-adv-x="522" 
d="M261 91l151 421h92l-197 -512h-92l-197 512h92z" />
    <glyph glyph-name="W.smcp" horiz-adv-x="842" 
d="M471 512l138 -400l110 400h88l-153 -512h-85l-148 438l-148 -438h-85l-153 512h88l110 -400l138 400h100z" />
    <glyph glyph-name="X.smcp" horiz-adv-x="558" 
d="M424 0l-145 195l-145 -195h-98l194 258l-191 254h98l142 -191l142 191h98l-191 -254l194 -258h-98z" />
    <glyph glyph-name="Y.smcp" horiz-adv-x="502" 
d="M206 0v195l-193 317h100l138 -240l138 240h100l-193 -317v-195h-90z" />
    <glyph glyph-name="Z.smcp" horiz-adv-x="514" 
d="M73 439v73h374v-69l-281 -370h292v-73h-393v69l281 370h-273z" />
    <glyph glyph-name="zero.smcp" horiz-adv-x="528" 
d="M480 256q0 -117 -56 -191.5t-160 -74.5t-160 74.5t-56 191.5q0 118 56 192t160 74t160 -74t56 -192zM138 256q0 -194 126 -194t126 194t-126 194t-126 -194z" />
    <glyph glyph-name="one.smcp" horiz-adv-x="343" 
d="M258 0h-90v421l-127 -43l-21 71l177 63h61v-512z" />
    <glyph glyph-name="two.smcp" horiz-adv-x="439" 
d="M92 420l-22 66q60 36 140 36q77 0 126 -41t49 -111q0 -65 -34 -115.5t-101 -108.5q-12 -10 -91 -73h240v-73h-348l-16 56q133 116 152 133q35 33 54 53.5t36.5 53.5t17.5 65q0 42 -25.5 65t-71.5 23q-53 0 -106 -29z" />
    <glyph glyph-name="three.smcp" horiz-adv-x="438" 
d="M383 137q0 -67 -53 -107t-136 -40q-78 0 -146 31l17 69q56 -28 120 -28q50 0 79.5 19t29.5 56q0 43 -39 63.5t-93 20.5h-55v73h48q58 0 92.5 25.5t34.5 64.5q0 66 -91 66q-55 0 -107 -26l-18 68q56 30 139 30q73 0 119.5 -34.5t46.5 -91.5q0 -45 -27.5 -80.5t-75.5 -54.5
q115 -30 115 -124z" />
    <glyph glyph-name="four.smcp" horiz-adv-x="496" 
d="M463 133h-84v-133h-85v133h-238l-16 66l246 313h93v-309h84v-70zM294 203v214l-166 -214h166z" />
    <glyph glyph-name="five.smcp" horiz-adv-x="439" 
d="M399 149q0 -72 -55.5 -115.5t-147.5 -43.5q-74 0 -141 24l14 72q62 -23 125 -23q55 0 85.5 21.5t30.5 58.5q0 85 -137 85h-95v284h290v-73h-202v-138h28q84 0 144.5 -37.5t60.5 -114.5z" />
    <glyph glyph-name="six.smcp" horiz-adv-x="471" 
d="M324 522l27 -67q-95 -35 -147.5 -79.5t-67.5 -116.5q50 47 130 47q72 0 117.5 -41t45.5 -110q0 -66 -52.5 -115.5t-132.5 -49.5q-92 0 -143 64t-51 148q0 120 76 201.5t198 118.5zM345 151q0 43 -26.5 66t-71.5 23q-60 0 -112 -46q0 -55 27.5 -96.5t81.5 -41.5
q46 0 73.5 26t27.5 69z" />
    <glyph glyph-name="seven.smcp" horiz-adv-x="411" 
d="M383 512l13 -64l-240 -448h-90l240 439h-251v73h328z" />
    <glyph glyph-name="eight.smcp" horiz-adv-x="480" 
d="M407 400q0 -75 -103 -134q121 -59 121 -138q0 -60 -54 -99t-131 -39q-81 0 -133 37.5t-52 98.5q0 82 122 140q-104 57 -104 134q0 56 47 89t120 33t120 -33t47 -89zM342 123q0 58 -102 105q-24 -12 -37.5 -20.5t-31 -22t-25.5 -29t-8 -33.5q0 -32 28 -52t74 -20t74 20
t28 52zM153 399q0 -30 21.5 -52.5t65.5 -45.5q87 49 87 98q0 28 -23.5 45t-63.5 17t-63.5 -17t-23.5 -45z" />
    <glyph glyph-name="nine.smcp" horiz-adv-x="469" 
d="M145 -10l-27 67q94 35 147 80.5t68 117.5q-20 -22 -55.5 -35.5t-74.5 -13.5q-72 0 -117.5 41t-45.5 110q0 70 52 117.5t133 47.5q92 0 143 -64t51 -148q0 -120 -76 -201.5t-198 -118.5zM124 360q0 -43 26.5 -65.5t71.5 -22.5q62 0 112 46q0 55 -27.5 96.5t-81.5 41.5
q-46 0 -73.5 -26t-27.5 -70z" />
    <glyph glyph-name="cent.smcp" horiz-adv-x="496" 
d="M336 -83h-83v120q-92 13 -141 75t-49 144t49 144t141 75v120h83v-119q57 -6 95 -23l-12 -66q-54 20 -110 20q-78 0 -118 -39.5t-40 -111.5t40 -111.5t118 -39.5q56 0 110 20l12 -66q-41 -19 -95 -24v-118z" />
    <glyph glyph-name="dollar.smcp" horiz-adv-x="467" 
d="M275 -107h-83v110q-75 9 -135 41l20 65q71 -41 151 -41q47 0 74.5 19.5t27.5 53.5t-26.5 54.5t-81.5 40.5q-80 28 -117 61t-37 92q0 52 34.5 85.5t91.5 41.5v111h83v-110q65 -3 113 -29l-15 -66q-67 31 -132 31q-90 0 -90 -62q0 -32 21 -48t73 -36q40 -15 61.5 -25.5
t50.5 -29.5t42.5 -44.5t13.5 -58.5q0 -56 -39 -95.5t-101 -49.5v-111z" />
    <glyph glyph-name="Euro.smcp" horiz-adv-x="558" 
d="M201 256q0 -28 2 -40h244v-58h-230q39 -99 169 -99q60 0 111 19l11 -64q-53 -24 -132 -24q-91 0 -157 44t-92 124h-82v58h70q-2 26 -2 40t2 40h-70v58h82q26 80 92 124t157 44q79 0 132 -24l-11 -64q-51 19 -111 19q-129 0 -169 -99h230v-58h-244q-2 -13 -2 -40z" />
    <glyph glyph-name="sterling.smcp" horiz-adv-x="522" 
d="M64 212v71h90v36q0 105 52 154t142 49q69 0 122 -25l-15 -68q-48 20 -99 20q-59 0 -85.5 -30.5t-26.5 -100.5v-35h170v-71h-175q-6 -43 -30 -81.5t-55 -59.5h300v-71h-384l-15 59q85 79 95 153h-86z" />
    <glyph glyph-name="yen.smcp" horiz-adv-x="518" 
d="M473 512l-106 -203h77v-59h-108l-32 -62v-20h140v-58h-140v-110h-90v110h-140v58h140v20l-33 62h-107v59h77l-106 203h91l123 -253l123 253h91z" />
    <glyph glyph-name="numbersign.smcp" horiz-adv-x="627" 
d="M367 0l15 131h-160l-15 -131h-69l15 131h-91v59h98l17 137h-98v59h105l15 126h69l-15 -126h160l15 126h69l-15 -126h90v-59h-97l-17 -137h98v-59h-105l-15 -131h-69zM246 327l-17 -137h160l17 137h-160z" />
    <glyph glyph-name="plus.smcp" horiz-adv-x="612" 
d="M537 222h-192v-204h-78v204h-192v68h192v204h78v-204h192v-68z" />
    <glyph glyph-name="plusminus.smcp" horiz-adv-x="616" 
d="M539 280h-192v-146h-78v146h-192v68h192v146h78v-146h192v-68zM77 0v68h462v-68h-462z" />
    <glyph glyph-name="multiply.smcp" horiz-adv-x="582" 
d="M291 306l160 161l51 -51l-160 -160l160 -160l-51 -51l-160 161l-160 -161l-51 51l160 160l-160 160l51 51z" />
    <glyph glyph-name="divide.smcp" horiz-adv-x="612" 
d="M537 222h-462v68h462v-68zM249 443q0 24 16 40.5t41 16.5t41 -16.5t16 -40.5t-16 -40.5t-41 -16.5t-41 16.5t-16 40.5zM249 69q0 24 16 40.5t41 16.5t41 -16.5t16 -40.5t-16 -40.5t-41 -16.5t-41 16.5t-16 40.5z" />
    <glyph glyph-name="equal.smcp" horiz-adv-x="622" 
d="M85 328v68h452v-68h-452zM85 117v68h452v-68h-452z" />
    <glyph glyph-name="notequal.smcp" horiz-adv-x="632" 
d="M90 328v68h271l72 125l54 -32l-54 -93h109v-68h-148l-83 -143h231v-68h-270l-72 -125l-54 32l53 93h-109v68h149l82 143h-231z" />
    <glyph glyph-name="logicalnot.smcp" horiz-adv-x="612" 
d="M537 18h-78v204h-384v68h462v-272z" />
    <glyph glyph-name="approxequal.smcp" horiz-adv-x="604" 
d="M408 279q-45 0 -111 34q-56 29 -87 29q-43 0 -97 -46l-38 49q35 34 66.5 50.5t72.5 16.5q46 0 107 -33q56 -30 89 -30q36 0 89 41l35 -51q-63 -60 -126 -60zM408 100q-45 0 -111 34q-56 29 -87 29q-43 0 -97 -46l-38 49q35 34 66.5 50.5t72.5 16.5q46 0 107 -33
q56 -30 89 -30q36 0 89 41l35 -51q-63 -60 -126 -60z" />
    <glyph glyph-name="endash.smcp" horiz-adv-x="519" 
d="M454 214h-389v73h389v-73z" />
    <glyph glyph-name="minus.smcp" horiz-adv-x="558" 
d="M493 223h-428v68h428v-68z" />
    <glyph glyph-name="less.smcp" horiz-adv-x="602" 
d="M70 289l431 215l31 -64l-385 -184l385 -184l-31 -64l-431 215v66z" />
    <glyph glyph-name="greater.smcp" horiz-adv-x="602" 
d="M101 504l431 -215v-66l-431 -215l-31 64l385 184l-385 184z" />
    <glyph glyph-name="lessequal.smcp" horiz-adv-x="612" 
d="M75 0v68h462v-68h-462zM75 348l443 156l19 -66l-374 -123l374 -123l-19 -66l-443 156v66z" />
    <glyph glyph-name="greaterequal.smcp" horiz-adv-x="612" 
d="M537 68v-68h-462v68h462zM94 504l443 -156v-66l-443 -156l-19 66l374 123l-374 123z" />
    <glyph glyph-name="percent.smcp" horiz-adv-x="833" 
d="M252 21l272 501l58 -31l-273 -501zM363 372q0 -62 -41 -106t-109 -44t-109.5 44t-41.5 106t41.5 106t109.5 44t109 -43.5t41 -106.5zM294 372q0 41 -22 67.5t-59 26.5t-59.5 -26.5t-22.5 -67.5q0 -40 22.5 -67t59.5 -27t59 27t22 67zM771 140q0 -62 -41 -106t-109 -44
t-109.5 44t-41.5 106t41.5 106t109.5 44t109 -43.5t41 -106.5zM702 140q0 41 -22 67.5t-59 26.5t-59.5 -26.5t-22.5 -67.5q0 -40 22.5 -67t59.5 -27t59 27t22 67z" />
    <glyph glyph-name="perthousand.smcp" horiz-adv-x="1183" 
d="M252 21l272 501l58 -31l-273 -501zM363 372q0 -62 -41 -106t-109 -44t-109.5 44t-41.5 106t41.5 106t109.5 44t109 -43.5t41 -106.5zM294 372q0 41 -22 67.5t-59 26.5t-59.5 -26.5t-22.5 -67.5q0 -40 22.5 -67t59.5 -27t59 27t22 67zM771 140q0 -62 -41 -106t-109 -44
t-109.5 44t-41.5 106t41.5 106t109.5 44t109 -43.5t41 -106.5zM702 140q0 41 -22 67.5t-59 26.5t-59.5 -26.5t-22.5 -67.5q0 -40 22.5 -67t59.5 -27t59 27t22 67zM1121 140q0 -62 -41 -106t-109 -44t-109.5 44t-41.5 106t41.5 106t109.5 44t109 -43.5t41 -106.5zM1052 140
q0 41 -22 67.5t-59 26.5t-59.5 -26.5t-22.5 -67.5q0 -40 22.5 -67t59.5 -27t59 27t22 67z" />
    <glyph glyph-name="period.smcp" horiz-adv-x="256" 
d="M186 51q0 -25 -16 -41.5t-42 -16.5t-42 16.5t-16 41.5t16 41.5t42 16.5t42 -16.5t16 -41.5z" />
    <glyph glyph-name="ellipsis.smcp" horiz-adv-x="768" 
d="M186 51q0 -25 -16 -41.5t-42 -16.5t-42 16.5t-16 41.5t16 41.5t42 16.5t42 -16.5t16 -41.5zM442 51q0 -25 -16 -41.5t-42 -16.5t-42 16.5t-16 41.5t16 41.5t42 16.5t42 -16.5t16 -41.5zM698 51q0 -25 -16 -41.5t-42 -16.5t-42 16.5t-16 41.5t16 41.5t42 16.5t42 -16.5
t16 -41.5z" />
    <glyph glyph-name="comma.smcp" horiz-adv-x="233" 
d="M105 -126l-62 27q45 101 48 206l87 -9q-8 -120 -73 -224z" />
    <glyph glyph-name="colon.smcp" horiz-adv-x="256" 
d="M186 51q0 -25 -16 -41.5t-42 -16.5t-42 16.5t-16 41.5t16 41.5t42 16.5t42 -16.5t16 -41.5zM186 400q0 -25 -16 -41.5t-42 -16.5t-42 16.5t-16 41.5t16 41.5t42 16.5t42 -16.5t16 -41.5z" />
    <glyph glyph-name="semicolon.smcp" horiz-adv-x="251" 
d="M186 400q0 -25 -16 -41.5t-42 -16.5t-42 16.5t-16 41.5t16 41.5t42 16.5t42 -16.5t16 -41.5zM89 -126l-62 27q45 101 48 206l87 -9q-8 -120 -73 -224z" />
    <glyph glyph-name="hyphen.smcp" horiz-adv-x="377" 
d="M317 214h-257v73h257v-73z" />
    <glyph glyph-name="emdash.smcp" horiz-adv-x="779" 
d="M719 214h-659v73h659v-73z" />
    <glyph glyph-name="question.smcp" horiz-adv-x="425" 
d="M375 391q0 -38 -15.5 -70.5t-48 -61.5t-65.5 -51.5t-86 -52.5l-40 64q43 27 65 42t49.5 37.5t39 43.5t11.5 43q0 32 -23 48t-59 16q-62 0 -124 -34l-24 66q63 41 154 41q72 0 119 -36t47 -95zM237 49q0 -23 -16 -39.5t-40 -16.5t-40 16.5t-16 39.5t16 39.5t40 16.5
t40 -16.5t16 -39.5z" />
    <glyph glyph-name="exclam.smcp" horiz-adv-x="302" 
d="M197 348l-19 -194h-52l-21 194v164h92v-164zM207 49q0 -23 -16 -39.5t-40 -16.5t-40 16.5t-16 39.5t16 39.5t40 16.5t40 -16.5t16 -39.5z" />
    <glyph glyph-name="questiondown.smcp" horiz-adv-x="432" 
d="M57 121q0 22 6.5 42t13.5 35.5t26.5 35t30 29.5t41.5 31.5t43 29t51 32.5l43 -63q-9 -6 -27 -18.5t-27.5 -19t-25 -18t-24 -18.5t-20 -17.5t-17.5 -18.5t-12.5 -17.5t-9 -19t-2.5 -19.5q0 -32 23 -48t59 -16q63 0 123 34l25 -66q-63 -41 -154 -41q-72 0 -119 36t-47 95z
M195 466q0 23 16 39.5t40 16.5t40 -16.5t16 -39.5t-16 -39.5t-40 -16.5t-40 16.5t-16 39.5z" />
    <glyph glyph-name="exclamdown.smcp" horiz-adv-x="302" 
d="M178 358l19 -194v-164h-92v164l21 194h52zM207 466q0 -23 -16 -39.5t-40 -16.5t-40 16.5t-16 39.5t16 39.5t40 16.5t40 -16.5t16 -39.5z" />
    <glyph glyph-name="ampersand.smcp" horiz-adv-x="640" 
d="M245 522q56 0 96.5 -30t40.5 -79q0 -42 -27 -77t-85 -79q51 -39 139 -92q40 53 88 151l61 -31q-43 -90 -91 -154q68 -40 151 -82l-31 -59q-90 47 -164 90q-88 -90 -201 -90q-75 0 -120 34t-45 89q0 47 25 77.5t81 69.5q-72 70 -72 136q0 58 43 92t111 34zM365 115
q-88 51 -151 101q-40 -29 -56.5 -49t-16.5 -48q0 -66 83 -66q76 0 141 62zM169 395q0 -45 51 -96q44 31 65.5 55t21.5 53q0 26 -18.5 40t-46.5 14q-33 0 -53 -16.5t-20 -49.5z" />
    <glyph glyph-name="ampersand.salt.smcp" horiz-adv-x="578" 
d="M60 133q0 53 33 86.5t85 45.5q-99 34 -99 121q0 64 53 100t143 36q92 0 164 -28l-15 -69q-72 28 -145 28q-115 0 -115 -74q0 -41 36 -61.5t98 -20.5h252v-69h-87v-202q-91 -36 -198 -36q-92 0 -148.5 38t-56.5 105zM270 56q70 0 115 14v158h-77q-163 0 -163 -93
q0 -38 32.5 -58.5t92.5 -20.5z" />
    <glyph glyph-name="at.smcp" horiz-adv-x="662" 
d="M356 336q-37 0 -58.5 -29.5t-21.5 -73.5q0 -37 26 -37q33 0 70 65l12 71q-11 4 -28 4zM446 360l-14 -82q-3 -15 -3 -30q0 -59 54 -59q37 0 58.5 33.5t21.5 83.5q0 80 -57 127.5t-149 47.5q-108 0 -177.5 -67t-69.5 -178q0 -96 59 -148.5t164 -52.5q88 0 176 38l14 -46
q-87 -41 -194 -41q-127 0 -202 71t-75 180q0 127 86 210t221 83q118 0 189.5 -64.5t71.5 -153.5q0 -74 -40.5 -120.5t-103.5 -46.5q-41 0 -67 18t-31 50q-39 -64 -89 -64q-33 0 -52 23.5t-19 58.5q0 65 36 108.5t102 43.5q49 0 90 -23z" />
    <glyph glyph-name="asterisk.smcp" horiz-adv-x="370" 
d="M82 465l82 -48v95h42v-95l82 48l20 -35l-83 -49l83 -49l-20 -35l-82 48v-95h-42v95l-82 -48l-20 35l83 49l-83 49z" />
    <glyph glyph-name="parenleft.smcp" horiz-adv-x="331" 
d="M170 256q0 -151 101 -318l-64 -38q-127 181 -127 356t127 356l64 -38q-101 -167 -101 -318z" />
    <glyph glyph-name="parenright.smcp" horiz-adv-x="331" 
d="M161 256q0 151 -101 318l64 38q127 -181 127 -356t-127 -356l-64 38q101 167 101 318z" />
    <glyph glyph-name="bracketleft.smcp" horiz-adv-x="355" 
d="M295 -90h-200v692h200v-69h-110v-554h110v-69z" />
    <glyph glyph-name="bracketright.smcp" horiz-adv-x="355" 
d="M260 -90h-200v69h110v554h-110v69h200v-692z" />
    <glyph glyph-name="braceleft.smcp" horiz-adv-x="396" 
d="M222 142v-81q0 -81 75 -81h44v-70h-54q-155 0 -155 160v80q0 72 -72 72h-15v68h15q72 0 72 72v80q0 160 155 160h54v-70h-44q-75 0 -75 -81v-81q0 -90 -93 -114q93 -24 93 -114z" />
    <glyph glyph-name="braceright.smcp" horiz-adv-x="396" 
d="M174 61v81q0 90 93 114q-93 24 -93 114v81q0 81 -75 81h-44v70h54q155 0 155 -160v-80q0 -72 72 -72h15v-68h-15q-72 0 -72 -72v-80q0 -160 -155 -160h-54v70h44q75 0 75 81z" />
    <glyph glyph-name="slash.smcp" horiz-adv-x="409" 
d="M55 -75l225 687l74 -24l-226 -688z" />
    <glyph glyph-name="backslash.smcp" horiz-adv-x="409" 
d="M129 612l225 -687l-73 -25l-226 688z" />
    <glyph glyph-name="bar.smcp" horiz-adv-x="284" 
d="M179 -120h-74v746h74v-746z" />
    <glyph glyph-name="brokenbar.smcp" horiz-adv-x="284" 
d="M179 -120h-74v292h74v-292zM179 626v-292h-74v292h74z" />
    <glyph glyph-name="paragraph.smcp" horiz-adv-x="540" 
d="M455 0h-75v448h-116v-311q-89 0 -144 50.5t-55 137.5q0 85 56.5 136t142.5 51h191v-512z" />
    <glyph glyph-name="trademark.smcp" horiz-adv-x="725" 
d="M45 512h236v-46h-90v-267h-56v267h-90v46zM468 258l-73 161l-15 -220h-54l23 313h58l91 -206l91 206h58l23 -313h-54l-15 220l-73 -161h-60z" />
    <glyph glyph-name="quotedblleft.smcp" horiz-adv-x="426" 
d="M323 522l58 -28q-41 -91 -48 -201l-82 8q7 127 72 221zM132 522l58 -28q-41 -91 -48 -201l-82 8q7 127 72 221z" />
    <glyph glyph-name="quotedblright.smcp" horiz-adv-x="426" 
d="M118 293l-58 28q41 91 48 201l82 -8q-7 -127 -72 -221zM309 293l-58 28q41 91 48 201l82 -8q-7 -127 -72 -221z" />
    <glyph glyph-name="quoteleft.smcp" horiz-adv-x="235" 
d="M132 522l58 -28q-41 -91 -48 -201l-82 8q7 127 72 221z" />
    <glyph glyph-name="quoteright.smcp" horiz-adv-x="230" 
d="M113 293l-58 28q41 91 48 201l82 -8q-7 -127 -72 -221z" />
    <glyph glyph-name="quotesinglbase.smcp" horiz-adv-x="228" 
d="M101 -122l-58 28q41 91 48 201l82 -8q-7 -127 -72 -221z" />
    <glyph glyph-name="quotedblbase.smcp" horiz-adv-x="419" 
d="M101 -122l-58 28q41 91 48 201l82 -8q-7 -127 -72 -221zM292 -122l-58 28q41 91 48 201l82 -8q-7 -127 -72 -221z" />
    <glyph glyph-name="guillemotleft.smcp" horiz-adv-x="575" 
d="M145 256l131 -162l-59 -46l-167 208l167 208l59 -46zM374 256l131 -162l-59 -46l-167 208l167 208l59 -46z" />
    <glyph glyph-name="guillemotright.smcp" horiz-adv-x="575" 
d="M299 94l131 162l-131 162l59 46l167 -208l-167 -208zM70 94l131 162l-131 162l59 46l167 -208l-167 -208z" />
    <glyph glyph-name="guilsinglleft.smcp" horiz-adv-x="346" 
d="M145 256l131 -162l-59 -46l-167 208l167 208l59 -46z" />
    <glyph glyph-name="guilsinglright.smcp" horiz-adv-x="346" 
d="M70 94l131 162l-131 162l59 46l167 -208l-167 -208z" />
    <glyph glyph-name="asciicircum.smcp" horiz-adv-x="466" 
d="M275 512l136 -249l-66 -33l-112 217l-112 -217l-66 33l136 249h84z" />
    <glyph glyph-name="quotedbl.smcp" horiz-adv-x="421" 
d="M152 302h-66l-11 210h88zM335 302h-66l-11 210h88z" />
    <glyph glyph-name="quotesingle.smcp" horiz-adv-x="238" 
d="M152 302h-66l-11 210h88z" />
    <glyph glyph-name="asciitilde.smcp" horiz-adv-x="581" 
d="M462 334l64 -28q-21 -63 -52 -93.5t-79 -30.5q-10 0 -20 2t-24 7.5t-20.5 8t-25.5 12t-22 11.5q-64 32 -86 32q-15 0 -26 -5t-19.5 -18t-13 -23t-12.5 -30l-66 28q19 66 51 95t86 29q42 0 110 -37q66 -36 89 -36q18 0 31.5 12.5t20 26t14.5 37.5z" />
    <glyph glyph-name="degree.smcp" horiz-adv-x="380" 
d="M60 398q0 52 36 88t94 36t94 -36t36 -88t-36 -88.5t-94 -36.5t-94 36.5t-36 88.5zM261 398q0 32 -18.5 54t-52.5 22t-52.5 -22t-18.5 -54t18.5 -54t52.5 -22t52.5 22t18.5 54z" />
    <glyph glyph-name="bullet.smcp" horiz-adv-x="400" 
d="M325 266q0 -52 -36 -89t-89 -37t-89 37t-36 89t36 89t89 37t89 -37t36 -89z" />
    <glyph glyph-name="periodcentered.smcp" horiz-adv-x="256" 
d="M186 266q0 -25 -16 -41.5t-42 -16.5t-42 16.5t-16 41.5t16 41.5t42 16.5t42 -16.5t16 -41.5z" />
    <glyph glyph-name="acute.smcp" horiz-adv-x="395" 
d="M189 572h-74l63 114h102z" />
    <glyph glyph-name="breve.smcp" horiz-adv-x="494" 
d="M319 691l60 -17q-14 -51 -49.5 -76.5t-82.5 -25.5t-82.5 25.5t-49.5 76.5l60 17q17 -63 72 -63t72 63z" />
    <glyph glyph-name="caron.smcp" horiz-adv-x="496" 
d="M381 686l-86 -114h-94l-86 114h80l53 -76l53 76h80z" />
    <glyph glyph-name="cedilla.smcp" horiz-adv-x="388" 
d="M273 -119q0 -43 -37.5 -65t-106.5 -32l-13 54q77 11 77 42q0 13 -13 21.5t-26.5 12t-38.5 8.5l32 78h57l-16 -44q85 -18 85 -75z" />
    <glyph glyph-name="circumflex.smcp" horiz-adv-x="496" 
d="M295 686l86 -114h-80l-53 76l-53 -76h-80l86 114h94z" />
    <glyph glyph-name="dieresis.smcp" horiz-adv-x="509" 
d="M217 627q0 -23 -14.5 -36.5t-36.5 -13.5t-36.5 13.5t-14.5 36.5q0 22 15 36t36 14t36 -14t15 -36zM394 627q0 -23 -14.5 -36.5t-36.5 -13.5t-36.5 13.5t-14.5 36.5q0 22 15 36t36 14t36 -14t15 -36z" />
    <glyph glyph-name="dotaccent.smcp" horiz-adv-x="344" 
d="M115 633q0 24 16 40.5t41 16.5t41 -16.5t16 -40.5t-16 -40.5t-41 -16.5t-41 16.5t-16 40.5z" />
    <glyph glyph-name="grave.smcp" horiz-adv-x="395" 
d="M280 572h-74l-91 114h102z" />
    <glyph glyph-name="hungarumlaut.smcp" horiz-adv-x="551" 
d="M187 572h-72l50 114h92zM366 572h-72l50 114h92z" />
    <glyph glyph-name="macron.smcp" horiz-adv-x="507" 
d="M115 597v68h277v-68h-277z" />
    <glyph glyph-name="ogonek.smcp" horiz-adv-x="404" 
d="M279 -149l9 -50q-32 -17 -78 -17q-44 0 -71.5 24.5t-27.5 65.5q0 30 17.5 57.5t33 40t39.5 28.5h88q-7 -5 -22 -16t-21.5 -16t-17.5 -14.5t-16 -16t-11 -15.5t-8 -18t-2 -19q0 -43 43 -43q23 0 45 9z" />
    <glyph glyph-name="ring.smcp" horiz-adv-x="406" 
d="M203 739q41 0 64.5 -25t23.5 -59t-23.5 -58.5t-64.5 -24.5t-64.5 24.5t-23.5 58.5t23.5 59t64.5 25zM244 655q0 19 -11 31.5t-30 12.5t-30 -12.5t-11 -31.5t11 -31t30 -12t30 12t11 31z" />
    <glyph glyph-name="tilde.smcp" horiz-adv-x="556" 
d="M349 576q-22 0 -77 23q-40 18 -60 18q-17 0 -25 -10t-17 -35l-55 19q13 51 35 71.5t62 20.5q30 0 72 -19q51 -22 62 -22q15 0 23.5 10t17.5 32l54 -23q-19 -47 -38.5 -66t-53.5 -19z" />
    <glyph glyph-name="uni0315.smcp" horiz-adv-x="360" 
d="M179 304l-57 27q39 95 43 181l80 -8q-6 -114 -66 -200z" />
    <glyph glyph-name="uni0326.smcp" horiz-adv-x="352" 
d="M176 -250l-63 27q37 81 40 152h86q-3 -47 -20.5 -96t-42.5 -83z" />
    <glyph glyph-name="Aacute.smcp" horiz-adv-x="598" 
d="M346 512l220 -512h-93l-48 120h-252l-48 -120h-93l220 512h94zM299 444l-98 -253h196zM338 572h-74l63 114h102z" />
    <glyph glyph-name="AE.smcp" horiz-adv-x="791" 
d="M438 0l-18 119h-238l-72 -119h-97l325 512h385v-71h-269l23 -151h237v-72h-226l24 -147h214v-71h-288zM373 440l-151 -252h187z" />
    <glyph glyph-name="AEacute.smcp" horiz-adv-x="791" 
d="M438 0l-18 119h-238l-72 -119h-97l325 512h385v-71h-269l23 -151h237v-72h-226l24 -147h214v-71h-288zM373 440l-151 -252h187zM461 572h-74l63 114h102z" />
    <glyph glyph-name="Abreve.smcp" horiz-adv-x="598" 
d="M346 512l220 -512h-93l-48 120h-252l-48 -120h-93l220 512h94zM299 444l-98 -253h196zM371 691l60 -17q-14 -51 -49.5 -76.5t-82.5 -25.5t-82.5 25.5t-49.5 76.5l60 17q17 -63 72 -63t72 63z" />
    <glyph glyph-name="Acircumflex.smcp" horiz-adv-x="598" 
d="M346 512l220 -512h-93l-48 120h-252l-48 -120h-93l220 512h94zM299 444l-98 -253h196zM346 686l86 -114h-80l-53 76l-53 -76h-80l86 114h94z" />
    <glyph glyph-name="Adieresis.smcp" horiz-adv-x="598" 
d="M346 512l220 -512h-93l-48 120h-252l-48 -120h-93l220 512h94zM299 444l-98 -253h196zM261 627q0 -23 -14.5 -36.5t-36.5 -13.5t-36.5 13.5t-14.5 36.5q0 22 15 36t36 14t36 -14t15 -36zM438 627q0 -23 -14.5 -36.5t-36.5 -13.5t-36.5 13.5t-14.5 36.5q0 22 15 36t36 14
t36 -14t15 -36z" />
    <glyph glyph-name="Agrave.smcp" horiz-adv-x="598" 
d="M346 512l220 -512h-93l-48 120h-252l-48 -120h-93l220 512h94zM299 444l-98 -253h196zM333 572h-74l-91 114h102z" />
    <glyph glyph-name="Amacron.smcp" horiz-adv-x="598" 
d="M346 512l220 -512h-93l-48 120h-252l-48 -120h-93l220 512h94zM299 444l-98 -253h196zM160 597v68h277v-68h-277z" />
    <glyph glyph-name="Aogonek.smcp" horiz-adv-x="598" 
d="M556 -149l9 -50q-32 -17 -78 -17q-43 0 -71 25t-28 66q0 72 85 125l-48 120h-252l-48 -120h-93l220 512h94l220 -512q-6 -4 -23.5 -17t-24 -18t-19 -16.5t-17.5 -19.5t-9.5 -20t-4.5 -24q0 -43 43 -43q23 0 45 9zM299 444l-98 -253h196z" />
    <glyph glyph-name="Aring.smcp" horiz-adv-x="598" 
d="M299 649q41 0 64.5 -25t23.5 -59q0 -45 -35 -68l214 -497h-93l-48 120h-252l-48 -120h-93l213 497q-34 22 -34 68q0 34 23.5 59t64.5 25zM299 444l-98 -253h196zM340 564q0 19 -11 32t-30 13t-30 -13t-11 -32t11 -31.5t30 -12.5t30 12.5t11 31.5z" />
    <glyph glyph-name="Aringacute.smcp" horiz-adv-x="598" 
d="M299 649q41 0 64.5 -25t23.5 -59q0 -45 -35 -68l214 -497h-93l-48 120h-252l-48 -120h-93l213 497q-34 22 -34 68q0 34 23.5 59t64.5 25zM299 444l-98 -253h196zM340 564q0 19 -11 32t-30 13t-30 -13t-11 -32t11 -31.5t30 -12.5t30 12.5t11 31.5zM333 677h-72l53 97h103z
" />
    <glyph glyph-name="Atilde.smcp" horiz-adv-x="598" 
d="M346 512l220 -512h-93l-48 120h-252l-48 -120h-93l220 512h94zM299 444l-98 -253h196zM370 576q-22 0 -77 23q-40 18 -60 18q-17 0 -25 -10t-17 -35l-55 19q13 51 35 71.5t62 20.5q30 0 72 -19q51 -22 62 -22q15 0 23.5 10t17.5 32l54 -23q-19 -47 -38.5 -66t-53.5 -19z
" />
    <glyph glyph-name="Cacute.smcp" horiz-adv-x="520" 
d="M325 522q94 0 151 -27l-15 -68q-55 22 -125 22q-99 0 -150.5 -51t-51.5 -142t51.5 -142t150.5 -51q70 0 125 22l15 -68q-57 -27 -151 -27q-133 0 -207 75t-74 191t74 191t207 75zM322 572h-74l63 114h102z" />
    <glyph glyph-name="Ccaron.smcp" horiz-adv-x="520" 
d="M325 522q94 0 151 -27l-15 -68q-55 22 -125 22q-99 0 -150.5 -51t-51.5 -142t51.5 -142t150.5 -51q70 0 125 22l15 -68q-57 -27 -151 -27q-133 0 -207 75t-74 191t74 191t207 75zM435 686l-86 -114h-94l-86 114h80l53 -76l53 76h80z" />
    <glyph glyph-name="Ccedilla.smcp" horiz-adv-x="520" 
d="M402 -119q0 -43 -37.5 -65t-106.5 -32l-13 54q77 11 77 42q0 13 -13 21.5t-26.5 12t-38.5 8.5l29 72q-109 14 -169 85.5t-60 176.5q0 116 74 191t207 75q94 0 151 -27l-15 -68q-55 22 -125 22q-99 0 -150.5 -51t-51.5 -142t51.5 -142t150.5 -51q70 0 125 22l15 -68
q-55 -25 -147 -27l-12 -34q85 -18 85 -75z" />
    <glyph glyph-name="Ccircumflex.smcp" horiz-adv-x="520" 
d="M325 522q94 0 151 -27l-15 -68q-55 22 -125 22q-99 0 -150.5 -51t-51.5 -142t51.5 -142t150.5 -51q70 0 125 22l15 -68q-57 -27 -151 -27q-133 0 -207 75t-74 191t74 191t207 75zM343 686l86 -114h-80l-53 76l-53 -76h-80l86 114h94z" />
    <glyph glyph-name="Cdotaccent.smcp" horiz-adv-x="520" 
d="M325 522q94 0 151 -27l-15 -68q-55 22 -125 22q-99 0 -150.5 -51t-51.5 -142t51.5 -142t150.5 -51q70 0 125 22l15 -68q-57 -27 -151 -27q-133 0 -207 75t-74 191t74 191t207 75zM243 633q0 24 16 40.5t41 16.5t41 -16.5t16 -40.5t-16 -40.5t-41 -16.5t-41 16.5t-16 40.5
z" />
    <glyph glyph-name="Dcaron.smcp" horiz-adv-x="601" 
d="M85 0v512h155q146 0 234.5 -71.5t88.5 -184.5t-88.5 -184.5t-234.5 -71.5h-155zM245 72q101 0 164.5 49t63.5 135t-63.5 135t-164.5 49h-70v-368h70zM417 686l-86 -114h-94l-86 114h80l53 -76l53 76h80z" />
    <glyph glyph-name="Dcroat.smcp" horiz-adv-x="605" 
d="M89 0v221h-64v71h64v220h155q146 0 234.5 -71.5t88.5 -184.5t-88.5 -184.5t-234.5 -71.5h-155zM329 221h-150v-149h70q101 0 164.5 49t63.5 135t-63.5 135t-164.5 49h-70v-148h150v-71z" />
    <glyph glyph-name="Eacute.smcp" horiz-adv-x="475" 
d="M85 0v512h327v-72h-237v-150h228v-72h-228v-146h240v-72h-330zM269 572h-74l63 114h102z" />
    <glyph glyph-name="Ebreve.smcp" horiz-adv-x="475" 
d="M85 0v512h327v-72h-237v-150h228v-72h-228v-146h240v-72h-330zM329 691l60 -17q-14 -51 -49.5 -76.5t-82.5 -25.5t-82.5 25.5t-49.5 76.5l60 17q17 -63 72 -63t72 63z" />
    <glyph glyph-name="Ecaron.smcp" horiz-adv-x="475" 
d="M85 0v512h327v-72h-237v-150h228v-72h-228v-146h240v-72h-330zM387 686l-86 -114h-94l-86 114h80l53 -76l53 76h80z" />
    <glyph glyph-name="Ecircumflex.smcp" horiz-adv-x="475" 
d="M85 0v512h327v-72h-237v-150h228v-72h-228v-146h240v-72h-330zM300 686l86 -114h-80l-53 76l-53 -76h-80l86 114h94z" />
    <glyph glyph-name="Edieresis.smcp" horiz-adv-x="475" 
d="M85 0v512h327v-72h-237v-150h228v-72h-228v-146h240v-72h-330zM217 627q0 -23 -14.5 -36.5t-36.5 -13.5t-36.5 13.5t-14.5 36.5q0 22 15 36t36 14t36 -14t15 -36zM394 627q0 -23 -14.5 -36.5t-36.5 -13.5t-36.5 13.5t-14.5 36.5q0 22 15 36t36 14t36 -14t15 -36z" />
    <glyph glyph-name="Edotaccent.smcp" horiz-adv-x="475" 
d="M85 0v512h327v-72h-237v-150h228v-72h-228v-146h240v-72h-330zM198 633q0 24 16 40.5t41 16.5t41 -16.5t16 -40.5t-16 -40.5t-41 -16.5t-41 16.5t-16 40.5z" />
    <glyph glyph-name="Egrave.smcp" horiz-adv-x="475" 
d="M85 0v512h327v-72h-237v-150h228v-72h-228v-146h240v-72h-330zM305 572h-74l-91 114h102z" />
    <glyph glyph-name="Emacron.smcp" horiz-adv-x="475" 
d="M85 0v512h327v-72h-237v-150h228v-72h-228v-146h240v-72h-330zM113 597v68h277v-68h-277z" />
    <glyph glyph-name="Eng.smcp" horiz-adv-x="645" 
d="M560 78q0 -107 -47 -179.5t-158 -114.5l-32 70q128 51 146 161l-297 363v-378h-87v512h82l306 -378v378h87v-434z" />
    <glyph glyph-name="Eogonek.smcp" horiz-adv-x="475" 
d="M85 0v512h327v-72h-237v-150h228v-72h-228v-146h240v-72q-3 -2 -19.5 -14t-20.5 -15.5t-17 -14t-17.5 -16.5t-11.5 -16t-9.5 -19.5t-2.5 -19.5q0 -43 43 -43q23 0 45 9l9 -50q-32 -17 -78 -17q-44 0 -71.5 24.5t-27.5 65.5q0 73 92 126h-244z" />
    <glyph glyph-name="Eth.smcp" horiz-adv-x="605" 
d="M89 0v221h-64v71h64v220h155q146 0 234.5 -71.5t88.5 -184.5t-88.5 -184.5t-234.5 -71.5h-155zM329 221h-150v-149h70q101 0 164.5 49t63.5 135t-63.5 135t-164.5 49h-70v-148h150v-71z" />
    <glyph glyph-name="Gbreve.smcp" horiz-adv-x="588" 
d="M338 522q102 0 165 -29l-13 -72q-73 28 -146 28q-104 0 -157 -51t-53 -148q0 -93 52 -141t152 -48q56 0 96 12v155h81v-208q-68 -30 -183 -30q-137 0 -212.5 73t-75.5 187q0 126 77.5 199t216.5 73zM391 691l60 -17q-14 -51 -49.5 -76.5t-82.5 -25.5t-82.5 25.5
t-49.5 76.5l60 17q17 -63 72 -63t72 63z" />
    <glyph glyph-name="Gcircumflex.smcp" horiz-adv-x="588" 
d="M338 522q102 0 165 -29l-13 -72q-73 28 -146 28q-104 0 -157 -51t-53 -148q0 -93 52 -141t152 -48q56 0 96 12v155h81v-208q-68 -30 -183 -30q-137 0 -212.5 73t-75.5 187q0 126 77.5 199t216.5 73zM360 686l86 -114h-80l-53 76l-53 -76h-80l86 114h94z" />
    <glyph glyph-name="Gcommaaccent.smcp" horiz-adv-x="588" 
d="M338 522q102 0 165 -29l-13 -72q-73 28 -146 28q-104 0 -157 -51t-53 -148q0 -93 52 -141t152 -48q56 0 96 12v155h81v-208q-68 -30 -183 -30q-137 0 -212.5 73t-75.5 187q0 126 77.5 199t216.5 73zM302 -250l-63 27q37 81 40 152h86q-3 -47 -20.5 -96t-42.5 -83z" />
    <glyph glyph-name="Gdotaccent.smcp" horiz-adv-x="588" 
d="M338 522q102 0 165 -29l-13 -72q-73 28 -146 28q-104 0 -157 -51t-53 -148q0 -93 52 -141t152 -48q56 0 96 12v155h81v-208q-68 -30 -183 -30q-137 0 -212.5 73t-75.5 187q0 126 77.5 199t216.5 73zM258 633q0 24 16 40.5t41 16.5t41 -16.5t16 -40.5t-16 -40.5t-41 -16.5
t-41 16.5t-16 40.5z" />
    <glyph glyph-name="germandbls.smcp" horiz-adv-x="925" 
d="M414 144q0 -67 -55.5 -110.5t-142.5 -43.5q-85 0 -161 33l17 72q75 -33 143 -33q48 0 79.5 19t31.5 54q0 15 -7 28t-15 21.5t-26.5 18t-29.5 13.5t-36 14q-37 14 -59 24.5t-46 28.5t-35 43.5t-11 59.5q0 64 49 100t130 36q83 0 149 -34l-17 -70q-68 32 -133 32
q-90 0 -90 -61q0 -31 21 -47t68 -33q31 -11 46.5 -17.5t45 -22t44.5 -31t27.5 -40.5t12.5 -54zM875 144q0 -67 -55.5 -110.5t-142.5 -43.5q-85 0 -161 33l17 72q75 -33 143 -33q48 0 79.5 19t31.5 54q0 15 -7 28t-15 21.5t-26.5 18t-29.5 13.5t-36 14q-37 14 -59 24.5
t-46 28.5t-35 43.5t-11 59.5q0 64 49 100t130 36q83 0 149 -34l-17 -70q-68 32 -133 32q-90 0 -90 -61q0 -31 21 -47t68 -33q31 -11 46.5 -17.5t45 -22t44.5 -31t27.5 -40.5t12.5 -54z" />
    <glyph glyph-name="Hbar.smcp" horiz-adv-x="640" 
d="M545 0h-90v221h-270v-221h-90v365h-70v62h70v85h90v-85h270v85h90v-85h70v-62h-70v-365zM185 297h270v68h-270v-68z" />
    <glyph glyph-name="Hcircumflex.smcp" horiz-adv-x="620" 
d="M535 0h-90v221h-270v-221h-90v512h90v-215h270v215h90v-512zM357 686l86 -114h-80l-53 76l-53 -76h-80l86 114h94z" />
    <glyph glyph-name="Iacute.smcp" horiz-adv-x="264" 
d="M177 512v-512h-90v512h90zM169 572h-74l63 114h102z" />
    <glyph glyph-name="Ibreve.smcp" horiz-adv-x="264" 
d="M177 512v-512h-90v512h90zM204 691l60 -17q-14 -51 -49.5 -76.5t-82.5 -25.5t-82.5 25.5t-49.5 76.5l60 17q17 -63 72 -63t72 63z" />
    <glyph glyph-name="Icircumflex.smcp" horiz-adv-x="264" 
d="M177 512v-512h-90v512h90zM179 686l86 -114h-80l-53 76l-53 -76h-80l86 114h94z" />
    <glyph glyph-name="Idieresis.smcp" horiz-adv-x="264" 
d="M177 512v-512h-90v512h90zM95 627q0 -23 -14.5 -36.5t-36.5 -13.5t-36.5 13.5t-14.5 36.5q0 22 15 36t36 14t36 -14t15 -36zM272 627q0 -23 -14.5 -36.5t-36.5 -13.5t-36.5 13.5t-14.5 36.5q0 22 15 36t36 14t36 -14t15 -36z" />
    <glyph glyph-name="Igrave.smcp" horiz-adv-x="264" 
d="M177 512v-512h-90v512h90zM172 572h-74l-91 114h102z" />
    <glyph glyph-name="Imacron.smcp" horiz-adv-x="264" 
d="M177 512v-512h-90v512h90zM-6 597v68h277v-68h-277z" />
    <glyph glyph-name="Iogonek.smcp" horiz-adv-x="264" 
d="M181 -149l8 -52q-30 -15 -74 -15q-45 0 -72 26.5t-27 68.5q0 69 71 121v512h90v-512q-40 -30 -60.5 -55.5t-20.5 -57.5q0 -45 43 -45q20 0 42 9z" />
    <glyph glyph-name="Itilde.smcp" horiz-adv-x="264" 
d="M177 512v-512h-90v512h90zM207 576q-22 0 -77 23q-41 18 -60 18q-17 0 -25 -10t-17 -35l-55 19q13 51 35 71.5t62 20.5q30 0 72 -19q51 -22 62 -22q15 0 23.5 10t17.5 32l54 -23q-19 -47 -38.5 -66t-53.5 -19z" />
    <glyph glyph-name="IJ.smcp" horiz-adv-x="524" 
d="M177 512v-512h-90v512h90zM442 123q-1 -84 -27 -148t-93 -125l-62 53q92 93 92 212v397h90v-389z" />
    <glyph glyph-name="Jcircumflex.smcp" horiz-adv-x="260" 
d="M178 123q-1 -84 -27 -148t-93 -125l-62 53q92 93 92 212v397h90v-389zM177 686l86 -114h-80l-53 76l-53 -76h-80l86 114h94z" />
    <glyph glyph-name="Kcommaaccent.smcp" horiz-adv-x="551" 
d="M175 0h-90v512h90v-244l226 244h113l-241 -253l260 -259h-120l-238 250v-250zM270 -250l-63 27q37 81 40 152h86q-3 -47 -20.5 -96t-42.5 -83z" />
    <glyph glyph-name="Lacute.smcp" horiz-adv-x="446" 
d="M85 512h90v-439h233v-73h-323v512zM166 572h-74l63 114h102z" />
    <glyph glyph-name="Lcaron.smcp" horiz-adv-x="446" 
d="M85 512h90v-439h233v-73h-323v512zM328 304l-57 27q39 95 43 181l80 -8q-6 -114 -66 -200z" />
    <glyph glyph-name="Lcommaaccent.smcp" horiz-adv-x="446" 
d="M85 512h90v-439h233v-73h-323v512zM220 -250l-63 27q37 81 40 152h86q-3 -47 -20.5 -96t-42.5 -83z" />
    <glyph glyph-name="Ldot.smcp" horiz-adv-x="446" 
d="M85 512h90v-439h233v-73h-323v512zM375 256q0 -25 -16 -41.5t-42 -16.5t-42 16.5t-16 41.5t16 41.5t42 16.5t42 -16.5t16 -41.5z" />
    <glyph glyph-name="Lslash.smcp" horiz-adv-x="451" 
d="M90 512h90v-225l153 77l30 -64l-183 -92v-135h233v-73h-323v162l-61 -30l-29 65l90 44v271z" />
    <glyph glyph-name="Nacute.smcp" horiz-adv-x="645" 
d="M560 0h-82l-306 378v-378h-87v512h82l306 -378v378h87v-512zM337 572h-74l63 114h102z" />
    <glyph glyph-name="Ncaron.smcp" horiz-adv-x="645" 
d="M560 0h-82l-306 378v-378h-87v512h82l306 -378v378h87v-512zM453 686l-86 -114h-94l-86 114h80l53 -76l53 76h80z" />
    <glyph glyph-name="Ncommaaccent.smcp" horiz-adv-x="645" 
d="M560 0h-82l-306 378v-378h-87v512h82l306 -378v378h87v-512zM317 -250l-63 27q37 81 40 152h86q-3 -47 -20.5 -96t-42.5 -83z" />
    <glyph glyph-name="Ntilde.smcp" horiz-adv-x="645" 
d="M560 0h-82l-306 378v-378h-87v512h82l306 -378v378h87v-512zM390 576q-22 0 -77 23q-41 18 -60 18q-17 0 -25 -10t-17 -35l-55 19q13 51 35 71.5t62 20.5q30 0 72 -19q51 -22 62 -22q15 0 23.5 10t17.5 32l54 -23q-19 -47 -38.5 -66t-53.5 -19z" />
    <glyph glyph-name="Oacute.smcp" horiz-adv-x="638" 
d="M319 -10q-122 0 -197.5 76.5t-75.5 189.5t75.5 189.5t197.5 76.5t197.5 -76.5t75.5 -189.5t-75.5 -189.5t-197.5 -76.5zM319 61q84 0 133.5 55.5t49.5 139.5t-49.5 139.5t-133.5 55.5t-133.5 -55.5t-49.5 -139.5t49.5 -139.5t133.5 -55.5zM350 572h-74l63 114h102z" />
    <glyph glyph-name="Obreve.smcp" horiz-adv-x="638" 
d="M319 -10q-122 0 -197.5 76.5t-75.5 189.5t75.5 189.5t197.5 76.5t197.5 -76.5t75.5 -189.5t-75.5 -189.5t-197.5 -76.5zM319 61q84 0 133.5 55.5t49.5 139.5t-49.5 139.5t-133.5 55.5t-133.5 -55.5t-49.5 -139.5t49.5 -139.5t133.5 -55.5zM391 691l60 -17
q-14 -51 -49.5 -76.5t-82.5 -25.5t-82.5 25.5t-49.5 76.5l60 17q17 -63 72 -63t72 63z" />
    <glyph glyph-name="Ocircumflex.smcp" horiz-adv-x="638" 
d="M319 -10q-122 0 -197.5 76.5t-75.5 189.5t75.5 189.5t197.5 76.5t197.5 -76.5t75.5 -189.5t-75.5 -189.5t-197.5 -76.5zM319 61q84 0 133.5 55.5t49.5 139.5t-49.5 139.5t-133.5 55.5t-133.5 -55.5t-49.5 -139.5t49.5 -139.5t133.5 -55.5zM366 686l86 -114h-80l-53 76
l-53 -76h-80l86 114h94z" />
    <glyph glyph-name="Odieresis.smcp" horiz-adv-x="638" 
d="M319 -10q-122 0 -197.5 76.5t-75.5 189.5t75.5 189.5t197.5 76.5t197.5 -76.5t75.5 -189.5t-75.5 -189.5t-197.5 -76.5zM319 61q84 0 133.5 55.5t49.5 139.5t-49.5 139.5t-133.5 55.5t-133.5 -55.5t-49.5 -139.5t49.5 -139.5t133.5 -55.5zM281 627q0 -23 -14.5 -36.5
t-36.5 -13.5t-36.5 13.5t-14.5 36.5q0 22 15 36t36 14t36 -14t15 -36zM458 627q0 -23 -14.5 -36.5t-36.5 -13.5t-36.5 13.5t-14.5 36.5q0 22 15 36t36 14t36 -14t15 -36z" />
    <glyph glyph-name="Ograve.smcp" horiz-adv-x="638" 
d="M319 -10q-122 0 -197.5 76.5t-75.5 189.5t75.5 189.5t197.5 76.5t197.5 -76.5t75.5 -189.5t-75.5 -189.5t-197.5 -76.5zM319 61q84 0 133.5 55.5t49.5 139.5t-49.5 139.5t-133.5 55.5t-133.5 -55.5t-49.5 -139.5t49.5 -139.5t133.5 -55.5zM365 572h-74l-91 114h102z" />
    <glyph glyph-name="Ohungarumlaut.smcp" horiz-adv-x="638" 
d="M319 -10q-122 0 -197.5 76.5t-75.5 189.5t75.5 189.5t197.5 76.5t197.5 -76.5t75.5 -189.5t-75.5 -189.5t-197.5 -76.5zM319 61q84 0 133.5 55.5t49.5 139.5t-49.5 139.5t-133.5 55.5t-133.5 -55.5t-49.5 -139.5t49.5 -139.5t133.5 -55.5zM273 572h-72l50 114h92z
M452 572h-72l50 114h92z" />
    <glyph glyph-name="Omacron.smcp" horiz-adv-x="638" 
d="M319 -10q-122 0 -197.5 76.5t-75.5 189.5t75.5 189.5t197.5 76.5t197.5 -76.5t75.5 -189.5t-75.5 -189.5t-197.5 -76.5zM319 61q84 0 133.5 55.5t49.5 139.5t-49.5 139.5t-133.5 55.5t-133.5 -55.5t-49.5 -139.5t49.5 -139.5t133.5 -55.5zM180 597v68h277v-68h-277z" />
    <glyph glyph-name="Oslash.smcp" horiz-adv-x="642" 
d="M48 -29l78 93q-78 76 -78 192q0 113 75.5 189.5t197.5 76.5q89 0 154 -42l79 94l40 -34l-78 -93q78 -75 78 -191q0 -113 -75.5 -189.5t-197.5 -76.5q-89 0 -154 42l-79 -94zM138 256q0 -76 41 -128l245 292q-43 31 -103 31q-84 0 -133.5 -55.5t-49.5 -139.5zM321 61
q84 0 133.5 55.5t49.5 139.5q0 74 -41 128l-246 -292q40 -31 104 -31z" />
    <glyph glyph-name="Oslashacute.smcp" horiz-adv-x="642" 
d="M48 -29l78 93q-78 76 -78 192q0 113 75.5 189.5t197.5 76.5q89 0 154 -42l79 94l40 -34l-78 -93q78 -75 78 -191q0 -113 -75.5 -189.5t-197.5 -76.5q-89 0 -154 42l-79 -94zM138 256q0 -76 41 -128l245 292q-43 31 -103 31q-84 0 -133.5 -55.5t-49.5 -139.5zM321 61
q84 0 133.5 55.5t49.5 139.5q0 74 -41 128l-246 -292q40 -31 104 -31zM341 572h-74l63 114h102z" />
    <glyph glyph-name="Otilde.smcp" horiz-adv-x="638" 
d="M319 -10q-122 0 -197.5 76.5t-75.5 189.5t75.5 189.5t197.5 76.5t197.5 -76.5t75.5 -189.5t-75.5 -189.5t-197.5 -76.5zM319 61q84 0 133.5 55.5t49.5 139.5t-49.5 139.5t-133.5 55.5t-133.5 -55.5t-49.5 -139.5t49.5 -139.5t133.5 -55.5zM390 576q-22 0 -77 23
q-41 18 -60 18q-17 0 -25 -10t-17 -35l-55 19q13 51 35 71.5t62 20.5q30 0 72 -19q51 -22 62 -22q15 0 23.5 10t17.5 32l54 -23q-19 -47 -38.5 -66t-53.5 -19z" />
    <glyph glyph-name="OE.smcp" horiz-adv-x="836" 
d="M321 522q65 0 120 -10h327v-72h-237v-150h228v-72h-228v-146h240v-72h-330q-55 -10 -120 -10q-129 0 -203 75t-74 191t74 191t203 75zM441 74v364q-36 13 -110 13q-99 0 -148 -55.5t-49 -139.5t49 -139.5t148 -55.5q74 0 110 13z" />
    <glyph glyph-name="Racute.smcp" horiz-adv-x="541" 
d="M463 360q0 -57 -37 -96t-100 -57l194 -207h-114l-174 194h-57v-194h-90v512h174q88 0 146 -39.5t58 -112.5zM374 357q0 40 -34 61.5t-84 21.5h-81v-175h55q63 0 103.5 23t40.5 69zM272 572h-74l63 114h102z" />
    <glyph glyph-name="Rcaron.smcp" horiz-adv-x="541" 
d="M463 360q0 -57 -37 -96t-100 -57l194 -207h-114l-174 194h-57v-194h-90v512h174q88 0 146 -39.5t58 -112.5zM374 357q0 40 -34 61.5t-84 21.5h-81v-175h55q63 0 103.5 23t40.5 69zM391 686l-86 -114h-94l-86 114h80l53 -76l53 76h80z" />
    <glyph glyph-name="Rcommaaccent.smcp" horiz-adv-x="541" 
d="M463 360q0 -57 -37 -96t-100 -57l194 -207h-114l-174 194h-57v-194h-90v512h174q88 0 146 -39.5t58 -112.5zM374 357q0 40 -34 61.5t-84 21.5h-81v-175h55q63 0 103.5 23t40.5 69zM259 -250l-63 27q37 81 40 152h86q-3 -47 -20.5 -96t-42.5 -83z" />
    <glyph glyph-name="Sacute.smcp" horiz-adv-x="464" 
d="M414 144q0 -67 -55.5 -110.5t-142.5 -43.5q-85 0 -161 33l17 72q75 -33 143 -33q48 0 79.5 19t31.5 54q0 15 -7 28t-15 21.5t-26.5 18t-29.5 13.5t-36 14q-37 14 -59 24.5t-46 28.5t-35 43.5t-11 59.5q0 64 49 100t130 36q83 0 149 -34l-17 -70q-68 32 -133 32
q-90 0 -90 -61q0 -31 21 -47t68 -33q31 -11 46.5 -17.5t45 -22t44.5 -31t27.5 -40.5t12.5 -54zM248 572h-74l63 114h102z" />
    <glyph glyph-name="Scaron.smcp" horiz-adv-x="464" 
d="M414 144q0 -67 -55.5 -110.5t-142.5 -43.5q-85 0 -161 33l17 72q75 -33 143 -33q48 0 79.5 19t31.5 54q0 15 -7 28t-15 21.5t-26.5 18t-29.5 13.5t-36 14q-37 14 -59 24.5t-46 28.5t-35 43.5t-11 59.5q0 64 49 100t130 36q83 0 149 -34l-17 -70q-68 32 -133 32
q-90 0 -90 -61q0 -31 21 -47t68 -33q31 -11 46.5 -17.5t45 -22t44.5 -31t27.5 -40.5t12.5 -54zM359 686l-86 -114h-94l-86 114h80l53 -76l53 76h80z" />
    <glyph glyph-name="Scedilla.smcp" horiz-adv-x="464" 
d="M321 -119q0 -43 -37.5 -65t-106.5 -32l-13 54q77 11 77 42q0 13 -13 21.5t-26.5 12t-38.5 8.5l28 69q-73 4 -136 32l17 72q75 -33 143 -33q48 0 79.5 19t31.5 54q0 15 -7 28t-15 21.5t-26.5 18t-29.5 13.5t-36 14q-37 14 -59 24.5t-46 28.5t-35 43.5t-11 59.5
q0 64 49 100t130 36q83 0 149 -34l-17 -70q-68 32 -133 32q-90 0 -90 -61q0 -31 21 -47t68 -33q31 -11 46.5 -17.5t45 -22t44.5 -31t27.5 -40.5t12.5 -54q0 -60 -45.5 -102t-119.5 -50l-13 -36q85 -18 85 -75z" />
    <glyph glyph-name="Scircumflex.smcp" horiz-adv-x="464" 
d="M414 144q0 -67 -55.5 -110.5t-142.5 -43.5q-85 0 -161 33l17 72q75 -33 143 -33q48 0 79.5 19t31.5 54q0 15 -7 28t-15 21.5t-26.5 18t-29.5 13.5t-36 14q-37 14 -59 24.5t-46 28.5t-35 43.5t-11 59.5q0 64 49 100t130 36q83 0 149 -34l-17 -70q-68 32 -133 32
q-90 0 -90 -61q0 -31 21 -47t68 -33q31 -11 46.5 -17.5t45 -22t44.5 -31t27.5 -40.5t12.5 -54zM279 686l86 -114h-80l-53 76l-53 -76h-80l86 114h94z" />
    <glyph glyph-name="Scommaaccent.smcp" horiz-adv-x="464" 
d="M414 144q0 -67 -55.5 -110.5t-142.5 -43.5q-85 0 -161 33l17 72q75 -33 143 -33q48 0 79.5 19t31.5 54q0 15 -7 28t-15 21.5t-26.5 18t-29.5 13.5t-36 14q-37 14 -59 24.5t-46 28.5t-35 43.5t-11 59.5q0 64 49 100t130 36q83 0 149 -34l-17 -70q-68 32 -133 32
q-90 0 -90 -61q0 -31 21 -47t68 -33q31 -11 46.5 -17.5t45 -22t44.5 -31t27.5 -40.5t12.5 -54zM214 -250l-63 27q37 81 40 152h86q-3 -47 -20.5 -96t-42.5 -83z" />
    <glyph glyph-name="Tbar.smcp" horiz-adv-x="478" 
d="M395 203h-111v-203h-90v203h-111v67h111v169h-160v73h410v-73h-160v-169h111v-67z" />
    <glyph glyph-name="Tcaron.smcp" horiz-adv-x="478" 
d="M34 512h410v-73h-160v-439h-90v439h-160v73zM372 686l-86 -114h-94l-86 114h80l53 -76l53 76h80z" />
    <glyph glyph-name="Tcommaaccent.smcp" horiz-adv-x="478" 
d="M34 512h410v-73h-160v-439h-90v439h-160v73zM219 -250l-63 27q37 81 40 152h86q-3 -47 -20.5 -96t-42.5 -83z" />
    <glyph glyph-name="Thorn.smcp" horiz-adv-x="486" 
d="M454 268q0 -82 -66 -126t-172 -44h-41v-98h-90v512h90v-91h68q97 0 154 -41t57 -112zM364 264q0 43 -34.5 64.5t-90.5 21.5h-64v-181h46q66 0 104.5 24t38.5 71z" />
    <glyph glyph-name="Uacute.smcp" horiz-adv-x="620" 
d="M448 191v321h90v-316q0 -90 -61.5 -148t-166.5 -58t-166.5 58t-61.5 148v316h90v-321q0 -58 36.5 -93t101.5 -35t101.5 35t36.5 93zM336 572h-74l63 114h102z" />
    <glyph glyph-name="Ubreve.smcp" horiz-adv-x="620" 
d="M448 191v321h90v-316q0 -90 -61.5 -148t-166.5 -58t-166.5 58t-61.5 148v316h90v-321q0 -58 36.5 -93t101.5 -35t101.5 35t36.5 93zM382 691l60 -17q-14 -51 -49.5 -76.5t-82.5 -25.5t-82.5 25.5t-49.5 76.5l60 17q17 -63 72 -63t72 63z" />
    <glyph glyph-name="Ucircumflex.smcp" horiz-adv-x="620" 
d="M448 191v321h90v-316q0 -90 -61.5 -148t-166.5 -58t-166.5 58t-61.5 148v316h90v-321q0 -58 36.5 -93t101.5 -35t101.5 35t36.5 93zM357 686l86 -114h-80l-53 76l-53 -76h-80l86 114h94z" />
    <glyph glyph-name="Udieresis.smcp" horiz-adv-x="620" 
d="M448 191v321h90v-316q0 -90 -61.5 -148t-166.5 -58t-166.5 58t-61.5 148v316h90v-321q0 -58 36.5 -93t101.5 -35t101.5 35t36.5 93zM272 627q0 -23 -14.5 -36.5t-36.5 -13.5t-36.5 13.5t-14.5 36.5q0 22 15 36t36 14t36 -14t15 -36zM449 627q0 -23 -14.5 -36.5
t-36.5 -13.5t-36.5 13.5t-14.5 36.5q0 22 15 36t36 14t36 -14t15 -36z" />
    <glyph glyph-name="Ugrave.smcp" horiz-adv-x="620" 
d="M448 191v321h90v-316q0 -90 -61.5 -148t-166.5 -58t-166.5 58t-61.5 148v316h90v-321q0 -58 36.5 -93t101.5 -35t101.5 35t36.5 93zM365 572h-74l-91 114h102z" />
    <glyph glyph-name="Uhungarumlaut.smcp" horiz-adv-x="620" 
d="M448 191v321h90v-316q0 -90 -61.5 -148t-166.5 -58t-166.5 58t-61.5 148v316h90v-321q0 -58 36.5 -93t101.5 -35t101.5 35t36.5 93zM252 572h-72l50 114h92zM431 572h-72l50 114h92z" />
    <glyph glyph-name="Umacron.smcp" horiz-adv-x="620" 
d="M448 191v321h90v-316q0 -90 -61.5 -148t-166.5 -58t-166.5 58t-61.5 148v316h90v-321q0 -58 36.5 -93t101.5 -35t101.5 35t36.5 93zM171 597v68h277v-68h-277z" />
    <glyph glyph-name="Uogonek.smcp" horiz-adv-x="620" 
d="M427 -149l9 -50q-32 -17 -78 -17q-44 0 -71.5 24.5t-27.5 65.5q0 67 84 118q-22 -2 -33 -2q-105 0 -166.5 58t-61.5 148v316h90v-321q0 -58 36.5 -93t101.5 -35t101.5 35t36.5 93v321h90v-316q0 -99 -81 -165q-3 -3 -23 -19t-25 -20.5t-20.5 -18.5t-21 -21.5t-14 -20
t-11.5 -23.5t-3 -23q0 -43 43 -43q23 0 45 9z" />
    <glyph glyph-name="Uring.smcp" horiz-adv-x="620" 
d="M448 191v321h90v-316q0 -90 -61.5 -148t-166.5 -58t-166.5 58t-61.5 148v316h90v-321q0 -58 36.5 -93t101.5 -35t101.5 35t36.5 93zM310 739q41 0 64.5 -25t23.5 -59t-23.5 -58.5t-64.5 -24.5t-64.5 24.5t-23.5 58.5t23.5 59t64.5 25zM351 655q0 19 -11 31.5t-30 12.5
t-30 -12.5t-11 -31.5t11 -31t30 -12t30 12t11 31z" />
    <glyph glyph-name="Utilde.smcp" horiz-adv-x="620" 
d="M448 191v321h90v-316q0 -90 -61.5 -148t-166.5 -58t-166.5 58t-61.5 148v316h90v-321q0 -58 36.5 -93t101.5 -35t101.5 35t36.5 93zM381 576q-22 0 -77 23q-41 18 -60 18q-17 0 -25 -10t-17 -35l-55 19q13 51 35 71.5t62 20.5q30 0 72 -19q51 -22 62 -22q15 0 23.5 10
t17.5 32l54 -23q-19 -47 -38.5 -66t-53.5 -19z" />
    <glyph glyph-name="Wacute.smcp" horiz-adv-x="842" 
d="M471 512l138 -400l110 400h88l-153 -512h-85l-148 438l-148 -438h-85l-153 512h88l110 -400l138 400h100zM461 572h-74l63 114h102z" />
    <glyph glyph-name="Wcircumflex.smcp" horiz-adv-x="842" 
d="M471 512l138 -400l110 400h88l-153 -512h-85l-148 438l-148 -438h-85l-153 512h88l110 -400l138 400h100zM468 686l86 -114h-80l-53 76l-53 -76h-80l86 114h94z" />
    <glyph glyph-name="Wdieresis.smcp" horiz-adv-x="842" 
d="M471 512l138 -400l110 400h88l-153 -512h-85l-148 438l-148 -438h-85l-153 512h88l110 -400l138 400h100zM383 627q0 -23 -14.5 -36.5t-36.5 -13.5t-36.5 13.5t-14.5 36.5q0 22 15 36t36 14t36 -14t15 -36zM560 627q0 -23 -14.5 -36.5t-36.5 -13.5t-36.5 13.5t-14.5 36.5
q0 22 15 36t36 14t36 -14t15 -36z" />
    <glyph glyph-name="Wgrave.smcp" horiz-adv-x="842" 
d="M471 512l138 -400l110 400h88l-153 -512h-85l-148 438l-148 -438h-85l-153 512h88l110 -400l138 400h100zM453 572h-74l-91 114h102z" />
    <glyph glyph-name="Yacute.smcp" horiz-adv-x="502" 
d="M206 0v195l-193 317h100l138 -240l138 240h100l-193 -317v-195h-90zM288 572h-74l63 114h102z" />
    <glyph glyph-name="Ycircumflex.smcp" horiz-adv-x="502" 
d="M206 0v195l-193 317h100l138 -240l138 240h100l-193 -317v-195h-90zM298 686l86 -114h-80l-53 76l-53 -76h-80l86 114h94z" />
    <glyph glyph-name="Ydieresis.smcp" horiz-adv-x="502" 
d="M206 0v195l-193 317h100l138 -240l138 240h100l-193 -317v-195h-90zM214 627q0 -23 -14.5 -36.5t-36.5 -13.5t-36.5 13.5t-14.5 36.5q0 22 15 36t36 14t36 -14t15 -36zM391 627q0 -23 -14.5 -36.5t-36.5 -13.5t-36.5 13.5t-14.5 36.5q0 22 15 36t36 14t36 -14t15 -36z
" />
    <glyph glyph-name="Ygrave.smcp" horiz-adv-x="502" 
d="M206 0v195l-193 317h100l138 -240l138 240h100l-193 -317v-195h-90zM297 572h-74l-91 114h102z" />
    <glyph glyph-name="Zacute.smcp" horiz-adv-x="514" 
d="M73 439v73h374v-69l-281 -370h292v-73h-393v69l281 370h-273zM284 572h-74l63 114h102z" />
    <glyph glyph-name="Zcaron.smcp" horiz-adv-x="514" 
d="M73 439v73h374v-69l-281 -370h292v-73h-393v69l281 370h-273zM399 686l-86 -114h-94l-86 114h80l53 -76l53 76h80z" />
    <glyph glyph-name="Zdotaccent.smcp" horiz-adv-x="514" 
d="M73 439v73h374v-69l-281 -370h292v-73h-393v69l281 370h-273zM202 633q0 24 16 40.5t41 16.5t41 -16.5t16 -40.5t-16 -40.5t-41 -16.5t-41 16.5t-16 40.5z" />
    </font>
</defs>
</svg>
