<?xml version="1.0" encoding="utf-8"?>
<!-- Generator: Adobe Illustrator 16.0.1, SVG Export Plug-In . SVG Version: 6.00 Build 0)  -->
<!DOCTYPE svg PUBLIC "-//W3C//DTD SVG 1.1//EN" "http://www.w3.org/Graphics/SVG/1.1/DTD/svg11.dtd">
<svg version="1.1" id="Слой_1" xmlns="http://www.w3.org/2000/svg" xmlns:xlink="http://www.w3.org/1999/xlink" x="0px" y="0px"
	 width="325.058px" height="203.087px" viewBox="0 0 325.058 203.087" enable-background="new 0 0 325.058 203.087"
	 xml:space="preserve">
<path fill-rule="evenodd" clip-rule="evenodd" fill="#D6AA69" d="M162.988,0.002c47.825-0.001,95.65-0.005,143.474,0.001
	c13.169,0.001,18.591,5.343,18.592,18.328c0.007,55.49,0.006,110.98,0.001,166.471c-0.001,12.779-5.46,18.28-18.125,18.281
	c-96.315,0.004-192.632,0.005-288.949,0.003c-12.204-0.001-17.976-5.804-17.977-18.087C-0.001,129.342-0.001,73.686,0.005,18.028
	C0.007,5.764,5.742,0.012,18.014,0.009C66.339-0.004,114.664,0.004,162.988,0.002z"/>
<path fill-rule="evenodd" clip-rule="evenodd" fill="#FFFFFF" d="M313.674,12.539c-11.281,7.054-22.322,14.447-33.213,22.071
	c-38.062,26.645-75.324,54.383-112.52,82.208c-4.278,3.2-6.847,3.003-11.005-0.068c-44.055-32.547-87.861-65.445-133.12-96.329
	c-3.298-2.251-6.756-4.267-10.109-6.438c-0.766-0.495-2.175-0.67-1.934-1.882c0.249-1.246,1.536-1.721,2.699-1.896
	c1.144-0.173,2.326-0.113,3.491-0.113c96.308-0.004,192.617-0.007,288.926,0.011C309.303,10.104,312.004,9.476,313.674,12.539z"/>
<path fill-rule="evenodd" clip-rule="evenodd" fill="#FFFFFF" d="M306.024,192.859c-95.888,0-190.55,0-286.764,0
	c7.081-5.049,13.055-9.333,19.055-13.581c30.426-21.543,60.891-43.032,91.241-64.683c2.927-2.088,4.843-2.215,7.697,0.066
	c5.974,4.777,12.418,8.966,18.401,13.731c2.908,2.317,4.981,2.829,6.989-1.374c2.205,4.44,4.358,3.175,7.096,1.013
	c6.268-4.946,12.824-9.525,19.189-14.353c1.83-1.389,3.184-1.602,5.238-0.14C231.052,139.778,268.003,165.926,306.024,192.859z"/>
<path fill-rule="evenodd" clip-rule="evenodd" fill="#FFFFFF" d="M10.393,186.322c0-54.467,0-108.12,0-162.804
	c9.129,6.269,17.69,11.904,25.996,17.896c28.073,20.249,56.041,40.645,84.092,60.924c2.91,2.104,4.303,3.424,0.335,6.213
	c-35.533,24.98-70.942,50.137-106.396,75.231C13.351,184.54,12.202,185.187,10.393,186.322z"/>
<path fill-rule="evenodd" clip-rule="evenodd" fill="#FFFFFF" d="M314.568,186.42c-7.609-5.378-14.752-10.416-21.885-15.471
	c-29.463-20.882-58.896-41.808-88.427-62.597c-3.05-2.147-3.864-3.241-0.323-5.815c35.133-25.54,70.014-51.428,105.9-75.915
	c1.342-0.916,2.77-1.707,4.734-2.909C314.568,78.093,314.568,131.844,314.568,186.42z"/>
</svg>
