<?xml version="1.0" encoding="utf-8"?>
<!-- Generator: Adobe Illustrator 16.0.1, SVG Export Plug-In . SVG Version: 6.00 Build 0)  -->
<!DOCTYPE svg PUBLIC "-//W3C//DTD SVG 1.1//EN" "http://www.w3.org/Graphics/SVG/1.1/DTD/svg11.dtd">
<svg version="1.1" id="Слой_1" xmlns="http://www.w3.org/2000/svg" xmlns:xlink="http://www.w3.org/1999/xlink" x="0px" y="0px"
	 width="229.535px" height="330px" viewBox="0 0 229.535 330" enable-background="new 0 0 229.535 330" xml:space="preserve">
<path fill-rule="evenodd" clip-rule="evenodd" fill="#D6AA69" d="M158.535,330c-6.773-2.088-13.895-2.767-20.564-5.348
	c-18.162-7.03-31.864-18.729-42.113-35.6C62.634,234.367,35.003,176.915,9.512,118.354c-2.784-6.395-5.261-12.923-7.973-19.35
	c-0.796-1.887-1.199-3.785-1.16-5.806c-0.744-4.943-0.125-9.918-0.329-14.866c-0.344-17.377,7.365-31.828,16.848-45.539
	c8.467-12.241,19.427-21.786,32.399-29.114C53.172,1.49,57.357,0.889,61.535,0c4,0,8,0,12,0
	c14.45,5.129,23.696,16.056,31.369,28.556C115.002,45.01,124.869,61.637,128.9,80.86c1.441,6.873,1.553,13.883-0.284,20.768
	c-3.818,14.315-17.431,23.46-32.177,21.688c-0.826-0.099-1.67-0.068-2.487-0.208c-4.038-0.693-4.901,0.647-3.679,4.597
	c7.37,23.815,18.741,45.791,30.733,67.483c4.268,7.721,9.084,15.089,14.992,21.718c2.545,2.856,4.143,3.203,6.813-0.152
	c2.76-3.469,6.336-6.378,9.873-9.122c12.699-9.853,28.191-8.868,40.414,2.313c7.861,7.191,13.509,15.951,18.283,25.364
	c7.738,15.258,14.236,30.982,18.154,47.691c0,5,0,10,0,15c-1.271,12.285-9.044,19.074-19.589,23.917
	c-10.032,4.607-20.456,7.271-31.411,8.083C171.869,330,165.201,330,158.535,330z"/>
<path fill-rule="evenodd" clip-rule="evenodd" fill="#FFFFFF" d="M10.108,84.307c3.066-32.534,18.865-56.716,48.04-71.906
	c9.109-4.742,17.085-1.715,24.185,4.727c9.028,8.191,15.174,18.501,20.942,29.027c6.795,12.399,13.451,24.861,15.883,39.087
	c2.225,13.023-2.582,23.2-13.232,26.966c-4.872,1.723-9.921,1.119-14.82,0.341c-9.611-1.525-13.964,2.675-12.078,12.221
	c2.731,13.827,8.452,26.585,14.366,39.246c8.737,18.704,17.678,37.308,30.068,53.981c2.796,3.762,5.963,7.212,9.715,10.004
	c6.098,4.538,10.605,3.741,15.409-2.134c3.487-4.264,7.476-8.072,12.021-11.212c7.535-5.205,15.133-4.807,23.11,1.053
	c6.028,4.428,10.494,10.234,14.065,16.674c9.541,17.208,18.172,34.791,21.212,54.549c1.641,10.661-2.364,18.68-11.868,23.421
	c-31.285,15.612-68.129,11.233-90.947-11.322c-8.338-8.242-13.537-18.929-19.413-28.949C64.56,215.159,37.292,157.798,12.731,99.11
	C10.754,94.386,10.015,89.546,10.108,84.307z"/>
</svg>
