<?xml version="1.0" encoding="utf-8"?>
<!-- Generator: Adobe Illustrator 16.0.1, SVG Export Plug-In . SVG Version: 6.00 Build 0)  -->
<!DOCTYPE svg PUBLIC "-//W3C//DTD SVG 1.1//EN" "http://www.w3.org/Graphics/SVG/1.1/DTD/svg11.dtd">
<svg version="1.1" id="Слой_1" xmlns="http://www.w3.org/2000/svg" xmlns:xlink="http://www.w3.org/1999/xlink" x="0px" y="0px"
	 width="223.854px" height="324.813px" viewBox="0 0 223.854 324.813" enable-background="new 0 0 223.854 324.813"
	 xml:space="preserve">
<path fill-rule="evenodd" clip-rule="evenodd" fill="#D6AA69" d="M223.854,110.823c-0.463,20.204-5.531,39.466-12.167,58.338
	c-16.333,46.445-38.381,89.934-67.975,129.421c-6.104,8.144-12.885,15.725-21.125,21.828c-7.873,5.83-13.498,5.881-21.348,0.081
	c-9.899-7.315-17.652-16.714-24.688-26.646C43.757,247.549,18.641,197.53,4.333,142.434C-5.213,105.67,0.768,71.676,24.736,41.8
	c19.913-24.82,46.061-38.789,77.942-41.375c34.803-2.823,64.686,8.461,89.119,33.076C212.868,54.729,223.314,80.828,223.854,110.823
	z"/>
<path fill-rule="evenodd" clip-rule="evenodd" fill="#FFFFFF" d="M112.277,10.553c46.319-1.146,91.92,33.277,100.269,85.544
	c3.035,19-0.28,37.458-5.508,55.641c-11.536,40.132-30.005,77.115-51.767,112.544c-9.42,15.334-19.417,30.288-32.094,43.225
	c-1.165,1.188-2.354,2.371-3.648,3.412c-6.273,5.043-8.988,4.985-15.313-0.211c-8.593-7.059-15.203-15.896-21.411-24.936
	C53.419,242.988,29.463,197.52,15.58,147.204c-6.031-21.859-8.146-43.985-0.73-65.834c13.098-38.589,40.014-61.849,80.024-69.845
	c2.117-0.424,4.266-0.841,6.413-0.931C104.944,10.442,108.613,10.553,112.277,10.553z"/>
<path fill-rule="evenodd" clip-rule="evenodd" fill="#D6AA69" d="M111.779,60.553c24.91-0.047,45.813,20.856,45.852,45.855
	c0.039,24.923-20.955,46-45.785,45.97c-25.098-0.031-46.006-20.759-46.063-45.663C65.726,81.356,86.406,60.602,111.779,60.553z"/>
<path fill-rule="evenodd" clip-rule="evenodd" fill="#FFFFFF" d="M111.871,70.675c19.326,0.037,35.617,16.413,35.638,35.822
	c0.021,19.085-16.264,35.581-35.246,35.707c-19.787,0.131-36.276-16.003-36.362-35.578C75.815,86.993,92.18,70.637,111.871,70.675z"
	/>
</svg>
